<svg width="184" height="184" viewBox="0 0 184 184" fill="none" xmlns="http://www.w3.org/2000/svg">
<mask id="mask0_4810_2180" style="mask-type:alpha" maskUnits="userSpaceOnUse" x="0" y="0" width="184" height="184">
<ellipse cx="92.2252" cy="92.3984" rx="91.567" ry="91.5671" fill="white"/>
</mask>
<g mask="url(#mask0_4810_2180)">
<rect x="-4.75195" y="-0.972412" width="188.78" height="188.78" fill="url(#paint0_linear_4810_2180)"/>
<g filter="url(#filter0_i_4810_2180)">
<path fill-rule="evenodd" clip-rule="evenodd" d="M159.015 55.4526C159.276 54.3462 159.123 53.7515 158.935 53.4252C158.747 53.0989 158.308 52.6692 157.219 52.3425C156.115 52.0114 154.54 51.8528 152.451 51.956C148.28 52.1621 142.595 53.3801 135.736 55.5756C122.057 59.9544 104.213 68.0572 85.487 78.8688C66.7607 89.6805 50.8216 101.082 40.19 110.739C34.8593 115.581 30.9617 119.896 28.6978 123.405C27.5639 125.163 26.9138 126.606 26.6486 127.727C26.3869 128.834 26.5398 129.429 26.7282 129.755C26.9166 130.081 27.3551 130.511 28.4442 130.838C29.5481 131.169 31.123 131.327 33.2121 131.224C37.3829 131.018 43.0687 129.8 49.9272 127.604C63.6061 123.226 81.4498 115.123 100.176 104.311C118.903 93.4996 134.842 82.0978 145.473 72.4409C150.804 67.599 154.702 63.2841 156.965 59.775C158.099 58.0174 158.749 56.5742 159.015 55.4526ZM101.379 106.394C139.037 84.6519 165.738 60.3987 161.018 52.2228C156.297 44.0468 121.943 55.0442 84.2846 76.7862C46.6265 98.5281 19.9251 122.781 24.6455 130.957C29.3659 139.133 63.7205 128.136 101.379 106.394Z" fill="white"/>
<path fill-rule="evenodd" clip-rule="evenodd" d="M94.6272 16.2052C93.7998 15.4254 93.2084 15.2604 92.8316 15.2604C92.4548 15.2604 91.8634 15.4254 91.036 16.2052C90.1973 16.9957 89.2724 18.2803 88.3173 20.1411C86.4103 23.8562 84.6223 29.3892 83.0944 36.4266C80.0471 50.4623 78.1424 69.9668 78.1424 91.5901C78.1424 113.213 80.0471 132.718 83.0944 146.754C84.6223 153.791 86.4103 159.324 88.3173 163.039C89.2724 164.9 90.1973 166.185 91.036 166.975C91.8634 167.755 92.4548 167.92 92.8316 167.92C93.2084 167.92 93.7998 167.755 94.6272 166.975C95.4659 166.185 96.3907 164.9 97.3459 163.039C99.2529 159.324 101.041 153.791 102.569 146.754C105.616 132.718 107.521 113.213 107.521 91.5901C107.521 69.9668 105.616 50.4623 102.569 36.4266C101.041 29.3892 99.2529 23.8562 97.3459 20.1411C96.3907 18.2803 95.4659 16.9957 94.6272 16.2052ZM109.926 91.5901C109.926 48.1063 102.272 12.8556 92.8316 12.8556C83.3908 12.8556 75.7376 48.1063 75.7376 91.5901C75.7376 135.074 83.3908 170.325 92.8316 170.325C102.272 170.325 109.926 135.074 109.926 91.5901Z" fill="white"/>
<path fill-rule="evenodd" clip-rule="evenodd" d="M28.5765 52.1265C27.4864 52.4495 27.0464 52.8777 26.8569 53.2034C26.6674 53.5291 26.5126 54.1232 26.7705 55.2306C27.032 56.353 27.6772 57.7984 28.8052 59.5598C31.0572 63.0764 34.9404 67.4045 40.2547 72.2643C50.8538 81.9569 66.7545 93.4121 85.4444 104.287C104.134 115.161 121.951 123.324 135.615 127.749C142.466 129.967 148.148 131.204 152.318 131.424C154.406 131.535 155.982 131.381 157.087 131.054C158.177 130.731 158.617 130.303 158.806 129.977C158.996 129.651 159.151 129.057 158.893 127.95C158.631 126.827 157.986 125.382 156.858 123.621C154.606 120.104 150.723 115.776 145.409 110.916C134.81 101.224 118.909 89.7684 100.219 78.8938C81.5291 68.0192 63.7127 59.8566 50.0486 55.4318C43.1974 53.2132 37.5159 51.9761 33.3457 51.756C31.257 51.6458 29.6816 51.7992 28.5765 52.1265ZM101.428 76.8152C63.8436 54.9468 29.5261 43.8339 24.7783 51.994C20.0304 60.154 46.6501 84.4969 84.235 106.365C121.82 128.234 156.137 139.347 160.885 131.187C165.633 123.026 139.013 98.6836 101.428 76.8152Z" fill="white"/>
<path d="M137.461 107.242C137.461 104.254 139.884 101.831 142.872 101.831C145.86 101.831 148.283 104.254 148.283 107.242C148.283 110.231 145.86 112.653 142.872 112.653C139.884 112.653 137.461 110.231 137.461 107.242Z" fill="white"/>
<path d="M98.9837 39.9065C98.9837 36.9182 101.406 34.4956 104.395 34.4956C107.383 34.4956 109.806 36.9182 109.806 39.9065C109.806 42.8949 107.383 45.3174 104.395 45.3174C101.406 45.3174 98.9837 42.8949 98.9837 39.9065Z" fill="white"/>
<path d="M47.8808 127.082C47.8808 124.094 50.3033 121.671 53.2917 121.671C56.28 121.671 58.7026 124.094 58.7026 127.082C58.7026 130.07 56.28 132.493 53.2917 132.493C50.3033 132.493 47.8808 130.07 47.8808 127.082Z" fill="white"/>
</g>
<g filter="url(#filter1_i_4810_2180)">
<circle cx="92.0411" cy="91.6141" r="10.2206" transform="rotate(-180 92.0411 91.6141)" fill="#FEFEFF"/>
</g>
</g>
<defs>
<filter id="filter0_i_4810_2180" x="24.1055" y="12.8556" width="137.453" height="158.07" filterUnits="userSpaceOnUse" color-interpolation-filters="sRGB">
<feFlood flood-opacity="0" result="BackgroundImageFix"/>
<feBlend mode="normal" in="SourceGraphic" in2="BackgroundImageFix" result="shape"/>
<feColorMatrix in="SourceAlpha" type="matrix" values="0 0 0 0 0 0 0 0 0 0 0 0 0 0 0 0 0 0 127 0" result="hardAlpha"/>
<feOffset dy="0.601211"/>
<feGaussianBlur stdDeviation="0.601211"/>
<feComposite in2="hardAlpha" operator="arithmetic" k2="-1" k3="1"/>
<feColorMatrix type="matrix" values="0 0 0 0 0.527431 0 0 0 0 0.637866 0 0 0 0 0.816667 0 0 0 1 0"/>
<feBlend mode="normal" in2="shape" result="effect1_innerShadow_4810_2180"/>
</filter>
<filter id="filter1_i_4810_2180" x="80.6179" y="80.1911" width="21.6438" height="21.6436" filterUnits="userSpaceOnUse" color-interpolation-filters="sRGB">
<feFlood flood-opacity="0" result="BackgroundImageFix"/>
<feBlend mode="normal" in="SourceGraphic" in2="BackgroundImageFix" result="shape"/>
<feColorMatrix in="SourceAlpha" type="matrix" values="0 0 0 0 0 0 0 0 0 0 0 0 0 0 0 0 0 0 127 0" result="hardAlpha"/>
<feOffset dx="-1.20242" dy="-1.20242"/>
<feGaussianBlur stdDeviation="3.00606"/>
<feComposite in2="hardAlpha" operator="arithmetic" k2="-1" k3="1"/>
<feColorMatrix type="matrix" values="0 0 0 0 0.627451 0 0 0 0 0.713726 0 0 0 0 0.854902 0 0 0 1 0"/>
<feBlend mode="normal" in2="shape" result="effect1_innerShadow_4810_2180"/>
</filter>
<linearGradient id="paint0_linear_4810_2180" x1="-7.75801" y1="-0.972412" x2="89.6382" y2="187.808" gradientUnits="userSpaceOnUse">
<stop offset="0.271399" stop-color="#FBFBFD"/>
<stop offset="0.717256" stop-color="#D6D7F1"/>
<stop offset="1" stop-color="#B6CBED"/>
</linearGradient>
</defs>
</svg>
