<svg width="165" height="166" viewBox="0 0 165 166" fill="none" xmlns="http://www.w3.org/2000/svg">
<mask id="mask0_4810_2258" style="mask-type:alpha" maskUnits="userSpaceOnUse" x="39" y="40" width="87" height="87">
<path d="M123.772 94.4321C129.894 71.5832 116.335 48.0974 93.4859 41.975C70.637 35.8527 47.1512 49.4122 41.0288 72.2611C34.9065 95.11 48.466 118.596 71.3149 124.718C94.1638 130.841 117.65 117.281 123.772 94.4321Z" fill="url(#paint0_radial_4810_2258)"/>
</mask>
<g mask="url(#mask0_4810_2258)">
<path d="M129.778 94.431C135.9 71.5821 122.341 48.0963 99.4918 41.9739C76.6429 35.8516 53.157 49.4111 47.0347 72.26C40.9124 95.1089 54.4719 118.595 77.3208 124.717C100.17 130.839 123.656 117.28 129.778 94.431Z" fill="url(#paint1_radial_4810_2258)"/>
<path opacity="0.6" d="M98.3989 41.6603C121.299 47.3084 135.422 70.4041 130.186 93.3169C124.538 116.217 101.442 130.34 78.5293 125.104C55.6291 119.456 41.5057 96.3601 46.7422 73.4473C52.403 50.1355 75.4987 36.0122 98.3989 41.6603Z" fill="url(#paint2_radial_4810_2258)"/>
<path opacity="0.79" d="M55.0447 114.666C37.1026 95.9641 37.5632 66.2208 55.8907 48.0251C74.5929 30.083 104.336 30.5435 122.532 48.871C140.474 67.5733 140.014 97.3166 121.686 115.512C102.73 133.829 72.9868 133.369 55.0447 114.666Z" fill="url(#paint3_radial_4810_2258)"/>
<g filter="url(#filter0_f_4810_2258)">
<path d="M66.5871 61.9447C65.81 65.9676 66.9984 70.5172 70.9077 72.7736C72.236 73.4317 73.2079 74.2966 74.8925 74.748C76.0156 75.0489 77.2142 75.0678 78.4129 75.0868C79.8923 75.1809 81.242 74.6359 82.5918 74.0909C82.2354 74.2977 82.2354 74.2977 81.8791 74.5044C83.9415 73.5459 86.2091 72.9446 87.8611 71.2717C89.4375 69.8807 90.2471 67.9821 90.776 66.0083C92.6435 60.1619 88.5933 53.9388 82.978 52.4342C76.0343 50.2714 67.7848 54.1055 66.5871 61.9447Z" fill="white"/>
</g>
</g>
<defs>
<filter id="filter0_f_4810_2258" x="55.9464" y="41.422" width="45.7049" height="44.0904" filterUnits="userSpaceOnUse" color-interpolation-filters="sRGB">
<feFlood flood-opacity="0" result="BackgroundImageFix"/>
<feBlend mode="normal" in="SourceGraphic" in2="BackgroundImageFix" result="shape"/>
<feGaussianBlur stdDeviation="5.20748" result="effect1_foregroundBlur_4810_2258"/>
</filter>
<radialGradient id="paint0_radial_4810_2258" cx="0" cy="0" r="1" gradientUnits="userSpaceOnUse" gradientTransform="translate(66.2185 62.088) rotate(12.9328) scale(93.4084 77.5337)">
<stop offset="0.0001" stop-color="#E8EFFF"/>
<stop offset="0.317708" stop-color="#EEE9FF"/>
<stop offset="0.484375" stop-color="#D8E0F4"/>
<stop offset="0.635417" stop-color="#BFC8DB"/>
<stop offset="1" stop-color="#BCC1CB"/>
</radialGradient>
<radialGradient id="paint1_radial_4810_2258" cx="0" cy="0" r="1" gradientUnits="userSpaceOnUse" gradientTransform="translate(72.2243 62.0869) rotate(12.9328) scale(93.4084 77.5337)">
<stop offset="0.0001" stop-color="#E8EFFF"/>
<stop offset="0.317708" stop-color="#ECEBF1"/>
<stop offset="0.484375" stop-color="#D8E0F4"/>
<stop offset="0.635417" stop-color="#BFC8DB"/>
<stop offset="1" stop-color="#BCC1CB"/>
</radialGradient>
<radialGradient id="paint2_radial_4810_2258" cx="0" cy="0" r="1" gradientUnits="userSpaceOnUse" gradientTransform="translate(98.0872 84.3413) rotate(-76.5793) scale(59.29)">
<stop offset="0.5433" stop-color="white" stop-opacity="0"/>
<stop offset="1" stop-color="white"/>
</radialGradient>
<radialGradient id="paint3_radial_4810_2258" cx="0" cy="0" r="1" gradientUnits="userSpaceOnUse" gradientTransform="translate(80.4176 75.2227) rotate(135.754) scale(65.1486)">
<stop offset="0.5625" stop-color="#6D71A2" stop-opacity="0"/>
<stop offset="0.78125" stop-color="#2D3F6D" stop-opacity="0.54"/>
<stop offset="0.958333" stop-color="white"/>
</radialGradient>
</defs>
</svg>
