<svg width="165" height="166" viewBox="0 0 165 166" fill="none" xmlns="http://www.w3.org/2000/svg">
<mask id="mask0_4810_2258" style="mask-type:alpha" maskUnits="userSpaceOnUse" x="39" y="40" width="87" height="87">
<path d="M123.772 94.4313C129.894 71.5824 116.335 48.0966 93.4859 41.9743C70.637 35.8519 47.1512 49.4115 41.0288 72.2604C34.9065 95.1093 48.466 118.595 71.3149 124.717C94.1638 130.84 117.65 117.28 123.772 94.4313Z" fill="url(#paint0_radial_4810_2258)"/>
</mask>
<g mask="url(#mask0_4810_2258)">
<path d="M123.776 94.431C129.898 71.5821 116.339 48.0963 93.4898 41.9739C70.6409 35.8516 47.1551 49.4111 41.0328 72.26C34.9104 95.1089 48.47 118.595 71.3189 124.717C94.1678 130.839 117.654 117.28 123.776 94.431Z" fill="url(#paint1_radial_4810_2258)"/>
<path opacity="0.6" d="M92.3969 41.6603C115.297 47.3084 129.42 70.4041 124.184 93.3169C118.536 116.217 95.4401 130.34 72.5273 125.104C49.6272 119.456 35.5038 96.3601 40.7403 73.4473C46.401 50.1355 69.4968 36.0122 92.3969 41.6603Z" fill="url(#paint2_radial_4810_2258)"/>
<path opacity="0.79" d="M49.0428 114.666C31.1007 95.9641 31.5612 66.2208 49.8887 48.0251C68.591 30.083 98.3343 30.5435 116.53 48.871C134.472 67.5733 134.012 97.3166 115.684 115.512C96.7282 133.829 66.9849 133.369 49.0428 114.666Z" fill="url(#paint3_radial_4810_2258)"/>
<g filter="url(#filter0_f_4810_2258)">
<path d="M60.5851 61.9447C59.8081 65.9676 60.9965 70.5172 64.9057 72.7736C66.234 73.4317 67.206 74.2966 68.8906 74.748C70.0137 75.0489 71.2123 75.0678 72.4109 75.0868C73.8903 75.1809 75.2401 74.6359 76.5898 74.0909C76.2335 74.2977 76.2335 74.2977 75.8771 74.5044C77.9395 73.5459 80.2071 72.9446 81.8591 71.2717C83.4355 69.8807 84.2452 67.9821 84.7741 66.0083C86.6415 60.1619 82.5914 53.9388 76.976 52.4342C70.0324 50.2714 61.7828 54.1055 60.5851 61.9447Z" fill="white"/>
</g>
</g>
<defs>
<filter id="filter0_f_4810_2258" x="49.9444" y="41.422" width="45.7049" height="44.0904" filterUnits="userSpaceOnUse" color-interpolation-filters="sRGB">
<feFlood flood-opacity="0" result="BackgroundImageFix"/>
<feBlend mode="normal" in="SourceGraphic" in2="BackgroundImageFix" result="shape"/>
<feGaussianBlur stdDeviation="5.20748" result="effect1_foregroundBlur_4810_2258"/>
</filter>
<radialGradient id="paint0_radial_4810_2258" cx="0" cy="0" r="1" gradientUnits="userSpaceOnUse" gradientTransform="translate(66.2185 62.0872) rotate(12.9328) scale(93.4084 77.5337)">
<stop offset="0.0001" stop-color="#E8EFFF"/>
<stop offset="0.317708" stop-color="#EEE9FF"/>
<stop offset="0.484375" stop-color="#D8E0F4"/>
<stop offset="0.635417" stop-color="#BFC8DB"/>
<stop offset="1" stop-color="#BCC1CB"/>
</radialGradient>
<radialGradient id="paint1_radial_4810_2258" cx="0" cy="0" r="1" gradientUnits="userSpaceOnUse" gradientTransform="translate(66.2224 62.0869) rotate(12.9328) scale(93.4084 77.5337)">
<stop offset="0.0001" stop-color="#E8EFFF"/>
<stop offset="0.317708" stop-color="#ECEBF1"/>
<stop offset="0.484375" stop-color="#D8E0F4"/>
<stop offset="0.635417" stop-color="#BFC8DB"/>
<stop offset="1" stop-color="#BCC1CB"/>
</radialGradient>
<radialGradient id="paint2_radial_4810_2258" cx="0" cy="0" r="1" gradientUnits="userSpaceOnUse" gradientTransform="translate(92.0852 84.3413) rotate(-76.5793) scale(59.29)">
<stop offset="0.5433" stop-color="white" stop-opacity="0"/>
<stop offset="1" stop-color="white"/>
</radialGradient>
<radialGradient id="paint3_radial_4810_2258" cx="0" cy="0" r="1" gradientUnits="userSpaceOnUse" gradientTransform="translate(74.4156 75.2227) rotate(135.754) scale(65.1486)">
<stop offset="0.5625" stop-color="#6D71A2" stop-opacity="0"/>
<stop offset="0.78125" stop-color="#2D3F6D" stop-opacity="0.54"/>
<stop offset="0.958333" stop-color="white"/>
</radialGradient>
</defs>
</svg>
