<svg width="40" height="40" viewBox="0 0 40 40" fill="none" xmlns="http://www.w3.org/2000/svg">
<mask id="mask0_4810_2265" style="mask-type:alpha" maskUnits="userSpaceOnUse" x="0" y="0" width="40" height="40">
<path d="M20.0913 39.5407C30.8573 39.5407 39.5849 30.8773 39.5849 20.1904C39.5849 9.50351 30.8573 0.840088 20.0913 0.840088C9.32525 0.840088 0.597656 9.50351 0.597656 20.1904C0.597656 30.8773 9.32525 39.5407 20.0913 39.5407Z" fill="url(#paint0_linear_4810_2265)"/>
</mask>
<g mask="url(#mask0_4810_2265)">
<path d="M20.0932 39.5435C30.8593 39.5435 39.5869 30.8801 39.5869 20.1932C39.5869 9.50632 30.8593 0.842896 20.0932 0.842896C9.3272 0.842896 0.599609 9.50632 0.599609 20.1932C0.599609 30.8801 9.3272 39.5435 20.0932 39.5435Z" fill="url(#paint1_linear_4810_2265)"/>
<path d="M20.0932 39.5435C30.8593 39.5435 39.5869 30.8801 39.5869 20.1932C39.5869 9.50632 30.8593 0.842896 20.0932 0.842896C9.3272 0.842896 0.599609 9.50632 0.599609 20.1932C0.599609 30.8801 9.3272 39.5435 20.0932 39.5435Z" fill="url(#paint2_linear_4810_2265)"/>
<path opacity="0.49" d="M20.0932 39.5435C30.8593 39.5435 39.5869 30.8801 39.5869 20.1932C39.5869 9.50632 30.8593 0.842896 20.0932 0.842896C9.3272 0.842896 0.599609 9.50632 0.599609 20.1932C0.599609 30.8801 9.3272 39.5435 20.0932 39.5435Z" fill="url(#paint3_radial_4810_2265)"/>
<path opacity="0.31" d="M35.9733 18.8144C34.6737 20.2191 32.7388 20.3911 30.9193 20.1904C29.9374 20.0757 28.9844 19.9037 28.0314 19.7317C26.8473 19.5311 25.4322 19.2444 24.4792 20.1617C23.7284 20.9071 23.4684 21.9678 23.0641 22.9138C22.6887 23.7738 22.1689 24.5765 21.5335 25.2645C20.465 26.3825 19.0499 26.9558 17.5193 26.8985C14.2848 26.7838 11.3679 24.8058 8.30672 23.9458C6.89163 23.5445 5.33214 23.2291 3.85929 23.5445C3.31058 23.6591 2.87739 23.8885 2.50195 24.1751C4.32136 32.1732 11.5123 38.136 20.1184 38.136C30.0818 38.136 38.1681 30.1092 38.1681 20.2191C38.1681 18.757 37.9948 17.3524 37.6771 16.005C37.2728 17.0084 36.7241 17.983 35.9733 18.8144Z" fill="url(#paint4_linear_4810_2265)"/>
<g filter="url(#filter0_f_4810_2265)">
<path d="M33.2749 8.12415C31.4115 5.75744 29.7464 4.7997 26.9243 3.74629C23.5804 2.49809 18.3067 2.73986 17.8035 3.16007C17.2883 3.58784 22.3215 4.1892 24.9338 5.52426C30.4836 8.36068 35.8397 16.8411 36.0452 16.9805C36.7161 17.4317 35.5167 10.9714 33.2749 8.12415Z" fill="#9D9CE2"/>
</g>
<g filter="url(#filter1_f_4810_2265)">
<path d="M23.7977 36.7187C26.8551 36.1309 28.529 35.2911 30.8448 33.7128C33.5889 31.8427 35.8953 28.2924 35.7522 27.8456C35.6079 27.3889 32.6457 30.5511 30.1729 31.9142C24.9192 34.81 14.5968 36.0435 14.3708 36.1414C13.6368 36.462 20.1194 37.4259 23.7977 36.7187Z" fill="#D5DEFE"/>
</g>
<g filter="url(#filter2_f_4810_2265)">
<path d="M24.9604 34.9821C28.7759 33.5506 30.6936 31.7967 33.2092 28.5907C36.19 24.7917 38.0414 17.8937 37.7061 17.0726C37.366 16.2329 34.5262 22.4751 31.7335 25.2951C25.8005 31.2865 12.6706 34.7131 12.4066 34.9209C11.5498 35.6007 20.3702 36.7043 24.9604 34.9821Z" fill="#494372"/>
</g>
<g opacity="0.4" filter="url(#filter3_f_4810_2265)">
<path d="M9.78389 17.4885C11.0015 19.1734 13.3997 20.1641 16.2292 19.1864C17.1474 18.8181 17.9719 18.6763 18.9839 18.0813C19.6585 17.6847 20.2582 17.1606 20.8579 16.6365C21.6262 16.0133 22.0761 15.2343 22.526 14.4554C22.4322 14.682 22.4322 14.682 22.3385 14.9086C22.9758 13.6764 23.8567 12.4726 24.0069 11.1839C24.232 10.0227 23.8761 9.03146 23.3517 8.13943C21.9469 5.36417 17.4687 5.08188 14.0956 7.06511C9.80425 9.41671 7.25497 14.3453 9.78389 17.4885Z" fill="#BCBBFF"/>
</g>
<g filter="url(#filter4_f_4810_2265)">
<path d="M4.37075 21.879C3.85881 21.3414 3.32101 20.4479 3.16162 18.8459C3.00365 17.0661 3.39121 15.2017 3.88715 14.1385C4.41247 12.9866 5.04757 12.458 5.64835 12.6407C6.22116 12.7341 6.76037 13.4498 7.29958 14.1655C8.52068 15.687 9.74177 17.2084 10.9335 18.8185C11.6993 19.8917 12.656 22.2114 11.4948 23.9808C10.624 25.3078 9.10912 24.6733 8.16422 24.488C6.87663 24.1221 5.59325 23.2226 4.37075 21.879Z" fill="#99A1CD"/>
</g>
<g filter="url(#filter5_f_4810_2265)">
<path d="M29.4079 22.5943C28.8959 22.0566 28.3581 21.1631 28.1987 19.5611C28.0408 17.7813 28.4283 15.9169 28.9243 14.8537C29.4496 13.7018 30.0847 13.1733 30.6855 13.3559C31.2583 13.4493 31.7975 14.165 32.3367 14.8807C33.5578 16.4022 34.7789 17.9236 35.9706 19.5337C36.7364 20.6069 37.6931 22.9266 36.532 24.696C35.6611 26.023 34.1462 25.3885 33.2013 25.2032C31.9137 24.8373 30.6304 23.9379 29.4079 22.5943Z" fill="#99A1CD"/>
</g>
<g filter="url(#filter6_f_4810_2265)">
<path d="M8.9571 8.85687C8.63132 10.5436 9.12957 12.4511 10.7686 13.3972C11.3256 13.6731 11.7331 14.0358 12.4394 14.225C12.9103 14.3512 13.4128 14.3591 13.9154 14.3671C14.5357 14.4066 15.1016 14.178 15.6675 13.9495C15.5181 14.0362 15.5181 14.0362 15.3687 14.1229C16.2334 13.721 17.1842 13.4689 17.8768 12.7675C18.5378 12.1843 18.8772 11.3882 19.099 10.5606C19.882 8.1094 18.1838 5.50021 15.8294 4.86935C12.9181 3.96255 9.45928 5.57009 8.9571 8.85687Z" fill="white"/>
</g>
<g opacity="0.4" filter="url(#filter7_f_4810_2265)">
<path d="M3.25146 26.2446C3.09794 27.0395 3.33273 27.9384 4.10512 28.3842C4.36756 28.5142 4.55959 28.6851 4.89243 28.7743C5.11433 28.8337 5.35115 28.8375 5.58797 28.8412C5.88026 28.8598 6.14694 28.7521 6.41362 28.6445C6.34322 28.6853 6.34322 28.6853 6.27282 28.7262C6.6803 28.5368 7.12833 28.418 7.45472 28.0874C7.76618 27.8126 7.92615 27.4375 8.03065 27.0475C8.39961 25.8924 7.5994 24.6629 6.48993 24.3656C5.11802 23.9383 3.4881 24.6958 3.25146 26.2446Z" fill="#6B68F5" fill-opacity="0.58"/>
</g>
<path opacity="0.79" d="M-0.477989 28.0454C-3.41394 16.519 3.49622 4.74488 14.9303 1.62288C26.4567 -1.31307 38.2308 5.59709 41.3528 17.0312C44.2888 28.5576 37.3786 40.3317 25.9445 43.4537C14.2321 46.4819 2.45796 39.5718 -0.477989 28.0454Z" fill="url(#paint5_radial_4810_2265)"/>
<g filter="url(#filter8_i_4810_2265)">
<path d="M10.6462 25.3536C10.0143 26.9543 10.5749 29.4646 11.8338 30.5071C12.1878 30.7997 12.6845 30.9497 13.1393 31.0825C13.5032 31.1906 13.8573 31.2497 13.7639 31.7291C13.6753 32.1913 13.2844 32.125 12.9672 32.0733C11.9665 31.9135 11.1355 31.4513 10.538 30.6153C9.20291 28.7491 8.93983 26.7108 9.52009 24.5177C9.60614 24.1956 9.59877 23.7972 9.49304 23.4825C8.453 20.3452 9.05539 17.5349 11.2068 15.0786C12.6156 13.4706 15.3842 12.8657 17.2085 14.1123C17.3167 14.1861 17.5872 14.1517 17.7003 14.0631C18.3543 13.5468 19.0083 13.0231 19.6107 12.4453C19.7828 12.2806 19.8443 11.9314 19.8394 11.6683C19.8148 10.2497 19.7631 8.82359 20.3237 7.48113C20.5057 7.04593 20.7884 6.62549 21.113 6.28127C21.6662 5.70347 22.7407 5.50677 23.3775 5.85099C24.1225 6.25422 24.4298 6.98938 24.3339 7.76388C24.2454 8.47199 23.9946 9.19978 23.6529 9.82921C23.316 10.4488 22.8218 11.0119 22.3006 11.4938C21.8654 11.8945 21.8162 12.2855 21.8826 12.819C22.0916 14.4737 22.335 16.1285 22.4161 17.7906C22.5268 20.0083 22.0276 22.113 20.7835 23.989C19.655 25.6929 17.9757 26.4896 16.0087 26.7625C14.5605 26.9641 13.1369 26.9395 11.8288 26.165C11.4305 25.9314 11.0666 25.6438 10.6462 25.3536ZM16.9774 16.099C16.2152 16.8341 15.5046 17.4931 14.826 18.1815C13.3901 19.6395 12.0944 21.1959 11.2658 23.1039C10.9904 23.7358 11.0863 24.1415 11.5756 24.5693C13.1959 25.9831 15.008 25.8454 16.8274 25.1569C18.5412 24.5078 19.2911 23.008 19.8443 21.3803C20.5672 19.2535 20.3336 17.0898 20.1443 14.9237C20.1098 14.5254 20.0607 14.1271 20.0016 13.5886C19.3845 14.1 18.8583 14.5155 18.3641 14.9655C18.283 15.0393 18.315 15.2753 18.3494 15.4253C18.4428 15.8383 18.6321 16.2416 18.6641 16.6571C18.8485 19.1847 17.3806 20.9082 15.4579 21.1222C14.6859 21.2082 14.3687 20.9427 14.3121 20.1411C16.348 19.6002 17.565 17.8397 16.9774 16.099ZM10.3856 22.1696C11.9616 19.4699 13.9556 17.1488 16.4685 15.0983C16.0947 14.9532 15.8415 14.7958 15.5735 14.759C14.4966 14.6164 13.4762 14.7909 12.6132 15.4966C10.479 17.2398 10.0512 19.5732 10.3856 22.1696ZM21.6072 10.6431C22.4923 9.79725 22.9816 8.90965 23.1808 7.85731C23.2472 7.50817 23.2693 7.11723 22.8439 6.97709C22.4014 6.83202 22.0817 7.0779 21.917 7.47375C21.5113 8.44249 21.5162 9.45794 21.6072 10.6431Z" fill="url(#paint6_linear_4810_2265)"/>
</g>
</g>
<defs>
<filter id="filter0_f_4810_2265" x="15.2354" y="0.288466" width="23.5273" height="19.2467" filterUnits="userSpaceOnUse" color-interpolation-filters="sRGB">
<feFlood flood-opacity="0" result="BackgroundImageFix"/>
<feBlend mode="normal" in="SourceGraphic" in2="BackgroundImageFix" result="shape"/>
<feGaussianBlur stdDeviation="1.26611" result="effect1_foregroundBlur_4810_2265"/>
</filter>
<filter id="filter1_f_4810_2265" x="11.7803" y="25.2687" width="26.5097" height="14.2356" filterUnits="userSpaceOnUse" color-interpolation-filters="sRGB">
<feFlood flood-opacity="0" result="BackgroundImageFix"/>
<feBlend mode="normal" in="SourceGraphic" in2="BackgroundImageFix" result="shape"/>
<feGaussianBlur stdDeviation="1.26611" result="effect1_foregroundBlur_4810_2265"/>
</filter>
<filter id="filter2_f_4810_2265" x="7.28323" y="11.9312" width="35.5273" height="29.0338" filterUnits="userSpaceOnUse" color-interpolation-filters="sRGB">
<feFlood flood-opacity="0" result="BackgroundImageFix"/>
<feBlend mode="normal" in="SourceGraphic" in2="BackgroundImageFix" result="shape"/>
<feGaussianBlur stdDeviation="2.53221" result="effect1_foregroundBlur_4810_2265"/>
</filter>
<filter id="filter3_f_4810_2265" x="6.24708" y="3.24928" width="20.3613" height="18.8559" filterUnits="userSpaceOnUse" color-interpolation-filters="sRGB">
<feFlood flood-opacity="0" result="BackgroundImageFix"/>
<feBlend mode="normal" in="SourceGraphic" in2="BackgroundImageFix" result="shape"/>
<feGaussianBlur stdDeviation="1.26611" result="effect1_foregroundBlur_4810_2265"/>
</filter>
<filter id="filter4_f_4810_2265" x="-1.93943" y="7.54092" width="19.039" height="22.326" filterUnits="userSpaceOnUse" color-interpolation-filters="sRGB">
<feFlood flood-opacity="0" result="BackgroundImageFix"/>
<feBlend mode="normal" in="SourceGraphic" in2="BackgroundImageFix" result="shape"/>
<feGaussianBlur stdDeviation="2.53221" result="effect1_foregroundBlur_4810_2265"/>
</filter>
<filter id="filter5_f_4810_2265" x="23.0977" y="8.25613" width="19.039" height="22.326" filterUnits="userSpaceOnUse" color-interpolation-filters="sRGB">
<feFlood flood-opacity="0" result="BackgroundImageFix"/>
<feBlend mode="normal" in="SourceGraphic" in2="BackgroundImageFix" result="shape"/>
<feGaussianBlur stdDeviation="2.53221" result="effect1_foregroundBlur_4810_2265"/>
</filter>
<filter id="filter6_f_4810_2265" x="3.79886" y="-0.445529" width="20.5585" height="19.8815" filterUnits="userSpaceOnUse" color-interpolation-filters="sRGB">
<feFlood flood-opacity="0" result="BackgroundImageFix"/>
<feBlend mode="normal" in="SourceGraphic" in2="BackgroundImageFix" result="shape"/>
<feGaussianBlur stdDeviation="2.53221" result="effect1_foregroundBlur_4810_2265"/>
</filter>
<filter id="filter7_f_4810_2265" x="0.674819" y="21.7153" width="9.97849" height="9.66025" filterUnits="userSpaceOnUse" color-interpolation-filters="sRGB">
<feFlood flood-opacity="0" result="BackgroundImageFix"/>
<feBlend mode="normal" in="SourceGraphic" in2="BackgroundImageFix" result="shape"/>
<feGaussianBlur stdDeviation="1.26611" result="effect1_foregroundBlur_4810_2265"/>
</filter>
<filter id="filter8_i_4810_2265" x="8.99609" y="5.68115" width="15.3555" height="26.8939" filterUnits="userSpaceOnUse" color-interpolation-filters="sRGB">
<feFlood flood-opacity="0" result="BackgroundImageFix"/>
<feBlend mode="normal" in="SourceGraphic" in2="BackgroundImageFix" result="shape"/>
<feColorMatrix in="SourceAlpha" type="matrix" values="0 0 0 0 0 0 0 0 0 0 0 0 0 0 0 0 0 0 127 0" result="hardAlpha"/>
<feOffset dy="0.465296"/>
<feGaussianBlur stdDeviation="0.465296"/>
<feComposite in2="hardAlpha" operator="arithmetic" k2="-1" k3="1"/>
<feColorMatrix type="matrix" values="0 0 0 0 0.178351 0 0 0 0 0.160417 0 0 0 0 0.366667 0 0 0 1 0"/>
<feBlend mode="normal" in2="shape" result="effect1_innerShadow_4810_2265"/>
</filter>
<linearGradient id="paint0_linear_4810_2265" x1="19.2634" y1="44.6151" x2="20.5334" y2="6.7583" gradientUnits="userSpaceOnUse">
<stop offset="0.00086138" stop-color="#A88F6C"/>
<stop offset="0.9992" stop-color="#F6F0D4"/>
</linearGradient>
<linearGradient id="paint1_linear_4810_2265" x1="19.2654" y1="44.6179" x2="20.5354" y2="6.7611" gradientUnits="userSpaceOnUse">
<stop offset="0.00086138" stop-color="#55527C"/>
<stop offset="0.9992" stop-color="#BCC3E2"/>
</linearGradient>
<linearGradient id="paint2_linear_4810_2265" x1="25.0275" y1="42.6993" x2="19.2068" y2="15.7258" gradientUnits="userSpaceOnUse">
<stop offset="0.00064103" stop-color="#646797"/>
<stop offset="0.9927" stop-color="#959EC8" stop-opacity="0"/>
</linearGradient>
<radialGradient id="paint3_radial_4810_2265" cx="0" cy="0" r="1" gradientUnits="userSpaceOnUse" gradientTransform="translate(20.0972 20.1864) scale(19.4457 19.3027)">
<stop offset="0.0099359" stop-color="#B1B9DB"/>
<stop offset="0.234375" stop-color="#7177A9" stop-opacity="0.81"/>
<stop offset="0.479167" stop-color="#585883" stop-opacity="0.88"/>
<stop offset="0.744792" stop-color="#58557C"/>
<stop offset="1" stop-color="#29284A"/>
</radialGradient>
<linearGradient id="paint4_linear_4810_2265" x1="29.6301" y1="45.11" x2="16.9661" y2="11.7981" gradientUnits="userSpaceOnUse">
<stop offset="0.00282452" stop-color="#55537D"/>
<stop offset="1" stop-color="#9FA5D1" stop-opacity="0"/>
</linearGradient>
<radialGradient id="paint5_radial_4810_2265" cx="0" cy="0" r="1" gradientUnits="userSpaceOnUse" gradientTransform="translate(18.5748 18.0311) rotate(165.276) scale(29.8995)">
<stop offset="0.5433" stop-color="#6D71A2" stop-opacity="0"/>
<stop offset="0.828125" stop-color="#E87354"/>
<stop offset="0.958333" stop-color="#BBD8F1"/>
</radialGradient>
<linearGradient id="paint6_linear_4810_2265" x1="27.8408" y1="19.64" x2="19.2328" y2="5.68115" gradientUnits="userSpaceOnUse">
<stop stop-color="#54517E"/>
<stop offset="0.713542" stop-color="#9091C5"/>
</linearGradient>
</defs>
</svg>
