<svg width="22" height="24" viewBox="0 0 22 24" fill="none" xmlns="http://www.w3.org/2000/svg">
<path d="M16.1453 0.240234C16.0541 0.240234 7.32534 0.240234 7.32534 0.240234C5.77014 0.240234 4.38534 1.66583 4.38534 3.18023L3.53574 3.19943C1.98054 3.19943 0.710938 4.60583 0.710938 6.12023V20.8202C0.710938 22.3346 2.09574 23.7602 3.65094 23.7602H14.6765C16.2317 23.7602 17.6165 22.3346 17.6165 20.8202H18.3509C19.9061 20.8202 21.291 19.3946 21.291 17.8802V6.13703L16.1453 0.240234ZM14.6741 22.2914H3.65094C2.87814 22.2914 2.17974 21.5714 2.17974 20.8202V6.12023C2.17974 5.37143 2.80854 4.67543 3.57894 4.67543L4.38294 4.65143V17.8802C4.38294 19.3946 5.76774 20.8202 7.32294 20.8202H16.1429C16.1453 21.569 15.4469 22.2914 14.6741 22.2914ZM19.8197 17.8802C19.8197 18.629 19.1213 19.349 18.3485 19.349H7.32534C6.55254 19.349 5.85414 18.629 5.85414 17.8802V3.18023C5.85414 2.43143 6.55254 1.70903 7.32534 1.70903H14.6765C14.6645 3.40103 14.6765 4.66823 14.6765 4.66823C14.6765 6.19463 16.0517 7.58903 17.6165 7.58903C17.6165 7.58903 18.3965 7.58903 19.8221 7.58903V17.8802H19.8197ZM17.6141 6.12023C16.8317 6.12023 16.1429 4.69703 16.1429 3.93623C16.1429 3.93623 16.1429 3.16343 16.1429 1.73303V1.73063L19.8197 6.12023H17.6141ZM16.1453 10.5434H9.53094C9.12534 10.5434 8.79654 10.8722 8.79654 11.2778C8.79654 11.6834 9.12534 12.0122 9.53094 12.0122H16.1453C16.5509 12.0122 16.8797 11.6834 16.8797 11.2778C16.8797 10.8722 16.5509 10.5434 16.1453 10.5434ZM16.1453 14.2154H9.53094C9.12534 14.2154 8.79654 14.5442 8.79654 14.9498C8.79654 15.3554 9.12534 15.6842 9.53094 15.6842H16.1453C16.5509 15.6842 16.8797 15.3554 16.8797 14.9498C16.8797 14.5442 16.5509 14.2154 16.1453 14.2154Z" fill="#2D3C6C"/>
</svg>
