<svg width="37" height="36" viewBox="0 0 37 36" fill="none" xmlns="http://www.w3.org/2000/svg">
<g filter="url(#filter0_d_4757_3173)">
<rect x="5.3" y="4.8" width="26.4" height="26.4" rx="7.2" fill="#FF9650" stroke="white" stroke-width="1.6"/>
<path d="M15.4444 25.1847C15.1902 25.1847 14.9662 25.0939 14.7724 24.9122C14.5908 24.7306 14.5 24.5066 14.5 24.2402V11.9444C14.5 11.6781 14.5908 11.4541 14.7724 11.2724C14.9662 11.0908 15.1902 11 15.4444 11C15.7108 11 15.9348 11.0908 16.1164 11.2724C16.2981 11.4541 16.3889 11.6781 16.3889 11.9444V17.3931L22.4006 11.3814C22.5459 11.2361 22.679 11.1392 22.8001 11.0908C22.9212 11.0303 23.0483 11 23.1815 11C23.4842 11 23.7022 11.0908 23.8354 11.2724C23.9686 11.4541 24.017 11.672 23.9807 11.9263C23.9443 12.1684 23.8293 12.3924 23.6356 12.5983L19.0042 17.2478L23.7264 23.6772C23.8717 23.8831 23.9322 24.1071 23.908 24.3492C23.8838 24.5793 23.799 24.7791 23.6538 24.9486C23.5085 25.106 23.3147 25.1847 23.0726 25.1847C22.7335 25.1847 22.4732 25.0515 22.2916 24.7851L17.6965 18.5555L16.3889 19.8632V24.2402C16.3889 24.5066 16.2981 24.7306 16.1164 24.9122C15.9348 25.0939 15.7108 25.1847 15.4444 25.1847Z" fill="white"/>
</g>
<defs>
<filter id="filter0_d_4757_3173" x="0.5" y="0" width="36" height="36" filterUnits="userSpaceOnUse" color-interpolation-filters="sRGB">
<feFlood flood-opacity="0" result="BackgroundImageFix"/>
<feColorMatrix in="SourceAlpha" type="matrix" values="0 0 0 0 0 0 0 0 0 0 0 0 0 0 0 0 0 0 127 0" result="hardAlpha"/>
<feOffset/>
<feGaussianBlur stdDeviation="2"/>
<feComposite in2="hardAlpha" operator="out"/>
<feColorMatrix type="matrix" values="0 0 0 0 0.725 0 0 0 0 0.283256 0 0 0 0 0 0 0 0 1 0"/>
<feBlend mode="normal" in2="BackgroundImageFix" result="effect1_dropShadow_4757_3173"/>
<feBlend mode="normal" in="SourceGraphic" in2="effect1_dropShadow_4757_3173" result="shape"/>
</filter>
</defs>
</svg>
