<svg width="86" height="85" viewBox="0 0 86 85" fill="none" xmlns="http://www.w3.org/2000/svg">
<mask id="mask0_241_4741" style="mask-type:alpha" maskUnits="userSpaceOnUse" x="0" y="0" width="86" height="85">
<path d="M42.566 84.5061C66.0746 84.5061 85.132 65.5888 85.132 42.2531C85.132 18.9173 66.0746 0 42.566 0C19.0575 0 0 18.9173 0 42.2531C0 65.5888 19.0575 84.5061 42.566 84.5061Z" fill="url(#paint0_linear_241_4741)"/>
</mask>
<g mask="url(#mask0_241_4741)">
<path d="M42.566 84.51C66.0746 84.51 85.132 65.5927 85.132 42.257C85.132 18.9212 66.0746 0.00390625 42.566 0.00390625C19.0575 0.00390625 0 18.9212 0 42.257C0 65.5927 19.0575 84.51 42.566 84.51Z" fill="url(#paint1_linear_241_4741)"/>
<path d="M42.566 84.51C66.0746 84.51 85.132 65.5927 85.132 42.257C85.132 18.9212 66.0746 0.00390625 42.566 0.00390625C19.0575 0.00390625 0 18.9212 0 42.257C0 65.5927 19.0575 84.51 42.566 84.51Z" fill="url(#paint2_linear_241_4741)"/>
<path opacity="0.49" d="M42.566 84.51C66.0746 84.51 85.132 65.5927 85.132 42.257C85.132 18.9212 66.0746 0.00390625 42.566 0.00390625C19.0575 0.00390625 0 18.9212 0 42.257C0 65.5927 19.0575 84.51 42.566 84.51Z" fill="url(#paint3_radial_241_4741)"/>
<path opacity="0.31" d="M77.2515 39.2517C74.4138 42.319 70.1887 42.6945 66.2159 42.2564C64.0718 42.006 61.9908 41.6304 59.9098 41.2548C57.3243 40.8166 54.2344 40.1907 52.1533 42.1938C50.5138 43.8213 49.9462 46.1374 49.0634 48.2031C48.2436 50.081 47.1085 51.8337 45.7211 53.336C43.3879 55.7773 40.2979 57.0293 36.9557 56.9041C29.8929 56.6537 23.5237 52.3345 16.8393 50.4566C13.7493 49.5802 10.344 48.8917 7.12792 49.5802C5.92977 49.8306 4.98385 50.3314 4.16406 50.9574C8.13689 68.4219 23.839 81.4421 42.6312 81.4421C64.3871 81.4421 82.0442 63.9149 82.0442 42.319C82.0442 39.1265 81.6658 36.0592 80.9721 33.1172C80.0893 35.3081 78.8911 37.4364 77.2515 39.2517Z" fill="url(#paint4_linear_241_4741)"/>
<g filter="url(#filter0_f_241_4741)">
<path d="M71.3506 15.9042C67.2816 10.7362 63.6457 8.64493 57.4835 6.34473C50.1818 3.61918 38.6662 4.14709 37.5673 5.06465C36.4424 5.99873 47.4329 7.31185 53.1369 10.2271C65.2554 16.4206 76.951 34.9384 77.3997 35.2428C78.8646 36.2279 76.2457 22.1215 71.3506 15.9042Z" fill="#9D9CE2"/>
</g>
<g filter="url(#filter1_f_241_4741)">
<path d="M50.6589 78.346C57.3351 77.0625 60.9901 75.2286 66.047 71.7823C72.0389 67.6988 77.0751 59.9464 76.7627 58.9709C76.4476 57.9737 69.9794 64.8785 64.5797 67.8549C53.1078 74.1783 30.5681 76.8717 30.0747 77.0855C28.4717 77.7856 42.6272 79.8901 50.6589 78.346Z" fill="#D5DEFE"/>
</g>
<g filter="url(#filter2_f_241_4741)">
<path d="M53.1998 74.5526C61.5312 71.4268 65.7187 67.5972 71.2117 60.5964C77.7205 52.3011 81.7633 37.2386 81.0311 35.4456C80.2884 33.6123 74.0875 47.2425 67.9895 53.4004C55.0341 66.483 26.3639 73.9653 25.7874 74.4189C23.9165 75.9034 43.1767 78.3132 53.1998 74.5526Z" fill="#494372"/>
</g>
<g opacity="0.4" filter="url(#filter3_f_241_4741)">
<path d="M20.0591 36.3542C22.7178 40.0333 27.9545 42.1967 34.133 40.0618C36.138 39.2575 37.9383 38.9479 40.148 37.6487C41.6211 36.7826 42.9306 35.6382 44.2401 34.4938C45.9179 33.1329 46.9002 31.432 47.8825 29.7311C47.6778 30.2259 47.6778 30.2259 47.4731 30.7207C48.8648 28.0302 50.7883 25.4015 51.1162 22.5876C51.6077 20.0519 50.8307 17.8876 49.6855 15.9397C46.6181 9.87971 36.8396 9.2633 29.4741 13.5939C20.1035 18.7288 14.537 29.4907 20.0591 36.3542Z" fill="#BCBBFF"/>
</g>
<g filter="url(#filter4_f_241_4741)">
<path d="M8.23769 45.9379C7.11982 44.7639 5.94549 42.8128 5.59746 39.3148C5.25251 35.4284 6.0988 31.3573 7.18172 29.0357C8.3288 26.5204 9.71558 25.3663 11.0274 25.7651C12.2782 25.9691 13.4556 27.5319 14.6331 29.0947C17.2994 32.4169 19.9658 35.7391 22.568 39.255C24.2402 41.5984 26.3292 46.6637 23.7938 50.5272C21.8922 53.4249 18.5843 52.0394 16.5211 51.6347C13.7095 50.8357 10.9071 48.8717 8.23769 45.9379Z" fill="#99A1CD"/>
</g>
<g filter="url(#filter5_f_241_4741)">
<path d="M62.9115 47.5004C61.7937 46.3264 60.6193 44.3753 60.2713 40.8773C59.9263 36.9909 60.7726 32.9198 61.8555 30.5982C63.0026 28.0829 64.3894 26.9288 65.7013 27.3276C66.9521 27.5317 68.1295 29.0944 69.3069 30.6572C71.9733 33.9794 74.6396 37.3016 77.2418 40.8175C78.914 43.1609 81.003 48.2262 78.4676 52.0897C76.5661 54.9874 73.2582 53.6019 71.1949 53.1972C68.3833 52.3982 65.581 50.4342 62.9115 47.5004Z" fill="#99A1CD"/>
</g>
<g filter="url(#filter6_f_241_4741)">
<path d="M18.2561 17.5053C17.5447 21.1885 18.6327 25.3537 22.2117 27.4195C23.4278 28.0221 24.3177 28.8139 25.86 29.2272C26.8882 29.5027 27.9856 29.52 29.0829 29.5373C30.4374 29.6236 31.6731 29.1246 32.9088 28.6256C32.5826 28.8149 32.5826 28.8149 32.2564 29.0042C34.1445 28.1266 36.2206 27.5761 37.733 26.0445C39.1763 24.7711 39.9175 23.0328 40.4018 21.2257C42.1115 15.8732 38.4035 10.1758 33.2624 8.79825C26.9053 6.81817 19.3526 10.3284 18.2561 17.5053Z" fill="white"/>
</g>
<g opacity="0.4" filter="url(#filter7_f_241_4741)">
<path d="M5.79284 55.473C5.45761 57.2086 5.9703 59.1715 7.65687 60.1449C8.22993 60.4289 8.64926 60.802 9.37605 60.9967C9.86057 61.1266 10.3777 61.1347 10.8948 61.1429C11.5331 61.1835 12.1154 60.9484 12.6977 60.7133C12.544 60.8025 12.544 60.8025 12.3902 60.8917C13.28 60.4781 14.2583 60.2187 14.971 59.497C15.6511 58.8969 16.0004 58.0778 16.2286 57.2262C17.0343 54.7039 15.2869 52.0191 12.8643 51.37C9.86865 50.4369 6.30956 52.091 5.79284 55.473Z" fill="#6B68F5" fill-opacity="0.58"/>
</g>
</g>
<defs>
<filter id="filter0_f_241_4741" x="31.957" y="-1.20582" width="51.377" height="42.0269" filterUnits="userSpaceOnUse" color-interpolation-filters="sRGB">
<feFlood flood-opacity="0" result="BackgroundImageFix"/>
<feBlend mode="normal" in="SourceGraphic" in2="BackgroundImageFix" result="shape"/>
<feGaussianBlur stdDeviation="2.76465" result="effect1_foregroundBlur_241_4741"/>
</filter>
<filter id="filter1_f_241_4741" x="24.4199" y="53.344" width="57.8867" height="31.0847" filterUnits="userSpaceOnUse" color-interpolation-filters="sRGB">
<feFlood flood-opacity="0" result="BackgroundImageFix"/>
<feBlend mode="normal" in="SourceGraphic" in2="BackgroundImageFix" result="shape"/>
<feGaussianBlur stdDeviation="2.76465" result="effect1_foregroundBlur_241_4741"/>
</filter>
<filter id="filter2_f_241_4741" x="14.6015" y="24.219" width="77.5743" height="63.3977" filterUnits="userSpaceOnUse" color-interpolation-filters="sRGB">
<feFlood flood-opacity="0" result="BackgroundImageFix"/>
<feBlend mode="normal" in="SourceGraphic" in2="BackgroundImageFix" result="shape"/>
<feGaussianBlur stdDeviation="5.52931" result="effect1_foregroundBlur_241_4741"/>
</filter>
<filter id="filter3_f_241_4741" x="12.3379" y="5.26171" width="44.4571" height="41.1734" filterUnits="userSpaceOnUse" color-interpolation-filters="sRGB">
<feFlood flood-opacity="0" result="BackgroundImageFix"/>
<feBlend mode="normal" in="SourceGraphic" in2="BackgroundImageFix" result="shape"/>
<feGaussianBlur stdDeviation="2.76465" result="effect1_foregroundBlur_241_4741"/>
</filter>
<filter id="filter4_f_241_4741" x="-5.53908" y="14.6291" width="41.5723" height="48.751" filterUnits="userSpaceOnUse" color-interpolation-filters="sRGB">
<feFlood flood-opacity="0" result="BackgroundImageFix"/>
<feBlend mode="normal" in="SourceGraphic" in2="BackgroundImageFix" result="shape"/>
<feGaussianBlur stdDeviation="5.52931" result="effect1_foregroundBlur_241_4741"/>
</filter>
<filter id="filter5_f_241_4741" x="49.1347" y="16.1916" width="41.5723" height="48.751" filterUnits="userSpaceOnUse" color-interpolation-filters="sRGB">
<feFlood flood-opacity="0" result="BackgroundImageFix"/>
<feBlend mode="normal" in="SourceGraphic" in2="BackgroundImageFix" result="shape"/>
<feGaussianBlur stdDeviation="5.52931" result="effect1_foregroundBlur_241_4741"/>
</filter>
<filter id="filter6_f_241_4741" x="6.99217" y="-2.80715" width="44.8907" height="43.4129" filterUnits="userSpaceOnUse" color-interpolation-filters="sRGB">
<feFlood flood-opacity="0" result="BackgroundImageFix"/>
<feBlend mode="normal" in="SourceGraphic" in2="BackgroundImageFix" result="shape"/>
<feGaussianBlur stdDeviation="5.52931" result="effect1_foregroundBlur_241_4741"/>
</filter>
<filter id="filter7_f_241_4741" x="0.166006" y="45.583" width="21.791" height="21.0938" filterUnits="userSpaceOnUse" color-interpolation-filters="sRGB">
<feFlood flood-opacity="0" result="BackgroundImageFix"/>
<feBlend mode="normal" in="SourceGraphic" in2="BackgroundImageFix" result="shape"/>
<feGaussianBlur stdDeviation="2.76465" result="effect1_foregroundBlur_241_4741"/>
</filter>
<linearGradient id="paint0_linear_241_4741" x1="40.7583" y1="95.5864" x2="43.5315" y2="12.9229" gradientUnits="userSpaceOnUse">
<stop offset="0.00086138" stop-color="#A88F6C"/>
<stop offset="0.9992" stop-color="#F6F0D4"/>
</linearGradient>
<linearGradient id="paint1_linear_241_4741" x1="40.7583" y1="95.5904" x2="43.5315" y2="12.9268" gradientUnits="userSpaceOnUse">
<stop offset="0.00086138" stop-color="#55527C"/>
<stop offset="0.9992" stop-color="#BCC3E2"/>
</linearGradient>
<linearGradient id="paint2_linear_241_4741" x1="53.3405" y1="91.4009" x2="40.6305" y2="32.5021" gradientUnits="userSpaceOnUse">
<stop offset="0.00064103" stop-color="#646797"/>
<stop offset="0.9927" stop-color="#959EC8" stop-opacity="0"/>
</linearGradient>
<radialGradient id="paint3_radial_241_4741" cx="0" cy="0" r="1" gradientUnits="userSpaceOnUse" gradientTransform="translate(42.5746 42.2421) scale(42.4613 42.1491)">
<stop offset="0.0099359" stop-color="#B1B9DB"/>
<stop offset="0.234375" stop-color="#7177A9" stop-opacity="0.81"/>
<stop offset="0.479167" stop-color="#585883" stop-opacity="0.88"/>
<stop offset="0.744792" stop-color="#58557C"/>
<stop offset="1" stop-color="#29284A"/>
</radialGradient>
<linearGradient id="paint4_linear_241_4741" x1="63.4007" y1="96.6704" x2="35.7479" y2="23.9309" gradientUnits="userSpaceOnUse">
<stop offset="0.00282452" stop-color="#55537D"/>
<stop offset="1" stop-color="#9FA5D1" stop-opacity="0"/>
</linearGradient>
</defs>
</svg>
