<svg width="96" height="95" viewBox="0 0 96 95" fill="none" xmlns="http://www.w3.org/2000/svg">
<mask id="mask0_241_4769" style="mask-type:alpha" maskUnits="userSpaceOnUse" x="0" y="0" width="96" height="95">
<path d="M47.8518 95C74.2797 95 95.7036 73.7335 95.7036 47.5C95.7036 21.2665 74.2797 0 47.8518 0C21.424 0 0 21.2665 0 47.5C0 73.7335 21.424 95 47.8518 95Z" fill="url(#paint0_linear_241_4769)"/>
</mask>
<g mask="url(#mask0_241_4769)">
<path d="M47.8518 94.9995C74.2797 94.9995 95.7036 73.733 95.7036 47.4995C95.7036 21.266 74.2797 -0.000488281 47.8518 -0.000488281C21.424 -0.000488281 0 21.266 0 47.4995C0 73.733 21.424 94.9995 47.8518 94.9995Z" fill="url(#paint1_linear_241_4769)"/>
<path d="M47.8518 94.9995C74.2797 94.9995 95.7036 73.733 95.7036 47.4995C95.7036 21.266 74.2797 -0.000488281 47.8518 -0.000488281C21.424 -0.000488281 0 21.266 0 47.4995C0 73.733 21.424 94.9995 47.8518 94.9995Z" fill="url(#paint2_linear_241_4769)"/>
<path opacity="0.49" d="M47.8518 94.9995C74.2797 94.9995 95.7036 73.733 95.7036 47.4995C95.7036 21.266 74.2797 -0.000488281 47.8518 -0.000488281C21.424 -0.000488281 0 21.266 0 47.4995C0 73.733 21.424 94.9995 47.8518 94.9995Z" fill="url(#paint3_radial_241_4769)"/>
<path opacity="0.31" d="M86.8392 44.1229C83.6491 47.571 78.8993 47.9932 74.4332 47.5006C72.0228 47.2191 69.6834 46.7969 67.344 46.3747C64.4374 45.8821 60.9637 45.1784 58.6243 47.4303C56.7811 49.2599 56.1431 51.8636 55.1506 54.1858C54.229 56.2969 52.953 58.2673 51.3934 59.9562C48.7704 62.7006 45.2967 64.108 41.5394 63.9673C33.5996 63.6858 26.4395 58.8303 18.925 56.7191C15.4513 55.734 11.6232 54.9599 8.00769 55.734C6.66075 56.0154 5.59737 56.5784 4.67578 57.2821C9.14195 76.9154 26.794 91.5525 47.9197 91.5525C72.3773 91.5525 92.2269 71.8488 92.2269 47.571C92.2269 43.9821 91.8016 40.534 91.0218 37.2266C90.0293 39.6895 88.6824 42.0821 86.8392 44.1229Z" fill="url(#paint4_linear_241_4769)"/>
<g filter="url(#filter0_f_241_4769)">
<path d="M80.2124 17.8777C75.6382 12.068 71.5508 9.71704 64.6234 7.1312C56.415 4.06719 43.4694 4.66068 42.2341 5.69218C40.9695 6.74226 53.3247 8.21843 59.737 11.4957C73.3604 18.4583 86.5082 39.2757 87.0127 39.6179C88.6595 40.7253 85.7153 24.8671 80.2124 17.8777Z" fill="#9D9CE2"/>
</g>
<g filter="url(#filter1_f_241_4769)">
<path d="M59.5832 97.2841C66.7083 95.9143 70.6092 93.9571 76.0062 90.279C82.4011 85.9208 87.7761 77.647 87.4426 76.6059C87.1063 75.5416 80.2031 82.9109 74.4402 86.0874C62.1967 92.8361 38.141 95.7107 37.6144 95.9389C35.9037 96.6861 51.0113 98.9322 59.5832 97.2841Z" fill="#4E4877"/>
</g>
<g filter="url(#filter2_f_241_4769)">
<path d="M59.8051 83.8087C69.1711 80.2947 73.8786 75.9896 80.0537 68.1195C87.3707 58.794 91.9156 41.8611 91.0925 39.8455C90.2574 37.7844 83.2865 53.1073 76.4313 60.0298C61.8671 74.737 29.6366 83.1485 28.9886 83.6585C26.8854 85.3273 48.5373 88.0363 59.8051 83.8087Z" fill="#494372"/>
</g>
<g filter="url(#filter3_f_241_4769)">
<path d="M20.518 19.678C19.7183 23.8185 20.9413 28.501 24.9649 30.8233C26.3319 31.5006 27.3323 32.3908 29.0661 32.8554C30.222 33.1651 31.4557 33.1846 32.6893 33.2041C34.2119 33.301 35.6011 32.7401 36.9903 32.1791C36.6236 32.3919 36.6235 32.3919 36.2568 32.6047C38.3795 31.6182 40.7133 30.9993 42.4136 29.2775C44.036 27.8459 44.8693 25.8918 45.4137 23.8603C47.3357 17.8431 43.1672 11.4382 37.3878 9.88964C30.2413 7.66368 21.7507 11.6098 20.518 19.678Z" fill="white"/>
</g>
<g opacity="0.4" filter="url(#filter4_f_241_4769)">
<path d="M22.553 40.8645C25.5419 45.0005 31.4288 47.4326 38.3747 45.0326C40.6286 44.1283 42.6525 43.7803 45.1366 42.3198C46.7926 41.3462 48.2647 40.0597 49.7368 38.7732C51.623 37.2433 52.7273 35.3312 53.8315 33.4191C53.6015 33.9753 53.6014 33.9753 53.3713 34.5316C54.9358 31.507 57.0982 28.5519 57.4668 25.3885C58.0193 22.538 57.1459 20.1048 55.8585 17.9151C52.4102 11.1026 41.4173 10.4096 33.1371 15.2779C22.6029 21.0505 16.3451 33.1487 22.553 40.8645Z" fill="#BCBBFF"/>
</g>
<g filter="url(#filter5_i_241_4769)">
<path d="M35.127 28.875L50.3772 32.9613C54.3512 34.0262 57.24 35.8295 59.0435 38.3715C60.889 40.8892 61.3059 44.0357 60.2944 47.811C59.3005 51.52 57.3872 54.0244 54.5543 55.324C51.7304 56.5905 48.4473 56.7224 44.7051 55.7197L36.7571 53.59L33.3496 66.3068L25.65 64.2437L35.127 28.875ZM41.1229 37.2965L38.3943 47.48L45.2991 49.3301C49.3393 50.4127 51.812 49.265 52.7171 45.8871C53.6311 42.4761 52.0845 40.2337 48.0774 39.16L41.1229 37.2965Z" fill="url(#paint5_linear_241_4769)"/>
</g>
<g filter="url(#filter6_i_241_4769)">
<path d="M65.752 26.75L63.8734 33.7608L35.8304 26.2467L37.7089 19.2359L65.752 26.75Z" fill="url(#paint6_linear_241_4769)"/>
</g>
<g opacity="0.67" filter="url(#filter7_f_241_4769)">
<path d="M23.0216 21.6137C22.3147 25.2735 23.3958 29.4124 26.9522 31.4651C28.1606 32.0638 29.0448 32.8506 30.5773 33.2613C31.599 33.535 32.6894 33.5522 33.7799 33.5695C35.1257 33.6551 36.3536 33.1593 37.5815 32.6635C37.2574 32.8516 37.2574 32.8516 36.9332 33.0397C38.8094 32.1677 40.8723 31.6207 42.3752 30.0988C43.8093 28.8334 44.5459 27.1061 45.027 25.3105C46.7259 19.9919 43.0414 14.3306 37.9329 12.9618C31.6161 10.9943 24.1112 14.4822 23.0216 21.6137Z" fill="white"/>
</g>
<g filter="url(#filter8_f_241_4769)">
<path d="M9.26166 51.6438C8.00497 50.324 6.68481 48.1306 6.29356 44.1982C5.90578 39.8293 6.85716 35.2526 8.07456 32.6427C9.36408 29.8151 10.9231 28.5176 12.3978 28.9659C13.804 29.1953 15.1276 30.9522 16.4512 32.709C19.4487 36.4438 22.4461 40.1785 25.3715 44.131C27.2513 46.7654 29.5997 52.4597 26.7495 56.803C24.6118 60.0605 20.8931 58.503 18.5737 58.048C15.4129 57.1498 12.2626 54.9419 9.26166 51.6438Z" fill="#99A1CD"/>
</g>
<g filter="url(#filter9_f_241_4769)">
<path d="M70.7226 53.3977C69.4659 52.0779 68.1457 49.8845 67.7545 45.9521C67.3667 41.5832 68.3181 37.0065 69.5355 34.3966C70.825 31.569 72.384 30.2715 73.8588 30.7198C75.2649 30.9492 76.5885 32.7061 77.9121 34.4629C80.9096 38.1977 83.9071 41.9324 86.8324 45.8849C88.7123 48.5193 91.0607 54.2136 88.2104 58.5569C86.0728 61.8144 82.3541 60.2569 80.0346 59.8019C76.8739 58.9037 73.7235 56.6958 70.7226 53.3977Z" fill="#99A1CD"/>
</g>
<g opacity="0.4" filter="url(#filter10_f_241_4769)">
<path d="M6.51256 62.3628C6.1357 64.3139 6.71206 66.5205 8.60807 67.6148C9.25229 67.934 9.72369 68.3535 10.5407 68.5724C11.0854 68.7184 11.6668 68.7276 12.2481 68.7367C12.9656 68.7824 13.6202 68.5181 14.2749 68.2538C14.102 68.354 14.102 68.354 13.9292 68.4543C14.9295 67.9894 16.0293 67.6978 16.8305 66.8864C17.595 66.2118 17.9877 65.291 18.2442 64.3337C19.15 61.4982 17.1856 58.48 14.4622 57.7502C11.0945 56.7013 7.09346 58.5608 6.51256 62.3628Z" fill="#6B68F5" fill-opacity="0.58"/>
</g>
<path opacity="0.79" d="M2.54742 74.488C-11.6823 48.9924 -2.7086 16.7039 22.4508 2.09094C47.9464 -12.1388 80.235 -3.16509 94.8479 21.9943C109.078 47.4899 100.104 79.7785 74.9445 94.3914C49.0657 108.957 16.7771 99.9836 2.54742 74.488Z" fill="url(#paint7_radial_241_4769)"/>
</g>
<defs>
<filter id="filter0_f_241_4769" x="25.8109" y="-11.4748" width="77.9915" height="67.4813" filterUnits="userSpaceOnUse" color-interpolation-filters="sRGB">
<feFlood flood-opacity="0" result="BackgroundImageFix"/>
<feBlend mode="normal" in="SourceGraphic" in2="BackgroundImageFix" result="shape"/>
<feGaussianBlur stdDeviation="8.16682" result="effect1_foregroundBlur_241_4769"/>
</filter>
<filter id="filter1_f_241_4769" x="36.1897" y="75.2107" width="52.5581" height="23.9546" filterUnits="userSpaceOnUse" color-interpolation-filters="sRGB">
<feFlood flood-opacity="0" result="BackgroundImageFix"/>
<feBlend mode="normal" in="SourceGraphic" in2="BackgroundImageFix" result="shape"/>
<feGaussianBlur stdDeviation="0.645386" result="effect1_foregroundBlur_241_4769"/>
</filter>
<filter id="filter2_f_241_4769" x="22.9182" y="33.7288" width="74.1967" height="58.2617" filterUnits="userSpaceOnUse" color-interpolation-filters="sRGB">
<feFlood flood-opacity="0" result="BackgroundImageFix"/>
<feBlend mode="normal" in="SourceGraphic" in2="BackgroundImageFix" result="shape"/>
<feGaussianBlur stdDeviation="2.96373" result="effect1_foregroundBlur_241_4769"/>
</filter>
<filter id="filter3_f_241_4769" x="14.3596" y="3.34744" width="37.4565" height="35.7949" filterUnits="userSpaceOnUse" color-interpolation-filters="sRGB">
<feFlood flood-opacity="0" result="BackgroundImageFix"/>
<feBlend mode="normal" in="SourceGraphic" in2="BackgroundImageFix" result="shape"/>
<feGaussianBlur stdDeviation="2.96373" result="effect1_foregroundBlur_241_4769"/>
</filter>
<filter id="filter4_f_241_4769" x="3.7562" y="-4.20669" width="70.2122" height="66.5218" filterUnits="userSpaceOnUse" color-interpolation-filters="sRGB">
<feFlood flood-opacity="0" result="BackgroundImageFix"/>
<feBlend mode="normal" in="SourceGraphic" in2="BackgroundImageFix" result="shape"/>
<feGaussianBlur stdDeviation="8.16682" result="effect1_foregroundBlur_241_4769"/>
</filter>
<filter id="filter5_i_241_4769" x="25.6504" y="28.875" width="35.1816" height="38.3049" filterUnits="userSpaceOnUse" color-interpolation-filters="sRGB">
<feFlood flood-opacity="0" result="BackgroundImageFix"/>
<feBlend mode="normal" in="SourceGraphic" in2="BackgroundImageFix" result="shape"/>
<feColorMatrix in="SourceAlpha" type="matrix" values="0 0 0 0 0 0 0 0 0 0 0 0 0 0 0 0 0 0 127 0" result="hardAlpha"/>
<feOffset dy="0.873253"/>
<feGaussianBlur stdDeviation="0.873253"/>
<feComposite in2="hardAlpha" operator="arithmetic" k2="-1" k3="1"/>
<feColorMatrix type="matrix" values="0 0 0 0 0.178351 0 0 0 0 0.160417 0 0 0 0 0.366667 0 0 0 1 0"/>
<feBlend mode="normal" in2="shape" result="effect1_innerShadow_241_4769"/>
</filter>
<filter id="filter6_i_241_4769" x="35.8301" y="19.2358" width="29.9219" height="15.3982" filterUnits="userSpaceOnUse" color-interpolation-filters="sRGB">
<feFlood flood-opacity="0" result="BackgroundImageFix"/>
<feBlend mode="normal" in="SourceGraphic" in2="BackgroundImageFix" result="shape"/>
<feColorMatrix in="SourceAlpha" type="matrix" values="0 0 0 0 0 0 0 0 0 0 0 0 0 0 0 0 0 0 127 0" result="hardAlpha"/>
<feOffset dy="0.873253"/>
<feGaussianBlur stdDeviation="0.873253"/>
<feComposite in2="hardAlpha" operator="arithmetic" k2="-1" k3="1"/>
<feColorMatrix type="matrix" values="0 0 0 0 0.178351 0 0 0 0 0.160417 0 0 0 0 0.366667 0 0 0 1 0"/>
<feBlend mode="normal" in2="shape" result="effect1_innerShadow_241_4769"/>
</filter>
<filter id="filter7_f_241_4769" x="17.5771" y="7.17915" width="33.1075" height="31.6393" filterUnits="userSpaceOnUse" color-interpolation-filters="sRGB">
<feFlood flood-opacity="0" result="BackgroundImageFix"/>
<feBlend mode="normal" in="SourceGraphic" in2="BackgroundImageFix" result="shape"/>
<feGaussianBlur stdDeviation="2.61965" result="effect1_foregroundBlur_241_4769"/>
</filter>
<filter id="filter8_f_241_4769" x="-10.1286" y="12.5453" width="54.5384" height="62.6087" filterUnits="userSpaceOnUse" color-interpolation-filters="sRGB">
<feFlood flood-opacity="0" result="BackgroundImageFix"/>
<feBlend mode="normal" in="SourceGraphic" in2="BackgroundImageFix" result="shape"/>
<feGaussianBlur stdDeviation="8.16682" result="effect1_foregroundBlur_241_4769"/>
</filter>
<filter id="filter9_f_241_4769" x="51.3324" y="14.2992" width="54.5384" height="62.6087" filterUnits="userSpaceOnUse" color-interpolation-filters="sRGB">
<feFlood flood-opacity="0" result="BackgroundImageFix"/>
<feBlend mode="normal" in="SourceGraphic" in2="BackgroundImageFix" result="shape"/>
<feGaussianBlur stdDeviation="8.16682" result="effect1_foregroundBlur_241_4769"/>
</filter>
<filter id="filter10_f_241_4769" x="3.44056" y="54.4967" width="17.99" height="17.2087" filterUnits="userSpaceOnUse" color-interpolation-filters="sRGB">
<feFlood flood-opacity="0" result="BackgroundImageFix"/>
<feBlend mode="normal" in="SourceGraphic" in2="BackgroundImageFix" result="shape"/>
<feGaussianBlur stdDeviation="1.48187" result="effect1_foregroundBlur_241_4769"/>
</filter>
<linearGradient id="paint0_linear_241_4769" x1="45.8196" y1="107.456" x2="48.9372" y2="14.5277" gradientUnits="userSpaceOnUse">
<stop offset="0.00086138" stop-color="#4A4574"/>
<stop offset="0.9992" stop-color="#9091BF"/>
</linearGradient>
<linearGradient id="paint1_linear_241_4769" x1="45.8196" y1="107.456" x2="48.9372" y2="14.5272" gradientUnits="userSpaceOnUse">
<stop offset="0.00086138" stop-color="#55527C"/>
<stop offset="0.9992" stop-color="#BCC3E2"/>
</linearGradient>
<linearGradient id="paint2_linear_241_4769" x1="59.9643" y1="102.746" x2="45.676" y2="36.5333" gradientUnits="userSpaceOnUse">
<stop offset="0.00064103" stop-color="#646797"/>
<stop offset="0.9927" stop-color="#959EC8" stop-opacity="0"/>
</linearGradient>
<radialGradient id="paint3_radial_241_4769" cx="0" cy="0" r="1" gradientUnits="userSpaceOnUse" gradientTransform="translate(47.8615 47.4828) scale(47.7341 47.3831)">
<stop offset="0.0099359" stop-color="#B1B9DB"/>
<stop offset="0.234375" stop-color="#7177A9" stop-opacity="0.81"/>
<stop offset="0.479167" stop-color="#585883" stop-opacity="0.88"/>
<stop offset="0.744792" stop-color="#58557C"/>
<stop offset="1" stop-color="#29284A"/>
</radialGradient>
<linearGradient id="paint4_linear_241_4769" x1="71.2684" y1="108.672" x2="40.1816" y2="26.8996" gradientUnits="userSpaceOnUse">
<stop offset="0.00282452" stop-color="#55537D"/>
<stop offset="1" stop-color="#9FA5D1" stop-opacity="0"/>
</linearGradient>
<linearGradient id="paint5_linear_241_4769" x1="64.7497" y1="56.8344" x2="60.8626" y2="32.7955" gradientUnits="userSpaceOnUse">
<stop stop-color="#54517E"/>
<stop offset="0.713542" stop-color="#9091C5"/>
</linearGradient>
<linearGradient id="paint6_linear_241_4769" x1="48.6349" y1="31.3854" x2="57.9002" y2="23.5851" gradientUnits="userSpaceOnUse">
<stop stop-color="#54517E"/>
<stop offset="0.713542" stop-color="#9091C5"/>
</linearGradient>
<radialGradient id="paint7_radial_241_4769" cx="0" cy="0" r="1" gradientUnits="userSpaceOnUse" gradientTransform="translate(41.4381 38.7219) rotate(150.399) scale(73.3955)">
<stop offset="0.5433" stop-color="#6D71A2" stop-opacity="0"/>
<stop offset="0.828125" stop-color="#E87354"/>
<stop offset="0.958333" stop-color="#BBD8F1"/>
</radialGradient>
</defs>
</svg>
