<svg width="272" height="283" viewBox="0 0 272 283" fill="none" xmlns="http://www.w3.org/2000/svg">
<g filter="url(#filter0_f_241_4729)">
<mask id="mask0_241_4729" style="mask-type:alpha" maskUnits="userSpaceOnUse" x="67" y="67" width="148" height="148">
<path d="M212.151 160.241C222.645 121.077 199.404 80.8211 160.239 70.3271C121.075 59.8331 80.8193 83.0749 70.3253 122.239C59.8313 161.403 83.0731 201.659 122.237 212.153C161.401 222.647 201.657 199.405 212.151 160.241Z" fill="url(#paint0_radial_241_4729)"/>
</mask>
<g mask="url(#mask0_241_4729)">
<path d="M212.151 160.241C222.645 121.077 199.404 80.8211 160.239 70.3271C121.075 59.8331 80.8193 83.0749 70.3253 122.239C59.8313 161.403 83.0731 201.659 122.237 212.153C161.401 222.647 201.657 199.405 212.151 160.241Z" fill="url(#paint1_radial_241_4729)"/>
<path opacity="0.6" d="M158.371 69.7838C197.623 79.465 221.831 119.052 212.856 158.326C203.175 197.578 163.587 221.786 124.314 212.811C85.0616 203.129 60.8534 163.542 69.829 124.268C79.5319 84.3108 119.119 60.1027 158.371 69.7838Z" fill="url(#paint2_radial_241_4729)"/>
<path opacity="0.79" d="M84.0592 194.917C53.3055 162.861 54.0949 111.879 85.5092 80.6908C117.566 49.9371 168.547 50.7265 199.736 82.1408C230.489 114.197 229.7 165.179 198.286 196.367C165.794 227.763 114.813 226.974 84.0592 194.917Z" fill="url(#paint3_radial_241_4729)"/>
<g filter="url(#filter1_f_241_4729)">
<path d="M103.841 104.554C102.509 111.449 104.546 119.247 111.247 123.115C113.523 124.243 115.189 125.725 118.077 126.499C120.002 127.015 122.056 127.047 124.111 127.08C126.647 127.241 128.96 126.307 131.274 125.373C130.663 125.727 130.663 125.727 130.052 126.082C133.587 124.439 137.474 123.408 140.306 120.541C143.008 118.156 144.395 114.902 145.302 111.519C148.503 101.498 141.561 90.8312 131.936 88.2522C120.034 84.5451 105.894 91.1169 103.841 104.554Z" fill="white"/>
</g>
</g>
</g>
<defs>
<filter id="filter0_f_241_4729" x="37.0923" y="37.095" width="208.292" height="208.29" filterUnits="userSpaceOnUse" color-interpolation-filters="sRGB">
<feFlood flood-opacity="0" result="BackgroundImageFix"/>
<feBlend mode="normal" in="SourceGraphic" in2="BackgroundImageFix" result="shape"/>
<feGaussianBlur stdDeviation="15.3562" result="effect1_foregroundBlur_241_4729"/>
</filter>
<filter id="filter1_f_241_4729" x="85.6033" y="69.3768" width="78.3402" height="75.5732" filterUnits="userSpaceOnUse" color-interpolation-filters="sRGB">
<feFlood flood-opacity="0" result="BackgroundImageFix"/>
<feBlend mode="normal" in="SourceGraphic" in2="BackgroundImageFix" result="shape"/>
<feGaussianBlur stdDeviation="8.92588" result="effect1_foregroundBlur_241_4729"/>
</filter>
<radialGradient id="paint0_radial_241_4729" cx="0" cy="0" r="1" gradientUnits="userSpaceOnUse" gradientTransform="translate(113.502 104.802) rotate(12.9328) scale(160.107 132.897)">
<stop offset="0.0001" stop-color="#E8EFFF"/>
<stop offset="0.317708" stop-color="#EEE9FF"/>
<stop offset="0.484375" stop-color="#D8E0F4"/>
<stop offset="0.635417" stop-color="#BFC8DB"/>
<stop offset="1" stop-color="#BCC1CB"/>
</radialGradient>
<radialGradient id="paint1_radial_241_4729" cx="0" cy="0" r="1" gradientUnits="userSpaceOnUse" gradientTransform="translate(113.502 104.802) rotate(12.9328) scale(160.107 132.897)">
<stop offset="0.0001" stop-color="#E8EFFF"/>
<stop offset="0.317708" stop-color="#ECEBF1"/>
<stop offset="0.484375" stop-color="#D8E0F4"/>
<stop offset="0.635417" stop-color="#BFC8DB"/>
<stop offset="1" stop-color="#BCC1CB"/>
</radialGradient>
<radialGradient id="paint2_radial_241_4729" cx="0" cy="0" r="1" gradientUnits="userSpaceOnUse" gradientTransform="translate(157.837 142.941) rotate(-76.5793) scale(101.626)">
<stop offset="0.5433" stop-color="white" stop-opacity="0"/>
<stop offset="1" stop-color="white"/>
</radialGradient>
<radialGradient id="paint3_radial_241_4729" cx="0" cy="0" r="1" gradientUnits="userSpaceOnUse" gradientTransform="translate(127.55 127.309) rotate(135.754) scale(111.668)">
<stop offset="0.5625" stop-color="#6D71A2" stop-opacity="0"/>
<stop offset="0.78125" stop-color="#2D3F6D" stop-opacity="0.54"/>
<stop offset="0.958333" stop-color="white"/>
</radialGradient>
</defs>
</svg>
