<svg width="254" height="254" viewBox="0 0 254 254" fill="none" xmlns="http://www.w3.org/2000/svg">
<g opacity="0.3" filter="url(#filter0_f_248_10540)">
<g style="mix-blend-mode:multiply" opacity="0.5" filter="url(#filter1_f_248_10540)">
<ellipse cx="127.083" cy="127.782" rx="68.4108" ry="67.7654" fill="url(#paint0_radial_248_10540)"/>
</g>
<mask id="mask0_248_10540" style="mask-type:alpha" maskUnits="userSpaceOnUse" x="54" y="63" width="117" height="116">
<path d="M168.558 135.984C176.816 105.164 158.526 73.4859 127.707 65.2279C96.8871 56.9698 65.2086 75.2594 56.9505 106.079C48.6925 136.898 66.9821 168.577 97.8015 176.835C128.621 185.093 160.299 166.803 168.558 135.984Z" fill="url(#paint1_radial_248_10540)"/>
</mask>
<g mask="url(#mask0_248_10540)">
<path d="M168.559 135.984C176.818 105.164 158.528 73.4859 127.708 65.2279C96.8891 56.9698 65.2105 75.2594 56.9525 106.079C48.6945 136.898 66.9841 168.577 97.8035 176.835C128.623 185.093 160.301 166.803 168.559 135.984Z" fill="url(#paint2_radial_248_10540)"/>
<path opacity="0.6" d="M126.236 64.8032C157.125 72.4216 176.175 103.574 169.112 134.48C161.493 165.368 130.341 184.418 99.4355 177.355C68.5469 169.737 49.4968 138.584 56.56 107.679C64.1954 76.2349 95.3477 57.1848 126.236 64.8032Z" fill="url(#paint3_radial_248_10540)"/>
<g filter="url(#filter2_f_248_10540)">
<path d="M83.3255 92.1649C82.2774 97.5912 83.8803 103.728 89.1533 106.771C90.945 107.659 92.256 108.826 94.5282 109.435C96.0431 109.84 97.6598 109.866 99.2766 109.891C101.272 110.019 103.093 109.283 104.913 108.548C104.433 108.827 104.433 108.827 103.952 109.106C106.734 107.813 109.792 107.002 112.021 104.746C114.147 102.869 115.239 100.308 115.952 97.6461C118.471 89.7603 113.008 81.3664 105.434 79.3369C96.0683 76.4197 84.941 81.5912 83.3255 92.1649Z" fill="white"/>
</g>
<g opacity="0.4" filter="url(#filter3_f_248_10540)">
<path d="M70.6023 145.499C69.6628 150.363 71.0997 155.864 75.8266 158.592C77.4326 159.388 78.6079 160.434 80.6448 160.979C82.0027 161.343 83.452 161.366 84.9013 161.389C86.6901 161.503 88.3221 160.844 89.9542 160.185C89.5233 160.435 89.5233 160.435 89.0925 160.685C91.5862 159.526 94.328 158.799 96.3255 156.776C98.2315 155.094 99.2105 152.799 99.85 150.412C102.108 143.343 97.2109 135.818 90.4212 133.999C82.0254 131.384 72.0505 136.02 70.6023 145.499Z" fill="#FED2AC"/>
</g>
<g opacity="0.4" filter="url(#filter4_f_248_10540)">
<path d="M113.257 63.6484C112.317 68.5127 113.754 74.0138 118.481 76.7421C120.087 77.5378 121.262 78.5836 123.299 79.1294C124.657 79.4933 126.106 79.5161 127.556 79.539C129.344 79.6529 130.976 78.9939 132.608 78.3349C132.178 78.5849 132.178 78.5849 131.747 78.8349C134.24 77.6759 136.982 76.9489 138.98 74.9261C140.886 73.2442 141.865 70.9485 142.504 68.5619C144.762 61.4929 139.865 53.9683 133.075 52.149C124.68 49.5339 114.705 54.1698 113.257 63.6484Z" fill="#FED2AC"/>
</g>
</g>
</g>
<defs>
<filter id="filter0_f_248_10540" x="36.6538" y="41.7017" width="177.155" height="172.161" filterUnits="userSpaceOnUse" color-interpolation-filters="sRGB">
<feFlood flood-opacity="0" result="BackgroundImageFix"/>
<feBlend mode="normal" in="SourceGraphic" in2="BackgroundImageFix" result="shape"/>
<feGaussianBlur stdDeviation="9.15745" result="effect1_foregroundBlur_248_10540"/>
</filter>
<filter id="filter1_f_248_10540" x="47.0648" y="48.4095" width="160.036" height="158.745" filterUnits="userSpaceOnUse" color-interpolation-filters="sRGB">
<feFlood flood-opacity="0" result="BackgroundImageFix"/>
<feBlend mode="normal" in="SourceGraphic" in2="BackgroundImageFix" result="shape"/>
<feGaussianBlur stdDeviation="5.80353" result="effect1_foregroundBlur_248_10540"/>
</filter>
<filter id="filter2_f_248_10540" x="68.9734" y="64.4832" width="61.6488" height="59.4706" filterUnits="userSpaceOnUse" color-interpolation-filters="sRGB">
<feFlood flood-opacity="0" result="BackgroundImageFix"/>
<feBlend mode="normal" in="SourceGraphic" in2="BackgroundImageFix" result="shape"/>
<feGaussianBlur stdDeviation="7.02403" result="effect1_foregroundBlur_248_10540"/>
</filter>
<filter id="filter3_f_248_10540" x="54.191" y="117.138" width="62.3544" height="60.4032" filterUnits="userSpaceOnUse" color-interpolation-filters="sRGB">
<feFlood flood-opacity="0" result="BackgroundImageFix"/>
<feBlend mode="normal" in="SourceGraphic" in2="BackgroundImageFix" result="shape"/>
<feGaussianBlur stdDeviation="8.06956" result="effect1_foregroundBlur_248_10540"/>
</filter>
<filter id="filter4_f_248_10540" x="96.8453" y="35.2876" width="62.3544" height="60.4032" filterUnits="userSpaceOnUse" color-interpolation-filters="sRGB">
<feFlood flood-opacity="0" result="BackgroundImageFix"/>
<feBlend mode="normal" in="SourceGraphic" in2="BackgroundImageFix" result="shape"/>
<feGaussianBlur stdDeviation="8.06956" result="effect1_foregroundBlur_248_10540"/>
</filter>
<radialGradient id="paint0_radial_248_10540" cx="0" cy="0" r="1" gradientUnits="userSpaceOnUse" gradientTransform="translate(102.783 97.1687) rotate(51.3684) scale(97.8467 98.7522)">
<stop offset="0.39684" stop-color="#101A38"/>
<stop offset="0.508796" stop-color="#405E7A"/>
<stop offset="1" stop-color="#567892" stop-opacity="0.03"/>
</radialGradient>
<radialGradient id="paint1_radial_248_10540" cx="0" cy="0" r="1" gradientUnits="userSpaceOnUse" gradientTransform="translate(90.9272 92.3569) rotate(12.9328) scale(125.993 104.58)">
<stop offset="0.0001" stop-color="#E8EFFF"/>
<stop offset="0.317708" stop-color="#EEE9FF"/>
<stop offset="0.484375" stop-color="#D8E0F4"/>
<stop offset="0.635417" stop-color="#BFC8DB"/>
<stop offset="1" stop-color="#BCC1CB"/>
</radialGradient>
<radialGradient id="paint2_radial_248_10540" cx="0" cy="0" r="1" gradientUnits="userSpaceOnUse" gradientTransform="translate(90.9292 92.3569) rotate(12.9328) scale(125.993 104.58)">
<stop offset="0.0001" stop-color="#E8EFFF"/>
<stop offset="0.317708" stop-color="#EEE9FF"/>
<stop offset="0.484375" stop-color="#D8E0F4"/>
<stop offset="0.635417" stop-color="#BFC8DB"/>
<stop offset="1" stop-color="#BCC1CB"/>
</radialGradient>
<radialGradient id="paint3_radial_248_10540" cx="0" cy="0" r="1" gradientUnits="userSpaceOnUse" gradientTransform="translate(125.816 122.373) rotate(-76.5793) scale(79.9725)">
<stop offset="0.5433" stop-color="white" stop-opacity="0"/>
<stop offset="1" stop-color="white"/>
</radialGradient>
</defs>
</svg>
