<svg width="72" height="74" viewBox="0 0 72 74" fill="none" xmlns="http://www.w3.org/2000/svg">
<g filter="url(#filter0_d_241_4635)">
<path d="M31.0139 62.5717C48.1424 62.5717 62.0278 48.7884 62.0278 31.7859C62.0278 14.7833 48.1424 1 31.0139 1C13.8854 1 0 14.7833 0 31.7859C0 48.7884 13.8854 62.5717 31.0139 62.5717Z" fill="url(#paint0_linear_241_4635)"/>
<path opacity="0.49" d="M31.0139 62.5717C48.1424 62.5717 62.0278 48.7884 62.0278 31.7859C62.0278 14.7833 48.1424 1 31.0139 1C13.8854 1 0 14.7833 0 31.7859C0 48.7884 13.8854 62.5717 31.0139 62.5717Z" fill="url(#paint1_radial_241_4635)"/>
<g opacity="0.4" filter="url(#filter1_f_241_4635)">
<path d="M14.617 27.483C16.5541 30.1636 20.3696 31.7399 24.8713 30.1844C26.3322 29.5983 27.6439 29.3728 29.2539 28.4262C30.3272 27.7951 31.2813 26.9613 32.2354 26.1275C33.4578 25.136 34.1736 23.8967 34.8893 22.6574C34.7401 23.0179 34.7401 23.0179 34.591 23.3784C35.605 21.4181 37.0065 19.5028 37.2454 17.4526C37.6035 15.605 37.0374 14.0281 36.203 12.6089C33.9681 8.19351 26.8434 7.74439 21.4768 10.8997C14.6493 14.641 10.5935 22.4822 14.617 27.483Z" fill="#F5B362"/>
</g>
<g filter="url(#filter2_i_241_4635)">
<g clip-path="url(#clip0_241_4635)">
<path d="M38.0955 36.002C36.5969 38.3673 34.4988 39.1943 32.1009 39.3673C27.8297 39.6943 24.5327 37.1558 23.5773 32.8481C23.4649 32.3481 23.2588 32.1366 22.7717 32.1558C22.0224 32.175 21.2731 32.1558 20.4488 32.1558C20.4488 31.2327 20.4488 30.3673 20.4488 29.4058C21.2543 29.4058 22.0411 29.3673 22.8092 29.425C23.4087 29.4635 23.6335 29.252 23.8395 28.6366C25.5442 23.4058 31.951 21.4827 35.9787 24.9827C37.1214 25.9827 37.7021 26.9827 38.4702 29.3866C39.4631 29.3866 40.4747 29.3866 41.6923 29.3866C41.3926 30.3096 41.1865 31.1366 40.8681 31.9058C40.7931 32.0981 40.2873 32.1558 39.9689 32.1558C35.9787 32.175 31.9885 32.175 27.9983 32.175C27.6986 32.175 27.3988 32.175 27.0054 32.175C27.2115 33.8481 27.9234 35.0596 29.3096 35.6558C31.5951 36.6366 33.637 36.1366 35.3792 34.2135C36.2784 34.8096 37.1589 35.3866 38.0955 36.002ZM34.7423 29.3481C34.555 27.5212 33.1874 26.3289 31.2579 26.252C29.1598 26.175 27.5487 27.3866 27.2115 29.3481C29.7218 29.3481 32.232 29.3481 34.7423 29.3481Z" fill="url(#paint2_linear_241_4635)"/>
<path d="M9.99581 31.4824C11.2509 31.4824 12.2813 31.4631 13.2929 31.4824C13.986 31.5016 13.8174 32.0977 13.8361 32.5016C14.0047 35.8862 15.0538 38.9631 16.9833 41.6939C20.2054 46.2708 24.5703 48.8093 30.0779 49.1554C30.9021 49.2131 31.2019 49.4247 31.1082 50.2708C31.052 50.867 31.052 51.4824 31.1082 52.0977C31.1644 52.8093 30.9396 53.0401 30.209 53.0016C20.5614 52.4824 12.6559 45.6362 10.5765 35.9439C10.2955 34.54 10.2019 33.0977 9.99581 31.4824Z" fill="url(#paint3_linear_241_4635)"/>
<path d="M50.1413 31.5587C48.4365 31.5587 48.4365 31.5587 48.2492 29.7702C47.35 21.0202 40.5686 14.3664 31.97 13.8471C31.2581 13.8087 30.9397 13.6164 31.0146 12.8471C31.0708 12.251 31.0708 11.6164 31.0146 11.0202C30.9209 10.1164 31.3143 9.96251 32.1011 10.001C42.8915 10.5971 51.4526 19.4433 51.9959 30.5779C52.0333 31.3664 51.8085 31.6356 51.0592 31.5587C50.7595 31.5202 50.441 31.5587 50.1413 31.5587Z" fill="url(#paint4_linear_241_4635)"/>
</g>
</g>
<g filter="url(#filter3_f_241_4635)">
<path d="M13.3855 19.441C12.7019 22.9802 13.7473 26.9827 17.1865 28.9678C18.3551 29.5468 19.2102 30.3076 20.6922 30.7048C21.6802 30.9695 22.7347 30.9861 23.7892 31.0028C25.0907 31.0857 26.2782 30.6062 27.4656 30.1267C27.1521 30.3086 27.1521 30.3086 26.8386 30.4905C28.653 29.6472 30.6479 29.1183 32.1013 27.6465C33.4881 26.4228 34.2004 24.7525 34.6657 23.016C36.3086 17.8727 32.7455 12.3979 27.8054 11.0742C21.6967 9.17151 14.4392 12.5445 13.3855 19.441Z" fill="white"/>
</g>
</g>
<defs>
<filter id="filter0_d_241_4635" x="0" y="1" width="71.0273" height="72.5717" filterUnits="userSpaceOnUse" color-interpolation-filters="sRGB">
<feFlood flood-opacity="0" result="BackgroundImageFix"/>
<feColorMatrix in="SourceAlpha" type="matrix" values="0 0 0 0 0 0 0 0 0 0 0 0 0 0 0 0 0 0 127 0" result="hardAlpha"/>
<feOffset dx="5" dy="7"/>
<feGaussianBlur stdDeviation="2"/>
<feComposite in2="hardAlpha" operator="out"/>
<feColorMatrix type="matrix" values="0 0 0 0 0 0 0 0 0 0 0 0 0 0 0 0 0 0 0.25 0"/>
<feBlend mode="normal" in2="BackgroundImageFix" result="effect1_dropShadow_241_4635"/>
<feBlend mode="normal" in="SourceGraphic" in2="effect1_dropShadow_241_4635" result="shape"/>
</filter>
<filter id="filter1_f_241_4635" x="7.92089" y="3.75878" width="34.5332" height="32.1392" filterUnits="userSpaceOnUse" color-interpolation-filters="sRGB">
<feFlood flood-opacity="0" result="BackgroundImageFix"/>
<feBlend mode="normal" in="SourceGraphic" in2="BackgroundImageFix" result="shape"/>
<feGaussianBlur stdDeviation="2.54932" result="effect1_foregroundBlur_241_4635"/>
</filter>
<filter id="filter2_i_241_4635" x="9.99609" y="10.0037" width="42" height="44" filterUnits="userSpaceOnUse" color-interpolation-filters="sRGB">
<feFlood flood-opacity="0" result="BackgroundImageFix"/>
<feBlend mode="normal" in="SourceGraphic" in2="BackgroundImageFix" result="shape"/>
<feColorMatrix in="SourceAlpha" type="matrix" values="0 0 0 0 0 0 0 0 0 0 0 0 0 0 0 0 0 0 127 0" result="hardAlpha"/>
<feOffset dy="1"/>
<feGaussianBlur stdDeviation="1"/>
<feComposite in2="hardAlpha" operator="arithmetic" k2="-1" k3="1"/>
<feColorMatrix type="matrix" values="0 0 0 0 0.620833 0 0 0 0 0.204707 0 0 0 0 0 0 0 0 1 0"/>
<feBlend mode="normal" in2="shape" result="effect1_innerShadow_241_4635"/>
</filter>
<filter id="filter3_f_241_4635" x="2.99022" y="0.351543" width="42.2774" height="40.8579" filterUnits="userSpaceOnUse" color-interpolation-filters="sRGB">
<feFlood flood-opacity="0" result="BackgroundImageFix"/>
<feBlend mode="normal" in="SourceGraphic" in2="BackgroundImageFix" result="shape"/>
<feGaussianBlur stdDeviation="5.09864" result="effect1_foregroundBlur_241_4635"/>
</filter>
<linearGradient id="paint0_linear_241_4635" x1="29.6968" y1="70.6449" x2="31.7173" y2="10.4157" gradientUnits="userSpaceOnUse">
<stop stop-color="#FA8700"/>
<stop offset="0.9992" stop-color="#FF9A51"/>
</linearGradient>
<radialGradient id="paint1_radial_241_4635" cx="0" cy="0" r="1" gradientUnits="userSpaceOnUse" gradientTransform="translate(31.0201 31.775) scale(30.9376 30.7101)">
<stop stop-color="#FFF4F2"/>
<stop offset="0.322917" stop-color="#FFD7A8" stop-opacity="0.81"/>
<stop offset="0.5625" stop-color="#FFA858" stop-opacity="0.88"/>
<stop offset="0.744792" stop-color="#BA9B7F"/>
<stop offset="1" stop-color="#E05F16"/>
</radialGradient>
<linearGradient id="paint2_linear_241_4635" x1="52.1048" y1="49.2043" x2="53.9172" y2="9.1898" gradientUnits="userSpaceOnUse">
<stop stop-color="#F58B58"/>
<stop offset="0.713542" stop-color="#FDB768"/>
<stop offset="1" stop-color="#FFCBA4"/>
</linearGradient>
<linearGradient id="paint3_linear_241_4635" x1="52.1048" y1="49.2043" x2="53.9172" y2="9.1898" gradientUnits="userSpaceOnUse">
<stop stop-color="#F58B58"/>
<stop offset="0.713542" stop-color="#FDB768"/>
<stop offset="1" stop-color="#FFCBA4"/>
</linearGradient>
<linearGradient id="paint4_linear_241_4635" x1="52.1048" y1="49.2043" x2="53.9172" y2="9.1898" gradientUnits="userSpaceOnUse">
<stop stop-color="#F58B58"/>
<stop offset="0.713542" stop-color="#FDB768"/>
<stop offset="1" stop-color="#FFCBA4"/>
</linearGradient>
<clipPath id="clip0_241_4635">
<rect x="9.99609" y="10.0037" width="42" height="43" rx="21" fill="white"/>
</clipPath>
</defs>
</svg>
