<svg width="52" height="52" viewBox="0 0 52 52" fill="none" xmlns="http://www.w3.org/2000/svg">
<path d="M25.9991 1.67742V0C17.6751 0 10.9023 6.77274 10.9023 15.0968H12.5798C12.5798 7.69786 18.6002 1.67742 25.9991 1.67742Z" fill="#2D3C6C"/>
<path d="M14.258 15.0964C14.258 17.169 14.8023 19.1147 15.7491 20.8064L11.9876 24.5679C11.8299 24.7248 11.7419 24.9386 11.7419 25.1609V27.8315C10.768 28.1787 10.0645 29.1014 10.0645 30.1932C10.0645 31.5803 11.1935 32.7093 12.5806 32.7093C13.9676 32.7093 15.0967 31.5803 15.0967 30.1932C15.0967 29.1014 14.3931 28.1787 13.4193 27.8315V25.5082L16.6963 22.2312C18.0064 23.9356 19.7682 25.2674 21.8064 26.0508V29.0072L19.5294 31.2842C19.2014 31.1265 18.839 31.0319 18.4516 31.0319C17.0645 31.0319 15.9354 32.161 15.9354 33.548C15.9354 34.9351 17.0645 36.0642 18.4516 36.0642C19.8386 36.0642 20.9677 34.9351 20.9677 33.548C20.9677 33.1606 20.8731 32.7982 20.7154 32.4702L23.2381 29.9475C23.3958 29.7906 23.4838 29.5777 23.4838 29.3545V26.5599C24.2955 26.7376 25.1362 26.8384 25.9999 26.8384C32.475 26.8384 37.7419 21.5714 37.7419 15.0964C37.7419 8.62141 32.475 3.35449 25.9999 3.35449C19.5249 3.35449 14.258 8.62141 14.258 15.0964ZM12.5806 31.0319C12.1186 31.0319 11.7419 30.656 11.7419 30.1932C11.7419 29.7304 12.1186 29.3545 12.5806 29.3545C13.0425 29.3545 13.4193 29.7304 13.4193 30.1932C13.4193 30.656 13.0425 31.0319 12.5806 31.0319ZM18.4516 34.3867C17.9896 34.3867 17.6128 34.0108 17.6128 33.548C17.6128 33.0853 17.9896 32.7093 18.4516 32.7093C18.9135 32.7093 19.2903 33.0853 19.2903 33.548C19.2903 34.0108 18.9135 34.3867 18.4516 34.3867ZM25.1612 5.27599V14.2577H21.8256C21.9935 9.58625 23.5375 6.17858 25.1612 5.27599ZM25.1612 15.9351V24.9169C23.5375 24.0143 21.9935 20.6066 21.8256 15.9351H25.1612ZM26.8386 24.9169V15.9351H30.1742C30.0063 20.6066 28.4624 24.0143 26.8386 24.9169ZM26.8386 14.2577V5.27599C28.4624 6.17858 30.0063 9.58625 30.1742 14.2577H26.8386ZM22.4571 5.68797C21.1405 7.65697 20.2698 10.7149 20.1499 14.2577H15.978C16.3044 10.3226 18.9037 7.03122 22.4571 5.68797ZM15.978 15.9351H20.1499C20.2698 19.4779 21.1405 22.5359 22.4571 24.5049C18.9037 23.1616 16.3044 19.8703 15.978 15.9351ZM29.5428 24.5049C30.8594 22.5359 31.73 19.4779 31.85 15.9351H36.0219C35.6955 19.8703 33.0962 23.1616 29.5428 24.5049ZM36.0219 14.2577H31.85C31.73 10.7149 30.8594 7.65697 29.5428 5.68797C33.0962 7.03122 35.6955 10.3226 36.0219 14.2577Z" fill="#2D3C6C"/>
<path d="M47.8071 16.7734H42.7748V18.4509H46.9684V41.9347H5.03289V18.4509H12.5813V16.7734H4.19418C3.73141 16.7734 3.35547 17.1494 3.35547 17.6121V42.7734C3.35547 43.2374 3.73141 43.6121 4.19418 43.6121H22.6458V46.967H18.4522C16.1401 46.967 14.2587 48.8484 14.2587 51.1605C14.2587 51.6245 14.6346 51.9992 15.0974 51.9992H36.9039C37.3666 51.9992 37.7426 51.6245 37.7426 51.1605C37.7426 48.8484 35.8612 46.967 33.549 46.967H29.3555V43.6121H47.8071C48.2698 43.6121 48.6458 43.2374 48.6458 42.7734V17.6121C48.6458 17.1494 48.2698 16.7734 47.8071 16.7734ZM35.9218 50.3218H16.0794C16.4259 49.3455 17.3584 48.6444 18.4522 48.6444H33.549C34.6429 48.6444 35.5754 49.3455 35.9218 50.3218ZM27.678 46.967H24.3232V43.6121H27.678V46.967Z" fill="#2D3C6C"/>
<path d="M26.0005 28.516C25.5377 28.516 25.1618 28.8908 25.1618 29.3547V33.7027C24.1879 34.05 23.4844 34.9726 23.4844 36.0644C23.4844 37.4515 24.6134 38.5806 26.0005 38.5806C27.3876 38.5806 28.5166 37.4515 28.5166 36.0644C28.5166 34.9726 27.8131 34.05 26.8392 33.7027V30.1701C27.4867 30.1349 28.119 30.0432 28.7431 29.9285L31.285 32.4696C31.1282 32.7985 31.0328 33.1609 31.0328 33.5483C31.0328 34.9354 32.1618 36.0644 33.5489 36.0644C34.936 36.0644 36.065 34.9354 36.065 33.5483C36.065 32.1612 34.936 31.0322 33.5489 31.0322C33.1615 31.0322 32.7991 31.1276 32.471 31.2844L30.6359 29.4493C33.433 28.5439 35.8746 26.8497 37.6937 24.621L38.5812 25.5085V27.8317C37.6073 28.179 36.9037 29.1017 36.9037 30.1935C36.9037 31.5805 38.0328 32.7096 39.4199 32.7096C40.8069 32.7096 41.936 31.5805 41.936 30.1935C41.936 29.1017 41.2324 28.179 40.2586 27.8317V25.1612C40.2586 24.9388 40.1705 24.7251 40.0129 24.5682L38.6979 23.2532C40.2152 20.8988 41.0973 18.0993 41.0973 15.0967H39.4199C39.4199 22.4956 33.3994 28.516 26.0005 28.516ZM26.0005 36.9031C25.5386 36.9031 25.1618 36.5272 25.1618 36.0644C25.1618 35.6017 25.5386 35.2257 26.0005 35.2257C26.4625 35.2257 26.8392 35.6017 26.8392 36.0644C26.8392 36.5272 26.4625 36.9031 26.0005 36.9031ZM34.3876 33.5483C34.3876 34.0111 34.0108 34.387 33.5489 34.387C33.0869 34.387 32.7102 34.0111 32.7102 33.5483C32.7102 33.0855 33.0869 32.7096 33.5489 32.7096C34.0108 32.7096 34.3876 33.0855 34.3876 33.5483ZM39.4199 31.0322C38.9579 31.0322 38.5812 30.6562 38.5812 30.1935C38.5812 29.7307 38.9579 29.3547 39.4199 29.3547C39.8818 29.3547 40.2586 29.7307 40.2586 30.1935C40.2586 30.6562 39.8818 31.0322 39.4199 31.0322Z" fill="#2D3C6C"/>
</svg>
