<svg width="24" height="24" viewBox="0 0 24 24" fill="none" xmlns="http://www.w3.org/2000/svg">
<g clip-path="url(#clip0_4700_693)">
<path d="M15.7866 22.3217C15.7846 22.6161 15.783 22.8552 15.7823 23.0261L9.76626 23.0816C9.76605 22.6051 9.7642 21.7441 9.74776 20.5772C9.74397 20.3078 9.61967 20.0542 9.40902 19.8862C9.19837 19.7182 8.92353 19.6534 8.66003 19.7097C6.69136 20.1298 5.64202 19.6444 5.09288 19.1951C4.83771 18.9864 4.66104 18.7612 4.54384 18.5756C5.21555 19.1362 5.9662 19.3964 6.69739 19.4589C7.77905 19.5515 8.74066 19.2079 9.25335 18.9777C9.54927 18.8449 9.7508 18.563 9.78085 18.24C9.83539 17.6537 10.0937 17.106 10.5141 16.7119C10.7704 16.4715 10.8635 16.104 10.7523 15.7706C10.6412 15.4373 10.3462 15.1991 9.9969 15.1607C8.28871 14.9729 6.69914 14.5643 5.53934 13.604C4.42521 12.6815 3.57274 11.134 3.57274 8.35023H3.5728L3.57267 8.33951C3.55702 7.02448 4.05883 5.73964 4.96552 4.78605C5.22235 4.51594 5.28611 4.11547 5.12586 3.77896C5.03761 3.59363 4.63484 2.50658 5.09053 0.922461C5.15406 0.931306 5.22502 0.943364 5.30357 0.959633C5.87751 1.07851 6.86334 1.42379 8.31175 2.3894C8.5275 2.53323 8.79481 2.57702 9.04518 2.50954C11.4909 1.85042 14.0574 1.85042 16.503 2.50954C16.7538 2.57714 17.0216 2.53308 17.2375 2.38869C18.6666 1.43305 19.6485 1.08711 20.2244 0.965976C20.3046 0.949087 20.3772 0.93653 20.4422 0.927282C20.8912 2.4843 20.5064 3.5865 20.4076 3.85833C20.2909 4.17925 20.3658 4.53858 20.6011 4.78605C21.5029 5.73441 21.9913 7.01713 21.9756 8.33951H21.9755V8.35023C21.9755 11.144 21.1226 12.6848 20.0092 13.5995C18.8483 14.5533 17.2552 14.9539 15.5334 15.1422C15.1745 15.1815 14.8738 15.4314 14.7696 15.777C14.6653 16.1227 14.7777 16.4971 15.0551 16.7283C15.3584 16.981 15.8004 17.6594 15.8004 18.9124C15.8004 19.9606 15.7958 20.8986 15.7912 21.6372C15.7896 21.889 15.788 22.1185 15.7866 22.3217Z" stroke="#8F9ECE" stroke-width="1.8" stroke-linejoin="round"/>
</g>
<defs>
<clipPath id="clip0_4700_693">
<rect width="24" height="24" fill="white"/>
</clipPath>
</defs>
</svg>
