<svg width="67" height="71" viewBox="0 0 67 71" fill="none" xmlns="http://www.w3.org/2000/svg">
<g filter="url(#filter0_f_264_2244)">
<path d="M59.3415 40.8671C60.4403 40.1175 61.1248 38.9076 61.1483 37.5543C61.1739 36.2446 60.5466 34.9656 59.4632 34.1879L48.3969 26.1165C48.0799 25.8697 47.8459 25.5318 47.7404 25.1442L43.8139 12.1568C43.4519 10.9526 42.5799 10.0341 41.4652 9.51953C40.1309 8.97172 38.6118 9.1305 37.4281 9.92774L26.3285 17.8217C25.9906 18.0557 25.603 18.1612 25.2093 18.1361L11.5361 17.6896C10.1829 17.6661 8.90188 18.2499 8.12212 19.2898C7.34237 20.3297 7.10331 21.7367 7.51092 22.9824L11.74 35.912C11.8455 36.2996 11.864 36.6913 11.7083 37.0911L7.16112 49.8234C6.42851 51.8643 7.45106 54.1278 9.45458 54.993C9.94355 55.1881 10.474 55.3376 11.0398 55.3109L24.6986 55.4528C24.9597 55.4405 25.1814 55.5173 25.4031 55.5941C25.5378 55.675 25.6724 55.7559 25.8071 55.8368L36.666 64.136C36.9374 64.3413 37.2523 64.5446 37.6066 64.6588C38.6737 65.0883 39.8508 65.0765 40.9203 64.6336C41.9879 64.1471 42.7758 63.2813 43.1183 62.2183L47.4003 49.4114C47.5144 49.057 47.7592 48.6966 48.0991 48.5061L59.3415 40.8671Z" fill="#2D3C6C"/>
</g>
<g opacity="0.5" filter="url(#filter1_f_264_2244)">
<path d="M55.3552 35.4769C56.454 34.7273 57.1385 33.5174 57.162 32.1642C57.1875 30.8545 56.5603 29.5755 55.4768 28.7978L44.4105 20.7264C44.0936 20.4796 43.8596 20.1417 43.7541 19.7541L39.8276 6.76666C39.4656 5.56243 38.5936 4.64392 37.4789 4.12939C36.1446 3.58159 34.6255 3.74036 33.4418 4.5376L22.3422 12.4316C22.0043 12.6656 21.6167 12.7711 21.223 12.746L7.54981 12.2995C6.19657 12.276 4.91555 12.8597 4.1358 13.8996C3.35604 14.9396 3.11699 16.3466 3.52459 17.5923L7.7537 30.5218C7.85919 30.9094 7.87764 31.3011 7.722 31.701L3.17479 44.4332C2.44218 46.4741 3.46474 48.7377 5.46825 49.6029C5.95722 49.798 6.48767 49.9474 7.05344 49.9208L20.7123 50.0627C20.9734 50.0504 21.1951 50.1272 21.4168 50.204C21.5515 50.2849 21.6861 50.3657 21.8208 50.4466L32.6797 58.7459C32.9511 58.9512 33.266 59.1545 33.6203 59.2686C34.6873 59.6982 35.8644 59.6864 36.934 59.2434C38.0015 58.757 38.7895 57.8912 39.132 56.8282L43.414 44.0212C43.5281 43.6669 43.7728 43.3064 44.1128 43.116L55.3552 35.4769Z" fill="#2D3C6C"/>
</g>
<mask id="mask0_264_2244" style="mask-type:alpha" maskUnits="userSpaceOnUse" x="2" y="3" width="56" height="56">
<path d="M55.322 34.7603C56.4207 34.0106 57.1053 32.8008 57.1288 31.4475C57.1543 30.1378 56.5271 28.8588 55.4436 28.0811L44.3773 20.0097C44.0604 19.7629 43.8264 19.425 43.7209 19.0374L39.7944 6.04998C39.4324 4.84575 38.5604 3.92724 37.4457 3.41271C36.1114 2.86491 34.5923 3.02369 33.4086 3.82092L22.309 11.7149C21.9711 11.9489 21.5835 12.0544 21.1898 12.0293L7.5166 11.5828C6.16337 11.5593 4.88234 12.1431 4.10259 13.183C3.32284 14.2229 3.08378 15.6299 3.49138 16.8756L7.7205 29.8052C7.82599 30.1928 7.84443 30.5844 7.6888 30.9843L3.14159 43.7166C2.40897 45.7575 3.43153 48.021 5.43505 48.8862C5.92402 49.0813 6.45447 49.2308 7.02023 49.2041L20.6791 49.346C20.9402 49.3337 21.1619 49.4105 21.3836 49.4873C21.5182 49.5682 21.6529 49.6491 21.7876 49.73L32.6465 58.0292C32.9179 58.2345 33.2328 58.4378 33.5871 58.552C34.6541 58.9815 35.8312 58.9697 36.9008 58.5268C37.9683 58.0403 38.7563 57.1745 39.0988 56.1115L43.3808 43.3045C43.4949 42.9502 43.7396 42.5898 44.0796 42.3993L55.322 34.7603Z" fill="url(#paint0_radial_264_2244)"/>
</mask>
<g mask="url(#mask0_264_2244)">
<path d="M55.322 34.7603C56.4207 34.0106 57.1053 32.8008 57.1288 31.4475C57.1543 30.1378 56.5271 28.8588 55.4436 28.0811L44.3773 20.0097C44.0604 19.7629 43.8264 19.425 43.7209 19.0374L39.7944 6.04998C39.4324 4.84575 38.5604 3.92724 37.4457 3.41271C36.1114 2.86491 34.5923 3.02369 33.4086 3.82092L22.309 11.7149C21.9711 11.9489 21.5835 12.0544 21.1898 12.0293L7.5166 11.5828C6.16337 11.5593 4.88234 12.1431 4.10259 13.183C3.32284 14.2229 3.08378 15.6299 3.49138 16.8756L7.7205 29.8052C7.82599 30.1928 7.84443 30.5844 7.6888 30.9843L3.14159 43.7166C2.40897 45.7575 3.43153 48.021 5.43505 48.8862C5.92402 49.0813 6.45447 49.2308 7.02023 49.2041L20.6791 49.346C20.9402 49.3337 21.1619 49.4105 21.3836 49.4873C21.5182 49.5682 21.6529 49.6491 21.7876 49.73L32.6465 58.0292C32.9179 58.2345 33.2328 58.4378 33.5871 58.552C34.6541 58.9815 35.8312 58.9697 36.9008 58.5268C37.9683 58.0403 38.7563 57.1745 39.0988 56.1115L43.3808 43.3045C43.4949 42.9502 43.7396 42.5898 44.0796 42.3993L55.322 34.7603Z" fill="url(#paint1_radial_264_2244)"/>
<g filter="url(#filter2_f_264_2244)">
<path d="M37.5366 6.23461C38.8052 7.87854 37.0135 11.3873 33.5348 14.0717C30.0561 16.7561 24.3554 16.8986 23.0869 15.2546C21.8183 13.6107 25.4623 10.8029 28.941 8.11853C32.4197 5.43414 36.2681 4.59068 37.5366 6.23461Z" fill="url(#paint2_linear_264_2244)"/>
</g>
<g filter="url(#filter3_f_264_2244)">
<path d="M25.2615 15.1524C24.9144 17.1997 18.8798 21.5784 13.3771 20.6455C7.87448 19.7126 3.69509 17.2967 4.04218 15.2494C4.38926 13.2022 9.13141 12.2988 14.634 13.2317C20.1367 14.1646 25.6086 13.1052 25.2615 15.1524Z" fill="url(#paint3_linear_264_2244)"/>
</g>
<g filter="url(#filter4_f_264_2244)">
<path d="M35.6566 56.675C34.2458 56.1356 35.1255 47.8387 38.7225 38.4296C47.6364 33.2119 55.5644 30.2216 55.657 32.18C54.7431 35.9306 47.1674 35.7117 42.3994 42.4003C40.2502 45.4152 37.0674 57.2143 35.6566 56.675Z" fill="url(#paint4_linear_264_2244)"/>
</g>
<g filter="url(#filter5_f_264_2244)">
<path d="M37.6649 56.2228C37.1873 56.0402 41.1938 44.0324 42.2011 41.3973C45.0505 40.071 54.0305 34.1657 54.0993 34.7306C53.8699 35.7911 44.3429 40.407 42.8947 42.2371C42.242 43.0621 38.1425 56.4053 37.6649 56.2228Z" fill="url(#paint5_linear_264_2244)"/>
</g>
<g filter="url(#filter6_f_264_2244)">
<path d="M6.38208 48.7213C6.37509 48.2101 19.0132 47.4918 21.834 47.4532C24.1201 49.6101 32.9277 55.7696 32.4283 56.0425C31.3581 56.2215 23.5461 49.0769 21.3102 48.4083C20.3024 48.1069 6.38907 49.2326 6.38208 48.7213Z" fill="#FFFF54"/>
</g>
<g filter="url(#filter7_f_264_2244)">
<path d="M2.90587 49.7909C2.93289 48.1924 11.5932 43.6838 22.2541 43.864C30.6653 50.8484 35.6309 59.5354 33.7157 60.3349C29.6538 60.7803 27.9073 52.9539 19.5302 50.6258C15.7541 49.5764 2.87884 51.3894 2.90587 49.7909Z" fill="url(#paint6_linear_264_2244)"/>
</g>
<g filter="url(#filter8_f_264_2244)">
<path d="M27.7415 49.2749C27.2705 47.2526 32.1636 52.2372 33.968 51.8169C35.7724 51.3966 36.909 43.5274 37.38 45.5498C37.8511 47.5721 37.0752 55.9148 35.2708 56.3351C33.4664 56.7553 28.2126 51.2973 27.7415 49.2749Z" fill="url(#paint7_linear_264_2244)"/>
</g>
<g filter="url(#filter9_f_264_2244)">
<path d="M45.1833 35.2554C43.1585 34.795 49.7805 32.573 50.1913 30.7664C50.602 28.9598 44.0213 24.4978 46.0461 24.9582C48.0709 25.4185 55.2352 29.7631 54.8244 31.5697C54.4137 33.3763 47.2081 35.7158 45.1833 35.2554Z" fill="url(#paint8_linear_264_2244)"/>
</g>
<g filter="url(#filter10_f_264_2244)">
<path d="M9.48955 36.2101C11.237 35.0884 8.18098 41.3693 9.18179 42.9284C10.1826 44.4876 17.9775 42.9206 16.23 44.0423C14.4826 45.164 6.36251 47.2295 5.36171 45.6704C4.3609 44.1112 7.7421 37.3318 9.48955 36.2101Z" fill="url(#paint9_linear_264_2244)"/>
</g>
</g>
<defs>
<filter id="filter0_f_264_2244" x="1.28084" y="3.55391" width="65.5106" height="67.0626" filterUnits="userSpaceOnUse" color-interpolation-filters="sRGB">
<feFlood flood-opacity="0" result="BackgroundImageFix"/>
<feBlend mode="normal" in="SourceGraphic" in2="BackgroundImageFix" result="shape"/>
<feGaussianBlur stdDeviation="2.82149" result="effect1_foregroundBlur_264_2244"/>
</filter>
<filter id="filter1_f_264_2244" x="0.116006" y="0.985269" width="59.8676" height="61.4196" filterUnits="userSpaceOnUse" color-interpolation-filters="sRGB">
<feFlood flood-opacity="0" result="BackgroundImageFix"/>
<feBlend mode="normal" in="SourceGraphic" in2="BackgroundImageFix" result="shape"/>
<feGaussianBlur stdDeviation="1.41075" result="effect1_foregroundBlur_264_2244"/>
</filter>
<filter id="filter2_f_264_2244" x="21.0854" y="3.65202" width="18.6007" height="14.4154" filterUnits="userSpaceOnUse" color-interpolation-filters="sRGB">
<feFlood flood-opacity="0" result="BackgroundImageFix"/>
<feBlend mode="normal" in="SourceGraphic" in2="BackgroundImageFix" result="shape"/>
<feGaussianBlur stdDeviation="0.871376" result="effect1_foregroundBlur_264_2244"/>
</filter>
<filter id="filter3_f_264_2244" x="2.27873" y="11.1213" width="24.7414" height="11.3957" filterUnits="userSpaceOnUse" color-interpolation-filters="sRGB">
<feFlood flood-opacity="0" result="BackgroundImageFix"/>
<feBlend mode="normal" in="SourceGraphic" in2="BackgroundImageFix" result="shape"/>
<feGaussianBlur stdDeviation="0.871376" result="effect1_foregroundBlur_264_2244"/>
</filter>
<filter id="filter4_f_264_2244" x="33.2748" y="29.8329" width="24.1242" height="28.6027" filterUnits="userSpaceOnUse" color-interpolation-filters="sRGB">
<feFlood flood-opacity="0" result="BackgroundImageFix"/>
<feBlend mode="normal" in="SourceGraphic" in2="BackgroundImageFix" result="shape"/>
<feGaussianBlur stdDeviation="0.871376" result="effect1_foregroundBlur_264_2244"/>
</filter>
<filter id="filter5_f_264_2244" x="35.8822" y="32.9499" width="19.9601" height="25.0175" filterUnits="userSpaceOnUse" color-interpolation-filters="sRGB">
<feFlood flood-opacity="0" result="BackgroundImageFix"/>
<feBlend mode="normal" in="SourceGraphic" in2="BackgroundImageFix" result="shape"/>
<feGaussianBlur stdDeviation="0.871376" result="effect1_foregroundBlur_264_2244"/>
</filter>
<filter id="filter6_f_264_2244" x="4.64006" y="45.7105" width="29.5519" height="12.078" filterUnits="userSpaceOnUse" color-interpolation-filters="sRGB">
<feFlood flood-opacity="0" result="BackgroundImageFix"/>
<feBlend mode="normal" in="SourceGraphic" in2="BackgroundImageFix" result="shape"/>
<feGaussianBlur stdDeviation="0.871376" result="effect1_foregroundBlur_264_2244"/>
</filter>
<filter id="filter7_f_264_2244" x="1.1635" y="42.116" width="34.7043" height="19.9799" filterUnits="userSpaceOnUse" color-interpolation-filters="sRGB">
<feFlood flood-opacity="0" result="BackgroundImageFix"/>
<feBlend mode="normal" in="SourceGraphic" in2="BackgroundImageFix" result="shape"/>
<feGaussianBlur stdDeviation="0.871376" result="effect1_foregroundBlur_264_2244"/>
</filter>
<filter id="filter8_f_264_2244" x="25.9662" y="43.4754" width="13.2921" height="14.6254" filterUnits="userSpaceOnUse" color-interpolation-filters="sRGB">
<feFlood flood-opacity="0" result="BackgroundImageFix"/>
<feBlend mode="normal" in="SourceGraphic" in2="BackgroundImageFix" result="shape"/>
<feGaussianBlur stdDeviation="0.871376" result="effect1_foregroundBlur_264_2244"/>
</filter>
<filter id="filter9_f_264_2244" x="43.0561" y="23.1823" width="13.5285" height="13.8747" filterUnits="userSpaceOnUse" color-interpolation-filters="sRGB">
<feFlood flood-opacity="0" result="BackgroundImageFix"/>
<feBlend mode="normal" in="SourceGraphic" in2="BackgroundImageFix" result="shape"/>
<feGaussianBlur stdDeviation="0.871376" result="effect1_foregroundBlur_264_2244"/>
</filter>
<filter id="filter10_f_264_2244" x="3.43694" y="34.334" width="14.7902" height="13.6405" filterUnits="userSpaceOnUse" color-interpolation-filters="sRGB">
<feFlood flood-opacity="0" result="BackgroundImageFix"/>
<feBlend mode="normal" in="SourceGraphic" in2="BackgroundImageFix" result="shape"/>
<feGaussianBlur stdDeviation="0.871376" result="effect1_foregroundBlur_264_2244"/>
</filter>
<radialGradient id="paint0_radial_264_2244" cx="0" cy="0" r="1" gradientUnits="userSpaceOnUse" gradientTransform="translate(24.917 21.7113) rotate(69.215) scale(45.6049 41.5266)">
<stop stop-color="#FFB479"/>
<stop offset="0.339863" stop-color="#FF913A"/>
<stop offset="0.725716" stop-color="#FD7925"/>
</radialGradient>
<radialGradient id="paint1_radial_264_2244" cx="0" cy="0" r="1" gradientUnits="userSpaceOnUse" gradientTransform="translate(24.917 21.7113) rotate(69.215) scale(45.6049 41.5266)">
<stop stop-color="#FFB479"/>
<stop offset="0.339863" stop-color="#FF913A"/>
<stop offset="0.725716" stop-color="#FD7925"/>
</radialGradient>
<linearGradient id="paint2_linear_264_2244" x1="34.9786" y1="15.1915" x2="26.8394" y2="8.98691" gradientUnits="userSpaceOnUse">
<stop stop-color="#FD7925" stop-opacity="0"/>
<stop offset="1" stop-color="#FFF9F4"/>
</linearGradient>
<linearGradient id="paint3_linear_264_2244" x1="13.6561" y1="22.4865" x2="13.2381" y2="12.1272" gradientUnits="userSpaceOnUse">
<stop stop-color="#FD7925" stop-opacity="0"/>
<stop offset="1" stop-color="#FFF9F4"/>
</linearGradient>
<linearGradient id="paint4_linear_264_2244" x1="36.3709" y1="34.9484" x2="50.5248" y2="43.6038" gradientUnits="userSpaceOnUse">
<stop stop-color="#FD7925" stop-opacity="0"/>
<stop offset="1" stop-color="#B75819"/>
</linearGradient>
<linearGradient id="paint5_linear_264_2244" x1="38.4208" y1="62.8294" x2="44.5547" y2="64.3641" gradientUnits="userSpaceOnUse">
<stop stop-color="#54517E"/>
<stop offset="0.713542" stop-color="#9091C5"/>
</linearGradient>
<linearGradient id="paint6_linear_264_2244" x1="24.7672" y1="41.936" x2="21.2678" y2="59.145" gradientUnits="userSpaceOnUse">
<stop stop-color="#FD7925" stop-opacity="0"/>
<stop offset="1" stop-color="#B75819"/>
</linearGradient>
<linearGradient id="paint7_linear_264_2244" x1="32.3936" y1="47.0844" x2="38.7795" y2="53.3396" gradientUnits="userSpaceOnUse">
<stop stop-color="#FD7925" stop-opacity="0"/>
<stop offset="1" stop-color="#FFF9F4"/>
</linearGradient>
<linearGradient id="paint8_linear_264_2244" x1="45.2467" y1="30.1138" x2="53.664" y2="27.1046" gradientUnits="userSpaceOnUse">
<stop stop-color="#FD7925" stop-opacity="0"/>
<stop offset="1" stop-color="#FFF9F4"/>
</linearGradient>
<linearGradient id="paint9_linear_264_2244" x1="13.1127" y1="39.8588" x2="9.36002" y2="47.972" gradientUnits="userSpaceOnUse">
<stop stop-color="#FD7925" stop-opacity="0"/>
<stop offset="1" stop-color="#FFF9F4"/>
</linearGradient>
</defs>
</svg>
