<svg width="94" height="94" viewBox="0 0 94 94" fill="none" xmlns="http://www.w3.org/2000/svg">
<g filter="url(#filter0_d_257_1833)">
<rect x="7" y="6.99805" width="80" height="80" rx="40" fill="#8F9ECE"/>
</g>
<g filter="url(#filter1_ii_257_1833)">
<circle cx="47.0006" cy="46.9976" r="34.2857" fill="#41527F"/>
<circle cx="47.0006" cy="46.9976" r="34.2857" stroke="white"/>
</g>
<g clip-path="url(#clip0_257_1833)">
<path d="M65.3505 40.8833L56.7732 32.6323C56.3654 32.2406 55.8275 32.0326 55.2609 32.0434C54.6945 32.0552 54.1677 32.2859 53.7779 32.6928L50.9429 35.6472C50.5649 36.045 50.5795 36.6754 50.9732 37.0505L51.2042 37.2727L50.0406 38.2022C50.0116 38.2006 49.9787 38.1991 49.9411 38.1979C48.124 38.1414 46.7748 38.4424 45.9312 39.094L45.7974 39.1975L42.6006 37.6226L43.0245 37.2148C43.2169 37.0316 43.326 36.7841 43.3319 36.5177C43.3377 36.2511 43.2392 35.9986 43.0551 35.8074L40.2223 32.8552C39.8323 32.448 39.3056 32.2173 38.7391 32.2055C38.1697 32.1917 37.6345 32.4027 37.2264 32.7947L28.6497 41.0452C27.8077 41.8539 27.7805 43.1985 28.5894 44.043L31.4229 46.9958C31.617 47.1977 31.8774 47.2995 32.1387 47.2995C32.3862 47.2995 32.6346 47.2081 32.828 47.0239L33.1641 46.7006C33.4017 48.213 33.8102 49.74 34.773 50.8169L34.6536 50.9462C33.6362 52.0506 33.9527 53.5241 34.7671 54.3498C35.216 54.8051 35.7617 55.0424 36.3115 55.0595C36.2381 55.7649 36.5613 56.4707 37.0796 56.9622C37.5344 57.3935 38.1427 57.6699 38.7613 57.6698C38.915 57.6698 39.0695 57.6521 39.2225 57.616C39.3094 58.1165 39.5705 58.5924 39.9256 58.9484C40.3521 59.3761 40.9523 59.6741 41.5914 59.6741C41.6568 59.6741 41.7227 59.6709 41.7887 59.6645C41.7973 59.7873 41.8163 59.9122 41.8474 60.0386C42.0644 60.9209 42.7793 61.6628 43.6263 61.8847C43.7678 61.9217 43.9501 61.9533 44.1606 61.9533C44.6526 61.9533 45.2982 61.7807 45.9345 61.1025L46.5581 60.4387L47.4701 61.1399C48.0669 61.5988 48.6588 61.786 49.1902 61.786C49.8576 61.786 50.4296 61.4907 50.796 61.0672C51.1442 60.6647 51.3514 60.0935 51.2746 59.4826C51.9755 59.5183 52.6367 59.2481 53.0637 58.7978C53.3796 58.4647 53.5858 58.0109 53.5821 57.5135C54.3084 57.5899 54.9424 57.2799 55.3346 56.8148C55.7863 56.2791 55.9882 55.4808 55.7316 54.7231C56.4019 54.5785 57.0163 54.1543 57.4083 53.5165C57.8483 52.8005 58.0105 51.7332 57.3374 50.6789C58.3452 50.1233 59.6657 49.0142 61.1253 46.8171L61.174 46.8637C61.3662 47.0467 61.6134 47.1376 61.8604 47.1376C62.1218 47.1376 62.3829 47.0356 62.5775 46.8332L65.411 43.8805C66.2195 43.0363 66.1922 41.6917 65.3505 40.8833V40.8833ZM35.5657 53.5621C35.1182 53.1084 34.9002 52.3341 35.4783 51.7067L36.4524 50.6513C36.8509 50.2189 37.2868 50.0419 37.7136 50.1395C38.1611 50.242 38.5599 50.6339 38.7058 51.1149C38.7762 51.3467 38.8393 51.7939 38.4714 52.1837C38.471 52.1841 38.4707 52.1846 38.4703 52.1851L37.1043 53.6352C36.5294 54.1487 35.9327 53.9342 35.5657 53.5621V53.5621ZM39.462 56.2207C38.8868 56.8238 38.179 56.4589 37.8514 56.1481C37.7664 56.0675 37.0389 55.3401 37.6869 54.653C37.6869 54.6529 37.687 54.6529 37.6871 54.6528L40.1607 52.0265C40.468 51.7001 40.784 51.6059 41.0464 51.6059C41.1438 51.6059 41.2339 51.6189 41.3133 51.6378C41.7546 51.7429 42.1341 52.0942 42.2578 52.512C42.3729 52.9011 42.2527 53.2967 41.9104 53.6557L41.3885 54.2026C41.3619 54.2291 41.3358 54.2571 41.3098 54.2849L39.462 56.2207ZM42.3778 58.1838C42.373 58.1879 42.368 58.1915 42.3633 58.1957C42.3536 58.2045 42.3448 58.2139 42.3353 58.2229C41.5661 58.9288 40.8555 58.2925 40.7198 58.1563C40.4008 57.8365 40.0876 57.1914 40.5322 56.7256C40.5372 56.7204 40.5413 56.7148 40.5461 56.7095L42.0571 55.1264C42.0657 55.1178 42.0744 55.1095 42.0826 55.1003C42.0878 55.0943 42.0932 55.0889 42.0986 55.083L42.1963 54.9806C42.5723 54.6085 42.9829 54.4615 43.3921 54.5568C43.8427 54.6616 44.2306 55.0447 44.3572 55.5101C44.4355 55.798 44.4407 56.225 44.0204 56.6243L43.836 56.7994C43.8314 56.8035 43.8267 56.8071 43.8221 56.8112C43.8101 56.8219 43.7991 56.8333 43.7883 56.8448L42.3778 58.1838ZM45.9161 59.4837L45.1165 60.3347C44.7263 60.7506 44.3201 60.9066 43.9104 60.7995C43.464 60.6825 43.0544 60.2499 42.9365 59.7707C42.8849 59.5609 42.8733 59.2678 43.0981 59.0454C43.1084 59.0359 43.1188 59.027 43.1291 59.0172L44.5838 57.6362C45.0219 57.2582 45.6371 57.4418 45.9977 57.8113C46.1759 57.9936 46.6961 58.6528 45.9161 59.4837V59.4837ZM56.4525 52.929C56.1682 53.3915 55.5732 53.7618 54.952 53.6273L52.8127 51.6359C52.5858 51.4249 52.231 51.4376 52.0199 51.6644C51.8089 51.8911 51.8216 52.246 52.0484 52.4571L54.2904 54.544C54.2926 54.5461 54.2949 54.5477 54.297 54.5496C54.298 54.5505 54.2987 54.5515 54.2996 54.5524C54.8528 55.0449 54.8076 55.6996 54.4769 56.0917C54.1017 56.5368 53.5146 56.5144 52.9045 56.0337L50.68 53.963C50.4532 53.7518 50.0983 53.7647 49.8873 53.9914C49.6762 54.2182 49.6889 54.5731 49.9157 54.7841L52.1416 56.8562C52.5281 57.2763 52.5669 57.6914 52.2496 58.0261C51.8722 58.4239 51.12 58.5522 50.4691 58.0061C50.4609 57.9993 50.4523 57.9934 50.4438 57.9871L49.4219 57.0374C49.195 56.8265 48.8401 56.8395 48.6292 57.0664C48.4184 57.2933 48.4314 57.6482 48.6583 57.8591L49.7643 58.887C50.3207 59.4635 50.2157 60.0234 49.9474 60.3335C49.6121 60.721 48.9275 60.8457 48.1536 60.2509L47.2315 59.5419C47.6933 58.5931 47.4006 57.6425 46.8003 57.0277C46.4494 56.6686 45.968 56.4066 45.4561 56.3269C45.545 55.9708 45.5424 55.5936 45.4395 55.2158C45.204 54.3505 44.5001 53.663 43.6461 53.4645C43.5402 53.4398 43.434 53.4234 43.3279 53.4148C43.448 53.0165 43.4534 52.5996 43.3334 52.1939C43.0959 51.3912 42.4048 50.7448 41.573 50.5468C40.9525 50.3993 40.3309 50.5177 39.8011 50.8705C39.7939 50.8435 39.7874 50.8166 39.7793 50.7895C39.5162 49.9228 38.8036 49.2386 37.9638 49.0464C37.1342 48.8567 36.3047 49.1567 35.6278 49.8912L35.5378 49.9887C34.748 49.0493 34.3993 47.5947 34.1622 45.7408L36.5276 43.4653C36.7508 43.2506 36.7577 42.8956 36.5429 42.6723C36.3283 42.4491 35.9732 42.4422 35.7499 42.6569L33.2115 45.0988C33.1918 45.1153 33.1735 45.133 33.1563 45.152L32.1431 46.1266L29.399 43.267C29.0178 42.869 29.0302 42.2354 29.427 41.8543L38.0037 33.6034C38.1953 33.4195 38.4488 33.3211 38.7158 33.3269C38.9824 33.3325 39.2297 33.4405 39.4127 33.6314L42.1576 36.492L37.5251 40.9486C37.3018 41.1634 37.2949 41.5184 37.5097 41.7416C37.7244 41.9649 38.0795 41.9717 38.3027 41.757L41.7409 38.4494L44.8096 39.9612L42.6416 41.6378C40.0423 43.6491 40.8255 45.4593 41.1275 45.9661C41.6427 46.831 42.6001 47.3303 43.5767 47.3303C43.9575 47.3303 44.3412 47.2544 44.7027 47.0946C44.7242 47.0851 44.7452 47.0743 44.7653 47.0621L47.042 45.6912L50.1385 44.984L56.0579 50.8661C56.9779 51.8104 56.6405 52.6232 56.4525 52.929V52.929ZM64.6012 43.1041L61.8567 45.9642L61.4359 45.5611C61.4201 45.5439 61.4031 45.5277 61.3849 45.5123L57.5193 41.8092C57.2954 41.5947 56.9406 41.6027 56.7262 41.8261C56.5119 42.0498 56.5196 42.4049 56.7432 42.6192L60.301 46.0275C58.7373 48.4306 57.3978 49.4093 56.5827 49.8063L50.71 43.9706C50.7085 43.9691 50.7069 43.9679 50.7053 43.9663C50.6968 43.9581 50.688 43.9504 50.679 43.9427C50.6736 43.938 50.6683 43.9333 50.6627 43.9288C50.6545 43.9224 50.646 43.9164 50.6375 43.9104C50.6308 43.9057 50.6241 43.9007 50.6172 43.8963C50.6095 43.8913 50.6014 43.8869 50.5934 43.8823C50.5856 43.8778 50.5778 43.873 50.5697 43.8689C50.5614 43.8647 50.5528 43.8611 50.5443 43.8573C50.5364 43.8537 50.5287 43.8499 50.5207 43.8468C50.5103 43.8427 50.4997 43.8393 50.489 43.8358C50.4828 43.8338 50.4766 43.8315 50.4703 43.8296C50.4573 43.8258 50.4441 43.8229 50.4308 43.8201C50.4267 43.8192 50.4226 43.8181 50.4185 43.8173C50.4046 43.8146 50.3903 43.8128 50.3761 43.8113C50.3724 43.8109 50.3688 43.8102 50.3651 43.8099C50.3522 43.8087 50.3391 43.8084 50.326 43.8082C50.3206 43.8081 50.3153 43.8077 50.3099 43.8077C50.2992 43.8078 50.2883 43.8086 50.2775 43.8093C50.2695 43.8099 50.2615 43.8102 50.2535 43.8111C50.2451 43.8121 50.2366 43.8135 50.2281 43.8148C50.2176 43.8165 50.2071 43.8181 50.1967 43.8204C50.1944 43.8209 50.1921 43.8211 50.1898 43.8216L46.7048 44.6176C46.6467 44.6309 46.5912 44.6532 46.5403 44.6839L44.2195 46.0814C43.47 46.393 42.5024 46.0823 42.0912 45.392C41.6035 44.5734 42.0659 43.5016 43.328 42.5251L46.2088 40.2972C46.2139 40.2933 46.2191 40.2897 46.224 40.2855L46.6173 39.9813C47.2314 39.5068 48.4001 39.2716 49.9059 39.3189C49.955 39.3204 49.9941 39.3227 50.0263 39.3245C50.3539 39.344 50.4849 39.2836 50.7371 39.0814L52.0197 38.0569L54.8981 40.8261C55.1213 41.0409 55.4764 41.0339 55.6912 40.8108C55.9059 40.5876 55.899 40.2325 55.6759 40.0177L51.8425 36.3297L54.5877 33.4689C54.7704 33.2782 55.0178 33.1702 55.2844 33.1647C55.2916 33.1645 55.2988 33.1644 55.306 33.1644C55.5657 33.1644 55.8101 33.2622 55.9961 33.4408L64.5734 41.692C64.9697 42.0728 64.9822 42.7064 64.6012 43.1041V43.1041Z" fill="#D4DDF1"/>
</g>
<defs>
<filter id="filter0_d_257_1833" x="0.878693" y="0.87674" width="92.2426" height="92.2426" filterUnits="userSpaceOnUse" color-interpolation-filters="sRGB">
<feFlood flood-opacity="0" result="BackgroundImageFix"/>
<feColorMatrix in="SourceAlpha" type="matrix" values="0 0 0 0 0 0 0 0 0 0 0 0 0 0 0 0 0 0 127 0" result="hardAlpha"/>
<feOffset/>
<feGaussianBlur stdDeviation="3.06065"/>
<feComposite in2="hardAlpha" operator="out"/>
<feColorMatrix type="matrix" values="0 0 0 0 0.0941176 0 0 0 0 0.137255 0 0 0 0 0.282353 0 0 0 0.6 0"/>
<feBlend mode="normal" in2="BackgroundImageFix" result="effect1_dropShadow_257_1833"/>
<feBlend mode="normal" in="SourceGraphic" in2="effect1_dropShadow_257_1833" result="shape"/>
</filter>
<filter id="filter1_ii_257_1833" x="11.4291" y="11.4262" width="71.1437" height="71.1427" filterUnits="userSpaceOnUse" color-interpolation-filters="sRGB">
<feFlood flood-opacity="0" result="BackgroundImageFix"/>
<feBlend mode="normal" in="SourceGraphic" in2="BackgroundImageFix" result="shape"/>
<feColorMatrix in="SourceAlpha" type="matrix" values="0 0 0 0 0 0 0 0 0 0 0 0 0 0 0 0 0 0 127 0" result="hardAlpha"/>
<feOffset dx="-1.28571" dy="-1.28571"/>
<feGaussianBlur stdDeviation="2.57143"/>
<feComposite in2="hardAlpha" operator="arithmetic" k2="-1" k3="1"/>
<feColorMatrix type="matrix" values="0 0 0 0 1 0 0 0 0 1 0 0 0 0 1 0 0 0 0.177256 0"/>
<feBlend mode="normal" in2="shape" result="effect1_innerShadow_257_1833"/>
<feColorMatrix in="SourceAlpha" type="matrix" values="0 0 0 0 0 0 0 0 0 0 0 0 0 0 0 0 0 0 127 0" result="hardAlpha"/>
<feOffset dx="1.28571" dy="1.28571"/>
<feGaussianBlur stdDeviation="3.21429"/>
<feComposite in2="hardAlpha" operator="arithmetic" k2="-1" k3="1"/>
<feColorMatrix type="matrix" values="0 0 0 0 0.184314 0 0 0 0 0.239216 0 0 0 0 0.415686 0 0 0 1 0"/>
<feBlend mode="normal" in2="effect1_innerShadow_257_1833" result="effect2_innerShadow_257_1833"/>
</filter>
<clipPath id="clip0_257_1833">
<rect width="38" height="38" fill="white" transform="translate(28 27.998)"/>
</clipPath>
</defs>
</svg>
