<svg width="105" height="106" viewBox="0 0 105 106" fill="none" xmlns="http://www.w3.org/2000/svg">
<g filter="url(#filter0_d_5038_2714)">
<mask id="mask0_5038_2714" style="mask-type:alpha" maskUnits="userSpaceOnUse" x="26" y="26" width="53" height="54">
<path d="M51.3767 79.0699C36.9596 78.6025 25.651 66.5362 26.1184 52.1191C26.5858 37.7019 38.6521 26.3934 53.0693 26.8608C67.4864 27.3281 78.7949 39.3944 78.3276 53.8116C77.8602 68.2288 65.7939 79.5373 51.3767 79.0699Z" fill="url(#paint0_radial_5038_2714)"/>
</mask>
<g mask="url(#mask0_5038_2714)">
<path d="M51.3767 79.0699C36.9596 78.6025 25.651 66.5362 26.1184 52.1191C26.5858 37.7019 38.6521 26.3934 53.0693 26.8608C67.4864 27.3281 78.7949 39.3944 78.3276 53.8116C77.8602 68.2288 65.7939 79.5373 51.3767 79.0699Z" fill="url(#paint1_radial_5038_2714)"/>
<path opacity="0.6" d="M26.1246 51.4258C25.3714 65.789 36.3526 78.1153 50.6504 79.111C65.0136 79.8642 77.34 68.8831 78.3356 54.5852C79.0888 40.222 68.1077 27.8957 53.8099 26.9C39.2042 26.0814 26.8778 37.0625 26.1246 51.4258Z" fill="url(#paint2_radial_5038_2714)"/>
<g filter="url(#filter1_f_5038_2714)">
<path d="M43.5876 36.4497C46.0728 36.7076 48.5178 38.2056 49.1433 40.8861C49.2925 41.7776 49.6254 42.4978 49.591 43.5607C49.568 44.2694 49.3671 44.9722 49.1662 45.6751C48.9595 46.5551 48.4028 47.2465 47.8461 47.9378C48.0297 47.7664 48.0297 47.7664 48.2134 47.595C47.2893 48.6291 46.5374 49.8462 45.269 50.5144C44.1785 51.1884 42.9273 51.3252 41.6818 51.2848C37.9397 51.3409 35.0241 47.8768 35.139 44.3336C35.1046 39.8989 38.8009 35.7625 43.5876 36.4497Z" fill="white"/>
</g>
<path d="M84.1764 41.5037C75.6601 25.8895 56.1064 20.0259 40.4039 28.2444C24.7897 36.7607 18.9261 56.3144 27.1446 72.0169C35.6609 87.6312 55.2146 93.4948 70.9171 85.2762C86.8291 76.6717 92.6927 57.118 84.1764 41.5037Z" fill="url(#paint3_radial_5038_2714)"/>
<path opacity="0.79" d="M23.2077 61.8283C19.2633 46.3428 28.5469 30.5246 43.9084 26.3302C59.3939 22.3858 75.2122 31.6695 79.4066 47.031C83.3509 62.5165 74.0673 78.3348 58.7058 82.5291C42.9703 86.5975 27.1521 77.3138 23.2077 61.8283Z" fill="url(#paint4_radial_5038_2714)"/>
</g>
</g>
<defs>
<filter id="filter0_d_5038_2714" x="22.1035" y="26.8467" width="72.2383" height="72.2373" filterUnits="userSpaceOnUse" color-interpolation-filters="sRGB">
<feFlood flood-opacity="0" result="BackgroundImageFix"/>
<feColorMatrix in="SourceAlpha" type="matrix" values="0 0 0 0 0 0 0 0 0 0 0 0 0 0 0 0 0 0 127 0" result="hardAlpha"/>
<feOffset dx="6" dy="10"/>
<feGaussianBlur stdDeviation="5"/>
<feComposite in2="hardAlpha" operator="out"/>
<feColorMatrix type="matrix" values="0 0 0 0 0 0 0 0 0 0 0 0 0 0 0 0 0 0 0.25 0"/>
<feBlend mode="normal" in2="BackgroundImageFix" result="effect1_dropShadow_5038_2714"/>
<feBlend mode="normal" in="SourceGraphic" in2="effect1_dropShadow_5038_2714" result="shape"/>
</filter>
<filter id="filter1_f_5038_2714" x="29.7635" y="31.0033" width="25.2015" height="25.6595" filterUnits="userSpaceOnUse" color-interpolation-filters="sRGB">
<feFlood flood-opacity="0" result="BackgroundImageFix"/>
<feBlend mode="normal" in="SourceGraphic" in2="BackgroundImageFix" result="shape"/>
<feGaussianBlur stdDeviation="2.68562" result="effect1_foregroundBlur_5038_2714"/>
</filter>
<radialGradient id="paint0_radial_5038_2714" cx="0" cy="0" r="1" gradientUnits="userSpaceOnUse" gradientTransform="translate(42.678 39.7624) rotate(93.924) scale(56.9603 47.2799)">
<stop offset="0.0001" stop-color="#E8EFFF"/>
<stop offset="0.317708" stop-color="#EEE9FF"/>
<stop offset="0.484375" stop-color="#D8E0F4"/>
<stop offset="0.635417" stop-color="#BFC8DB"/>
<stop offset="1" stop-color="#BCC1CB"/>
</radialGradient>
<radialGradient id="paint1_radial_5038_2714" cx="0" cy="0" r="1" gradientUnits="userSpaceOnUse" gradientTransform="translate(42.678 39.7624) rotate(93.924) scale(56.9603 47.2799)">
<stop offset="0.0001" stop-color="#E8EFFF"/>
<stop offset="0.317708" stop-color="#EEE9FF"/>
<stop offset="0.484375" stop-color="#D8E0F4"/>
<stop offset="0.635417" stop-color="#BFC8DB"/>
<stop offset="1" stop-color="#BCC1CB"/>
</radialGradient>
<radialGradient id="paint2_radial_5038_2714" cx="0" cy="0" r="1" gradientUnits="userSpaceOnUse" gradientTransform="translate(51.0882 58.7911) rotate(-176.564) scale(36.1549)">
<stop offset="0.5433" stop-color="white" stop-opacity="0"/>
<stop offset="1" stop-color="white"/>
</radialGradient>
<radialGradient id="paint3_radial_5038_2714" cx="0" cy="0" r="1" gradientUnits="userSpaceOnUse" gradientTransform="translate(41.8475 37.9595) rotate(-17.1072) scale(81.3448 62.9928)">
<stop stop-color="#E1E3F8" stop-opacity="0"/>
<stop offset="0.25" stop-color="#747DA3" stop-opacity="0.398467"/>
<stop offset="0.546875" stop-color="#2A3869" stop-opacity="0.67"/>
<stop offset="0.677083" stop-color="#2A3869"/>
<stop offset="0.802083" stop-color="#7081BA"/>
</radialGradient>
<radialGradient id="paint4_radial_5038_2714" cx="0" cy="0" r="1" gradientUnits="userSpaceOnUse" gradientTransform="translate(48.8047 48.3743) rotate(165.276) scale(40.1694)">
<stop offset="0.5433" stop-color="#6D71A2" stop-opacity="0"/>
<stop offset="0.828125" stop-color="#C9CADE"/>
<stop offset="0.958333" stop-color="#BBD8F1"/>
</radialGradient>
</defs>
</svg>
