<svg width="219" height="219" viewBox="0 0 219 219" fill="none" xmlns="http://www.w3.org/2000/svg">
<g filter="url(#filter0_d_241_5806)">
<mask id="mask0_241_5806" style="mask-type:alpha" maskUnits="userSpaceOnUse" x="52" y="52" width="114" height="114">
<path d="M163.829 123.742C171.933 93.4982 153.985 62.4116 123.742 54.3079C93.4982 46.2042 62.4116 64.152 54.3079 94.3955C46.2041 124.639 64.152 155.726 94.3955 163.829C124.639 171.933 155.726 153.985 163.829 123.742Z" fill="url(#paint0_radial_241_5806)"/>
</mask>
<g mask="url(#mask0_241_5806)">
<path d="M163.829 123.742C171.933 93.4982 153.985 62.4116 123.742 54.3079C93.4982 46.2042 62.4116 64.152 54.3079 94.3955C46.2041 124.639 64.152 155.726 94.3955 163.829C124.639 171.933 155.726 153.985 163.829 123.742Z" fill="url(#paint1_radial_241_5806)"/>
<path opacity="0.6" d="M122.3 53.8911C152.611 61.3672 171.305 91.9374 164.374 122.266C156.898 152.577 126.328 171.271 95.9997 164.34C65.6884 156.864 46.9942 126.294 53.9254 95.9655C61.4181 65.1092 91.9884 46.4151 122.3 53.8911Z" fill="url(#paint2_radial_241_5806)"/>
<path opacity="0.79" d="M64.9134 150.521C41.1647 125.766 41.7743 86.3966 66.0332 62.3121C90.7881 38.5634 130.157 39.173 154.242 63.4318C177.991 88.1867 177.381 127.556 153.122 151.64C128.031 175.885 88.6622 175.275 64.9134 150.521Z" fill="url(#paint3_radial_241_5806)"/>
<g opacity="0.4" filter="url(#filter1_i_241_5806)">
<path d="M81.2986 121.361C79.6525 125.54 81.1128 132.094 84.3922 134.816C85.3145 135.58 86.6084 135.971 87.7933 136.318C88.7413 136.6 89.6636 136.754 89.4202 138.006C89.1896 139.213 88.1712 139.04 87.3449 138.905C84.7381 138.488 82.5732 137.281 81.0167 135.098C77.5388 130.226 76.8534 124.904 78.365 119.178C78.5892 118.338 78.57 117.298 78.2946 116.476C75.5852 108.285 77.1545 100.948 82.7589 94.5349C86.429 90.3367 93.6411 88.7576 98.3937 92.0121C98.6755 92.2047 99.3801 92.1149 99.6747 91.8838C101.378 90.5357 103.082 89.1684 104.651 87.6599C105.1 87.2298 105.26 86.3183 105.247 85.6314C105.183 81.9275 105.049 78.2043 106.509 74.6994C106.983 73.5632 107.719 72.4655 108.565 71.5668C110.006 70.0583 112.805 69.5447 114.464 70.4434C116.405 71.4962 117.205 73.4155 116.956 75.4376C116.725 77.2864 116.072 79.1865 115.181 80.8298C114.304 82.4474 113.016 83.9175 111.659 85.1756C110.525 86.222 110.397 87.2426 110.57 88.6356C111.114 92.9558 111.748 97.2759 111.96 101.615C112.248 107.406 110.948 112.9 107.707 117.798C104.767 122.247 100.392 124.327 95.268 125.039C91.4954 125.566 87.7869 125.501 84.3794 123.479C83.3418 122.87 82.3938 122.118 81.2986 121.361ZM97.7916 97.1989C95.8061 99.1183 93.955 100.839 92.1872 102.636C88.4466 106.443 85.0711 110.506 82.9126 115.487C82.1953 117.137 82.4451 118.196 83.7197 119.313C87.9406 123.004 92.6612 122.645 97.4009 120.847C101.865 119.153 103.819 115.237 105.26 110.987C107.143 105.435 106.535 99.7859 106.041 94.1305C105.952 93.0906 105.824 92.0507 105.67 90.6448C104.062 91.9801 102.692 93.0649 101.404 94.2396C101.193 94.4322 101.276 95.0485 101.366 95.44C101.609 96.5185 102.102 97.5712 102.186 98.6561C102.666 105.255 98.8421 109.755 93.8333 110.313C91.8221 110.538 90.9958 109.845 90.8485 107.752C96.1519 106.34 99.3224 101.744 97.7916 97.1989ZM80.6196 113.048C84.7253 106 89.9198 99.9399 96.4658 94.5863C95.4922 94.2075 94.8325 93.7967 94.1343 93.7004C91.3289 93.3281 88.6708 93.7839 86.4226 95.6262C80.863 100.177 79.7485 106.269 80.6196 113.048ZM109.852 82.9546C112.158 80.7463 113.433 78.429 113.952 75.6815C114.125 74.77 114.182 73.7493 113.074 73.3834C111.921 73.0047 111.089 73.6466 110.659 74.6801C109.603 77.2093 109.615 79.8605 109.852 82.9546Z" fill="url(#paint4_linear_241_5806)"/>
</g>
<g filter="url(#filter2_f_241_5806)">
<path d="M80.1906 80.7384C79.1621 86.0633 80.7351 92.0853 85.9096 95.0719C87.6677 95.943 88.9542 97.0878 91.184 97.6853C92.6706 98.0836 94.2571 98.1087 95.8437 98.1337C97.8018 98.2584 99.5884 97.537 101.375 96.8156C100.903 97.0893 100.903 97.0893 100.432 97.3629C103.162 96.0942 106.163 95.2983 108.35 93.084C110.436 91.2429 111.508 88.7298 112.208 86.1171C114.68 78.3787 109.319 70.1417 101.886 68.1501C92.6953 65.2874 81.776 70.3622 80.1906 80.7384Z" fill="white"/>
</g>
</g>
</g>
<defs>
<filter id="filter0_d_241_5806" x="52.3613" y="52.3623" width="151.414" height="156.413" filterUnits="userSpaceOnUse" color-interpolation-filters="sRGB">
<feFlood flood-opacity="0" result="BackgroundImageFix"/>
<feColorMatrix in="SourceAlpha" type="matrix" values="0 0 0 0 0 0 0 0 0 0 0 0 0 0 0 0 0 0 127 0" result="hardAlpha"/>
<feOffset dx="19" dy="24"/>
<feGaussianBlur stdDeviation="9.5"/>
<feComposite in2="hardAlpha" operator="out"/>
<feColorMatrix type="matrix" values="0 0 0 0 0 0 0 0 0 0 0 0 0 0 0 0 0 0 0.25 0"/>
<feBlend mode="normal" in2="BackgroundImageFix" result="effect1_dropShadow_241_5806"/>
<feBlend mode="normal" in="SourceGraphic" in2="effect1_dropShadow_241_5806" result="shape"/>
</filter>
<filter id="filter1_i_241_5806" x="77" y="70" width="40" height="70" filterUnits="userSpaceOnUse" color-interpolation-filters="sRGB">
<feFlood flood-opacity="0" result="BackgroundImageFix"/>
<feBlend mode="normal" in="SourceGraphic" in2="BackgroundImageFix" result="shape"/>
<feColorMatrix in="SourceAlpha" type="matrix" values="0 0 0 0 0 0 0 0 0 0 0 0 0 0 0 0 0 0 127 0" result="hardAlpha"/>
<feOffset dy="1"/>
<feGaussianBlur stdDeviation="1"/>
<feComposite in2="hardAlpha" operator="arithmetic" k2="-1" k3="1"/>
<feColorMatrix type="matrix" values="0 0 0 0 0.178351 0 0 0 0 0.160417 0 0 0 0 0.366667 0 0 0 1 0"/>
<feBlend mode="normal" in2="shape" result="effect1_innerShadow_241_5806"/>
</filter>
<filter id="filter2_f_241_5806" x="66.107" y="53.5738" width="60.4969" height="58.3592" filterUnits="userSpaceOnUse" color-interpolation-filters="sRGB">
<feFlood flood-opacity="0" result="BackgroundImageFix"/>
<feBlend mode="normal" in="SourceGraphic" in2="BackgroundImageFix" result="shape"/>
<feGaussianBlur stdDeviation="6.89278" result="effect1_foregroundBlur_241_5806"/>
</filter>
<radialGradient id="paint0_radial_241_5806" cx="0" cy="0" r="1" gradientUnits="userSpaceOnUse" gradientTransform="translate(87.6496 80.93) rotate(12.9328) scale(123.638 102.626)">
<stop offset="0.0001" stop-color="#E8EFFF"/>
<stop offset="0.317708" stop-color="#EEE9FF"/>
<stop offset="0.484375" stop-color="#D8E0F4"/>
<stop offset="0.635417" stop-color="#BFC8DB"/>
<stop offset="1" stop-color="#BCC1CB"/>
</radialGradient>
<radialGradient id="paint1_radial_241_5806" cx="0" cy="0" r="1" gradientUnits="userSpaceOnUse" gradientTransform="translate(87.6496 80.93) rotate(12.9328) scale(123.638 102.626)">
<stop offset="0.0001" stop-color="#E8EFFF"/>
<stop offset="0.317708" stop-color="#ECEBF1"/>
<stop offset="0.484375" stop-color="#D8E0F4"/>
<stop offset="0.635417" stop-color="#BFC8DB"/>
<stop offset="1" stop-color="#BCC1CB"/>
</radialGradient>
<radialGradient id="paint2_radial_241_5806" cx="0" cy="0" r="1" gradientUnits="userSpaceOnUse" gradientTransform="translate(121.887 110.385) rotate(-76.5793) scale(78.4781)">
<stop offset="0.5433" stop-color="white" stop-opacity="0"/>
<stop offset="1" stop-color="white"/>
</radialGradient>
<radialGradient id="paint3_radial_241_5806" cx="0" cy="0" r="1" gradientUnits="userSpaceOnUse" gradientTransform="translate(98.4978 98.3117) rotate(135.754) scale(86.2327)">
<stop offset="0.5625" stop-color="#6D71A2" stop-opacity="0"/>
<stop offset="0.78125" stop-color="#2D3F6D" stop-opacity="0.54"/>
<stop offset="0.958333" stop-color="white"/>
</radialGradient>
<linearGradient id="paint4_linear_241_5806" x1="126.091" y1="106.444" x2="103.595" y2="70.0445" gradientUnits="userSpaceOnUse">
<stop stop-color="#8C97B1"/>
<stop offset="0.713542" stop-color="#9091C5"/>
</linearGradient>
</defs>
</svg>
