<svg width="190" height="190" viewBox="0 0 190 190" fill="none" xmlns="http://www.w3.org/2000/svg">
<g filter="url(#filter0_f_241_5840)">
<path d="M142.442 107.386C149.454 81.2146 133.923 54.314 107.752 47.3015C81.5811 40.2889 54.6805 55.82 47.668 81.9911C40.6555 108.162 56.1865 135.063 82.3576 142.075C108.529 149.088 135.429 133.557 142.442 107.386Z" fill="url(#paint0_radial_241_5840)"/>
<path opacity="0.6" d="M106.506 46.9394C132.736 53.4087 148.912 79.8625 142.915 106.107C136.445 132.337 109.992 148.513 83.7472 142.516C57.5175 136.046 41.3406 109.592 47.3384 83.3481C53.8222 56.6469 80.276 40.47 106.506 46.9394Z" fill="url(#paint1_radial_241_5840)"/>
</g>
<defs>
<filter id="filter0_f_241_5840" x="27.806" y="27.3373" width="134.536" height="134.605" filterUnits="userSpaceOnUse" color-interpolation-filters="sRGB">
<feFlood flood-opacity="0" result="BackgroundImageFix"/>
<feBlend mode="normal" in="SourceGraphic" in2="BackgroundImageFix" result="shape"/>
<feGaussianBlur stdDeviation="9.08917" result="effect1_foregroundBlur_241_5840"/>
</filter>
<radialGradient id="paint0_radial_241_5840" cx="0" cy="0" r="1" gradientUnits="userSpaceOnUse" gradientTransform="translate(76.5201 70.3388) rotate(-3.04718) scale(93.8875)">
<stop offset="0.0625" stop-color="white"/>
<stop offset="0.411458" stop-color="#F2EFFD"/>
<stop offset="0.583333" stop-color="#D8E0F4"/>
<stop offset="0.760417" stop-color="#BFC8DB"/>
<stop offset="1" stop-color="#BCC1CB"/>
</radialGradient>
<radialGradient id="paint1_radial_241_5840" cx="0" cy="0" r="1" gradientUnits="userSpaceOnUse" gradientTransform="translate(106.149 95.8261) rotate(-76.5793) scale(67.9106)">
<stop offset="0.5433" stop-color="white" stop-opacity="0"/>
<stop offset="1" stop-color="white"/>
</radialGradient>
</defs>
</svg>
