<svg width="38" height="39" viewBox="0 0 38 39" fill="none" xmlns="http://www.w3.org/2000/svg">
<g clip-path="url(#clip0_257_1824)">
<path d="M32.4943 0.998047H5.50391C5.19642 0.998047 4.94727 1.24727 4.94727 1.55469V27.9959C4.94727 28.3033 5.19642 28.5525 5.50391 28.5525C5.81139 28.5525 6.06055 28.3033 6.06055 27.9959V2.11133H31.9377V5.61074C31.9377 5.91816 32.1868 6.16738 32.4943 6.16738C32.8018 6.16738 33.0509 5.91816 33.0509 5.61074V1.55469C33.0509 1.24727 32.8018 0.998047 32.4943 0.998047V0.998047Z" fill="#D4DDF1"/>
<path d="M32.4943 7.65234C32.1868 7.65234 31.9377 7.90157 31.9377 8.20898V37.8854H6.06055V30.5941C6.06055 30.2867 5.81139 30.0375 5.50391 30.0375C5.19642 30.0375 4.94727 30.2867 4.94727 30.5941V38.442C4.94727 38.7494 5.19642 38.9986 5.50391 38.9986H32.4943C32.8018 38.9986 33.0509 38.7494 33.0509 38.442V8.20898C33.0509 7.90157 32.8018 7.65234 32.4943 7.65234Z" fill="#D4DDF1"/>
<path d="M7.3457 12.5768C7.3457 14.9507 9.27702 16.882 11.651 16.882C14.0249 16.882 15.9563 14.9507 15.9563 12.5768C15.9563 10.2028 14.0249 8.27148 11.651 8.27148C9.27702 8.27148 7.3457 10.2028 7.3457 12.5768ZM11.651 15.7688C9.89089 15.7688 8.45898 14.3369 8.45898 12.5768C8.45898 11.0066 9.59884 9.69856 11.0943 9.43434V12.5768C11.0943 12.8842 11.3435 13.1334 11.651 13.1334H14.7934C14.5291 14.6289 13.2212 15.7688 11.651 15.7688ZM14.7934 12.0201H12.2076V9.43434C13.5222 9.66665 14.5611 10.7056 14.7934 12.0201Z" fill="#D4DDF1"/>
<path d="M8.20313 33.0869C7.89564 33.0869 7.64648 33.3361 7.64648 33.6436V36.0427C7.64648 36.3501 7.89564 36.5993 8.20313 36.5993H11.8018C12.1093 36.5993 12.3585 36.3501 12.3585 36.0427V33.6436C12.3585 33.3361 12.1093 33.0869 11.8018 33.0869H8.20313ZM11.2452 35.486H8.75977V34.2002H11.2452V35.486Z" fill="#D4DDF1"/>
<path d="M14.2012 36.5984H17.7998C18.1073 36.5984 18.3565 36.3492 18.3565 36.0418V30.0439C18.3565 29.7365 18.1073 29.4873 17.7998 29.4873H14.2012C13.8937 29.4873 13.6445 29.7365 13.6445 30.0439V36.0418C13.6445 36.3492 13.8937 36.5984 14.2012 36.5984ZM14.7578 30.6006H17.2432V35.4851H14.7578V30.6006Z" fill="#D4DDF1"/>
<path d="M20.1992 24.9893C19.8917 24.9893 19.6426 25.2385 19.6426 25.5459V36.0421C19.6426 36.3495 19.8917 36.5988 20.1992 36.5988H23.7979C24.1054 36.5988 24.3545 36.3495 24.3545 36.0421V25.5459C24.3545 25.2385 24.1054 24.9893 23.7979 24.9893H20.1992ZM23.2412 35.4855H20.7559V26.1025H23.2412V35.4855Z" fill="#D4DDF1"/>
<path d="M29.7954 25.0666C30.1029 25.0666 30.352 24.8174 30.352 24.51V22.5469C30.352 22.2395 30.1029 21.9902 29.7954 21.9902H26.1973C25.8898 21.9902 25.6406 22.2395 25.6406 22.5469V36.0413C25.6406 36.3487 25.8898 36.598 26.1973 36.598H29.7953C30.1028 36.598 30.352 36.3487 30.352 36.0413V27.1076C30.352 26.8002 30.1028 26.551 29.7953 26.551C29.4878 26.551 29.2387 26.8002 29.2387 27.1076V35.4847H26.7539V23.1035H29.2387V24.51C29.2388 24.8174 29.4879 25.0666 29.7954 25.0666Z" fill="#D4DDF1"/>
<path d="M24.9976 3.39746H13.002C12.6945 3.39746 12.4453 3.64669 12.4453 3.9541V6.35322C12.4453 6.66064 12.6945 6.90986 13.002 6.90986H24.9977C25.3052 6.90986 25.5543 6.66064 25.5543 6.35322V3.9541C25.5543 3.64669 25.3051 3.39746 24.9976 3.39746ZM24.441 5.79658H13.5586V4.51074H24.4411V5.79658H24.441Z" fill="#D4DDF1"/>
<path d="M30.096 8.27148H19C18.6925 8.27148 18.4434 8.52071 18.4434 8.82812C18.4434 9.13554 18.6925 9.38477 19 9.38477H30.096C30.4035 9.38477 30.6526 9.13554 30.6526 8.82812C30.6526 8.52071 30.4034 8.27148 30.096 8.27148Z" fill="#D4DDF1"/>
<path d="M30.096 10.7695H19C18.6925 10.7695 18.4434 11.0188 18.4434 11.3262C18.4434 11.6336 18.6925 11.8828 19 11.8828H30.096C30.4035 11.8828 30.6526 11.6336 30.6526 11.3262C30.6526 11.0188 30.4034 10.7695 30.096 10.7695Z" fill="#D4DDF1"/>
<path d="M30.6526 13.8252C30.6526 13.5178 30.4035 13.2686 30.096 13.2686H19C18.6925 13.2686 18.4434 13.5178 18.4434 13.8252C18.4434 14.1326 18.6925 14.3818 19 14.3818H30.096C30.4034 14.3818 30.6526 14.1326 30.6526 13.8252Z" fill="#D4DDF1"/>
<path d="M26.1543 16.3242C26.1543 16.0168 25.9052 15.7676 25.5977 15.7676H19C18.6925 15.7676 18.4434 16.0168 18.4434 16.3242C18.4434 16.6316 18.6925 16.8809 19 16.8809H25.5977C25.9051 16.8809 26.1543 16.6316 26.1543 16.3242Z" fill="#D4DDF1"/>
<path d="M18.9983 19.4414H8.87695C8.56947 19.4414 8.32031 19.6906 8.32031 19.998C8.32031 20.3055 8.56947 20.5547 8.87695 20.5547H18.9983C19.3058 20.5547 19.555 20.3055 19.555 19.998C19.555 19.6906 19.3058 19.4414 18.9983 19.4414Z" fill="#D4DDF1"/>
<path d="M19.555 22.4961C19.555 22.1887 19.3058 21.9395 18.9983 21.9395H8.87695C8.56947 21.9395 8.32031 22.1887 8.32031 22.4961C8.32031 22.8035 8.56947 23.0527 8.87695 23.0527H18.9983C19.3058 23.0527 19.555 22.8035 19.555 22.4961Z" fill="#D4DDF1"/>
<path d="M15.0566 24.9961C15.0566 24.6887 14.8075 24.4395 14.5 24.4395H8.87695C8.56946 24.4395 8.32031 24.6887 8.32031 24.9961C8.32031 25.3035 8.56946 25.5527 8.87695 25.5527H14.5C14.8074 25.5527 15.0566 25.3035 15.0566 24.9961Z" fill="#D4DDF1"/>
</g>
<defs>
<clipPath id="clip0_257_1824">
<rect width="38" height="38" fill="white" transform="translate(0 0.998047)"/>
</clipPath>
</defs>
</svg>
