<svg width="132" height="132" viewBox="0 0 132 132" fill="none" xmlns="http://www.w3.org/2000/svg">
<mask id="mask0_5100_2676" style="mask-type:alpha" maskUnits="userSpaceOnUse" x="0" y="0" width="132" height="132">
<path d="M65.9816 131.963C102.422 131.963 131.963 102.422 131.963 65.9816C131.963 29.5409 102.422 0 65.9816 0C29.5409 0 0 29.5409 0 65.9816C0 102.422 29.5409 131.963 65.9816 131.963Z" fill="url(#paint0_radial_5100_2676)"/>
</mask>
<g mask="url(#mask0_5100_2676)">
<path d="M131.967 65.9818C131.967 29.5412 102.426 0.000267265 65.9855 0.000267265C29.5449 0.000267265 0.00390625 29.5412 0.00390625 65.9818C0.00390625 102.422 29.5449 131.963 65.9855 131.963C102.426 131.963 131.967 102.422 131.967 65.9818Z" fill="url(#paint1_radial_5100_2676)"/>
<path opacity="0.6" d="M79.4089 1.32565C114.937 8.93891 137.777 43.833 130.798 79.3615C123.185 114.89 88.2911 137.73 52.7625 130.751C17.234 123.138 -5.60573 88.2436 1.37308 52.7151C8.98633 16.5522 43.8804 -6.2876 79.4089 1.32565Z" fill="url(#paint2_radial_5100_2676)"/>
<g filter="url(#filter0_f_5100_2676)">
<path d="M32.3754 33.0123C31.1784 39.2097 33.0091 46.2183 39.0314 49.6943C41.0776 50.7082 42.5749 52.0406 45.17 52.7359C46.9001 53.1995 48.7466 53.2286 50.5931 53.2578C52.8722 53.4029 54.9515 52.5633 57.0307 51.7237C56.4818 52.0422 56.4818 52.0422 55.9329 52.3607C59.11 50.8841 62.6033 49.9579 65.1482 47.3807C67.5766 45.2379 68.8239 42.3131 69.6387 39.2723C72.5155 30.2659 66.2762 20.6792 57.6257 18.3614C46.929 15.0296 34.2205 20.936 32.3754 33.0123Z" fill="white"/>
</g>
</g>
<defs>
<filter id="filter0_f_5100_2676" x="15.985" y="1.39709" width="70.407" height="67.9216" filterUnits="userSpaceOnUse" color-interpolation-filters="sRGB">
<feFlood flood-opacity="0" result="BackgroundImageFix"/>
<feBlend mode="normal" in="SourceGraphic" in2="BackgroundImageFix" result="shape"/>
<feGaussianBlur stdDeviation="8.02216" result="effect1_foregroundBlur_5100_2676"/>
</filter>
<radialGradient id="paint0_radial_5100_2676" cx="0" cy="0" r="1" gradientUnits="userSpaceOnUse" gradientTransform="translate(91.1628 33.4264) rotate(87.9328) scale(143.896 119.441)">
<stop offset="0.0001" stop-color="#E8EFFF"/>
<stop offset="0.317708" stop-color="#EEE9FF"/>
<stop offset="0.484375" stop-color="#D8E0F4"/>
<stop offset="0.635417" stop-color="#BFC8DB"/>
<stop offset="1" stop-color="#BCC1CB"/>
</radialGradient>
<radialGradient id="paint1_radial_5100_2676" cx="0" cy="0" r="1" gradientUnits="userSpaceOnUse" gradientTransform="translate(33.4303 40.8006) rotate(-2.06719) scale(143.896 119.441)">
<stop offset="0.0001" stop-color="#E8EFFF"/>
<stop offset="0.317708" stop-color="#ECEBF1"/>
<stop offset="0.484375" stop-color="#D8E0F4"/>
<stop offset="0.635417" stop-color="#BFC8DB"/>
<stop offset="1" stop-color="#BCC1CB"/>
</radialGradient>
<radialGradient id="paint2_radial_5100_2676" cx="0" cy="0" r="1" gradientUnits="userSpaceOnUse" gradientTransform="translate(80.9486 67.0598) rotate(-78.3395) scale(91.3367)">
<stop offset="0.5433" stop-color="white" stop-opacity="0"/>
<stop offset="1" stop-color="white"/>
</radialGradient>
</defs>
</svg>
