<svg width="33" height="37" viewBox="0 0 33 37" fill="none" xmlns="http://www.w3.org/2000/svg">
<path d="M27.66 2.38L29.22 7.2L31.17 5.09V1.44L27.52 0L24.5 2.41L27.66 2.38V2.38Z" fill="#DC001A"/>
<path d="M28.2602 9.80988L26.4302 4.12988H21.4902L22.7702 8.13988H16.4102V36.0999L32.8402 22.4599L28.2602 9.80988ZM21.1502 18.5999V15.9899L24.8202 14.5199L25.3602 16.1699L21.1502 18.5999Z" fill="#DC001A"/>
<path d="M5.1599 2.38L3.5999 7.2L1.6499 5.09V1.44L5.2999 0L8.3199 2.41L5.1599 2.38V2.38Z" fill="#F6504B"/>
<path d="M10.06 8.13988L11.34 4.12988H6.41L4.58 9.80988L0 22.4699L16.41 36.0999V8.13988H10.06V8.13988ZM11.68 18.5999L7.47 16.1699L8.01 14.5199L11.68 15.9899V18.5999Z" fill="#F6504B"/>
</svg>
