<svg width="53" height="48" viewBox="0 0 53 48" fill="none" xmlns="http://www.w3.org/2000/svg">
<path d="M13.4672 0.616489L0 23.6411C0 23.6411 2.9541 29.2017 6.55984 35.5444L13.1197 47.1001L26.2828 47.0567C35.7967 47.0132 39.6197 46.8394 39.9238 46.4919C40.7492 45.4927 53 23.9452 53 23.4673C53 23.2501 52.5221 22.2075 52.0008 21.2517C51.4361 20.2526 48.482 15.1263 45.3975 9.78288L39.8369 0.138621L13.4672 0.616489ZM38.577 16.2124C40.7492 19.9919 42.5738 23.3804 42.5738 23.6411C42.5738 23.9452 40.7492 27.2468 38.577 31.0698L34.5369 37.9337L26.2828 37.8468L18.0721 37.7165L14.0754 30.9829C11.8598 27.2903 10.0352 23.9886 10.0352 23.6845C9.9918 23.3804 11.8164 20.0353 14.032 16.2124L18.0287 9.26157H26.2828H34.5369L38.577 16.2124Z" fill="url(#paint0_linear_1752_927)"/>
<path d="M16.0301 16.2994C14.2924 19.2535 12.8153 21.7731 12.7285 21.9469C12.6416 22.1641 15.5522 22.2944 19.2014 22.2944H25.8481L28.8891 16.9944C30.5834 14.0838 31.9735 11.5641 32.0604 11.3469C32.1473 11.1731 29.2801 10.9994 25.6744 10.9994H19.158L16.0301 16.2994Z" fill="url(#paint1_linear_1752_927)"/>
<path d="M30.8876 17.7328C29.1934 20.6869 27.8032 23.2501 27.8032 23.3804C27.8032 23.8583 34.059 34.4583 34.3631 34.4583C34.4934 34.4583 36.0573 32.0255 37.7516 29.0279L40.8795 23.5976L37.7516 18.1673C36.0139 15.1697 34.4499 12.6066 34.2762 12.5197C34.1024 12.3894 32.5819 14.7353 30.8876 17.7328Z" fill="url(#paint2_linear_1752_927)"/>
<path d="M12.7721 25.1182C12.9025 25.5092 14.3795 28.1592 16.0738 30.9829L19.1582 36.196H25.8918H32.6689L31.8434 34.7624C31.409 34.0239 29.8885 31.3739 28.4549 28.8977L25.8918 24.4665H19.2016C13.3803 24.4665 12.5549 24.5534 12.7721 25.1182Z" fill="url(#paint3_linear_1752_927)"/>
<defs>
<linearGradient id="paint0_linear_1752_927" x1="46.2664" y1="43.7984" x2="0.868853" y2="2.0935" gradientUnits="userSpaceOnUse">
<stop stop-color="#7656E7"/>
<stop offset="1" stop-color="#8667EA"/>
</linearGradient>
<linearGradient id="paint1_linear_1752_927" x1="29.6058" y1="21.5003" x2="19.2242" y2="7.03406" gradientUnits="userSpaceOnUse">
<stop stop-color="#7656E7"/>
<stop offset="1" stop-color="#8667EA"/>
</linearGradient>
<linearGradient id="paint2_linear_1752_927" x1="39.2181" y1="32.9155" x2="22.4988" y2="24.8056" gradientUnits="userSpaceOnUse">
<stop stop-color="#7656E7"/>
<stop offset="1" stop-color="#8667EA"/>
</linearGradient>
<linearGradient id="paint3_linear_1752_927" x1="30.1371" y1="35.3714" x2="19.3302" y2="20.4267" gradientUnits="userSpaceOnUse">
<stop stop-color="#7656E7"/>
<stop offset="1" stop-color="#8667EA"/>
</linearGradient>
</defs>
</svg>
