<svg width="38" height="39" viewBox="0 0 38 39" fill="none" xmlns="http://www.w3.org/2000/svg">
<g clip-path="url(#clip0_257_1837)">
<path d="M37.3505 13.8833L28.7732 5.63229C28.3654 5.24064 27.8275 5.0326 27.2609 5.04337C26.6945 5.05517 26.1677 5.28591 25.7779 5.69278L22.9429 8.64721C22.5649 9.04502 22.5795 9.67543 22.9732 10.0505L23.2042 10.2727L22.0406 11.2022C22.0116 11.2006 21.9787 11.1991 21.9411 11.1979C20.124 11.1414 18.7748 11.4424 17.9312 12.094L17.7974 12.1975L14.6006 10.6226L15.0245 10.2148C15.2169 10.0316 15.326 9.78409 15.3319 9.51772C15.3377 9.25112 15.2392 8.99863 15.0551 8.80745L12.2223 5.85517C11.8323 5.44801 11.3056 5.21733 10.7391 5.20546C10.1697 5.19173 9.63448 5.40266 9.22642 5.79468L0.649701 14.0452C-0.192311 14.8539 -0.219549 16.1985 0.589361 17.043L3.42289 19.9958C3.61704 20.1977 3.8774 20.2995 4.13873 20.2995C4.38624 20.2995 4.63458 20.2081 4.828 20.0239L5.16406 19.7006C5.40171 21.213 5.81021 22.74 6.77297 23.8169L6.65363 23.9462C5.63624 25.0506 5.95271 26.5241 6.76711 27.3498C7.21598 27.8051 7.76171 28.0424 8.31153 28.0595C8.23805 28.7649 8.56127 29.4707 9.07962 29.9622C9.53443 30.3935 10.1427 30.6699 10.7613 30.6698C10.915 30.6698 11.0695 30.6521 11.2225 30.616C11.3094 31.1165 11.5705 31.5924 11.9256 31.9484C12.3521 32.3761 12.9523 32.6741 13.5914 32.6741C13.6568 32.6741 13.7227 32.6709 13.7887 32.6645C13.7973 32.7873 13.8163 32.9122 13.8474 33.0386C14.0644 33.9209 14.7793 34.6628 15.6263 34.8847C15.7678 34.9217 15.9501 34.9533 16.1606 34.9533C16.6526 34.9533 17.2982 34.7807 17.9345 34.1025L18.5581 33.4387L19.4701 34.1399C20.0669 34.5988 20.6588 34.786 21.1902 34.786C21.8576 34.786 22.4296 34.4907 22.796 34.0672C23.1442 33.6647 23.3514 33.0935 23.2746 32.4826C23.9755 32.5183 24.6367 32.2481 25.0637 31.7978C25.3796 31.4647 25.5858 31.0109 25.5821 30.5135C26.3084 30.5899 26.9424 30.2799 27.3346 29.8148C27.7863 29.2791 27.9882 28.4808 27.7316 27.7231C28.4019 27.5785 29.0163 27.1543 29.4083 26.5165C29.8483 25.8005 30.0105 24.7332 29.3374 23.6789C30.3452 23.1233 31.6656 22.0142 33.1253 19.8171L33.174 19.8637C33.3661 20.0467 33.6134 20.1376 33.8604 20.1376C34.1218 20.1376 34.3829 20.0356 34.5775 19.8332L37.411 16.8805C38.2195 16.0363 38.1922 14.6917 37.3505 13.8833ZM7.5657 26.5621C7.11824 26.1084 6.90018 25.3341 7.47827 24.7067L8.45239 23.6513C8.85087 23.2189 9.28676 23.0419 9.71359 23.1395C10.1611 23.242 10.5599 23.6339 10.7058 24.1149C10.7762 24.3467 10.8393 24.7939 10.4714 25.1837C10.471 25.1841 10.4707 25.1846 10.4703 25.1851L9.10433 26.6352C8.52943 27.1487 7.93271 26.9342 7.5657 26.5621ZM11.462 29.2207C10.8868 29.8238 10.179 29.4589 9.85142 29.1481C9.76636 29.0675 9.03895 28.3401 9.68688 27.653C9.68695 27.6529 9.68702 27.6529 9.6871 27.6528L12.1607 25.0265C12.468 24.7001 12.784 24.6059 13.0464 24.6059C13.1438 24.6059 13.2339 24.6189 13.3133 24.6378C13.7546 24.7429 14.1341 25.0942 14.2578 25.512C14.3729 25.9011 14.2527 26.2967 13.9104 26.6557L13.3885 27.2026C13.3619 27.2291 13.3358 27.2571 13.3098 27.285L11.462 29.2207ZM14.3778 31.1838C14.373 31.1879 14.368 31.1915 14.3633 31.1957C14.3536 31.2045 14.3448 31.2139 14.3353 31.2229C13.5661 31.9288 12.8555 31.2925 12.7198 31.1563C12.4008 30.8365 12.0876 30.1914 12.5322 29.7256C12.5372 29.7204 12.5413 29.7148 12.5461 29.7095L14.0571 28.1264C14.0657 28.1178 14.0744 28.1095 14.0826 28.1003C14.0878 28.0943 14.0932 28.0889 14.0986 28.083L14.1963 27.9806C14.5723 27.6085 14.9829 27.4615 15.3921 27.5568C15.8427 27.6616 16.2306 28.0447 16.3572 28.5101C16.4355 28.798 16.4407 29.225 16.0204 29.6243L15.836 29.7994C15.8314 29.8035 15.8267 29.8071 15.8221 29.8112C15.8101 29.8219 15.7991 29.8333 15.7883 29.8448L14.3778 31.1838ZM17.9161 32.4837L17.1165 33.3347C16.7263 33.7506 16.3201 33.9066 15.9104 33.7995C15.464 33.6825 15.0545 33.2499 14.9365 32.7707C14.8849 32.5609 14.8733 32.2678 15.0981 32.0454C15.1084 32.0359 15.1188 32.027 15.1291 32.0172L16.5838 30.6362C17.0219 30.2582 17.6371 30.4418 17.9977 30.8113C18.1759 30.9936 18.6961 31.6528 17.9161 32.4837ZM28.4525 25.929C28.1682 26.3915 27.5732 26.7618 26.952 26.6273L24.8127 24.6359C24.5858 24.4249 24.231 24.4376 24.0199 24.6644C23.8089 24.8911 23.8216 25.246 24.0484 25.4571L26.2904 27.544C26.2926 27.5461 26.2949 27.5477 26.297 27.5496C26.298 27.5505 26.2987 27.5515 26.2996 27.5524C26.8528 28.0449 26.8076 28.6996 26.4769 29.0917C26.1017 29.5368 25.5146 29.5144 24.9045 29.0337L22.68 26.963C22.4532 26.7518 22.0983 26.7647 21.8873 26.9914C21.6763 27.2182 21.6889 27.5731 21.9157 27.7841L24.1416 29.8562C24.5281 30.2763 24.5669 30.6914 24.2496 31.0261C23.8722 31.4239 23.12 31.5522 22.4691 31.0061C22.4609 30.9993 22.4523 30.9934 22.4438 30.9871L21.4219 30.0374C21.195 29.8265 20.8401 29.8395 20.6292 30.0664C20.4184 30.2933 20.4314 30.6482 20.6583 30.8591L21.7643 31.887C22.3207 32.4635 22.2157 33.0234 21.9474 33.3335C21.6121 33.721 20.9275 33.8457 20.1536 33.2509L19.2315 32.5419C19.6933 31.5931 19.4006 30.6425 18.8003 30.0277C18.4494 29.6686 17.968 29.4066 17.4561 29.3269C17.545 28.9708 17.5424 28.5936 17.4395 28.2158C17.204 27.3505 16.5001 26.663 15.6461 26.4645C15.5402 26.4398 15.434 26.4234 15.3279 26.4148C15.448 26.0165 15.4535 25.5996 15.3334 25.1939C15.0959 24.3912 14.4048 23.7448 13.573 23.5468C12.9525 23.3993 12.3309 23.5177 11.8011 23.8705C11.7939 23.8435 11.7874 23.8166 11.7793 23.7895C11.5162 22.9228 10.8036 22.2386 9.96378 22.0464C9.13424 21.8567 8.3047 22.1567 7.62782 22.8912L7.5378 22.9887C6.74803 22.0493 6.39928 20.5947 6.16215 18.7408L8.52758 16.4653C8.75083 16.2506 8.75773 15.8956 8.54294 15.6723C8.3283 15.4491 7.97324 15.4422 7.74991 15.6569L5.21148 18.0988C5.19182 18.1153 5.17348 18.133 5.15626 18.152L4.1431 19.1266L1.39901 16.267C1.01775 15.869 1.03022 15.2354 1.42699 14.8543L10.0037 6.60344C10.1953 6.41953 10.4488 6.32112 10.7158 6.32691C10.9824 6.33247 11.2297 6.44053 11.4127 6.63143L14.1576 9.49196L9.52508 13.9486C9.30183 14.1634 9.29492 14.5184 9.50971 14.7416C9.72443 14.9649 10.0795 14.9717 10.3027 14.757L13.7409 11.4494L16.8097 12.9612L14.6416 14.6378C12.0423 16.6491 12.8255 18.4593 13.1275 18.9661C13.6427 19.831 14.6001 20.3303 15.5767 20.3303C15.9575 20.3303 16.3412 20.2544 16.7027 20.0946C16.7242 20.0851 16.7452 20.0743 16.7653 20.0621L19.042 18.6912L22.1385 17.984L28.0579 23.8661C28.9779 24.8104 28.6405 25.6232 28.4525 25.929ZM36.6012 16.1041L33.8567 18.9642L33.4359 18.5611C33.4201 18.5439 33.4031 18.5277 33.3849 18.5123L29.5193 14.8092C29.2954 14.5947 28.9406 14.6027 28.7262 14.8261C28.5119 15.0498 28.5196 15.4049 28.7432 15.6192L32.301 19.0275C30.7373 21.4306 29.3978 22.4093 28.5827 22.8063L22.71 16.9706C22.7085 16.9691 22.7069 16.9679 22.7053 16.9663C22.6968 16.9581 22.688 16.9504 22.679 16.9427C22.6736 16.938 22.6683 16.9333 22.6627 16.9288C22.6545 16.9224 22.646 16.9164 22.6375 16.9104C22.6308 16.9057 22.6241 16.9007 22.6172 16.8963C22.6095 16.8913 22.6014 16.8869 22.5934 16.8823C22.5856 16.8778 22.5778 16.873 22.5697 16.8689C22.5614 16.8647 22.5528 16.8611 22.5443 16.8573C22.5364 16.8537 22.5287 16.8499 22.5207 16.8468C22.5103 16.8427 22.4997 16.8393 22.489 16.8358C22.4828 16.8338 22.4766 16.8315 22.4703 16.8296C22.4573 16.8258 22.4441 16.8229 22.4308 16.8201C22.4267 16.8192 22.4226 16.8181 22.4185 16.8173C22.4046 16.8146 22.3903 16.8128 22.3761 16.8113C22.3724 16.8109 22.3688 16.8102 22.3651 16.8099C22.3522 16.8087 22.3391 16.8084 22.326 16.8082C22.3206 16.8081 22.3153 16.8077 22.3099 16.8077C22.2992 16.8078 22.2883 16.8086 22.2775 16.8093C22.2695 16.8099 22.2615 16.8102 22.2535 16.8111C22.2451 16.8121 22.2366 16.8135 22.2281 16.8148C22.2176 16.8165 22.2071 16.8181 22.1967 16.8204C22.1944 16.8209 22.1921 16.8211 22.1898 16.8216L18.7048 17.6176C18.6467 17.6309 18.5912 17.6532 18.5403 17.6839L16.2195 19.0814C15.47 19.393 14.5024 19.0823 14.0912 18.392C13.6035 17.5734 14.0659 16.5016 15.328 15.5251L18.2088 13.2972C18.2139 13.2933 18.2191 13.2897 18.224 13.2855L18.6173 12.9813C19.2314 12.5068 20.4001 12.2716 21.9059 12.3189C21.955 12.3204 21.9941 12.3227 22.0263 12.3245C22.3539 12.344 22.4849 12.2836 22.7371 12.0814L24.0197 11.0569L26.8981 13.8261C27.1213 14.0409 27.4764 14.0339 27.6912 13.8108C27.9059 13.5876 27.899 13.2325 27.6759 13.0177L23.8425 9.32972L26.5877 6.46889C26.7704 6.27822 27.0178 6.17023 27.2844 6.16466C27.2916 6.16451 27.2988 6.16444 27.306 6.16444C27.5657 6.16444 27.8101 6.26219 27.996 6.44083L36.5734 14.692C36.9697 15.0728 36.9822 15.7064 36.6012 16.1041Z" fill="#D4DDF1"/>
</g>
<defs>
<clipPath id="clip0_257_1837">
<rect width="38" height="38" fill="white" transform="translate(0 0.998047)"/>
</clipPath>
</defs>
</svg>
