<svg width="300" height="298" viewBox="0 0 300 298" fill="none" xmlns="http://www.w3.org/2000/svg">
<mask id="mask0_1229_918" style="mask-type:alpha" maskUnits="userSpaceOnUse" x="0" y="0" width="300" height="298">
<path d="M150 297.794C232.843 297.794 300 231.131 300 148.897C300 66.6635 232.843 0 150 0C67.1573 0 0 66.6635 0 148.897C0 231.131 67.1573 297.794 150 297.794Z" fill="url(#paint0_linear_1229_918)"/>
</mask>
<g mask="url(#mask0_1229_918)">
<path d="M150 297.793C232.843 297.793 300 231.129 300 148.896C300 66.662 232.843 -0.00152588 150 -0.00152588C67.1573 -0.00152588 0 66.662 0 148.896C0 231.129 67.1573 297.793 150 297.793Z" fill="url(#paint1_linear_1229_918)"/>
<path d="M150 297.793C232.843 297.793 300 231.129 300 148.896C300 66.662 232.843 -0.00152588 150 -0.00152588C67.1573 -0.00152588 0 66.662 0 148.896C0 231.129 67.1573 297.793 150 297.793Z" fill="url(#paint2_linear_1229_918)"/>
<path opacity="0.49" d="M150 297.793C232.843 297.793 300 231.129 300 148.896C300 66.662 232.843 -0.00152588 150 -0.00152588C67.1573 -0.00152588 0 66.662 0 148.896C0 231.129 67.1573 297.793 150 297.793Z" fill="url(#paint3_radial_1229_918)"/>
<path opacity="0.31" d="M272.213 138.311C262.213 149.12 247.324 150.443 233.324 148.899C225.768 148.017 218.435 146.693 211.102 145.37C201.99 143.826 191.102 141.62 183.768 148.679C177.99 154.414 175.99 162.576 172.879 169.855C169.99 176.473 165.99 182.649 161.101 187.943C152.879 196.546 141.99 200.958 130.213 200.517C105.324 199.634 82.8792 184.414 59.3237 177.796C48.4348 174.708 36.4348 172.281 25.1014 174.708C20.8792 175.59 17.5459 177.355 14.657 179.561C28.657 241.105 83.9903 286.987 150.213 286.987C226.879 286.987 289.102 225.223 289.102 149.12C289.102 137.87 287.768 127.061 285.324 116.693C282.213 124.414 277.99 131.914 272.213 138.311Z" fill="url(#paint4_linear_1229_918)"/>
<g filter="url(#filter0_f_1229_918)">
<path d="M251.44 56.0409C237.102 37.8294 224.289 30.4598 202.574 22.354C176.843 12.7494 136.263 14.6098 132.39 17.8432C128.426 21.1348 167.156 25.7621 187.257 36.0353C229.961 57.861 271.176 123.117 272.757 124.189C277.919 127.661 268.69 77.9503 251.44 56.0409Z" fill="#9D9CE2"/>
</g>
<g filter="url(#filter1_f_1229_918)">
<path d="M186.774 304.954C209.109 300.66 221.337 294.525 238.255 282.995C258.301 269.334 275.15 243.398 274.104 240.135C273.05 236.798 251.411 259.899 233.346 269.856C194.967 291.011 119.56 300.022 117.909 300.737C112.547 303.079 159.904 310.12 186.774 304.954Z" fill="#4E4877"/>
</g>
<g filter="url(#filter2_f_1229_918)">
<path d="M187.47 262.713C216.829 251.698 231.586 238.203 250.942 213.532C273.879 184.3 288.126 131.221 285.546 124.903C282.928 118.442 261.076 166.474 239.588 188.174C193.934 234.276 92.9014 260.644 90.8699 262.242C84.2771 267.473 152.149 275.965 187.47 262.713Z" fill="#494372"/>
</g>
<g filter="url(#filter3_f_1229_918)">
<path d="M64.3171 61.6841C61.8102 74.6632 65.6442 89.3413 78.2566 96.621C82.542 98.7443 85.6778 101.535 91.1128 102.991C94.7361 103.962 98.6032 104.023 102.47 104.084C107.243 104.388 111.598 102.63 115.953 100.871C114.803 101.538 114.803 101.538 113.653 102.205C120.307 99.1128 127.623 97.1729 132.953 91.7756C138.039 87.288 140.651 81.1625 142.357 74.7943C148.382 55.9324 135.315 35.8552 117.199 31.0008C94.7965 24.0231 68.1813 36.3929 64.3171 61.6841Z" fill="white"/>
</g>
<g opacity="0.4" filter="url(#filter4_f_1229_918)">
<path d="M70.6964 128.097C80.0656 141.062 98.5193 148.686 120.292 141.163C127.358 138.328 133.702 137.237 141.489 132.659C146.68 129.607 151.294 125.574 155.909 121.541C161.821 116.746 165.283 110.752 168.745 104.758C168.023 106.502 168.023 106.502 167.302 108.245C172.206 98.7643 178.984 89.5008 180.14 79.5847C181.872 70.6492 179.134 63.0221 175.098 56.1581C164.289 34.8031 129.83 32.6308 103.874 47.8914C70.8529 65.9864 51.2367 103.911 70.6964 128.097Z" fill="#BCBBFF"/>
</g>
<g filter="url(#filter5_i_1229_918)">
<path d="M110.112 90.5138L157.916 103.323C170.374 106.661 179.429 112.314 185.082 120.282C190.867 128.174 192.174 138.038 189.003 149.872C185.888 161.499 179.89 169.349 171.01 173.423C162.158 177.393 151.867 177.806 140.136 174.663L115.222 167.987L104.54 207.851L80.4046 201.383L110.112 90.5138ZM128.907 116.913L120.354 148.834L141.998 154.634C154.663 158.028 162.414 154.43 165.251 143.841C168.116 133.149 163.268 126.12 150.707 122.754L128.907 116.913Z" fill="url(#paint5_linear_1229_918)"/>
</g>
<g filter="url(#filter6_i_1229_918)">
<path d="M206.111 83.8526L200.223 105.829L112.317 82.2748L118.206 60.2983L206.111 83.8526Z" fill="url(#paint6_linear_1229_918)"/>
</g>
<g opacity="0.67" filter="url(#filter7_f_1229_918)">
<path d="M72.1654 67.7521C69.9495 79.2244 73.3384 92.1984 84.4865 98.6329C88.2744 100.51 91.0461 102.976 95.8501 104.263C99.0528 105.121 102.471 105.175 105.889 105.229C110.108 105.498 113.957 103.944 117.806 102.39C116.79 102.979 116.79 102.979 115.774 103.569C121.655 100.835 128.122 99.1206 132.833 94.3499C137.328 90.3833 139.637 84.969 141.145 79.3401C146.471 62.668 134.921 44.9217 118.908 40.631C99.1064 34.4635 75.581 45.3971 72.1654 67.7521Z" fill="white"/>
</g>
<g filter="url(#filter8_f_1229_918)">
<path d="M29.0324 161.887C25.0931 157.75 20.9548 150.874 19.7284 138.547C18.5128 124.852 21.495 110.506 25.3112 102.324C29.3534 93.4606 34.2404 89.3936 38.8633 90.7988C43.271 91.518 47.4201 97.0251 51.5692 102.532C60.9653 114.239 70.3615 125.947 79.5315 138.336C85.4242 146.594 92.7856 164.444 83.8511 178.059C77.1501 188.27 65.4933 183.388 58.2225 181.962C48.3147 179.146 38.4393 172.225 29.0324 161.887Z" fill="#99A1CD"/>
</g>
<g filter="url(#filter9_f_1229_918)">
<path d="M221.692 167.384C217.753 163.248 213.615 156.372 212.388 144.045C211.173 130.35 214.155 116.003 217.971 107.822C222.013 98.9586 226.9 94.8915 231.523 96.2967C235.931 97.0159 240.08 102.523 244.229 108.03C253.625 119.737 263.021 131.445 272.191 143.834C278.084 152.092 285.446 169.942 276.511 183.557C269.81 193.768 258.153 188.886 250.882 187.46C240.975 184.644 231.099 177.723 221.692 167.384Z" fill="#99A1CD"/>
</g>
<g opacity="0.4" filter="url(#filter10_f_1229_918)">
<path d="M20.4148 195.487C19.2335 201.603 21.0402 208.52 26.9835 211.951C29.003 212.951 30.4807 214.266 33.0418 214.952C34.7492 215.41 36.5715 215.439 38.3938 215.468C40.643 215.611 42.695 214.782 44.7471 213.954C44.2054 214.268 44.2053 214.268 43.6636 214.582C46.7991 213.125 50.2466 212.211 52.7581 209.667C55.1548 207.553 56.3857 204.666 57.1898 201.665C60.0289 192.777 53.8714 183.316 45.3343 181.028C34.7777 177.74 22.2357 183.569 20.4148 195.487Z" fill="#6B68F5" fill-opacity="0.58"/>
</g>
<path opacity="0.79" d="M7.9855 233.496C-36.62 153.576 -8.49043 52.3613 70.3761 6.55447C150.297 -38.0511 251.511 -9.9215 297.318 68.945C341.923 148.866 313.794 250.08 234.927 295.887C153.805 341.546 52.591 313.416 7.9855 233.496Z" fill="url(#paint7_radial_1229_918)"/>
<g opacity="0.79" filter="url(#filter11_f_1229_918)">
<path d="M-126.742 148.608C-107.395 43.6544 72.7953 -65.0482 276.025 -95.3185C479.67 -123.902 630.195 -62.49 614.396 41.5919C595.049 146.546 414.859 255.248 211.629 285.519C4.43685 314.974 -146.088 253.562 -126.742 148.608Z" fill="url(#paint8_radial_1229_918)"/>
</g>
</g>
<defs>
<filter id="filter0_f_1229_918" x="115.774" y="-1.10208" width="174.744" height="141.798" filterUnits="userSpaceOnUse" color-interpolation-filters="sRGB">
<feFlood flood-opacity="0" result="BackgroundImageFix"/>
<feBlend mode="normal" in="SourceGraphic" in2="BackgroundImageFix" result="shape"/>
<feGaussianBlur stdDeviation="8.16682" result="effect1_foregroundBlur_1229_918"/>
</filter>
<filter id="filter1_f_1229_918" x="116.199" y="238.517" width="159.242" height="69.579" filterUnits="userSpaceOnUse" color-interpolation-filters="sRGB">
<feFlood flood-opacity="0" result="BackgroundImageFix"/>
<feBlend mode="normal" in="SourceGraphic" in2="BackgroundImageFix" result="shape"/>
<feGaussianBlur stdDeviation="0.645386" result="effect1_foregroundBlur_1229_918"/>
</filter>
<filter id="filter2_f_1229_918" x="84.4949" y="118.383" width="207.279" height="157.325" filterUnits="userSpaceOnUse" color-interpolation-filters="sRGB">
<feFlood flood-opacity="0" result="BackgroundImageFix"/>
<feBlend mode="normal" in="SourceGraphic" in2="BackgroundImageFix" result="shape"/>
<feGaussianBlur stdDeviation="2.96373" result="effect1_foregroundBlur_1229_918"/>
</filter>
<filter id="filter3_f_1229_918" x="57.6641" y="23.1465" width="92.1071" height="86.8994" filterUnits="userSpaceOnUse" color-interpolation-filters="sRGB">
<feFlood flood-opacity="0" result="BackgroundImageFix"/>
<feBlend mode="normal" in="SourceGraphic" in2="BackgroundImageFix" result="shape"/>
<feGaussianBlur stdDeviation="2.96373" result="effect1_foregroundBlur_1229_918"/>
</filter>
<filter id="filter4_f_1229_918" x="46.6397" y="21.6806" width="150.363" height="138.79" filterUnits="userSpaceOnUse" color-interpolation-filters="sRGB">
<feFlood flood-opacity="0" result="BackgroundImageFix"/>
<feBlend mode="normal" in="SourceGraphic" in2="BackgroundImageFix" result="shape"/>
<feGaussianBlur stdDeviation="8.16682" result="effect1_foregroundBlur_1229_918"/>
</filter>
<filter id="filter5_i_1229_918" x="80.4045" y="90.5138" width="110.283" height="118.21" filterUnits="userSpaceOnUse" color-interpolation-filters="sRGB">
<feFlood flood-opacity="0" result="BackgroundImageFix"/>
<feBlend mode="normal" in="SourceGraphic" in2="BackgroundImageFix" result="shape"/>
<feColorMatrix in="SourceAlpha" type="matrix" values="0 0 0 0 0 0 0 0 0 0 0 0 0 0 0 0 0 0 127 0" result="hardAlpha"/>
<feOffset dy="0.873253"/>
<feGaussianBlur stdDeviation="0.873253"/>
<feComposite in2="hardAlpha" operator="arithmetic" k2="-1" k3="1"/>
<feColorMatrix type="matrix" values="0 0 0 0 0.178351 0 0 0 0 0.160417 0 0 0 0 0.366667 0 0 0 1 0"/>
<feBlend mode="normal" in2="shape" result="effect1_innerShadow_1229_918"/>
</filter>
<filter id="filter6_i_1229_918" x="112.317" y="60.2983" width="93.7944" height="46.404" filterUnits="userSpaceOnUse" color-interpolation-filters="sRGB">
<feFlood flood-opacity="0" result="BackgroundImageFix"/>
<feBlend mode="normal" in="SourceGraphic" in2="BackgroundImageFix" result="shape"/>
<feColorMatrix in="SourceAlpha" type="matrix" values="0 0 0 0 0 0 0 0 0 0 0 0 0 0 0 0 0 0 127 0" result="hardAlpha"/>
<feOffset dy="0.873253"/>
<feGaussianBlur stdDeviation="0.873253"/>
<feComposite in2="hardAlpha" operator="arithmetic" k2="-1" k3="1"/>
<feColorMatrix type="matrix" values="0 0 0 0 0.178351 0 0 0 0 0.160417 0 0 0 0 0.366667 0 0 0 1 0"/>
<feBlend mode="normal" in2="shape" result="effect1_innerShadow_1229_918"/>
</filter>
<filter id="filter7_f_1229_918" x="66.2849" y="33.6885" width="81.4137" height="76.8106" filterUnits="userSpaceOnUse" color-interpolation-filters="sRGB">
<feFlood flood-opacity="0" result="BackgroundImageFix"/>
<feBlend mode="normal" in="SourceGraphic" in2="BackgroundImageFix" result="shape"/>
<feGaussianBlur stdDeviation="2.61965" result="effect1_foregroundBlur_1229_918"/>
</filter>
<filter id="filter8_f_1229_918" x="3.11948" y="74.1931" width="101.226" height="126.523" filterUnits="userSpaceOnUse" color-interpolation-filters="sRGB">
<feFlood flood-opacity="0" result="BackgroundImageFix"/>
<feBlend mode="normal" in="SourceGraphic" in2="BackgroundImageFix" result="shape"/>
<feGaussianBlur stdDeviation="8.16682" result="effect1_foregroundBlur_1229_918"/>
</filter>
<filter id="filter9_f_1229_918" x="195.78" y="79.691" width="101.226" height="126.523" filterUnits="userSpaceOnUse" color-interpolation-filters="sRGB">
<feFlood flood-opacity="0" result="BackgroundImageFix"/>
<feBlend mode="normal" in="SourceGraphic" in2="BackgroundImageFix" result="shape"/>
<feGaussianBlur stdDeviation="8.16682" result="effect1_foregroundBlur_1229_918"/>
</filter>
<filter id="filter10_f_1229_918" x="17.1093" y="177.157" width="43.7448" height="41.291" filterUnits="userSpaceOnUse" color-interpolation-filters="sRGB">
<feFlood flood-opacity="0" result="BackgroundImageFix"/>
<feBlend mode="normal" in="SourceGraphic" in2="BackgroundImageFix" result="shape"/>
<feGaussianBlur stdDeviation="1.48187" result="effect1_foregroundBlur_1229_918"/>
</filter>
<filter id="filter11_f_1229_918" x="-148.416" y="-122.33" width="783.95" height="435.225" filterUnits="userSpaceOnUse" color-interpolation-filters="sRGB">
<feFlood flood-opacity="0" result="BackgroundImageFix"/>
<feBlend mode="normal" in="SourceGraphic" in2="BackgroundImageFix" result="shape"/>
<feGaussianBlur stdDeviation="10" result="effect1_foregroundBlur_1229_918"/>
</filter>
<linearGradient id="paint0_linear_1229_918" x1="143.63" y1="336.841" x2="153.402" y2="45.5396" gradientUnits="userSpaceOnUse">
<stop offset="0.00086138" stop-color="#4A4574"/>
<stop offset="0.9992" stop-color="#9091BF"/>
</linearGradient>
<linearGradient id="paint1_linear_1229_918" x1="143.63" y1="336.839" x2="153.402" y2="45.538" gradientUnits="userSpaceOnUse">
<stop offset="0.00086138" stop-color="#55527C"/>
<stop offset="0.9992" stop-color="#BCC3E2"/>
</linearGradient>
<linearGradient id="paint2_linear_1229_918" x1="187.969" y1="322.076" x2="143.179" y2="114.52" gradientUnits="userSpaceOnUse">
<stop offset="0.00064103" stop-color="#646797"/>
<stop offset="0.9927" stop-color="#959EC8" stop-opacity="0"/>
</linearGradient>
<radialGradient id="paint3_radial_1229_918" cx="0" cy="0" r="1" gradientUnits="userSpaceOnUse" gradientTransform="translate(150.03 148.843) scale(149.631 148.531)">
<stop offset="0.0099359" stop-color="#B1B9DB"/>
<stop offset="0.234375" stop-color="#7177A9" stop-opacity="0.81"/>
<stop offset="0.479167" stop-color="#585883" stop-opacity="0.88"/>
<stop offset="0.744792" stop-color="#58557C"/>
<stop offset="1" stop-color="#29284A"/>
</radialGradient>
<linearGradient id="paint4_linear_1229_918" x1="223.403" y1="340.651" x2="125.956" y2="84.3215" gradientUnits="userSpaceOnUse">
<stop offset="0.00282452" stop-color="#55537D"/>
<stop offset="1" stop-color="#9FA5D1" stop-opacity="0"/>
</linearGradient>
<linearGradient id="paint5_linear_1229_918" x1="202.97" y1="178.158" x2="190.785" y2="102.803" gradientUnits="userSpaceOnUse">
<stop stop-color="#54517E"/>
<stop offset="0.713542" stop-color="#9091C5"/>
</linearGradient>
<linearGradient id="paint6_linear_1229_918" x1="152.455" y1="98.3831" x2="181.499" y2="73.9317" gradientUnits="userSpaceOnUse">
<stop stop-color="#54517E"/>
<stop offset="0.713542" stop-color="#9091C5"/>
</linearGradient>
<radialGradient id="paint7_radial_1229_918" cx="0" cy="0" r="1" gradientUnits="userSpaceOnUse" gradientTransform="translate(129.895 121.381) rotate(150.399) scale(230.071)">
<stop offset="0.5433" stop-color="#6D71A2" stop-opacity="0"/>
<stop offset="0.828125" stop-color="#E87354"/>
<stop offset="0.958333" stop-color="#BBD8F1"/>
</radialGradient>
<radialGradient id="paint8_radial_1229_918" cx="0" cy="0" r="1" gradientUnits="userSpaceOnUse" gradientTransform="translate(239.824 54.1674) rotate(171.797) scale(517.558 254.195)">
<stop offset="0.385417" stop-color="#6D71A2" stop-opacity="0"/>
<stop offset="0.65625" stop-color="#03113D"/>
<stop offset="0.833333" stop-color="#36486E"/>
<stop offset="0.958333" stop-color="#BBD8F1"/>
</radialGradient>
</defs>
</svg>
