<svg width="38" height="39" viewBox="0 0 38 39" fill="none" xmlns="http://www.w3.org/2000/svg">
<g clip-path="url(#clip0_257_1815)">
<path d="M19.0016 10.9588C19.3091 10.9588 19.5582 10.7096 19.5582 10.4022V10.0394C20.2851 9.88245 20.8521 9.35498 20.9745 8.66934C21.085 8.05036 20.8041 7.24182 19.6845 6.82879L19.4882 6.7565C18.9683 6.56524 18.7073 6.46928 18.4688 6.33939C18.3613 6.28084 18.3484 6.17515 18.3565 6.0967C18.3711 5.95502 18.4748 5.77711 18.7216 5.70275C19.344 5.51527 19.9218 5.9706 19.9388 5.98426C20.174 6.17945 20.5232 6.14828 20.7201 5.91397C20.9179 5.67863 20.8876 5.3275 20.6522 5.1297C20.6249 5.10677 20.1917 4.74985 19.5582 4.60461V4.23047C19.5582 3.92305 19.309 3.67383 19.0015 3.67383C18.694 3.67383 18.4449 3.92305 18.4449 4.23047V4.62472C18.43 4.62888 18.4153 4.63236 18.4004 4.63682C17.7657 4.828 17.3138 5.35607 17.249 5.98218C17.191 6.54313 17.4544 7.05457 17.9362 7.31708C18.8478 7.81345 19.9785 7.91291 19.8785 8.47363C19.8344 8.72026 19.5337 8.97535 19.1069 8.97535C18.6672 8.97535 18.244 8.79811 17.9749 8.50124C17.7686 8.27339 17.4166 8.25624 17.1886 8.46257C16.9609 8.66905 16.9436 9.02107 17.1501 9.24884C17.4837 9.61704 17.9427 9.88089 18.4448 10.0062V10.4022C18.445 10.7096 18.6941 10.9588 19.0016 10.9588Z" fill="#D4DDF1"/>
<path d="M13.6326 33.1101C13.4983 32.8336 13.1651 32.7183 12.8888 32.8528C12.6122 32.9872 12.4971 33.3202 12.6314 33.5968L12.8752 34.0984C9.59396 32.9879 6.71887 31.0307 4.48088 28.3792C4.93072 27.9109 5.20815 27.2758 5.20815 26.5767C5.20815 25.1408 4.04002 23.9727 2.60411 23.9727C1.1682 23.9727 0 25.1409 0 26.5768C0 28.0127 1.1682 29.1809 2.60411 29.1809C2.93765 29.1809 3.25642 29.1171 3.54981 29.0024C5.96021 31.894 9.08096 34.0162 12.6487 35.1968L12.1039 35.5654C11.8492 35.7377 11.7824 36.0837 11.9547 36.3384C12.1269 36.593 12.4729 36.6598 12.7276 36.4876L14.2444 35.4617C14.4738 35.3065 14.5542 35.0063 14.4331 34.7572L13.6326 33.1101ZM1.11328 26.5768C1.11328 25.7547 1.78207 25.086 2.60411 25.086C3.42609 25.086 4.09487 25.7548 4.09487 26.5768C4.09487 27.3988 3.42609 28.0676 2.60411 28.0676C1.78207 28.0676 1.11328 27.3988 1.11328 26.5768Z" fill="#D4DDF1"/>
<path d="M32.4123 29.8543L30.5915 29.6604C30.2864 29.6279 30.0116 29.8493 29.979 30.155C29.9465 30.4607 30.1679 30.7348 30.4736 30.7674L31.0288 30.8266C28.2849 33.0735 25.0195 34.4864 21.4955 34.9474C21.1742 33.8736 20.1776 33.0885 19.0006 33.0885C17.5647 33.0885 16.3965 34.2567 16.3965 35.6925C16.3965 37.1284 17.5647 38.2966 19.0006 38.2966C20.3119 38.2966 21.3994 37.3222 21.5784 36.0595C25.379 35.5741 28.897 34.0434 31.8396 31.6002L31.8635 32.258C31.8744 32.5583 32.1214 32.7945 32.4194 32.7944C32.4262 32.7944 32.4331 32.7944 32.4399 32.7941C32.7472 32.7829 32.9872 32.5249 32.9761 32.2176L32.9096 30.3877C32.8996 30.1109 32.6876 29.8836 32.4123 29.8543ZM19.0006 37.1834C18.1786 37.1834 17.5098 36.5146 17.5098 35.6926C17.5098 34.8706 18.1786 34.2018 19.0006 34.2018C19.8226 34.2018 20.4914 34.8706 20.4914 35.6926C20.4914 36.5146 19.8226 37.1834 19.0006 37.1834Z" fill="#D4DDF1"/>
<path d="M35.3971 23.9727C33.9612 23.9727 32.793 25.1409 32.793 26.5767C32.793 28.0126 33.9612 29.1808 35.3971 29.1808C36.833 29.1808 38.0011 28.0127 38.0011 26.5768C38.0011 25.1409 36.833 23.9727 35.3971 23.9727ZM35.3971 28.0676C34.575 28.0676 33.9063 27.3988 33.9063 26.5768C33.9063 25.7547 34.575 25.086 35.3971 25.086C36.2191 25.086 36.8878 25.7548 36.8878 26.5768C36.8878 27.3988 36.2191 28.0676 35.3971 28.0676Z" fill="#D4DDF1"/>
<path d="M9.48434 28.4634C12.233 30.5803 15.5236 31.6993 19.0004 31.6993C22.4773 31.6993 25.7679 30.5803 28.5165 28.4635C28.9258 28.1482 29.189 27.6715 29.2385 27.1553C29.2884 26.6359 29.1193 26.1138 28.7743 25.723C26.4228 23.0586 23.0891 21.475 19.5572 21.3238V19.7333C20.2304 18.7925 21.1071 17.9897 22.1049 17.4007C22.1393 17.4236 22.1746 17.4456 22.2115 17.4651C22.819 17.7871 23.4794 17.9476 24.1388 17.9476C24.8461 17.9476 25.5521 17.7628 26.1898 17.3947C27.422 16.6834 28.1883 15.4086 28.2399 13.9847C28.2571 13.5068 27.9954 13.0533 27.5729 12.8295C26.3141 12.1622 24.8269 12.1885 23.5947 12.8999C22.3625 13.6113 21.5962 14.886 21.5446 16.3099C21.543 16.3526 21.5445 16.395 21.5473 16.4372C20.819 16.8662 20.1472 17.3953 19.5572 18.0024V12.9059C22.3942 12.6256 24.6179 10.226 24.6179 7.31654C24.6179 6.70883 24.5213 6.11085 24.3308 5.53922C24.2335 5.24754 23.918 5.08998 23.6268 5.18713C23.3351 5.28435 23.1775 5.59956 23.2747 5.89117C23.4273 6.3491 23.5047 6.82862 23.5047 7.31654C23.5047 9.79997 21.4842 11.8205 19.0007 11.8205C16.5172 11.8205 14.4966 9.80005 14.4966 7.31654C14.4966 4.83303 16.5172 2.8125 19.0007 2.8125C20.1206 2.8125 21.1941 3.22612 22.0233 3.97729C22.251 4.18369 22.6031 4.16632 22.8096 3.93847C23.016 3.71062 22.9986 3.3586 22.7708 3.1522C21.7361 2.21526 20.3972 1.69922 19.0004 1.69922C15.9031 1.69922 13.3831 4.21917 13.3831 7.31654C13.3831 10.226 15.6067 12.6256 18.4438 12.9059V18.0024C17.8538 17.3953 17.1821 16.8662 16.4537 16.4372C16.4565 16.395 16.458 16.3526 16.4564 16.3099C16.4049 14.886 15.6385 13.6113 14.4064 12.8999C13.174 12.1886 11.6869 12.1624 10.4282 12.8295C10.0057 13.0534 9.74381 13.5069 9.76117 13.9848C9.81276 15.4087 10.5791 16.6834 11.8112 17.3948C12.4489 17.763 13.1549 17.9477 13.8623 17.9476C14.5216 17.9476 15.1821 17.7871 15.7894 17.4652C15.8264 17.4456 15.8617 17.4237 15.8961 17.4007C16.894 17.9897 17.7707 18.7926 18.4439 19.7333V21.3228C17.3122 21.3704 16.1972 21.563 15.122 21.8977C14.8285 21.9891 14.6646 22.3011 14.7559 22.5947C14.8473 22.8882 15.1592 23.0521 15.4529 22.9607C16.5968 22.6046 17.7903 22.424 19.0005 22.424C22.418 22.424 25.6762 23.8949 27.9396 26.4596C28.0835 26.6226 28.1512 26.8319 28.1303 27.0489C28.1098 27.2625 28.0057 27.4517 27.8373 27.5814C25.2851 29.547 22.2293 30.586 19.0005 30.586C15.7717 30.586 12.7159 29.5471 10.1637 27.5814C9.99526 27.4516 9.8912 27.2625 9.87072 27.0489C9.84987 26.8319 9.91763 26.6226 10.0614 26.4596C10.9599 25.4416 12.0149 24.5904 13.1971 23.93C13.4655 23.78 13.5615 23.4409 13.4116 23.1726C13.2616 22.9041 12.9225 22.8081 12.6541 22.9581C11.3618 23.6801 10.2087 24.6103 9.22672 25.723C8.88183 26.1138 8.71261 26.6359 8.76249 27.1553C8.81199 27.6715 9.07517 28.1483 9.48434 28.4634ZM24.1511 13.864C24.6158 13.5958 25.1302 13.4613 25.6458 13.4613C26.1266 13.4613 26.6084 13.5784 27.0514 13.8132C27.0993 13.8387 27.1291 13.8902 27.1272 13.9445C27.0895 14.9828 26.531 15.9122 25.633 16.4307C24.9136 16.846 24.0747 16.94 23.2973 16.711L25.7002 15.3238C25.9664 15.1701 26.0576 14.8296 25.9039 14.5634C25.7503 14.2971 25.4097 14.206 25.1435 14.3597L22.7405 15.747C22.9308 14.9592 23.4316 14.2795 24.1511 13.864ZM12.3679 16.4307C11.4698 15.9123 10.9113 14.9828 10.8737 13.9445C10.8718 13.8902 10.9015 13.8387 10.9495 13.8131C11.3925 13.5783 11.8742 13.4613 12.355 13.4613C12.8705 13.4613 13.385 13.5958 13.8497 13.864C14.5693 14.2795 15.07 14.9591 15.2603 15.747L12.8573 14.3597C12.5908 14.2059 12.2505 14.2972 12.0969 14.5634C11.9432 14.8296 12.0344 15.1701 12.3006 15.3238L14.7035 16.711C13.9262 16.94 13.0873 16.8459 12.3679 16.4307Z" fill="#D4DDF1"/>
</g>
<defs>
<clipPath id="clip0_257_1815">
<rect width="38" height="38" fill="white" transform="translate(0 0.998047)"/>
</clipPath>
</defs>
</svg>
