<svg width="118" height="117" viewBox="0 0 118 117" fill="none" xmlns="http://www.w3.org/2000/svg">
<mask id="mask0_241_5150" style="mask-type:alpha" maskUnits="userSpaceOnUse" x="0" y="0" width="118" height="117">
<path d="M58.6554 116.448C91.0499 116.448 117.311 90.3804 117.311 58.2241C117.311 26.0678 91.0499 0 58.6554 0C26.2609 0 0 26.0678 0 58.2241C0 90.3804 26.2609 116.448 58.6554 116.448Z" fill="url(#paint0_linear_241_5150)"/>
</mask>
<g mask="url(#mask0_241_5150)">
<path d="M58.6573 116.46C91.0518 116.46 117.313 90.3922 117.313 58.2359C117.313 26.0796 91.0518 0.0117187 58.6573 0.0117187C26.2629 0.0117187 0.00195313 26.0796 0.00195313 58.2359C0.00195313 90.3922 26.2629 116.46 58.6573 116.46Z" fill="url(#paint1_linear_241_5150)"/>
<path d="M58.6573 116.46C91.0518 116.46 117.313 90.3922 117.313 58.2359C117.313 26.0796 91.0518 0.0117187 58.6573 0.0117187C26.2629 0.0117187 0.00195313 26.0796 0.00195313 58.2359C0.00195313 90.3922 26.2629 116.46 58.6573 116.46Z" fill="url(#paint2_linear_241_5150)"/>
<path opacity="0.49" d="M58.6573 116.46C91.0518 116.46 117.313 90.3922 117.313 58.2359C117.313 26.0796 91.0518 0.0117187 58.6573 0.0117187C26.2629 0.0117187 0.00195313 26.0796 0.00195313 58.2359C0.00195313 90.3922 26.2629 116.46 58.6573 116.46Z" fill="url(#paint3_radial_241_5150)"/>
<path opacity="0.31" d="M106.45 54.0978C102.54 58.3244 96.7174 58.842 91.2429 58.2382C88.2884 57.8932 85.4208 57.3756 82.5532 56.8581C78.9905 56.2543 74.7325 55.3917 71.8649 58.1519C69.6056 60.3946 68.8235 63.5862 67.6069 66.4327C66.4773 69.0204 64.9131 71.4356 63.0014 73.5058C59.7862 76.8699 55.5283 78.5951 50.9227 78.4225C41.1903 78.0775 32.4137 72.1257 23.2026 69.538C18.9447 68.3304 14.2522 67.3815 9.82049 68.3304C8.16944 68.6754 6.86599 69.3655 5.73633 70.228C11.2108 94.294 32.8482 112.236 58.7435 112.236C88.7229 112.236 113.054 88.0834 113.054 58.3244C113.054 53.9253 112.533 49.6987 111.577 45.6445C110.36 48.6636 108.709 51.5963 106.45 54.0978Z" fill="url(#paint4_linear_241_5150)"/>
<g filter="url(#filter0_f_241_5150)">
<path d="M98.3217 21.9177C92.7148 14.7963 87.7045 11.9145 79.2131 8.74489C69.1515 4.98911 53.2831 5.71657 51.7688 6.98095C50.2187 8.2681 65.3635 10.0776 73.2236 14.0947C89.9227 22.6293 106.039 48.1466 106.657 48.566C108.676 49.9235 105.067 30.485 98.3217 21.9177Z" fill="#FA9A63"/>
</g>
<g filter="url(#filter1_f_241_5150)">
<path d="M73.3104 102.734C84.791 98.4266 90.5613 93.1494 98.1305 83.5025C107.099 72.0716 112.67 51.3158 111.662 48.8451C110.638 46.3187 102.093 65.101 93.6903 73.5864C75.838 91.614 36.3308 101.925 35.5364 102.55C32.9584 104.595 59.4987 107.916 73.3104 102.734Z" fill="#FF5A23"/>
</g>
<g opacity="0.4" filter="url(#filter2_f_241_5150)">
<path d="M27.645 50.0896C31.3087 55.1593 38.5247 58.1405 47.0387 55.1987C49.8015 54.0903 52.2824 53.6637 55.3272 51.8734C57.3572 50.6799 59.1616 49.103 60.9661 47.526C63.278 45.6507 64.6317 43.3069 65.9852 40.9631C65.7032 41.6449 65.7032 41.6449 65.4211 42.3268C67.3388 38.6193 69.9894 34.997 70.4413 31.1194C71.1185 27.6253 70.0479 24.6428 68.4698 21.9587C64.243 13.6081 50.7683 12.7587 40.6187 18.7262C27.7062 25.802 20.0356 40.6318 27.645 50.0896Z" fill="#F5B362"/>
</g>
<g filter="url(#filter3_f_241_5150)">
<path d="M11.3543 63.3002C9.81393 61.6825 8.19571 58.9939 7.71613 54.1737C7.24079 48.8183 8.40697 43.2084 9.89922 40.0092C11.4799 36.5432 13.3908 34.9528 15.1986 35.5023C16.9222 35.7835 18.5446 37.937 20.1671 40.0905C23.8413 44.6684 27.5155 49.2464 31.1013 54.0912C33.4056 57.3204 36.2842 64.3003 32.7904 69.6242C30.1701 73.6172 25.6119 71.708 22.7687 71.1504C18.8944 70.0494 15.0328 67.343 11.3543 63.3002Z" fill="#FFBD5A"/>
</g>
<g filter="url(#filter4_ii_241_5150)">
<path d="M39.3315 23.916C40.8204 22.3746 43.2769 22.332 44.8184 23.8208C46.3598 25.3097 46.4024 27.7663 44.9135 29.3077L18.6583 56.4899C17.1694 58.0313 14.7129 58.0739 13.1714 56.585C11.63 55.0962 11.5874 52.6396 13.0763 51.0982L39.3315 23.916Z" fill="url(#paint5_linear_241_5150)"/>
<path d="M56.8823 29.9473C58.3712 28.4058 60.8277 28.3632 62.3691 29.8521C63.9106 31.341 63.9532 33.7975 62.4643 35.339L49.0482 49.2287C47.5593 50.7702 45.1028 50.8128 43.5613 49.3239C42.0199 47.835 41.9773 45.3785 43.4661 43.8371L56.8823 29.9473Z" fill="url(#paint6_linear_241_5150)"/>
<path opacity="0.6" d="M75.812 36.5762C77.3008 35.0347 79.7574 34.9921 81.2988 36.481C82.8403 37.9699 82.8829 40.4264 81.394 41.9679L55.3441 68.9374C53.8552 70.4789 51.3987 70.5215 49.8572 69.0326C48.3158 67.5437 48.2732 65.0872 49.7621 63.5457L75.812 36.5762Z" fill="url(#paint7_linear_241_5150)"/>
<path d="M53.8138 62.605C55.8367 63.3042 56.9097 65.511 56.2105 67.5338C55.5112 69.5567 53.3045 70.6297 51.2816 69.9305C49.2587 69.2312 48.1857 67.0245 48.885 65.0016C49.5842 62.9788 51.7909 61.9057 53.8138 62.605Z" fill="url(#paint8_linear_241_5150)"/>
<path d="M79.89 35.6167C81.9129 36.316 82.9859 38.5227 82.2866 40.5456C81.5874 42.5684 79.3807 43.6415 77.3578 42.9422C75.3349 42.243 74.2619 40.0362 74.9611 38.0134C75.6604 35.9905 77.8671 34.9175 79.89 35.6167Z" fill="url(#paint9_linear_241_5150)"/>
</g>
<g filter="url(#filter5_f_241_5150)">
<path d="M86.6922 65.4564C85.1518 63.8387 83.5336 61.1501 83.054 56.3299C82.5787 50.9746 83.7449 45.3646 85.2371 42.1655C86.8178 38.6995 88.7287 37.1091 90.5365 37.6586C92.26 37.9398 93.8825 40.0933 95.505 42.2468C99.1792 46.8247 102.853 51.4026 106.439 56.2475C108.743 59.4767 111.622 66.4565 108.128 71.7805C105.508 75.7734 100.95 73.8643 98.1066 73.3066C94.2323 72.2056 90.3707 69.4992 86.6922 65.4564Z" fill="#FFBD5A"/>
</g>
<g filter="url(#filter6_f_241_5150)">
<path d="M25.0189 24.7594C23.7261 31.4529 25.7033 39.0227 32.2078 42.7769C34.4178 43.872 36.035 45.311 38.8379 46.0621C40.7065 46.5628 42.7008 46.5942 44.6952 46.6257C47.1566 46.7824 49.4024 45.8756 51.6481 44.9688C51.0553 45.3128 51.0553 45.3128 50.4624 45.6568C53.8939 44.062 57.6668 43.0616 60.4154 40.2781C63.0383 37.9638 64.3855 34.8047 65.2654 31.5206C68.3726 21.7932 61.6338 11.439 52.2908 8.93552C40.7377 5.33703 27.0117 11.7163 25.0189 24.7594Z" fill="white"/>
</g>
<g opacity="0.8" filter="url(#filter7_f_241_5150)">
<path d="M83.0526 100.31C83.731 102.181 87.127 98.7596 89.3196 98.7265C90.0376 98.6699 92.9231 93.7964 95.5349 90.8934C96.8578 89.4231 99.31 88.1913 99.0387 87.2363C98.3607 84.3328 91.0542 86.8867 88.0894 88.7035C83.9074 91.2662 81.5987 96.7421 83.0526 100.31Z" fill="white"/>
</g>
<g opacity="0.4" filter="url(#filter8_f_241_5150)">
<path d="M7.98574 76.441C7.5238 78.8326 8.23028 81.5373 10.5544 82.8788C11.344 83.27 11.9219 83.7842 12.9234 84.0525C13.591 84.2314 14.3036 84.2427 15.0162 84.254C15.8957 84.3099 16.6981 83.9859 17.5005 83.6619C17.2887 83.7848 17.2887 83.7848 17.0769 83.9077C18.303 83.3379 19.651 82.9805 20.6331 81.9859C21.5703 81.159 22.0517 80.0302 22.3661 78.8568C23.4763 75.3811 21.0685 71.6815 17.7301 70.787C13.6021 69.5012 8.69778 71.7806 7.98574 76.441Z" fill="#F6BA6A"/>
</g>
<g filter="url(#filter9_f_241_5150)">
<path d="M117.003 58.3515C117.639 60.8905 117.735 64.5662 115.439 69.7567C112.829 75.4904 108.399 80.535 105.029 82.9338C101.415 85.5536 98.5483 86.0705 97.023 84.4659C95.4286 83.1833 95.0191 80.0507 94.6095 76.9181C93.5094 70.1286 92.4093 63.3391 91.5535 56.3286C91.0705 51.7056 92.1693 42.9274 98.8068 39.5192C103.785 36.963 107.328 41.5429 109.904 43.7541C113.217 47.115 115.59 52.105 117.003 58.3515Z" fill="#DB847C"/>
</g>
</g>
<defs>
<filter id="filter0_f_241_5150" x="42.0153" y="-3.68291" width="74.8424" height="61.9596" filterUnits="userSpaceOnUse" color-interpolation-filters="sRGB">
<feFlood flood-opacity="0" result="BackgroundImageFix"/>
<feBlend mode="normal" in="SourceGraphic" in2="BackgroundImageFix" result="shape"/>
<feGaussianBlur stdDeviation="4.82144" result="effect1_foregroundBlur_241_5150"/>
</filter>
<filter id="filter1_f_241_5150" x="16.0756" y="29.3275" width="114.989" height="95.4553" filterUnits="userSpaceOnUse" color-interpolation-filters="sRGB">
<feFlood flood-opacity="0" result="BackgroundImageFix"/>
<feBlend mode="normal" in="SourceGraphic" in2="BackgroundImageFix" result="shape"/>
<feGaussianBlur stdDeviation="9.64287" result="effect1_foregroundBlur_241_5150"/>
</filter>
<filter id="filter2_f_241_5150" x="14.9821" y="5.2209" width="65.3092" height="60.7838" filterUnits="userSpaceOnUse" color-interpolation-filters="sRGB">
<feFlood flood-opacity="0" result="BackgroundImageFix"/>
<feBlend mode="normal" in="SourceGraphic" in2="BackgroundImageFix" result="shape"/>
<feGaussianBlur stdDeviation="4.82144" result="effect1_foregroundBlur_241_5150"/>
</filter>
<filter id="filter3_f_241_5150" x="-11.6764" y="16.1103" width="65.3801" height="75.2722" filterUnits="userSpaceOnUse" color-interpolation-filters="sRGB">
<feFlood flood-opacity="0" result="BackgroundImageFix"/>
<feBlend mode="normal" in="SourceGraphic" in2="BackgroundImageFix" result="shape"/>
<feGaussianBlur stdDeviation="9.64287" result="effect1_foregroundBlur_241_5150"/>
</filter>
<filter id="filter4_ii_241_5150" x="-0.917737" y="8.02367" width="104.623" height="104.622" filterUnits="userSpaceOnUse" color-interpolation-filters="sRGB">
<feFlood flood-opacity="0" result="BackgroundImageFix"/>
<feBlend mode="normal" in="SourceGraphic" in2="BackgroundImageFix" result="shape"/>
<feColorMatrix in="SourceAlpha" type="matrix" values="0 0 0 0 0 0 0 0 0 0 0 0 0 0 0 0 0 0 127 0" result="hardAlpha"/>
<feOffset dx="0.917737" dy="0.917737"/>
<feGaussianBlur stdDeviation="0.917737"/>
<feComposite in2="hardAlpha" operator="arithmetic" k2="-1" k3="1"/>
<feColorMatrix type="matrix" values="0 0 0 0 0.679167 0 0 0 0 0.330254 0 0 0 0 0.149983 0 0 0 1 0"/>
<feBlend mode="normal" in2="shape" result="effect1_innerShadow_241_5150"/>
<feColorMatrix in="SourceAlpha" type="matrix" values="0 0 0 0 0 0 0 0 0 0 0 0 0 0 0 0 0 0 127 0" result="hardAlpha"/>
<feOffset dx="-0.917737" dy="-0.917737"/>
<feGaussianBlur stdDeviation="0.458869"/>
<feComposite in2="hardAlpha" operator="arithmetic" k2="-1" k3="1"/>
<feColorMatrix type="matrix" values="0 0 0 0 1 0 0 0 0 0.840049 0 0 0 0 0.696094 0 0 0 1 0"/>
<feBlend mode="normal" in2="effect1_innerShadow_241_5150" result="effect2_innerShadow_241_5150"/>
</filter>
<filter id="filter5_f_241_5150" x="63.6615" y="18.2665" width="65.3801" height="75.2722" filterUnits="userSpaceOnUse" color-interpolation-filters="sRGB">
<feFlood flood-opacity="0" result="BackgroundImageFix"/>
<feBlend mode="normal" in="SourceGraphic" in2="BackgroundImageFix" result="shape"/>
<feGaussianBlur stdDeviation="9.64287" result="effect1_foregroundBlur_241_5150"/>
</filter>
<filter id="filter6_f_241_5150" x="5.35879" y="-11.3439" width="79.9582" height="77.2732" filterUnits="userSpaceOnUse" color-interpolation-filters="sRGB">
<feFlood flood-opacity="0" result="BackgroundImageFix"/>
<feBlend mode="normal" in="SourceGraphic" in2="BackgroundImageFix" result="shape"/>
<feGaussianBlur stdDeviation="9.64287" result="effect1_foregroundBlur_241_5150"/>
</filter>
<filter id="filter7_f_241_5150" x="70.0495" y="73.3542" width="41.5768" height="40.0826" filterUnits="userSpaceOnUse" color-interpolation-filters="sRGB">
<feFlood flood-opacity="0" result="BackgroundImageFix"/>
<feBlend mode="normal" in="SourceGraphic" in2="BackgroundImageFix" result="shape"/>
<feGaussianBlur stdDeviation="6.28384" result="effect1_foregroundBlur_241_5150"/>
</filter>
<filter id="filter8_f_241_5150" x="-1.79131" y="60.7893" width="34.0748" height="33.1139" filterUnits="userSpaceOnUse" color-interpolation-filters="sRGB">
<feFlood flood-opacity="0" result="BackgroundImageFix"/>
<feBlend mode="normal" in="SourceGraphic" in2="BackgroundImageFix" result="shape"/>
<feGaussianBlur stdDeviation="4.82144" result="effect1_foregroundBlur_241_5150"/>
</filter>
<filter id="filter9_f_241_5150" x="72.1674" y="19.4789" width="64.5129" height="85.1838" filterUnits="userSpaceOnUse" color-interpolation-filters="sRGB">
<feFlood flood-opacity="0" result="BackgroundImageFix"/>
<feBlend mode="normal" in="SourceGraphic" in2="BackgroundImageFix" result="shape"/>
<feGaussianBlur stdDeviation="9.64287" result="effect1_foregroundBlur_241_5150"/>
</filter>
<linearGradient id="paint0_linear_241_5150" x1="56.1644" y1="131.717" x2="59.9858" y2="17.8076" gradientUnits="userSpaceOnUse">
<stop offset="0.00086138" stop-color="#A88F6C"/>
<stop offset="0.9992" stop-color="#F6F0D4"/>
</linearGradient>
<linearGradient id="paint1_linear_241_5150" x1="56.1664" y1="131.729" x2="59.9877" y2="17.8193" gradientUnits="userSpaceOnUse">
<stop stop-color="#FA8700"/>
<stop offset="0.9992" stop-color="#FF9A51"/>
</linearGradient>
<linearGradient id="paint2_linear_241_5150" x1="73.5045" y1="125.956" x2="55.9903" y2="44.7938" gradientUnits="userSpaceOnUse">
<stop offset="0.00064103" stop-color="#F38B5C"/>
<stop offset="0.9927" stop-color="#E3E1AB" stop-opacity="0"/>
</linearGradient>
<radialGradient id="paint3_radial_241_5150" cx="0" cy="0" r="1" gradientUnits="userSpaceOnUse" gradientTransform="translate(58.6692 58.2154) scale(58.5111 58.0809)">
<stop stop-color="#FFF4F2"/>
<stop offset="0.322917" stop-color="#FFD7A8" stop-opacity="0.81"/>
<stop offset="0.5625" stop-color="#FFA858" stop-opacity="0.88"/>
<stop offset="0.744792" stop-color="#BA9B7F"/>
<stop offset="1" stop-color="#E05F16"/>
</radialGradient>
<linearGradient id="paint4_linear_241_5150" x1="87.3637" y1="133.22" x2="49.2584" y2="32.986" gradientUnits="userSpaceOnUse">
<stop stop-color="#A3550E"/>
<stop offset="0.177083" stop-color="#F8CF99" stop-opacity="0"/>
</linearGradient>
<linearGradient id="paint5_linear_241_5150" x1="15.9625" y1="59.2809" x2="9.92626" y2="53.2489" gradientUnits="userSpaceOnUse">
<stop stop-color="#FD7925"/>
<stop offset="1" stop-color="#FF913A"/>
</linearGradient>
<linearGradient id="paint6_linear_241_5150" x1="46.3523" y1="52.0198" x2="40.388" y2="45.9199" gradientUnits="userSpaceOnUse">
<stop stop-color="#FD7925"/>
<stop offset="1" stop-color="#FF913A"/>
</linearGradient>
<linearGradient id="paint7_linear_241_5150" x1="52.6483" y1="71.7284" x2="46.6127" y2="65.6959" gradientUnits="userSpaceOnUse">
<stop stop-color="#FD7925"/>
<stop offset="1" stop-color="#FF913A"/>
</linearGradient>
<linearGradient id="paint8_linear_241_5150" x1="47.6189" y1="68.6644" x2="51.1716" y2="60.9627" gradientUnits="userSpaceOnUse">
<stop stop-color="#FD7925"/>
<stop offset="1" stop-color="#FF913A"/>
</linearGradient>
<linearGradient id="paint9_linear_241_5150" x1="73.695" y1="41.6761" x2="77.2478" y2="33.9744" gradientUnits="userSpaceOnUse">
<stop stop-color="#FD7925"/>
<stop offset="1" stop-color="#FF913A"/>
</linearGradient>
</defs>
</svg>
