<svg width="175" height="175" viewBox="0 0 175 175" fill="none" xmlns="http://www.w3.org/2000/svg">
<g filter="url(#filter0_d_241_4960)">
<mask id="mask0_241_4960" style="mask-type:alpha" maskUnits="userSpaceOnUse" x="43" y="43" width="88" height="88">
<path d="M85.8182 130.837C61.736 130.056 42.8464 109.901 43.6271 85.8185C44.4078 61.7363 64.5632 42.8467 88.6454 43.6274C112.728 44.4081 131.617 64.5635 130.836 88.6457C130.056 112.728 109.9 131.617 85.8182 130.837Z" fill="url(#paint0_radial_241_4960)"/>
</mask>
<g mask="url(#mask0_241_4960)">
<path d="M85.8182 130.837C61.736 130.056 42.8464 109.901 43.6271 85.8185C44.4078 61.7363 64.5632 42.8467 88.6454 43.6274C112.728 44.4081 131.617 64.5635 130.836 88.6457C130.056 112.728 109.9 131.617 85.8182 130.837Z" fill="url(#paint1_radial_241_4960)"/>
<path opacity="0.6" d="M43.6382 84.6701C42.38 108.662 60.7228 129.252 84.6056 130.915C108.598 132.173 129.187 113.83 130.851 89.9477C132.109 65.9556 113.766 45.3658 89.8831 43.7027C65.4861 42.3353 44.8963 60.678 43.6382 84.6701Z" fill="url(#paint2_radial_241_4960)"/>
<g filter="url(#filter1_f_241_4960)">
<path d="M72.8084 59.6424C76.9596 60.0732 81.0437 62.5755 82.0886 67.0529C82.3378 68.5421 82.8939 69.7451 82.8363 71.5206C82.7979 72.7043 82.4623 73.8784 82.1267 75.0524C81.7816 76.5224 80.8516 77.6772 79.9216 78.832C80.2284 78.5457 80.2284 78.5457 80.5352 78.2594C78.9917 79.9868 77.7357 82.0197 75.617 83.1359C73.7954 84.2618 71.7054 84.4903 69.625 84.4229C63.3742 84.5164 58.504 78.7301 58.6959 72.8117C58.6385 65.404 64.8128 58.4945 72.8084 59.6424Z" fill="white"/>
</g>
<path d="M140.607 68.0912C126.381 42.0095 93.7189 32.215 67.4897 45.9431C41.4079 60.1686 31.6135 92.8307 45.3416 119.06C59.5671 145.142 92.2292 154.936 118.458 141.208C145.038 126.835 154.832 94.173 140.607 68.0912Z" fill="url(#paint3_radial_241_4960)"/>
<g filter="url(#filter2_f_241_4960)">
<path d="M118.347 27.6349C82.0338 2.5595 30.9333 12.1489 3.81117 48.8032C-22.7883 86.0218 -15.1734 136.631 20.5529 162.25C56.8661 187.325 107.967 177.736 135.089 141.081C162.275 103.319 154.66 52.7103 118.347 27.6349Z" fill="url(#paint4_radial_241_4960)"/>
</g>
</g>
</g>
<defs>
<filter id="filter0_d_241_4960" x="37.6035" y="41.604" width="117.256" height="117.256" filterUnits="userSpaceOnUse" color-interpolation-filters="sRGB">
<feFlood flood-opacity="0" result="BackgroundImageFix"/>
<feColorMatrix in="SourceAlpha" type="matrix" values="0 0 0 0 0 0 0 0 0 0 0 0 0 0 0 0 0 0 127 0" result="hardAlpha"/>
<feOffset dx="9" dy="13"/>
<feGaussianBlur stdDeviation="7.5"/>
<feComposite in2="hardAlpha" operator="out"/>
<feColorMatrix type="matrix" values="0 0 0 0 0 0 0 0 0 0 0 0 0 0 0 0 0 0 0.25 0"/>
<feBlend mode="normal" in2="BackgroundImageFix" result="effect1_dropShadow_241_4960"/>
<feBlend mode="normal" in="SourceGraphic" in2="effect1_dropShadow_241_4960" result="shape"/>
</filter>
<filter id="filter1_f_241_4960" x="48.0828" y="48.9085" width="45.3657" height="46.1338" filterUnits="userSpaceOnUse" color-interpolation-filters="sRGB">
<feFlood flood-opacity="0" result="BackgroundImageFix"/>
<feBlend mode="normal" in="SourceGraphic" in2="BackgroundImageFix" result="shape"/>
<feGaussianBlur stdDeviation="5.30432" result="effect1_foregroundBlur_241_4960"/>
</filter>
<filter id="filter2_f_241_4960" x="-15.6634" y="10.0608" width="170.651" height="169.763" filterUnits="userSpaceOnUse" color-interpolation-filters="sRGB">
<feFlood flood-opacity="0" result="BackgroundImageFix"/>
<feBlend mode="normal" in="SourceGraphic" in2="BackgroundImageFix" result="shape"/>
<feGaussianBlur stdDeviation="1.7936" result="effect1_foregroundBlur_241_4960"/>
</filter>
<radialGradient id="paint0_radial_241_4960" cx="0" cy="0" r="1" gradientUnits="userSpaceOnUse" gradientTransform="translate(71.2879 65.1782) rotate(93.924) scale(95.1455 78.9756)">
<stop offset="0.0001" stop-color="#E8EFFF"/>
<stop offset="0.317708" stop-color="#EEE9FF"/>
<stop offset="0.484375" stop-color="#D8E0F4"/>
<stop offset="0.635417" stop-color="#BFC8DB"/>
<stop offset="1" stop-color="#BCC1CB"/>
</radialGradient>
<radialGradient id="paint1_radial_241_4960" cx="0" cy="0" r="1" gradientUnits="userSpaceOnUse" gradientTransform="translate(71.2879 65.1782) rotate(93.924) scale(95.1455 78.9756)">
<stop offset="0.0001" stop-color="#E8EFFF"/>
<stop offset="0.317708" stop-color="#EEE9FF"/>
<stop offset="0.484375" stop-color="#D8E0F4"/>
<stop offset="0.635417" stop-color="#BFC8DB"/>
<stop offset="1" stop-color="#BCC1CB"/>
</radialGradient>
<radialGradient id="paint2_radial_241_4960" cx="0" cy="0" r="1" gradientUnits="userSpaceOnUse" gradientTransform="translate(85.337 96.9731) rotate(-176.564) scale(60.3926)">
<stop offset="0.5433" stop-color="white" stop-opacity="0"/>
<stop offset="1" stop-color="white"/>
</radialGradient>
<radialGradient id="paint3_radial_241_4960" cx="0" cy="0" r="1" gradientUnits="userSpaceOnUse" gradientTransform="translate(69.901 62.171) rotate(-17.1072) scale(135.877 105.222)">
<stop stop-color="#E1E3F8" stop-opacity="0"/>
<stop offset="0.25" stop-color="#747DA3" stop-opacity="0.398467"/>
<stop offset="0.53125" stop-color="#2A3869" stop-opacity="0.67"/>
<stop offset="0.619792" stop-color="#2A3869"/>
</radialGradient>
<radialGradient id="paint4_radial_241_4960" cx="0" cy="0" r="1" gradientUnits="userSpaceOnUse" gradientTransform="translate(56.2604 82.5984) rotate(-54.214) scale(194.341 145.139)">
<stop offset="0.177083" stop-color="#E1E3F8" stop-opacity="0"/>
<stop offset="0.380208" stop-color="#747DA3" stop-opacity="0.03"/>
<stop offset="0.455548" stop-color="#1B2855" stop-opacity="0.39"/>
<stop offset="0.739583" stop-color="#2A3869"/>
</radialGradient>
</defs>
</svg>
