<svg width="174" height="174" viewBox="0 0 174 174" fill="none" xmlns="http://www.w3.org/2000/svg">
<g filter="url(#filter0_d_241_5065)">
<mask id="mask0_241_5065" style="mask-type:alpha" maskUnits="userSpaceOnUse" x="41" y="41" width="91" height="91">
<path d="M130.196 98.3372C136.636 74.3025 122.373 49.5979 98.3381 43.1579C74.3035 36.7178 49.5989 50.981 43.1588 75.0156C36.7187 99.0503 50.982 123.755 75.0166 130.195C99.0512 136.635 123.756 122.372 130.196 98.3372Z" fill="url(#paint0_radial_241_5065)"/>
</mask>
<g mask="url(#mask0_241_5065)">
<path d="M130.196 98.3372C136.636 74.3025 122.373 49.5979 98.3381 43.1579C74.3035 36.7178 49.5989 50.981 43.1588 75.0156C36.7187 99.0503 50.982 123.755 75.0166 130.195C99.0512 136.635 123.756 122.372 130.196 98.3372Z" fill="url(#paint1_radial_241_5065)"/>
<path opacity="0.6" d="M97.1921 42.8288C121.281 48.7701 136.137 73.0643 130.629 97.1662C124.688 121.255 100.393 136.111 76.2914 130.603C52.2028 124.662 37.3465 100.367 42.8548 76.2655C48.8093 51.7439 73.1036 36.8876 97.1921 42.8288Z" fill="url(#paint2_radial_241_5065)"/>
<path opacity="0.79" d="M51.5864 119.617C32.7132 99.9441 33.1976 68.6573 52.4763 49.5173C72.1491 30.6441 103.436 31.1285 122.576 50.4071C141.449 70.08 140.965 101.367 121.686 120.507C101.746 139.774 70.4596 139.29 51.5864 119.617Z" fill="url(#paint3_radial_241_5065)"/>
<g filter="url(#filter1_i_241_5065)">
<path d="M77.4524 72.3046C77.2837 72.6074 77.1297 72.8472 77.0026 73.1005C74.0157 79.0524 71.0288 85.0043 68.0214 90.9635C67.7107 91.5826 67.7666 91.8396 68.3706 92.1428C74.6268 95.2472 80.8618 98.3938 87.1109 101.512C87.4196 101.667 87.8449 101.757 88.172 101.675C89.7529 101.271 91.3147 100.804 93.1012 100.291C92.7253 100.102 92.4971 99.9879 92.2823 99.8801C86.6846 97.0709 81.1003 94.2685 75.5026 91.4593C73.9186 90.6644 73.6769 89.8737 74.496 88.2415C76.5084 84.2313 78.5209 80.2212 80.5334 76.2111C80.6746 75.9296 80.8158 75.6482 80.9853 75.3105C82.0726 75.8562 83.1331 76.3884 84.2607 76.9543C82.3047 80.8519 80.3558 84.7354 78.3575 88.7174C78.6931 88.8858 78.9481 89.0138 79.2032 89.1418C85.7405 92.4225 92.2645 95.6966 98.8018 98.9773C99.567 99.3613 100.038 99.8969 100.019 100.804C99.9942 101.725 99.4461 102.348 98.4028 102.652C95.7574 103.403 93.0978 104.182 90.4396 104.891C86.7247 105.898 87.8466 106.074 84.3161 104.302C77.7985 101.049 71.2951 97.7674 64.7846 94.5001C63.2811 93.7456 62.9998 92.8998 63.7977 91.3098C67.4625 84.0072 71.1202 76.7186 74.785 69.4159C75.6112 67.7696 76.314 67.5411 77.9115 68.3427C84.7307 71.765 91.55 75.1872 98.3756 78.6302C98.9394 78.9132 99.4269 78.9464 100.041 78.7613C101.473 78.3177 102.932 77.9224 104.466 77.477C98.9894 74.7284 93.593 72.0203 88.1296 69.2784C87.7977 69.9398 87.4806 70.5381 87.1904 71.1498C87.0132 71.5365 86.814 71.6655 86.4247 71.4701C85.6532 71.0653 84.8612 70.6679 84.0755 70.2912C83.7265 70.1161 83.6834 69.9007 83.8599 69.5489C84.4947 68.3174 85.0963 67.0517 85.7446 65.8269C86.1676 65.0175 87.1508 64.6655 87.9852 64.9786C88.1265 65.0319 88.2607 65.0992 88.395 65.1666C95.6841 68.8246 102.973 72.4826 110.276 76.1474C111.457 76.7402 111.868 77.8626 111.197 78.8646C110.932 79.2598 110.443 79.631 110.007 79.7642C106.556 80.7803 103.085 81.7689 99.6029 82.6809C99.0032 82.8379 98.2197 82.6914 97.6693 82.4152C91.2047 79.2238 84.7684 75.9761 78.325 72.7425C78.0431 72.601 77.7746 72.4663 77.4524 72.3046Z" fill="url(#paint4_linear_241_5065)"/>
</g>
<g filter="url(#filter2_f_241_5065)">
<path d="M63.728 64.1616C62.9107 68.3934 64.1607 73.179 68.2729 75.5525C69.6701 76.2448 70.6925 77.1546 72.4645 77.6294C73.6458 77.9459 74.9067 77.9658 76.1675 77.9858C77.7237 78.0848 79.1435 77.5116 80.5633 76.9383C80.1884 77.1557 80.1884 77.1557 79.8136 77.3732C81.983 76.3649 84.3683 75.7325 86.106 73.9727C87.7642 72.5096 88.6159 70.5124 89.1722 68.4361C91.1366 62.2864 86.8763 55.7404 80.9695 54.1576C73.6655 51.8826 64.9879 55.9157 63.728 64.1616Z" fill="white"/>
</g>
</g>
</g>
<defs>
<filter id="filter0_d_241_5065" x="41.6133" y="41.6113" width="120.129" height="120.13" filterUnits="userSpaceOnUse" color-interpolation-filters="sRGB">
<feFlood flood-opacity="0" result="BackgroundImageFix"/>
<feColorMatrix in="SourceAlpha" type="matrix" values="0 0 0 0 0 0 0 0 0 0 0 0 0 0 0 0 0 0 127 0" result="hardAlpha"/>
<feOffset dx="16" dy="16"/>
<feGaussianBlur stdDeviation="7"/>
<feComposite in2="hardAlpha" operator="out"/>
<feColorMatrix type="matrix" values="0 0 0 0 0 0 0 0 0 0 0 0 0 0 0 0 0 0 0.25 0"/>
<feBlend mode="normal" in2="BackgroundImageFix" result="effect1_dropShadow_241_5065"/>
<feBlend mode="normal" in="SourceGraphic" in2="effect1_dropShadow_241_5065" result="shape"/>
</filter>
<filter id="filter1_i_241_5065" x="63.3613" y="64.8652" width="48.1582" height="41.259" filterUnits="userSpaceOnUse" color-interpolation-filters="sRGB">
<feFlood flood-opacity="0" result="BackgroundImageFix"/>
<feBlend mode="normal" in="SourceGraphic" in2="BackgroundImageFix" result="shape"/>
<feColorMatrix in="SourceAlpha" type="matrix" values="0 0 0 0 0 0 0 0 0 0 0 0 0 0 0 0 0 0 127 0" result="hardAlpha"/>
<feOffset dy="0.479709"/>
<feGaussianBlur stdDeviation="0.632411"/>
<feComposite in2="hardAlpha" operator="arithmetic" k2="-1" k3="1"/>
<feColorMatrix type="matrix" values="0 0 0 0 0.178351 0 0 0 0 0.160417 0 0 0 0 0.366667 0 0 0 0.5 0"/>
<feBlend mode="normal" in2="shape" result="effect1_innerShadow_241_5065"/>
</filter>
<filter id="filter2_f_241_5065" x="52.5368" y="42.5739" width="48.0749" height="46.3786" filterUnits="userSpaceOnUse" color-interpolation-filters="sRGB">
<feFlood flood-opacity="0" result="BackgroundImageFix"/>
<feBlend mode="normal" in="SourceGraphic" in2="BackgroundImageFix" result="shape"/>
<feGaussianBlur stdDeviation="5.47771" result="effect1_foregroundBlur_241_5065"/>
</filter>
<radialGradient id="paint0_radial_241_5065" cx="0" cy="0" r="1" gradientUnits="userSpaceOnUse" gradientTransform="translate(69.6556 64.3146) rotate(12.9328) scale(98.2558 81.5572)">
<stop offset="0.0001" stop-color="#E8EFFF"/>
<stop offset="0.317708" stop-color="#EEE9FF"/>
<stop offset="0.484375" stop-color="#D8E0F4"/>
<stop offset="0.635417" stop-color="#BFC8DB"/>
<stop offset="1" stop-color="#BCC1CB"/>
</radialGradient>
<radialGradient id="paint1_radial_241_5065" cx="0" cy="0" r="1" gradientUnits="userSpaceOnUse" gradientTransform="translate(69.6556 64.3146) rotate(12.9328) scale(98.2558 81.5572)">
<stop offset="0.0001" stop-color="#E8EFFF"/>
<stop offset="0.317708" stop-color="#ECEBF1"/>
<stop offset="0.484375" stop-color="#D8E0F4"/>
<stop offset="0.635417" stop-color="#BFC8DB"/>
<stop offset="1" stop-color="#BCC1CB"/>
</radialGradient>
<radialGradient id="paint2_radial_241_5065" cx="0" cy="0" r="1" gradientUnits="userSpaceOnUse" gradientTransform="translate(96.8642 87.7248) rotate(-76.5793) scale(62.3668)">
<stop offset="0.5433" stop-color="white" stop-opacity="0"/>
<stop offset="1" stop-color="white"/>
</radialGradient>
<radialGradient id="paint3_radial_241_5065" cx="0" cy="0" r="1" gradientUnits="userSpaceOnUse" gradientTransform="translate(78.276 78.1263) rotate(135.754) scale(68.5295)">
<stop offset="0.5625" stop-color="#6D71A2" stop-opacity="0"/>
<stop offset="0.78125" stop-color="#2D3F6D" stop-opacity="0.54"/>
<stop offset="0.958333" stop-color="white"/>
</radialGradient>
<linearGradient id="paint4_linear_241_5065" x1="112.532" y1="77.2797" x2="67.9414" y2="68.0911" gradientUnits="userSpaceOnUse">
<stop stop-color="#DCE2F3"/>
<stop offset="0.447917" stop-color="#DBE2F3"/>
<stop offset="1" stop-color="#E5E9F5"/>
</linearGradient>
</defs>
</svg>
