<svg width="117" height="116" viewBox="0 0 117 116" fill="none" xmlns="http://www.w3.org/2000/svg">
<mask id="mask0_5017_2778" style="mask-type:alpha" maskUnits="userSpaceOnUse" x="0" y="0" width="117" height="116">
<path d="M58.0087 115.164C90.046 115.164 116.017 89.3839 116.017 57.5822C116.017 25.7804 90.046 0 58.0087 0C25.9714 0 0 25.7804 0 57.5822C0 89.3839 25.9714 115.164 58.0087 115.164Z" fill="url(#paint0_linear_5017_2778)"/>
</mask>
<g mask="url(#mask0_5017_2778)">
<path d="M58.0087 115.164C90.046 115.164 116.017 89.3839 116.017 57.5822C116.017 25.7804 90.046 0 58.0087 0C25.9714 0 0 25.7804 0 57.5822C0 89.3839 25.9714 115.164 58.0087 115.164Z" fill="url(#paint1_linear_5017_2778)"/>
<path d="M58.0087 115.164C90.046 115.164 116.017 89.3839 116.017 57.5822C116.017 25.7804 90.046 0 58.0087 0C25.9714 0 0 25.7804 0 57.5822C0 89.3839 25.9714 115.164 58.0087 115.164Z" fill="url(#paint2_linear_5017_2778)"/>
<path opacity="0.49" d="M58.0087 115.164C90.046 115.164 116.017 89.3839 116.017 57.5822C116.017 25.7804 90.046 0 58.0087 0C25.9714 0 0 25.7804 0 57.5822C0 89.3839 25.9714 115.164 58.0087 115.164Z" fill="url(#paint3_radial_5017_2778)"/>
<path opacity="0.31" d="M105.275 53.4851C101.408 57.6651 95.6498 58.1769 90.2357 57.5798C87.3137 57.2386 84.4778 56.7267 81.6418 56.2149C78.1183 55.6177 73.9073 54.7647 71.0713 57.4945C68.8369 59.7125 68.0634 62.8688 66.8603 65.6839C65.7431 68.2432 64.1962 70.6317 62.3055 72.6791C59.1258 76.0061 54.9148 77.7122 50.36 77.5416C40.7349 77.2004 32.0551 71.3142 22.9456 68.755C18.7346 67.5607 14.0939 66.6223 9.711 67.5607C8.07816 67.9019 6.78908 68.5844 5.67188 69.4374C11.086 93.2381 32.4848 110.982 58.0945 110.982C87.7434 110.982 111.806 87.096 111.806 57.6651C111.806 53.3145 111.291 49.1344 110.345 45.125C109.142 48.1107 107.509 51.0112 105.275 53.4851Z" fill="url(#paint4_linear_5017_2778)"/>
<g filter="url(#filter0_f_5017_2778)">
<path d="M97.2391 21.6712C91.694 14.6284 86.739 11.7784 78.3412 8.6437C68.3905 4.92934 52.697 5.64877 51.1995 6.89921C49.6665 8.17217 64.6442 9.96168 72.4177 13.9345C88.9327 22.3751 104.871 47.611 105.483 48.0258C107.479 49.3683 103.91 30.1441 97.2391 21.6712Z" fill="#9D9CE2"/>
</g>
<g filter="url(#filter1_f_5017_2778)">
<path d="M72.2343 117.929C80.8718 116.268 85.6007 113.896 92.1431 109.437C99.8954 104.154 106.411 94.1238 106.007 92.8617C105.599 91.5715 97.2309 100.505 90.2448 104.356C75.4026 112.537 46.2409 116.022 45.6025 116.298C43.5286 117.204 61.8429 119.927 72.2343 117.929Z" fill="#EC9357"/>
</g>
<g filter="url(#filter2_f_5017_2778)">
<path d="M72.5001 101.597C83.8541 97.3368 89.5608 92.1178 97.0466 82.5772C105.917 71.2723 111.426 50.7454 110.428 48.3019C109.416 45.8034 100.966 64.3786 92.6554 72.7704C74.9999 90.5994 35.9283 100.796 35.1427 101.414C32.5931 103.437 58.8407 106.721 72.5001 101.597Z" fill="#494372"/>
</g>
<g opacity="0.4" filter="url(#filter3_f_5017_2778)">
<path d="M27.338 49.5352C30.9613 54.5491 38.0977 57.4974 46.5178 54.588C49.2502 53.4918 51.7037 53.0699 54.715 51.2995C56.7225 50.1191 58.5071 48.5595 60.2917 47C62.5781 45.1454 63.9168 42.8274 65.2555 40.5094C64.9766 41.1837 64.9765 41.1837 64.6976 41.858C66.5941 38.1915 69.2156 34.6091 69.6624 30.7743C70.3322 27.3187 69.2734 24.3691 67.7127 21.7146C63.5325 13.4561 50.2064 12.616 40.1687 18.5177C27.3986 25.5155 19.8125 40.1818 27.338 49.5352Z" fill="#BCBBFF"/>
</g>
<g filter="url(#filter4_f_5017_2778)">
<path d="M11.2273 62.6063C9.70385 61.0065 8.10347 58.3475 7.62918 53.5804C7.15909 48.2841 8.3124 42.736 9.7882 39.5722C11.3514 36.1443 13.2413 34.5715 15.0291 35.1149C16.7337 35.3931 18.3383 37.5228 19.9428 39.6525C23.5765 44.18 27.2102 48.7075 30.7565 53.4989C33.0354 56.6925 35.8822 63.5954 32.427 68.8606C29.8356 72.8095 25.3276 70.9214 22.5158 70.3699C18.6842 69.2811 14.8652 66.6045 11.2273 62.6063Z" fill="#99A1CD"/>
</g>
<g filter="url(#filter5_f_5017_2778)">
<path d="M85.7351 64.7352C84.2117 63.1354 82.6113 60.4764 82.137 55.7093C81.6669 50.413 82.8202 44.8649 84.296 41.7011C85.8592 38.2733 87.7491 36.7004 89.5369 37.2439C91.2415 37.522 92.8461 39.6517 94.4506 41.7815C98.0844 46.3089 101.718 50.8364 105.264 55.6278C107.543 58.8214 110.39 65.7243 106.935 70.9895C104.343 74.9385 99.8354 73.0504 97.0236 72.4988C93.192 71.41 89.373 68.7335 85.7351 64.7352Z" fill="#99A1CD"/>
</g>
<g filter="url(#filter6_f_5017_2778)">
<path d="M24.8769 23.8547C23.9075 28.8741 25.3901 34.5505 30.2677 37.3657C31.9249 38.1869 33.1376 39.266 35.2395 39.8292C36.6407 40.2046 38.1362 40.2282 39.6317 40.2518C41.4775 40.3693 43.1616 39.6894 44.8456 39.0094C44.401 39.2673 44.401 39.2673 43.9564 39.5253C46.5296 38.3293 49.3589 37.5792 51.42 35.4919C53.3868 33.7564 54.397 31.3875 55.0569 28.9248C57.3869 21.6305 52.3336 13.8661 45.3275 11.9888C36.6641 9.29035 26.3713 14.074 24.8769 23.8547Z" fill="white"/>
</g>
<g opacity="0.4" filter="url(#filter7_f_5017_2778)">
<path d="M7.89372 75.5973C7.43687 77.9626 8.13556 80.6375 10.434 81.9641C11.215 82.3511 11.7864 82.8596 12.7769 83.125C13.4372 83.3019 14.1419 83.313 14.8467 83.3242C15.7165 83.3795 16.51 83.0591 17.3036 82.7387C17.0941 82.8602 17.0941 82.8602 16.8846 82.9818C18.0972 82.4182 19.4304 82.0647 20.4017 81.0811C21.3285 80.2633 21.8046 79.147 22.1155 77.9865C23.2135 74.5492 20.8322 70.8903 17.5307 70.0057C13.4482 68.7341 8.59791 70.9883 7.89372 75.5973Z" fill="#6B68F5" fill-opacity="0.58"/>
</g>
<g filter="url(#filter8_i_5017_2778)">
<path d="M91.8684 58.5362C87.9157 61.5095 84.3104 64.2589 80.6096 66.9303C80.2332 67.2135 79.3849 67.0653 78.8327 66.9189C71.4926 64.8013 64.1996 62.6482 56.8651 60.4889C56.681 60.4401 56.497 60.3913 55.9628 60.2689C60.0822 65.7453 64.0397 71.0065 68.0512 76.3395C64.7808 78.7995 61.6752 81.1356 58.4753 83.5425C49.7868 71.9918 41.1522 60.5129 32.4636 48.9621C35.6164 46.5906 38.6985 44.2722 41.9219 41.8476C45.6995 46.8696 49.4951 51.9156 53.2728 56.9376C53.3849 56.8907 53.5149 56.8678 53.6035 56.8386C53.576 55.1368 53.59 53.4412 53.5624 51.7394C53.527 45.962 53.4859 40.2262 53.4034 34.4842C53.3883 33.4845 53.643 32.8436 54.4609 32.2658C57.5085 30.0483 60.502 27.759 63.8195 25.2636C63.9876 33.862 64.099 42.0912 64.2643 50.3922C73.3688 53.0923 82.4373 55.7447 91.8684 58.5362Z" fill="#7B7BAC"/>
<path d="M72.9373 93.0709C70.2842 95.0292 66.5948 94.4343 64.681 91.7922C62.7493 89.1262 63.3253 85.4351 65.9549 83.4946C68.6025 81.5779 72.292 82.1728 74.2237 84.8388C76.2149 87.5349 75.661 91.0596 72.9373 93.0709Z" fill="#666791"/>
</g>
<g style="mix-blend-mode:multiply" opacity="0.7" filter="url(#filter9_f_5017_2778)">
<ellipse cx="-49.6441" cy="-7.99881" rx="111.965" ry="130.626" fill="#13234B"/>
</g>
<path opacity="0.79" d="M-3.19106 80.9513C-11.9278 46.6513 8.63528 11.6142 42.6606 2.32385C76.9606 -6.41287 111.998 14.1502 121.288 48.1755C130.025 82.4755 109.462 117.513 75.4364 126.803C40.5827 135.814 5.54566 115.251 -3.19106 80.9513Z" fill="url(#paint5_radial_5017_2778)"/>
</g>
<defs>
<filter id="filter0_f_5017_2778" x="44.5926" y="-0.607956" width="67.9398" height="55.1978" filterUnits="userSpaceOnUse" color-interpolation-filters="sRGB">
<feFlood flood-opacity="0" result="BackgroundImageFix"/>
<feBlend mode="normal" in="SourceGraphic" in2="BackgroundImageFix" result="shape"/>
<feGaussianBlur stdDeviation="3.24862" result="effect1_foregroundBlur_5017_2778"/>
</filter>
<filter id="filter1_f_5017_2778" x="42.6098" y="89.9058" width="66.2453" height="31.5688" filterUnits="userSpaceOnUse" color-interpolation-filters="sRGB">
<feFlood flood-opacity="0" result="BackgroundImageFix"/>
<feBlend mode="normal" in="SourceGraphic" in2="BackgroundImageFix" result="shape"/>
<feGaussianBlur stdDeviation="1.41485" result="effect1_foregroundBlur_5017_2778"/>
</filter>
<filter id="filter2_f_5017_2778" x="21.9743" y="35.0783" width="101.565" height="82.2458" filterUnits="userSpaceOnUse" color-interpolation-filters="sRGB">
<feFlood flood-opacity="0" result="BackgroundImageFix"/>
<feBlend mode="normal" in="SourceGraphic" in2="BackgroundImageFix" result="shape"/>
<feGaussianBlur stdDeviation="6.49724" result="effect1_foregroundBlur_5017_2778"/>
</filter>
<filter id="filter3_f_5017_2778" x="17.8543" y="8.20064" width="58.5101" height="54.0349" filterUnits="userSpaceOnUse" color-interpolation-filters="sRGB">
<feFlood flood-opacity="0" result="BackgroundImageFix"/>
<feBlend mode="normal" in="SourceGraphic" in2="BackgroundImageFix" result="shape"/>
<feGaussianBlur stdDeviation="3.24862" result="effect1_foregroundBlur_5017_2778"/>
</filter>
<filter id="filter4_f_5017_2778" x="-5.47104" y="22.0153" width="52.5007" height="62.2851" filterUnits="userSpaceOnUse" color-interpolation-filters="sRGB">
<feFlood flood-opacity="0" result="BackgroundImageFix"/>
<feBlend mode="normal" in="SourceGraphic" in2="BackgroundImageFix" result="shape"/>
<feGaussianBlur stdDeviation="6.49724" result="effect1_foregroundBlur_5017_2778"/>
</filter>
<filter id="filter5_f_5017_2778" x="69.0368" y="24.1442" width="52.5007" height="62.2851" filterUnits="userSpaceOnUse" color-interpolation-filters="sRGB">
<feFlood flood-opacity="0" result="BackgroundImageFix"/>
<feBlend mode="normal" in="SourceGraphic" in2="BackgroundImageFix" result="shape"/>
<feGaussianBlur stdDeviation="6.49724" result="effect1_foregroundBlur_5017_2778"/>
</filter>
<filter id="filter6_f_5017_2778" x="11.6012" y="-1.75082" width="57.0241" height="55.0104" filterUnits="userSpaceOnUse" color-interpolation-filters="sRGB">
<feFlood flood-opacity="0" result="BackgroundImageFix"/>
<feBlend mode="normal" in="SourceGraphic" in2="BackgroundImageFix" result="shape"/>
<feGaussianBlur stdDeviation="6.49724" result="effect1_foregroundBlur_5017_2778"/>
</filter>
<filter id="filter7_f_5017_2778" x="1.26448" y="63.1573" width="27.6195" height="26.6704" filterUnits="userSpaceOnUse" color-interpolation-filters="sRGB">
<feFlood flood-opacity="0" result="BackgroundImageFix"/>
<feBlend mode="normal" in="SourceGraphic" in2="BackgroundImageFix" result="shape"/>
<feGaussianBlur stdDeviation="3.24862" result="effect1_foregroundBlur_5017_2778"/>
</filter>
<filter id="filter8_i_5017_2778" x="32.4629" y="25.2635" width="59.4062" height="68.9641" filterUnits="userSpaceOnUse" color-interpolation-filters="sRGB">
<feFlood flood-opacity="0" result="BackgroundImageFix"/>
<feBlend mode="normal" in="SourceGraphic" in2="BackgroundImageFix" result="shape"/>
<feColorMatrix in="SourceAlpha" type="matrix" values="0 0 0 0 0 0 0 0 0 0 0 0 0 0 0 0 0 0 127 0" result="hardAlpha"/>
<feOffset/>
<feGaussianBlur stdDeviation="2"/>
<feComposite in2="hardAlpha" operator="arithmetic" k2="-1" k3="1"/>
<feColorMatrix type="matrix" values="0 0 0 0 0.178351 0 0 0 0 0.160417 0 0 0 0 0.366667 0 0 0 0.9 0"/>
<feBlend mode="normal" in2="shape" result="effect1_innerShadow_5017_2778"/>
</filter>
<filter id="filter9_f_5017_2778" x="-182.65" y="-159.665" width="266.011" height="303.333" filterUnits="userSpaceOnUse" color-interpolation-filters="sRGB">
<feFlood flood-opacity="0" result="BackgroundImageFix"/>
<feBlend mode="normal" in="SourceGraphic" in2="BackgroundImageFix" result="shape"/>
<feGaussianBlur stdDeviation="10.5202" result="effect1_foregroundBlur_5017_2778"/>
</filter>
<linearGradient id="paint0_linear_5017_2778" x1="55.5451" y1="130.264" x2="59.3244" y2="17.6113" gradientUnits="userSpaceOnUse">
<stop offset="0.00086138" stop-color="#A88F6C"/>
<stop offset="0.9992" stop-color="#F6F0D4"/>
</linearGradient>
<linearGradient id="paint1_linear_5017_2778" x1="55.5451" y1="130.264" x2="59.3244" y2="17.6113" gradientUnits="userSpaceOnUse">
<stop offset="0.00086138" stop-color="#55527C"/>
<stop offset="0.9992" stop-color="#BCC3E2"/>
</linearGradient>
<linearGradient id="paint2_linear_5017_2778" x1="72.6921" y1="124.555" x2="55.371" y2="44.2883" gradientUnits="userSpaceOnUse">
<stop offset="0.00064103" stop-color="#646797"/>
<stop offset="0.9927" stop-color="#959EC8" stop-opacity="0"/>
</linearGradient>
<radialGradient id="paint3_radial_5017_2778" cx="0" cy="0" r="1" gradientUnits="userSpaceOnUse" gradientTransform="translate(58.0203 57.5619) scale(57.8659 57.4405)">
<stop offset="0.0099359" stop-color="#B1B9DB"/>
<stop offset="0.234375" stop-color="#7177A9" stop-opacity="0.81"/>
<stop offset="0.479167" stop-color="#585883" stop-opacity="0.88"/>
<stop offset="0.744792" stop-color="#58557C"/>
<stop offset="1" stop-color="#29284A"/>
</radialGradient>
<linearGradient id="paint4_linear_5017_2778" x1="86.3992" y1="131.735" x2="48.7141" y2="32.6061" gradientUnits="userSpaceOnUse">
<stop offset="0.00282452" stop-color="#55537D"/>
<stop offset="1" stop-color="#9FA5D1" stop-opacity="0"/>
</linearGradient>
<radialGradient id="paint5_radial_5017_2778" cx="0" cy="0" r="1" gradientUnits="userSpaceOnUse" gradientTransform="translate(53.5057 51.151) rotate(165.276) scale(88.9741)">
<stop offset="0.5433" stop-color="#6D71A2" stop-opacity="0"/>
<stop offset="0.828125" stop-color="#E87354"/>
<stop offset="0.958333" stop-color="#BBD8F1"/>
</radialGradient>
</defs>
</svg>
