<svg width="137" height="136" viewBox="0 0 137 136" fill="none" xmlns="http://www.w3.org/2000/svg">
<mask id="mask0_241_4454" style="mask-type:alpha" maskUnits="userSpaceOnUse" x="0" y="0" width="137" height="136">
<path d="M68.2294 135.776C105.85 135.776 136.347 105.502 136.347 68.1583C136.347 30.8143 105.85 0.541016 68.2294 0.541016C30.6088 0.541016 0.111328 30.8143 0.111328 68.1583C0.111328 105.502 30.6088 135.776 68.2294 135.776Z" fill="url(#paint0_linear_241_4454)"/>
</mask>
<g mask="url(#mask0_241_4454)">
<path d="M68.2314 135.781C105.852 135.781 136.349 105.508 136.349 68.1641C136.349 30.8202 105.852 0.546875 68.2314 0.546875C30.6108 0.546875 0.113281 30.8202 0.113281 68.1641C0.113281 105.508 30.6108 135.781 68.2314 135.781Z" fill="url(#paint1_linear_241_4454)"/>
<path d="M68.2314 135.781C105.852 135.781 136.349 105.508 136.349 68.1641C136.349 30.8202 105.852 0.546875 68.2314 0.546875C30.6108 0.546875 0.113281 30.8202 0.113281 68.1641C0.113281 105.508 30.6108 135.781 68.2314 135.781Z" fill="url(#paint2_linear_241_4454)"/>
<path opacity="0.49" d="M68.2314 135.781C105.852 135.781 136.349 105.508 136.349 68.1641C136.349 30.8202 105.852 0.546875 68.2314 0.546875C30.6108 0.546875 0.113281 30.8202 0.113281 68.1641C0.113281 105.508 30.6108 135.781 68.2314 135.781Z" fill="url(#paint3_radial_241_4454)"/>
<path opacity="0.31" d="M123.735 63.3541C119.194 68.2626 112.432 68.8637 106.075 68.1625C102.643 67.7618 99.3132 67.1607 95.983 66.5597C91.8454 65.8585 86.9006 64.8567 83.5703 68.0623C80.9465 70.6668 80.0383 74.3732 78.6255 77.679C77.3135 80.6842 75.4971 83.489 73.2769 85.8932C69.543 89.8 64.5982 91.8034 59.2496 91.6031C47.9471 91.2024 37.7546 84.2904 27.0575 81.2852C22.1126 79.8828 16.6632 78.7809 11.5165 79.8828C9.59908 80.2835 8.08534 81.0849 6.77344 82.0866C13.1311 110.035 38.2591 130.871 68.332 130.871C103.148 130.871 131.404 102.823 131.404 68.2626C131.404 63.1538 130.799 58.2453 129.689 53.5371C128.276 57.0432 126.359 60.4491 123.735 63.3541Z" fill="url(#paint4_linear_241_4454)"/>
<g filter="url(#filter0_f_241_4454)">
<path d="M114.295 25.9949C107.784 17.7247 101.965 14.378 92.1038 10.697C80.4189 6.33527 61.9905 7.18009 60.232 8.64845C58.4318 10.1433 76.0198 12.2446 85.1479 16.9099C104.541 26.8214 123.257 56.4552 123.976 56.9423C126.32 58.5188 122.129 35.9443 114.295 25.9949Z" fill="#9D9CE2"/>
</g>
<g filter="url(#filter1_f_241_4454)">
<path d="M81.1819 125.914C91.8657 123.86 97.7148 120.926 105.807 115.41C115.396 108.876 123.456 96.4695 122.955 94.9084C122.451 93.3125 112.1 104.362 103.459 109.125C85.1008 119.245 49.0306 123.555 48.241 123.897C45.6758 125.017 68.3288 128.385 81.1819 125.914Z" fill="#D5DEFE"/>
</g>
<g filter="url(#filter2_f_241_4454)">
<path d="M85.2475 119.846C98.5803 114.844 105.281 108.716 114.072 97.5124C124.488 84.2375 130.957 60.1332 129.786 57.2638C128.597 54.3299 118.674 76.1423 108.915 85.9966C88.1829 106.933 42.3021 118.907 41.3796 119.633C38.3857 122.008 69.2076 125.864 85.2475 119.846Z" fill="#494372"/>
</g>
<g opacity="0.4" filter="url(#filter3_f_241_4454)">
<path d="M32.2132 58.715C36.4679 64.6026 44.8481 68.0648 54.7356 64.6483C57.9442 63.3611 60.8252 62.8657 64.3613 60.7866C66.7187 59.4006 68.8143 57.5692 70.9099 55.7379C73.5948 53.56 75.1668 50.8381 76.7388 48.1162C76.4112 48.908 76.4112 48.908 76.0837 49.6998C78.3107 45.3943 81.389 41.1875 81.9137 36.6844C82.7002 32.6266 81.4569 29.163 79.6242 26.0459C74.7155 16.3481 59.0669 15.3617 47.2799 22.2918C32.2843 30.5092 23.3762 47.7314 32.2132 58.715Z" fill="#BCBBFF"/>
</g>
<g filter="url(#filter4_f_241_4454)">
<path d="M13.2991 74.0578C11.5102 72.1791 9.63091 69.0568 9.07396 63.4589C8.52194 57.2396 9.87625 50.7246 11.6092 47.0093C13.4449 42.9842 15.6642 41.1372 17.7635 41.7754C19.7652 42.1019 21.6494 44.6028 23.5336 47.1037C27.8005 52.4202 32.0675 57.7367 36.2318 63.3631C38.9078 67.1133 42.2508 75.2192 38.1934 81.402C35.1504 86.0392 29.8568 83.822 26.5549 83.1744C22.0556 81.8958 17.571 78.7528 13.2991 74.0578Z" fill="#99A1CD"/>
</g>
<g filter="url(#filter5_f_241_4454)">
<path d="M100.791 76.5578C99.0024 74.6791 97.1231 71.5568 96.5662 65.9589C96.0141 59.7396 97.3684 53.2246 99.1014 49.5094C100.937 45.4842 103.156 43.6372 105.256 44.2754C107.257 44.602 109.142 47.1029 111.026 49.6038C115.293 54.9202 119.56 60.2367 123.724 65.8631C126.4 69.6133 129.743 77.7192 125.686 83.902C122.643 88.5392 117.349 86.322 114.047 85.6744C109.548 84.3958 105.063 81.2528 100.791 76.5578Z" fill="#99A1CD"/>
</g>
<g filter="url(#filter6_f_241_4454)">
<path d="M29.3269 28.5547C28.1884 34.4488 29.9295 41.1145 35.6571 44.4203C37.6032 45.3846 39.0272 46.6517 41.4953 47.3131C43.1408 47.754 44.8969 47.7817 46.653 47.8094C48.8205 47.9474 50.798 47.1489 52.7756 46.3504C52.2535 46.6533 52.2535 46.6533 51.7314 46.9562C54.7531 45.5519 58.0754 44.671 60.4957 42.2199C62.8053 40.182 63.9915 37.4003 64.7664 34.5084C67.5025 25.9428 61.5686 16.8253 53.3414 14.6208C43.1682 11.4521 31.0817 17.0695 29.3269 28.5547Z" fill="white"/>
</g>
<g opacity="0.4" filter="url(#filter7_f_241_4454)">
<path d="M9.3849 89.3126C8.84843 92.0901 9.66889 95.2312 12.3679 96.789C13.285 97.2434 13.956 97.8405 15.1191 98.1522C15.8945 98.36 16.722 98.373 17.5495 98.3861C18.5709 98.4511 19.5028 98.0748 20.4347 97.6986C20.1887 97.8413 20.1887 97.8413 19.9427 97.984C21.3666 97.3223 22.9321 96.9071 24.0727 95.7521C25.161 94.7918 25.72 93.481 26.0852 92.1182C27.3745 88.0818 24.5782 83.7854 20.7013 82.7465C15.9074 81.2533 10.2118 83.9004 9.3849 89.3126Z" fill="#6B68F5" fill-opacity="0.58"/>
</g>
</g>
<defs>
<filter id="filter0_f_241_4454" x="51.255" y="-1.38605" width="82.2165" height="67.2554" filterUnits="userSpaceOnUse" color-interpolation-filters="sRGB">
<feFlood flood-opacity="0" result="BackgroundImageFix"/>
<feBlend mode="normal" in="SourceGraphic" in2="BackgroundImageFix" result="shape"/>
<feGaussianBlur stdDeviation="4.42425" result="effect1_foregroundBlur_241_4454"/>
</filter>
<filter id="filter1_f_241_4454" x="39.1925" y="85.9037" width="92.6345" height="49.7445" filterUnits="userSpaceOnUse" color-interpolation-filters="sRGB">
<feFlood flood-opacity="0" result="BackgroundImageFix"/>
<feBlend mode="normal" in="SourceGraphic" in2="BackgroundImageFix" result="shape"/>
<feGaussianBlur stdDeviation="4.42425" result="effect1_foregroundBlur_241_4454"/>
</filter>
<filter id="filter2_f_241_4454" x="23.4788" y="39.2977" width="124.14" height="101.455" filterUnits="userSpaceOnUse" color-interpolation-filters="sRGB">
<feFlood flood-opacity="0" result="BackgroundImageFix"/>
<feBlend mode="normal" in="SourceGraphic" in2="BackgroundImageFix" result="shape"/>
<feGaussianBlur stdDeviation="8.84851" result="effect1_foregroundBlur_241_4454"/>
</filter>
<filter id="filter3_f_241_4454" x="19.8585" y="8.95789" width="71.1443" height="65.8896" filterUnits="userSpaceOnUse" color-interpolation-filters="sRGB">
<feFlood flood-opacity="0" result="BackgroundImageFix"/>
<feBlend mode="normal" in="SourceGraphic" in2="BackgroundImageFix" result="shape"/>
<feGaussianBlur stdDeviation="4.42425" result="effect1_foregroundBlur_241_4454"/>
</filter>
<filter id="filter4_f_241_4454" x="-8.7478" y="23.9548" width="66.5268" height="78.0156" filterUnits="userSpaceOnUse" color-interpolation-filters="sRGB">
<feFlood flood-opacity="0" result="BackgroundImageFix"/>
<feBlend mode="normal" in="SourceGraphic" in2="BackgroundImageFix" result="shape"/>
<feGaussianBlur stdDeviation="8.84851" result="effect1_foregroundBlur_241_4454"/>
</filter>
<filter id="filter5_f_241_4454" x="78.7444" y="26.4548" width="66.5268" height="78.0156" filterUnits="userSpaceOnUse" color-interpolation-filters="sRGB">
<feFlood flood-opacity="0" result="BackgroundImageFix"/>
<feBlend mode="normal" in="SourceGraphic" in2="BackgroundImageFix" result="shape"/>
<feGaussianBlur stdDeviation="8.84851" result="effect1_foregroundBlur_241_4454"/>
</filter>
<filter id="filter6_f_241_4454" x="11.301" y="-3.95123" width="71.8374" height="69.4733" filterUnits="userSpaceOnUse" color-interpolation-filters="sRGB">
<feFlood flood-opacity="0" result="BackgroundImageFix"/>
<feBlend mode="normal" in="SourceGraphic" in2="BackgroundImageFix" result="shape"/>
<feGaussianBlur stdDeviation="8.84851" result="effect1_foregroundBlur_241_4454"/>
</filter>
<filter id="filter7_f_241_4454" x="0.38196" y="73.4857" width="34.8689" height="33.7562" filterUnits="userSpaceOnUse" color-interpolation-filters="sRGB">
<feFlood flood-opacity="0" result="BackgroundImageFix"/>
<feBlend mode="normal" in="SourceGraphic" in2="BackgroundImageFix" result="shape"/>
<feGaussianBlur stdDeviation="4.42425" result="effect1_foregroundBlur_241_4454"/>
</filter>
<linearGradient id="paint0_linear_241_4454" x1="65.3366" y1="153.507" x2="69.7744" y2="21.2215" gradientUnits="userSpaceOnUse">
<stop offset="0.00086138" stop-color="#A88F6C"/>
<stop offset="0.9992" stop-color="#F6F0D4"/>
</linearGradient>
<linearGradient id="paint1_linear_241_4454" x1="65.3385" y1="153.513" x2="69.7764" y2="21.2273" gradientUnits="userSpaceOnUse">
<stop offset="0.00086138" stop-color="#55527C"/>
<stop offset="0.9992" stop-color="#BCC3E2"/>
</linearGradient>
<linearGradient id="paint2_linear_241_4454" x1="85.4737" y1="146.809" x2="65.134" y2="52.5535" gradientUnits="userSpaceOnUse">
<stop offset="0.00064103" stop-color="#646797"/>
<stop offset="0.9927" stop-color="#959EC8" stop-opacity="0"/>
</linearGradient>
<radialGradient id="paint3_radial_241_4454" cx="0" cy="0" r="1" gradientUnits="userSpaceOnUse" gradientTransform="translate(68.2451 68.1404) scale(67.9505 67.4509)">
<stop offset="0.0099359" stop-color="#B1B9DB"/>
<stop offset="0.234375" stop-color="#7177A9" stop-opacity="0.81"/>
<stop offset="0.479167" stop-color="#585883" stop-opacity="0.88"/>
<stop offset="0.744792" stop-color="#58557C"/>
<stop offset="1" stop-color="#29284A"/>
</radialGradient>
<linearGradient id="paint4_linear_241_4454" x1="101.569" y1="155.241" x2="57.3168" y2="38.8364" gradientUnits="userSpaceOnUse">
<stop offset="0.00282452" stop-color="#55537D"/>
<stop offset="1" stop-color="#9FA5D1" stop-opacity="0"/>
</linearGradient>
</defs>
</svg>
