<svg width="312" height="312" viewBox="0 0 312 312" fill="none" xmlns="http://www.w3.org/2000/svg">
<circle cx="158.382" cy="157.482" r="153.552" fill="url(#paint0_linear_5017_2819)"/>
<ellipse cx="152.304" cy="152.304" rx="152.304" ry="152.304" fill="url(#paint1_linear_5017_2819)"/>
<mask id="mask0_5017_2819" style="mask-type:alpha" maskUnits="userSpaceOnUse" x="0" y="0" width="305" height="305">
<ellipse cx="152.304" cy="152.304" rx="152.304" ry="152.304" fill="white"/>
</mask>
<g mask="url(#mask0_5017_2819)">
<rect x="-9" y="-3" width="314" height="314" fill="url(#paint2_linear_5017_2819)"/>
<g filter="url(#filter0_i_5017_2819)">
<path fill-rule="evenodd" clip-rule="evenodd" d="M263.398 90.8521C263.833 89.0118 263.579 88.0226 263.265 87.4799C262.952 86.9371 262.222 86.2224 260.411 85.6791C258.575 85.1284 255.955 84.8645 252.48 85.0362C245.543 85.3789 236.086 87.4049 224.678 91.0567C201.926 98.34 172.246 111.817 141.098 129.801C109.951 147.784 83.4391 166.748 65.7554 182.811C56.8889 190.864 50.4058 198.041 46.6403 203.878C44.7542 206.801 43.673 209.202 43.2318 211.068C42.7966 212.908 43.0508 213.897 43.3642 214.44C43.6775 214.983 44.4071 215.697 46.2184 216.241C48.0547 216.791 50.6742 217.055 54.149 216.883C61.0864 216.541 70.5435 214.515 81.9514 210.863C104.704 203.58 134.383 190.102 165.531 172.119C196.679 154.136 223.19 135.171 240.874 119.109C249.741 111.055 256.224 103.878 259.989 98.0416C261.875 95.1182 262.956 92.7177 263.398 90.8521ZM167.531 175.583C230.168 139.42 274.581 99.079 266.729 85.4799C258.878 71.8807 201.736 90.1729 139.098 126.336C76.4612 162.5 32.0486 202.841 39.9001 216.44C47.7515 230.039 104.894 211.747 167.531 175.583Z" fill="white"/>
<path fill-rule="evenodd" clip-rule="evenodd" d="M156.301 25.5716C154.925 24.2745 153.941 24.0001 153.315 24.0001C152.688 24.0001 151.704 24.2745 150.328 25.5716C148.933 26.8864 147.395 29.0231 145.806 32.1182C142.634 38.2975 139.66 47.5005 137.119 59.206C132.05 82.5517 128.882 114.994 128.882 150.96C128.882 186.926 132.05 219.368 137.119 242.714C139.66 254.419 142.634 263.623 145.806 269.802C147.395 272.897 148.933 275.034 150.328 276.348C151.704 277.646 152.688 277.92 153.315 277.92C153.941 277.92 154.925 277.646 156.301 276.348C157.696 275.034 159.235 272.897 160.823 269.802C163.995 263.623 166.969 254.419 169.511 242.714C174.579 219.368 177.747 186.926 177.747 150.96C177.747 114.994 174.579 82.5517 169.511 59.206C166.969 47.5005 163.995 38.2975 160.823 32.1182C159.235 29.0231 157.696 26.8864 156.301 25.5716ZM181.747 150.96C181.747 78.6328 169.018 20.0001 153.315 20.0001C137.612 20.0001 124.882 78.6328 124.882 150.96C124.882 223.287 137.612 281.92 153.315 281.92C169.018 281.92 181.747 223.287 181.747 150.96Z" fill="white"/>
<path fill-rule="evenodd" clip-rule="evenodd" d="M46.4386 85.3198C44.6254 85.857 43.8935 86.5693 43.5783 87.111C43.2631 87.6527 43.0056 88.641 43.4346 90.4828C43.8695 92.3498 44.9427 94.754 46.8189 97.6837C50.5648 103.533 57.0237 110.732 65.8631 118.815C83.4926 134.937 109.94 153.991 141.027 172.078C172.115 190.166 201.749 203.743 224.476 211.103C235.872 214.793 245.322 216.851 252.258 217.217C255.732 217.4 258.353 217.145 260.191 216.601C262.004 216.063 262.736 215.351 263.051 214.809C263.366 214.268 263.624 213.279 263.195 211.438C262.76 209.571 261.687 207.166 259.811 204.237C256.065 198.387 249.606 191.189 240.766 183.105C223.137 166.983 196.689 147.93 165.602 129.842C134.515 111.754 104.881 98.1773 82.1533 90.8175C70.7577 87.1273 61.3075 85.0696 54.3713 84.7036C50.8971 84.5202 48.2767 84.7753 46.4386 85.3198ZM167.614 126.385C105.099 90.0108 48.0181 71.5267 40.1209 85.0993C32.2238 98.672 76.5005 139.162 139.016 175.536C201.531 211.91 258.612 230.394 266.509 216.821C274.406 203.248 230.129 162.759 167.614 126.385Z" fill="white"/>
<path d="M227.548 176.994C227.548 172.024 231.577 167.994 236.548 167.994C241.518 167.994 245.548 172.024 245.548 176.994C245.548 181.965 241.518 185.994 236.548 185.994C231.577 185.994 227.548 181.965 227.548 176.994Z" fill="white"/>
<path d="M163.548 64.9941C163.548 60.0236 167.577 55.9941 172.548 55.9941C177.518 55.9941 181.548 60.0236 181.548 64.9941C181.548 69.9647 177.518 73.9941 172.548 73.9941C167.577 73.9941 163.548 69.9647 163.548 64.9941Z" fill="white"/>
<path d="M78.5475 209.994C78.5475 205.024 82.577 200.994 87.5475 200.994C92.5181 200.994 96.5475 205.024 96.5475 209.994C96.5475 214.965 92.5181 218.994 87.5475 218.994C82.577 218.994 78.5475 214.965 78.5475 209.994Z" fill="white"/>
</g>
<g filter="url(#filter1_i_5017_2819)">
<circle cx="152" cy="151" r="17" transform="rotate(-180 152 151)" fill="#FEFEFF"/>
</g>
</g>
<defs>
<filter id="filter0_i_5017_2819" x="39" y="20" width="228.629" height="262.92" filterUnits="userSpaceOnUse" color-interpolation-filters="sRGB">
<feFlood flood-opacity="0" result="BackgroundImageFix"/>
<feBlend mode="normal" in="SourceGraphic" in2="BackgroundImageFix" result="shape"/>
<feColorMatrix in="SourceAlpha" type="matrix" values="0 0 0 0 0 0 0 0 0 0 0 0 0 0 0 0 0 0 127 0" result="hardAlpha"/>
<feOffset dy="1"/>
<feGaussianBlur stdDeviation="1"/>
<feComposite in2="hardAlpha" operator="arithmetic" k2="-1" k3="1"/>
<feColorMatrix type="matrix" values="0 0 0 0 0.527431 0 0 0 0 0.637866 0 0 0 0 0.816667 0 0 0 1 0"/>
<feBlend mode="normal" in2="shape" result="effect1_innerShadow_5017_2819"/>
</filter>
<filter id="filter1_i_5017_2819" x="133" y="132" width="36" height="36" filterUnits="userSpaceOnUse" color-interpolation-filters="sRGB">
<feFlood flood-opacity="0" result="BackgroundImageFix"/>
<feBlend mode="normal" in="SourceGraphic" in2="BackgroundImageFix" result="shape"/>
<feColorMatrix in="SourceAlpha" type="matrix" values="0 0 0 0 0 0 0 0 0 0 0 0 0 0 0 0 0 0 127 0" result="hardAlpha"/>
<feOffset dx="-2" dy="-2"/>
<feGaussianBlur stdDeviation="5"/>
<feComposite in2="hardAlpha" operator="arithmetic" k2="-1" k3="1"/>
<feColorMatrix type="matrix" values="0 0 0 0 0.627451 0 0 0 0 0.713726 0 0 0 0 0.854902 0 0 0 1 0"/>
<feBlend mode="normal" in2="shape" result="effect1_innerShadow_5017_2819"/>
</filter>
<linearGradient id="paint0_linear_5017_2819" x1="315.614" y1="3.92971" x2="-51.1386" y2="102.24" gradientUnits="userSpaceOnUse">
<stop stop-color="#6E82B1"/>
<stop offset="0.75" stop-color="#D7E4F4"/>
<stop offset="1" stop-color="#E4E8F3"/>
</linearGradient>
<linearGradient id="paint1_linear_5017_2819" x1="276.714" y1="248.456" x2="192.385" y2="-15.4861" gradientUnits="userSpaceOnUse">
<stop stop-color="#D7E4F4"/>
<stop offset="0.536458" stop-color="#E4E8F3"/>
<stop offset="0.994792" stop-color="white"/>
</linearGradient>
<linearGradient id="paint2_linear_5017_2819" x1="-14" y1="-3" x2="148" y2="311" gradientUnits="userSpaceOnUse">
<stop offset="0.271399" stop-color="#FBFBFD"/>
<stop offset="0.717256" stop-color="#D6D7F1"/>
<stop offset="1" stop-color="#B6CBED"/>
</linearGradient>
</defs>
</svg>
