<svg width="153" height="141" viewBox="0 0 153 141" fill="none" xmlns="http://www.w3.org/2000/svg">
<path d="M72.2323 131.692C105.496 131.692 132.461 104.925 132.461 71.9065C132.461 38.8878 105.496 12.1208 72.2323 12.1208C38.9691 12.1208 12.0039 38.8878 12.0039 71.9065C12.0039 104.925 38.9691 131.692 72.2323 131.692Z" fill="url(#paint0_linear_5017_2799)"/>
<path d="M72.2323 131.692C105.496 131.692 132.461 104.925 132.461 71.9065C132.461 38.8878 105.496 12.1208 72.2323 12.1208C38.9691 12.1208 12.0039 38.8878 12.0039 71.9065C12.0039 104.925 38.9691 131.692 72.2323 131.692Z" fill="url(#paint1_linear_5017_2799)"/>
<path opacity="0.49" d="M72.2323 131.692C105.496 131.692 132.461 104.925 132.461 71.9065C132.461 38.8878 105.496 12.1208 72.2323 12.1208C38.9691 12.1208 12.0039 38.8878 12.0039 71.9065C12.0039 104.925 38.9691 131.692 72.2323 131.692Z" fill="url(#paint2_radial_5017_2799)"/>
<path opacity="0.31" d="M121.309 67.6524C117.294 71.9924 111.316 72.5238 105.694 71.9038C102.661 71.5495 99.716 71.0181 96.7715 70.4867C93.1132 69.8667 88.7411 68.981 85.7966 71.8152C83.4766 74.1181 82.6736 77.3952 81.4244 80.3181C80.2645 82.9752 78.6584 85.4552 76.6954 87.5809C73.3939 91.0352 69.0218 92.8066 64.2928 92.6295C54.2993 92.2752 45.2873 86.1638 35.8292 83.5066C31.4571 82.2666 26.6388 81.2924 22.0882 82.2666C20.3929 82.6209 19.0545 83.3295 17.8945 84.2152C23.5159 108.927 45.7335 127.349 72.3232 127.349C103.107 127.349 128.09 102.549 128.09 71.9924C128.09 67.4753 127.555 63.1353 126.573 58.9724C125.324 62.0724 123.629 65.0838 121.309 67.6524Z" fill="url(#paint3_linear_5017_2799)"/>
<g filter="url(#filter0_f_5017_2799)">
<path d="M112.961 34.6248C107.203 27.3125 102.059 24.3534 93.3396 21.0987C83.0081 17.2422 66.7141 17.9892 65.1593 19.2875C63.5676 20.6092 79.1185 22.4672 87.1894 26.592C104.336 35.3556 120.885 61.5572 121.52 61.9878C123.593 63.3817 119.887 43.4219 112.961 34.6248Z" fill="#FA9A63"/>
</g>
<g filter="url(#filter1_f_5017_2799)">
<path d="M87.2787 117.604C99.0672 113.181 104.992 107.762 112.765 97.8564C121.974 86.119 127.694 64.8066 126.658 62.2696C125.607 59.6755 116.834 78.9615 108.205 87.6745C89.8741 106.186 49.3074 116.773 48.4917 117.415C45.8446 119.515 73.0966 122.925 87.2787 117.604Z" fill="#FF5A23"/>
</g>
<g opacity="0.4" filter="url(#filter2_f_5017_2799)">
<path d="M40.388 63.5516C44.1499 68.7573 51.5595 71.8184 60.3018 68.7977C63.1388 67.6596 65.6861 67.2215 68.8127 65.3833C70.897 64.1578 72.7498 62.5385 74.6027 60.9193C76.9767 58.9937 78.3666 56.5871 79.7565 54.1804C79.4669 54.8805 79.4669 54.8805 79.1773 55.5806C81.1464 51.7737 83.8681 48.0542 84.332 44.0727C85.0275 40.4848 83.9281 37.4224 82.3077 34.6663C77.9675 26.0918 64.1315 25.2196 53.7097 31.3471C40.4509 38.6127 32.5745 53.8402 40.388 63.5516Z" fill="#F5B362"/>
</g>
<g filter="url(#filter3_f_5017_2799)">
<path d="M23.6622 77.1172C22.0805 75.4562 20.4189 72.6955 19.9265 67.746C19.4384 62.247 20.6358 56.4866 22.1681 53.2016C23.7912 49.6427 25.7534 48.0097 27.6096 48.5739C29.3794 48.8626 31.0453 51.0739 32.7113 53.2851C36.4841 57.9858 40.2568 62.6865 43.9388 67.6613C46.3049 70.9771 49.2606 78.1442 45.6732 83.6109C42.9826 87.7109 38.3021 85.7506 35.3827 85.1779C31.4045 84.0474 27.4393 81.2685 23.6622 77.1172Z" fill="#FFBD5A"/>
</g>
<g filter="url(#filter4_f_5017_2799)">
<path d="M101.02 79.3301C99.4379 77.6691 97.7763 74.9083 97.2839 69.9588C96.7958 64.4599 97.9933 58.6995 99.5255 55.4145C101.149 51.8556 103.111 50.2226 104.967 50.7868C106.737 51.0755 108.403 53.2868 110.069 55.498C113.841 60.1987 117.614 64.8994 121.296 69.8742C123.662 73.19 126.618 80.357 123.031 85.8238C120.34 89.9238 115.66 87.9634 112.74 87.3908C108.762 86.2603 104.797 83.4814 101.02 79.3301Z" fill="#FFBD5A"/>
</g>
<path d="M53.8574 64.4512C54.2085 57.6432 54.5207 50.8743 56.0617 44.2224C56.8615 40.7891 57.9929 37.4924 60.2167 34.6639C60.4703 34.3518 60.5483 33.9032 60.7239 33.513C61.5042 31.7769 62.1674 29.9627 63.1233 28.3241C65.0935 24.9494 68.1756 23.4084 72.038 23.2913C76.349 23.1548 80.426 24.1691 84.3664 25.7297C93.1641 29.1629 100.752 34.3713 107.112 41.3743C109.004 43.4616 111.111 45.3928 112.925 47.5386C115.968 51.1083 118.27 55.1268 119.421 59.7305C120.923 65.6996 119.635 71.1811 116.338 76.2529C112.691 81.8709 107.619 85.9089 101.806 89.069C97.8848 91.1953 93.7493 92.7949 89.4577 94.0043C86.7853 94.7651 84.2103 95.9355 81.5379 96.6963C77.4024 97.9057 73.1694 98.4714 68.8388 98.0227C63.806 97.4961 60.0021 95.2527 57.8173 90.5515C56.0617 86.7867 55.1254 82.8268 54.7547 78.7303C54.3061 73.9706 54.15 69.2109 53.8574 64.4512ZM64.4302 65.1924C64.6058 67.6113 64.8399 72.0589 65.2885 76.487C65.6397 79.9397 66.4199 83.334 67.9415 86.5136C68.1366 86.9232 68.5852 87.4109 69.0144 87.489C71.1016 87.9181 73.2084 88.5228 75.3151 88.5423C80.7186 88.6204 85.8489 87.1768 90.8037 85.1481C97.2215 82.5147 102.996 78.9254 107.658 73.6975C108.926 72.2735 109.472 70.7129 109.569 68.8597C109.843 64.2366 108.497 60.0621 106.156 56.1802C102.332 49.8404 97.007 44.9831 90.8818 40.9647C84.8931 37.0243 78.5533 33.9227 71.3162 32.9668C70.5164 32.8693 70.1263 33.1034 69.7361 33.6886C68.0195 36.205 67.1027 39.0335 66.4395 41.9596C64.8204 48.9236 64.6448 56.0436 64.4302 65.1924ZM111.618 67.3382C112.71 65.2704 113.354 63.0857 113.412 60.7643C113.588 53.5467 110.525 47.5776 105.532 42.7398C100.694 38.0582 94.8027 34.781 88.5214 32.3231C84.8736 30.8991 81.1282 29.8652 77.1683 29.9432C75.5687 29.9822 73.9692 30.1773 72.4476 31.1722C73.5205 31.4063 74.4373 31.5623 75.3347 31.7964C84.0153 34.0007 91.5255 38.3703 98.2749 44.1248C101.435 46.8168 104.244 49.8209 106.565 53.2541C109.452 57.5067 111.423 62.0908 111.618 67.3382ZM58.7732 42.0961C58.7342 42.0766 58.6952 42.0571 58.6561 42.0376C58.5781 42.3107 58.4611 42.5838 58.4026 42.8569C57.7978 46.2316 56.9981 49.6063 56.6469 53.0005C55.7106 62.1103 55.574 71.2201 56.8615 80.3104C57.3297 83.6266 58.11 86.8647 59.612 89.9078C61.0165 92.7558 63.1623 94.7651 66.2834 95.6039C70.4969 96.7353 74.6909 96.3061 78.8654 95.3503C78.3192 95.2137 77.773 95.1552 77.2463 95.0967C72.9938 94.609 69.4435 92.9899 67.1807 89.147C67.0247 88.8739 66.7711 88.6204 66.5175 88.4643C64.7228 87.4109 63.2598 85.9869 62.4015 84.1337C61.3286 81.7929 60.2557 79.3935 59.651 76.8966C57.5052 68.0209 57.6613 58.9697 58.149 49.9379C58.2855 47.324 58.5586 44.71 58.7732 42.0961ZM64.7228 84.5824C64.8204 84.5434 64.9179 84.4849 65.0154 84.4459C64.9569 84.2313 64.9179 84.0167 64.8594 83.8216C63.7085 79.9397 63.0452 75.9798 62.9087 71.9418C62.7331 66.909 62.6356 61.8762 62.7526 56.8629C62.8502 51.8301 63.3573 46.8168 64.4497 41.901C65.152 38.7994 66.1078 35.7758 67.8635 32.9473C65.9908 33.0448 64.3912 33.4935 63.0647 34.6249C62.538 35.0736 62.0894 35.7758 61.9138 36.4391C60.6459 41.1988 60.2362 46.0755 59.9826 50.9718C59.69 56.7459 59.6315 62.52 60.1582 68.294C60.5093 72.3125 61.0555 76.2919 62.5185 80.0763C63.1428 81.6173 64.0011 83.0804 64.7228 84.5824ZM99.777 87.7816C99.9915 87.7816 100.07 87.8011 100.128 87.7816C105.473 84.9921 110.213 81.4808 113.803 76.5845C117.47 71.5712 119.147 66.0897 117.509 59.906C116.807 57.2336 115.675 54.7757 114.29 52.6494C114.622 54.7367 115.188 56.98 115.324 59.2623C115.597 63.944 113.9 68.099 111.345 71.9614C111.072 72.371 110.837 72.8002 110.681 73.2488C109.823 75.7847 108.614 78.1451 107.053 80.3299C105.044 83.1389 102.586 85.5382 99.777 87.7816ZM70.3604 90.1419C71.4723 91.3318 72.8573 92.0926 74.3983 92.5413C79.0995 93.9263 83.9177 93.7897 88.3849 92.1121C94.7637 89.7127 100.226 85.7918 104.556 80.4274C105.161 79.6861 105.668 78.8864 106.234 78.1256C102.352 81.3637 98.1579 83.9582 93.6127 86.0064C88.1508 88.4643 82.5132 90.2589 76.4661 90.3955C74.4763 90.454 72.4671 90.2394 70.3604 90.1419ZM63.4549 31.7574C65.2885 31.4843 67.1222 31.2307 68.9754 30.9381C69.307 30.8796 69.6776 30.7625 69.9117 30.5479C71.6478 29.0069 73.6961 28.3437 75.9589 28.1486C79.3921 27.856 82.6888 28.4607 85.9465 29.4556C87.8582 30.0408 89.7113 30.7625 91.6035 31.4258C90.8818 30.8991 90.121 30.4504 89.3212 30.0408C84.3079 27.4853 79.158 25.4176 73.4425 25.164C68.4487 24.9299 65.074 27.1927 63.4549 31.7574Z" fill="url(#paint4_linear_5017_2799)"/>
<g filter="url(#filter5_i_5017_2799)">
<path d="M111.618 67.3368C111.423 62.0894 109.453 57.5053 106.566 53.2527C104.225 49.8195 101.416 46.7959 98.2751 44.1234C91.4867 38.3689 83.9765 33.9798 75.3154 31.795C74.418 31.5609 73.5012 31.4049 72.4283 31.1708C73.9499 30.1954 75.5494 29.9808 77.149 29.9418C81.1089 29.8443 84.8543 30.8977 88.5021 32.3217C94.8029 34.7796 100.674 38.0763 105.512 42.7384C110.526 47.5762 113.569 53.5453 113.393 60.7629C113.335 63.0843 112.71 65.2691 111.618 67.3368Z" fill="url(#paint5_linear_5017_2799)"/>
<path d="M58.7737 42.0961C58.5591 44.71 58.286 47.3239 58.1299 49.9379C57.6618 58.9696 57.4862 68.0014 59.6125 76.8771C60.2172 79.374 61.2706 81.7733 62.363 84.1142C63.2213 85.9674 64.6843 87.3914 66.479 88.4448C66.7521 88.6008 66.9861 88.8544 67.1422 89.1275C69.405 92.9704 72.9748 94.5895 77.2078 95.0771C77.754 95.1357 78.3002 95.1942 78.8269 95.3307C74.6524 96.2866 70.4584 96.7157 66.2449 95.5843C63.1237 94.7455 60.9975 92.7363 59.5735 89.8883C58.0714 86.8647 57.2911 83.607 56.823 80.2908C55.555 71.2005 55.6721 62.0908 56.6084 52.981C56.9595 49.5673 57.7593 46.212 58.364 42.8373C58.4226 42.5642 58.5201 42.2911 58.6176 42.018C58.6957 42.0571 58.7347 42.0766 58.7737 42.0961Z" fill="url(#paint6_linear_5017_2799)"/>
<path d="M64.7229 84.5806C63.9817 83.0786 63.1429 81.635 62.5381 80.0745C61.0751 76.2901 60.5289 72.3107 60.1778 68.2922C59.6511 62.5182 59.7096 56.7441 60.0022 50.97C60.2558 46.0737 60.6655 41.197 61.9334 36.4373C62.109 35.774 62.5576 35.0913 63.0843 34.6231C64.3913 33.4917 66.0104 33.043 67.8831 32.9455C66.1274 35.7935 65.1716 38.7976 64.4693 41.8992C63.3769 46.8345 62.8698 51.8478 62.7722 56.8611C62.6747 61.8939 62.7722 66.9267 62.9283 71.94C63.0648 75.9585 63.7476 79.9379 64.879 83.8198C64.9375 84.0344 64.9765 84.2295 65.035 84.4441C64.918 84.4831 64.8205 84.5221 64.7229 84.5806Z" fill="url(#paint7_linear_5017_2799)"/>
<path d="M99.7772 87.7812C102.586 85.5379 105.044 83.1385 107.053 80.31C108.614 78.1252 109.823 75.7649 110.682 73.229C110.838 72.7803 111.072 72.3511 111.345 71.9415C113.9 68.0986 115.578 63.9436 115.324 59.2424C115.188 56.9796 114.642 54.7168 114.29 52.6295C115.675 54.7363 116.807 57.2137 117.509 59.8862C119.148 66.0894 117.47 71.5709 113.803 76.5647C110.213 81.4609 105.454 84.9722 100.128 87.7617C100.07 87.8007 100.011 87.7812 99.7772 87.7812Z" fill="url(#paint8_linear_5017_2799)"/>
<path d="M70.3607 90.141C72.4674 90.2385 74.4571 90.4336 76.4664 90.3946C82.5135 90.258 88.1511 88.4634 93.613 86.0055C98.1582 83.9573 102.372 81.3433 106.234 78.1247C105.668 78.8854 105.161 79.6852 104.556 80.4265C100.226 85.7909 94.764 89.7313 88.3852 92.1112C83.918 93.7888 79.0998 93.9254 74.3986 92.5404C72.8576 92.0917 71.4921 91.3309 70.3607 90.141Z" fill="url(#paint9_linear_5017_2799)"/>
<path d="M63.455 31.7561C65.0741 27.1915 68.4488 24.9286 73.4426 25.1627C79.1582 25.4358 84.3081 27.4841 89.3214 30.059C90.1016 30.4686 90.8819 30.8978 91.6037 31.444C89.7115 30.7807 87.8583 30.059 85.9466 29.4738C82.7085 28.4789 79.3923 27.8742 75.959 28.1668C73.6962 28.3619 71.648 29.0446 69.9119 30.5662C69.6778 30.7807 69.3071 30.8978 68.9755 30.9563C67.1419 31.2294 65.2887 31.483 63.455 31.7561Z" fill="url(#paint10_linear_5017_2799)"/>
</g>
<g filter="url(#filter6_f_5017_2799)">
<path d="M37.6909 37.5384C36.3634 44.4114 38.3937 52.1842 45.0725 56.0391C47.3418 57.1635 49.0024 58.6412 51.8805 59.4123C53.7992 59.9265 55.847 59.9588 57.8948 59.9911C60.4223 60.152 62.7283 59.2209 65.0343 58.2898C64.4255 58.643 64.4255 58.643 63.8167 58.9962C67.3402 57.3586 71.2143 56.3314 74.0367 53.4732C76.7299 51.0969 78.1132 47.8531 79.0168 44.4809C82.2072 34.4926 75.2877 23.8607 65.6941 21.2901C53.8312 17.5951 39.7372 24.1455 37.6909 37.5384Z" fill="white"/>
</g>
<g opacity="0.8" filter="url(#filter7_f_5017_2799)">
<path d="M97.2819 115.122C97.9785 117.044 101.466 113.531 103.717 113.497C104.454 113.439 107.417 108.434 110.099 105.453C111.457 103.944 113.975 102.679 113.697 101.698C113 98.7169 105.498 101.339 102.454 103.205C98.1597 105.836 95.789 111.459 97.2819 115.122Z" fill="white"/>
</g>
<g opacity="0.4" filter="url(#filter8_f_5017_2799)">
<path d="M20.2029 90.6079C19.7285 93.0637 20.454 95.8409 22.8404 97.2183C23.6512 97.6201 24.2445 98.1481 25.2729 98.4236C25.9585 98.6073 26.6902 98.6188 27.4219 98.6304C28.325 98.6879 29.1489 98.3552 29.9728 98.0225C29.7553 98.1487 29.7553 98.1487 29.5378 98.2749C30.7968 97.6898 32.181 97.3228 33.1895 96.3015C34.1518 95.4524 34.646 94.2934 34.9689 93.0885C36.1089 89.5196 33.6365 85.7208 30.2086 84.8023C25.9699 83.482 20.934 85.8225 20.2029 90.6079Z" fill="#F6BA6A"/>
</g>
<g filter="url(#filter9_f_5017_2799)">
<path d="M132.144 72.0345C132.796 74.6417 132.895 78.4159 130.537 83.7457C127.857 89.633 123.308 94.813 119.848 97.2761C116.137 99.9661 113.194 100.497 111.627 98.8493C109.99 97.5323 109.57 94.3157 109.149 91.0991C108.02 84.1275 106.89 77.1559 106.011 69.9574C105.515 65.2104 106.644 56.1968 113.459 52.6971C118.571 50.0724 122.209 54.7751 124.854 57.0457C128.256 60.4967 130.692 65.6205 132.144 72.0345Z" fill="#DB847C"/>
</g>
<defs>
<filter id="filter0_f_5017_2799" x="55.1434" y="8.33729" width="76.8518" height="63.6213" filterUnits="userSpaceOnUse" color-interpolation-filters="sRGB">
<feFlood flood-opacity="0" result="BackgroundImageFix"/>
<feBlend mode="normal" in="SourceGraphic" in2="BackgroundImageFix" result="shape"/>
<feGaussianBlur stdDeviation="4.95074" result="effect1_foregroundBlur_5017_2799"/>
</filter>
<filter id="filter1_f_5017_2799" x="28.5095" y="42.2288" width="118.073" height="98.0153" filterUnits="userSpaceOnUse" color-interpolation-filters="sRGB">
<feFlood flood-opacity="0" result="BackgroundImageFix"/>
<feBlend mode="normal" in="SourceGraphic" in2="BackgroundImageFix" result="shape"/>
<feGaussianBlur stdDeviation="9.90148" result="effect1_foregroundBlur_5017_2799"/>
</filter>
<filter id="filter2_f_5017_2799" x="27.3856" y="17.4796" width="67.0608" height="62.4138" filterUnits="userSpaceOnUse" color-interpolation-filters="sRGB">
<feFlood flood-opacity="0" result="BackgroundImageFix"/>
<feBlend mode="normal" in="SourceGraphic" in2="BackgroundImageFix" result="shape"/>
<feGaussianBlur stdDeviation="4.95074" result="effect1_foregroundBlur_5017_2799"/>
</filter>
<filter id="filter3_f_5017_2799" x="0.0134506" y="28.6616" width="67.1333" height="77.291" filterUnits="userSpaceOnUse" color-interpolation-filters="sRGB">
<feFlood flood-opacity="0" result="BackgroundImageFix"/>
<feBlend mode="normal" in="SourceGraphic" in2="BackgroundImageFix" result="shape"/>
<feGaussianBlur stdDeviation="9.90148" result="effect1_foregroundBlur_5017_2799"/>
</filter>
<filter id="filter4_f_5017_2799" x="77.3709" y="30.8745" width="67.1333" height="77.291" filterUnits="userSpaceOnUse" color-interpolation-filters="sRGB">
<feFlood flood-opacity="0" result="BackgroundImageFix"/>
<feBlend mode="normal" in="SourceGraphic" in2="BackgroundImageFix" result="shape"/>
<feGaussianBlur stdDeviation="9.90148" result="effect1_foregroundBlur_5017_2799"/>
</filter>
<filter id="filter5_i_5017_2799" x="55.8887" y="25.1462" width="62.25" height="72.1145" filterUnits="userSpaceOnUse" color-interpolation-filters="sRGB">
<feFlood flood-opacity="0" result="BackgroundImageFix"/>
<feBlend mode="normal" in="SourceGraphic" in2="BackgroundImageFix" result="shape"/>
<feColorMatrix in="SourceAlpha" type="matrix" values="0 0 0 0 0 0 0 0 0 0 0 0 0 0 0 0 0 0 127 0" result="hardAlpha"/>
<feOffset dy="1"/>
<feGaussianBlur stdDeviation="1"/>
<feComposite in2="hardAlpha" operator="arithmetic" k2="-1" k3="1"/>
<feColorMatrix type="matrix" values="0 0 0 0 0.6 0 0 0 0 0.302885 0 0 0 0 0.1125 0 0 0 1 0"/>
<feBlend mode="normal" in2="shape" result="effect1_innerShadow_5017_2799"/>
</filter>
<filter id="filter6_f_5017_2799" x="17.5037" y="0.46682" width="82.104" height="79.3454" filterUnits="userSpaceOnUse" color-interpolation-filters="sRGB">
<feFlood flood-opacity="0" result="BackgroundImageFix"/>
<feBlend mode="normal" in="SourceGraphic" in2="BackgroundImageFix" result="shape"/>
<feGaussianBlur stdDeviation="9.90148" result="effect1_foregroundBlur_5017_2799"/>
</filter>
<filter id="filter7_f_5017_2799" x="83.9293" y="87.4442" width="42.6942" height="41.1573" filterUnits="userSpaceOnUse" color-interpolation-filters="sRGB">
<feFlood flood-opacity="0" result="BackgroundImageFix"/>
<feBlend mode="normal" in="SourceGraphic" in2="BackgroundImageFix" result="shape"/>
<feGaussianBlur stdDeviation="6.45236" result="effect1_foregroundBlur_5017_2799"/>
</filter>
<filter id="filter8_f_5017_2799" x="10.1649" y="74.5363" width="34.9865" height="34.0022" filterUnits="userSpaceOnUse" color-interpolation-filters="sRGB">
<feFlood flood-opacity="0" result="BackgroundImageFix"/>
<feBlend mode="normal" in="SourceGraphic" in2="BackgroundImageFix" result="shape"/>
<feGaussianBlur stdDeviation="4.95074" result="effect1_foregroundBlur_5017_2799"/>
</filter>
<filter id="filter9_f_5017_2799" x="86.1052" y="32.1197" width="66.2426" height="87.4682" filterUnits="userSpaceOnUse" color-interpolation-filters="sRGB">
<feFlood flood-opacity="0" result="BackgroundImageFix"/>
<feBlend mode="normal" in="SourceGraphic" in2="BackgroundImageFix" result="shape"/>
<feGaussianBlur stdDeviation="9.90148" result="effect1_foregroundBlur_5017_2799"/>
</filter>
<linearGradient id="paint0_linear_5017_2799" x1="69.6745" y1="147.37" x2="73.5984" y2="30.406" gradientUnits="userSpaceOnUse">
<stop stop-color="#FA8700"/>
<stop offset="0.9992" stop-color="#FF9A51"/>
</linearGradient>
<linearGradient id="paint1_linear_5017_2799" x1="87.4776" y1="141.442" x2="69.4937" y2="58.1039" gradientUnits="userSpaceOnUse">
<stop offset="0.00064103" stop-color="#F38B5C"/>
<stop offset="0.9927" stop-color="#E3E1AB" stop-opacity="0"/>
</linearGradient>
<radialGradient id="paint2_radial_5017_2799" cx="0" cy="0" r="1" gradientUnits="userSpaceOnUse" gradientTransform="translate(72.2445 71.8855) scale(60.0802 59.6385)">
<stop stop-color="#FFF4F2"/>
<stop offset="0.322917" stop-color="#FFD7A8" stop-opacity="0.81"/>
<stop offset="0.5625" stop-color="#FFA858" stop-opacity="0.88"/>
<stop offset="0.744792" stop-color="#BA9B7F"/>
<stop offset="1" stop-color="#E05F16"/>
</radialGradient>
<linearGradient id="paint3_linear_5017_2799" x1="101.711" y1="148.897" x2="62.5838" y2="45.9744" gradientUnits="userSpaceOnUse">
<stop stop-color="#A3550E"/>
<stop offset="0.177083" stop-color="#F8CF99" stop-opacity="0"/>
</linearGradient>
<linearGradient id="paint4_linear_5017_2799" x1="97.9813" y1="92.2227" x2="107.671" y2="30.0304" gradientUnits="userSpaceOnUse">
<stop stop-color="#FDAE74"/>
<stop offset="0.283588" stop-color="#FFD6AE"/>
<stop offset="1" stop-color="#FEFBF7"/>
</linearGradient>
<linearGradient id="paint5_linear_5017_2799" x1="102.394" y1="90.5673" x2="110.685" y2="29.6912" gradientUnits="userSpaceOnUse">
<stop stop-color="#DC7435"/>
<stop offset="0.442708" stop-color="#E1A05A"/>
<stop offset="0.666667" stop-color="#F1A04E"/>
<stop offset="0.989583" stop-color="#F2CDAF"/>
</linearGradient>
<linearGradient id="paint6_linear_5017_2799" x1="102.394" y1="90.5673" x2="110.685" y2="29.6912" gradientUnits="userSpaceOnUse">
<stop stop-color="#DC7435"/>
<stop offset="0.442708" stop-color="#E1A05A"/>
<stop offset="0.666667" stop-color="#F1A04E"/>
<stop offset="0.989583" stop-color="#F2CDAF"/>
</linearGradient>
<linearGradient id="paint7_linear_5017_2799" x1="102.394" y1="90.5673" x2="110.685" y2="29.6912" gradientUnits="userSpaceOnUse">
<stop stop-color="#DC7435"/>
<stop offset="0.442708" stop-color="#E1A05A"/>
<stop offset="0.666667" stop-color="#F1A04E"/>
<stop offset="0.989583" stop-color="#F2CDAF"/>
</linearGradient>
<linearGradient id="paint8_linear_5017_2799" x1="102.394" y1="90.5673" x2="110.685" y2="29.6912" gradientUnits="userSpaceOnUse">
<stop stop-color="#DC7435"/>
<stop offset="0.442708" stop-color="#E1A05A"/>
<stop offset="0.666667" stop-color="#F1A04E"/>
<stop offset="0.989583" stop-color="#F2CDAF"/>
</linearGradient>
<linearGradient id="paint9_linear_5017_2799" x1="102.394" y1="90.5673" x2="110.685" y2="29.6912" gradientUnits="userSpaceOnUse">
<stop stop-color="#DC7435"/>
<stop offset="0.442708" stop-color="#E1A05A"/>
<stop offset="0.666667" stop-color="#F1A04E"/>
<stop offset="0.989583" stop-color="#F2CDAF"/>
</linearGradient>
<linearGradient id="paint10_linear_5017_2799" x1="102.394" y1="90.5673" x2="110.685" y2="29.6912" gradientUnits="userSpaceOnUse">
<stop stop-color="#DC7435"/>
<stop offset="0.442708" stop-color="#E1A05A"/>
<stop offset="0.666667" stop-color="#F1A04E"/>
<stop offset="0.989583" stop-color="#F2CDAF"/>
</linearGradient>
</defs>
</svg>
