<svg width="149" height="148" viewBox="0 0 149 148" fill="none" xmlns="http://www.w3.org/2000/svg">
<path d="M145.646 73.9834C145.47 34.6383 113.431 2.88581 74.0862 3.06217C34.7412 3.23853 2.98868 35.277 3.16504 74.622C3.3414 113.967 35.3798 145.72 74.7249 145.543C114.07 145.367 145.822 113.328 145.646 73.9834Z" fill="url(#paint0_radial_5023_2837)"/>
<path opacity="0.6" d="M4.99716 57.9899C14.2209 19.8582 52.5306 -3.80533 90.6803 4.73363C128.812 13.9574 152.476 52.267 143.937 90.4168C134.713 128.549 96.4032 152.212 58.2535 143.673C19.4369 134.431 -4.22658 96.1217 4.99716 57.9899Z" fill="url(#paint1_radial_5023_2837)"/>
<g filter="url(#filter0_f_5023_2837)">
<path d="M56.1058 66.1029C62.803 67.3653 70.3614 65.3548 74.0853 58.8356C75.1701 56.6214 76.6014 54.9983 77.3396 52.193C77.8318 50.3227 77.8543 48.3289 77.8769 46.3351C77.995 44.3386 77.4142 42.4871 76.7015 40.6629C76.6574 40.5502 76.8212 40.4697 76.8824 40.5741V40.5741C75.2727 37.1509 74.2557 33.3837 71.4608 30.6484C69.1355 28.0368 65.9715 26.7042 62.6845 25.8392C52.9463 22.7767 42.6257 29.5597 40.165 38.9109C36.6194 50.4763 43.0581 64.1692 56.1058 66.1029Z" fill="white"/>
</g>
<defs>
<filter id="filter0_f_5023_2837" x="21.8779" y="7.77144" width="73.338" height="76.0114" filterUnits="userSpaceOnUse" color-interpolation-filters="sRGB">
<feFlood flood-opacity="0" result="BackgroundImageFix"/>
<feBlend mode="normal" in="SourceGraphic" in2="BackgroundImageFix" result="shape"/>
<feGaussianBlur stdDeviation="8.66164" result="effect1_foregroundBlur_5023_2837"/>
</filter>
<radialGradient id="paint0_radial_5023_2837" cx="0" cy="0" r="1" gradientUnits="userSpaceOnUse" gradientTransform="translate(39.1338 47.272) rotate(-2.32401) scale(155.367 128.962)">
<stop offset="0.0001" stop-color="#E8EFFF"/>
<stop offset="0.317708" stop-color="#ECEBF1"/>
<stop offset="0.484375" stop-color="#D8E0F4"/>
<stop offset="0.635417" stop-color="#BFC8DB"/>
<stop offset="1" stop-color="#BCC1CB"/>
</radialGradient>
<radialGradient id="paint1_radial_5023_2837" cx="0" cy="0" r="1" gradientUnits="userSpaceOnUse" gradientTransform="translate(75.9905 58.1902) rotate(-166.836) scale(98.6176)">
<stop offset="0.5433" stop-color="white" stop-opacity="0"/>
<stop offset="1" stop-color="white"/>
</radialGradient>
</defs>
</svg>
