<svg width="185" height="184" viewBox="0 0 185 184" fill="none" xmlns="http://www.w3.org/2000/svg">
<g filter="url(#filter0_f_5017_2736)">
<mask id="mask0_5017_2736" style="mask-type:alpha" maskUnits="userSpaceOnUse" x="44" y="44" width="97" height="96">
<path d="M138.573 104.35C145.407 78.8458 130.271 52.631 104.768 45.7973C79.2638 38.9636 53.0491 54.0987 46.2154 79.6025C39.3816 105.106 54.5167 131.321 80.0205 138.155C105.524 144.989 131.739 129.853 138.573 104.35Z" fill="url(#paint0_radial_5017_2736)"/>
</mask>
<g mask="url(#mask0_5017_2736)">
<path d="M138.573 104.35C145.407 78.8458 130.271 52.631 104.768 45.7973C79.2638 38.9636 53.0491 54.0987 46.2154 79.6025C39.3816 105.106 54.5167 131.321 80.0205 138.155C105.524 144.989 131.739 129.853 138.573 104.35Z" fill="url(#paint1_radial_5017_2736)"/>
<path opacity="0.6" d="M103.552 45.4444C129.113 51.7488 144.878 77.5281 139.033 103.103C132.729 128.664 106.949 144.429 81.374 138.584C55.813 132.279 40.0486 106.5 45.8935 80.9249C52.212 54.9044 77.9914 39.14 103.552 45.4444Z" fill="url(#paint2_radial_5017_2736)"/>
<path opacity="0.79" d="M55.1586 126.931C35.1318 106.056 35.6458 72.8568 56.1029 52.5468C76.9782 32.5199 110.178 33.0339 130.488 53.491C150.514 74.3664 150 107.566 129.543 127.876C108.385 148.321 75.1855 147.807 55.1586 126.931Z" fill="url(#paint3_radial_5017_2736)"/>
<g filter="url(#filter1_f_5017_2736)">
<path d="M68.0413 68.0873C67.174 72.5777 68.5005 77.656 72.864 80.1745C74.3466 80.9091 75.4315 81.8745 77.3119 82.3784C78.5654 82.7143 79.9033 82.7354 81.2412 82.7565C82.8925 82.8616 84.3991 82.2533 85.9057 81.645C85.5079 81.8757 85.5079 81.8757 85.1102 82.1065C87.4122 81.0366 89.9433 80.3655 91.7872 78.4981C93.5468 76.9456 94.4506 74.8263 95.0409 72.6231C97.1253 66.0975 92.6046 59.1513 86.3368 57.4718C78.5863 55.0578 69.3782 59.3373 68.0413 68.0873Z" fill="white"/>
</g>
</g>
</g>
<defs>
<filter id="filter0_f_5017_2736" x="4.57422" y="4.15649" width="175.639" height="175.639" filterUnits="userSpaceOnUse" color-interpolation-filters="sRGB">
<feFlood flood-opacity="0" result="BackgroundImageFix"/>
<feBlend mode="normal" in="SourceGraphic" in2="BackgroundImageFix" result="shape"/>
<feGaussianBlur stdDeviation="20" result="effect1_foregroundBlur_5017_2736"/>
</filter>
<filter id="filter1_f_5017_2736" x="56.1659" y="45.1801" width="51.0139" height="49.2135" filterUnits="userSpaceOnUse" color-interpolation-filters="sRGB">
<feFlood flood-opacity="0" result="BackgroundImageFix"/>
<feBlend mode="normal" in="SourceGraphic" in2="BackgroundImageFix" result="shape"/>
<feGaussianBlur stdDeviation="5.81256" result="effect1_foregroundBlur_5017_2736"/>
</filter>
<radialGradient id="paint0_radial_5017_2736" cx="0" cy="0" r="1" gradientUnits="userSpaceOnUse" gradientTransform="translate(74.3319 68.2473) rotate(12.9328) scale(104.262 86.5427)">
<stop offset="0.0001" stop-color="#E8EFFF"/>
<stop offset="0.317708" stop-color="#EEE9FF"/>
<stop offset="0.484375" stop-color="#D8E0F4"/>
<stop offset="0.635417" stop-color="#BFC8DB"/>
<stop offset="1" stop-color="#BCC1CB"/>
</radialGradient>
<radialGradient id="paint1_radial_5017_2736" cx="0" cy="0" r="1" gradientUnits="userSpaceOnUse" gradientTransform="translate(74.3319 68.2473) rotate(12.9328) scale(104.262 86.5427)">
<stop offset="0.0001" stop-color="#E8EFFF"/>
<stop offset="0.317708" stop-color="#ECEBF1"/>
<stop offset="0.484375" stop-color="#D8E0F4"/>
<stop offset="0.635417" stop-color="#BFC8DB"/>
<stop offset="1" stop-color="#BCC1CB"/>
</radialGradient>
<radialGradient id="paint2_radial_5017_2736" cx="0" cy="0" r="1" gradientUnits="userSpaceOnUse" gradientTransform="translate(103.204 93.0847) rotate(-76.5793) scale(66.1792)">
<stop offset="0.5433" stop-color="white" stop-opacity="0"/>
<stop offset="1" stop-color="white"/>
</radialGradient>
<radialGradient id="paint3_radial_5017_2736" cx="0" cy="0" r="1" gradientUnits="userSpaceOnUse" gradientTransform="translate(83.4797 82.9046) rotate(135.754) scale(72.7185)">
<stop offset="0.5625" stop-color="#6D71A2" stop-opacity="0"/>
<stop offset="0.78125" stop-color="#2D3F6D" stop-opacity="0.54"/>
<stop offset="0.958333" stop-color="white"/>
</radialGradient>
</defs>
</svg>
