<svg width="94" height="94" viewBox="0 0 94 94" fill="none" xmlns="http://www.w3.org/2000/svg">
<g filter="url(#filter0_d_257_1820)">
<rect x="7" y="6.99805" width="80" height="80" rx="40" fill="#8F9ECE"/>
</g>
<g filter="url(#filter1_ii_257_1820)">
<circle cx="47.0006" cy="46.9976" r="34.2857" fill="#41527F"/>
<circle cx="47.0006" cy="46.9976" r="34.2857" stroke="white"/>
</g>
<g clip-path="url(#clip0_257_1820)">
<path d="M60.4943 27.998H33.5039C33.1964 27.998 32.9473 28.2473 32.9473 28.5547V54.9959C32.9473 55.3033 33.1964 55.5525 33.5039 55.5525C33.8114 55.5525 34.0605 55.3033 34.0605 54.9959V29.1113H59.9377V32.6107C59.9377 32.9182 60.1868 33.1674 60.4943 33.1674C60.8018 33.1674 61.0509 32.9182 61.0509 32.6107V28.5547C61.0509 28.2473 60.8018 27.998 60.4943 27.998V27.998Z" fill="#D4DDF1"/>
<path d="M60.4943 34.6523C60.1868 34.6523 59.9377 34.9016 59.9377 35.209V64.8854H34.0605V57.5941C34.0605 57.2867 33.8114 57.0375 33.5039 57.0375C33.1964 57.0375 32.9473 57.2867 32.9473 57.5941V65.442C32.9473 65.7494 33.1964 65.9986 33.5039 65.9986H60.4943C60.8018 65.9986 61.0509 65.7494 61.0509 65.442V35.209C61.0509 34.9016 60.8018 34.6523 60.4943 34.6523V34.6523Z" fill="#D4DDF1"/>
<path d="M35.3457 39.5768C35.3457 41.9507 37.277 43.882 39.651 43.882C42.0249 43.882 43.9563 41.9507 43.9563 39.5768C43.9563 37.2028 42.0249 35.2715 39.651 35.2715C37.277 35.2715 35.3457 37.2028 35.3457 39.5768V39.5768ZM39.651 42.7688C37.8909 42.7688 36.459 41.3369 36.459 39.5768C36.459 38.0066 37.5988 36.6986 39.0943 36.4343V39.5768C39.0943 39.8842 39.3435 40.1334 39.651 40.1334H42.7934C42.5291 41.6289 41.2212 42.7688 39.651 42.7688ZM42.7934 39.0201H40.2076V36.4343C41.5222 36.6666 42.5611 37.7056 42.7934 39.0201Z" fill="#D4DDF1"/>
<path d="M36.2031 60.0869C35.8956 60.0869 35.6465 60.3361 35.6465 60.6436V63.0427C35.6465 63.3501 35.8956 63.5993 36.2031 63.5993H39.8018C40.1093 63.5993 40.3585 63.3501 40.3585 63.0427V60.6436C40.3585 60.3361 40.1093 60.0869 39.8018 60.0869H36.2031ZM39.2452 62.486H36.7598V61.2002H39.2452V62.486Z" fill="#D4DDF1"/>
<path d="M42.2012 63.5984H45.7998C46.1073 63.5984 46.3565 63.3492 46.3565 63.0418V57.0439C46.3565 56.7365 46.1073 56.4873 45.7998 56.4873H42.2012C41.8937 56.4873 41.6445 56.7365 41.6445 57.0439V63.0418C41.6445 63.3492 41.8937 63.5984 42.2012 63.5984ZM42.7578 57.6006H45.2432V62.4851H42.7578V57.6006Z" fill="#D4DDF1"/>
<path d="M48.1992 51.9893C47.8917 51.9893 47.6426 52.2385 47.6426 52.5459V63.0421C47.6426 63.3495 47.8917 63.5988 48.1992 63.5988H51.7979C52.1054 63.5988 52.3545 63.3495 52.3545 63.0421V52.5459C52.3545 52.2385 52.1054 51.9893 51.7979 51.9893H48.1992ZM51.2412 62.4855H48.7559V53.1025H51.2412V62.4855Z" fill="#D4DDF1"/>
<path d="M57.7954 52.0666C58.1029 52.0666 58.352 51.8174 58.352 51.51V49.5469C58.352 49.2395 58.1029 48.9902 57.7954 48.9902H54.1973C53.8898 48.9902 53.6406 49.2395 53.6406 49.5469V63.0413C53.6406 63.3487 53.8898 63.598 54.1973 63.598H57.7953C58.1028 63.598 58.352 63.3487 58.352 63.0413V54.1076C58.352 53.8002 58.1028 53.551 57.7953 53.551C57.4878 53.551 57.2387 53.8002 57.2387 54.1076V62.4847H54.7539V50.1035H57.2387V51.51C57.2388 51.8174 57.4879 52.0666 57.7954 52.0666V52.0666Z" fill="#D4DDF1"/>
<path d="M52.9976 30.3975H41.002C40.6945 30.3975 40.4453 30.6467 40.4453 30.9541V33.3532C40.4453 33.6606 40.6945 33.9099 41.002 33.9099H52.9977C53.3052 33.9099 53.5544 33.6606 53.5544 33.3532V30.9541C53.5543 30.6467 53.3051 30.3975 52.9976 30.3975ZM52.441 32.7966H41.5586V31.5107H52.4411V32.7966H52.441Z" fill="#D4DDF1"/>
<path d="M58.096 35.2715H47C46.6925 35.2715 46.4434 35.5207 46.4434 35.8281C46.4434 36.1355 46.6925 36.3848 47 36.3848H58.096C58.4035 36.3848 58.6526 36.1355 58.6526 35.8281C58.6526 35.5207 58.4034 35.2715 58.096 35.2715Z" fill="#D4DDF1"/>
<path d="M58.096 37.7695H47C46.6925 37.7695 46.4434 38.0188 46.4434 38.3262C46.4434 38.6336 46.6925 38.8828 47 38.8828H58.096C58.4035 38.8828 58.6526 38.6336 58.6526 38.3262C58.6526 38.0188 58.4034 37.7695 58.096 37.7695Z" fill="#D4DDF1"/>
<path d="M58.6526 40.8252C58.6526 40.5178 58.4035 40.2686 58.096 40.2686H47C46.6925 40.2686 46.4434 40.5178 46.4434 40.8252C46.4434 41.1326 46.6925 41.3818 47 41.3818H58.096C58.4034 41.3818 58.6526 41.1326 58.6526 40.8252Z" fill="#D4DDF1"/>
<path d="M54.1543 43.3242C54.1543 43.0168 53.9052 42.7676 53.5977 42.7676H47C46.6925 42.7676 46.4434 43.0168 46.4434 43.3242C46.4434 43.6316 46.6925 43.8809 47 43.8809H53.5977C53.9051 43.8809 54.1543 43.6316 54.1543 43.3242Z" fill="#D4DDF1"/>
<path d="M46.9983 46.4414H36.877C36.5695 46.4414 36.3203 46.6906 36.3203 46.998C36.3203 47.3055 36.5695 47.5547 36.877 47.5547H46.9983C47.3058 47.5547 47.555 47.3055 47.555 46.998C47.555 46.6906 47.3058 46.4414 46.9983 46.4414Z" fill="#D4DDF1"/>
<path d="M47.555 49.4961C47.555 49.1887 47.3058 48.9395 46.9983 48.9395H36.877C36.5695 48.9395 36.3203 49.1887 36.3203 49.4961C36.3203 49.8035 36.5695 50.0527 36.877 50.0527H46.9983C47.3058 50.0527 47.555 49.8035 47.555 49.4961Z" fill="#D4DDF1"/>
<path d="M43.0566 51.9961C43.0566 51.6887 42.8075 51.4395 42.5 51.4395H36.877C36.5695 51.4395 36.3203 51.6887 36.3203 51.9961C36.3203 52.3035 36.5695 52.5527 36.877 52.5527H42.5C42.8074 52.5527 43.0566 52.3035 43.0566 51.9961Z" fill="#D4DDF1"/>
</g>
<defs>
<filter id="filter0_d_257_1820" x="0.878693" y="0.87674" width="92.2426" height="92.2426" filterUnits="userSpaceOnUse" color-interpolation-filters="sRGB">
<feFlood flood-opacity="0" result="BackgroundImageFix"/>
<feColorMatrix in="SourceAlpha" type="matrix" values="0 0 0 0 0 0 0 0 0 0 0 0 0 0 0 0 0 0 127 0" result="hardAlpha"/>
<feOffset/>
<feGaussianBlur stdDeviation="3.06065"/>
<feComposite in2="hardAlpha" operator="out"/>
<feColorMatrix type="matrix" values="0 0 0 0 0.0941176 0 0 0 0 0.137255 0 0 0 0 0.282353 0 0 0 0.6 0"/>
<feBlend mode="normal" in2="BackgroundImageFix" result="effect1_dropShadow_257_1820"/>
<feBlend mode="normal" in="SourceGraphic" in2="effect1_dropShadow_257_1820" result="shape"/>
</filter>
<filter id="filter1_ii_257_1820" x="11.4291" y="11.4262" width="71.1437" height="71.1427" filterUnits="userSpaceOnUse" color-interpolation-filters="sRGB">
<feFlood flood-opacity="0" result="BackgroundImageFix"/>
<feBlend mode="normal" in="SourceGraphic" in2="BackgroundImageFix" result="shape"/>
<feColorMatrix in="SourceAlpha" type="matrix" values="0 0 0 0 0 0 0 0 0 0 0 0 0 0 0 0 0 0 127 0" result="hardAlpha"/>
<feOffset dx="-1.28571" dy="-1.28571"/>
<feGaussianBlur stdDeviation="2.57143"/>
<feComposite in2="hardAlpha" operator="arithmetic" k2="-1" k3="1"/>
<feColorMatrix type="matrix" values="0 0 0 0 1 0 0 0 0 1 0 0 0 0 1 0 0 0 0.177256 0"/>
<feBlend mode="normal" in2="shape" result="effect1_innerShadow_257_1820"/>
<feColorMatrix in="SourceAlpha" type="matrix" values="0 0 0 0 0 0 0 0 0 0 0 0 0 0 0 0 0 0 127 0" result="hardAlpha"/>
<feOffset dx="1.28571" dy="1.28571"/>
<feGaussianBlur stdDeviation="3.21429"/>
<feComposite in2="hardAlpha" operator="arithmetic" k2="-1" k3="1"/>
<feColorMatrix type="matrix" values="0 0 0 0 0.184314 0 0 0 0 0.239216 0 0 0 0 0.415686 0 0 0 1 0"/>
<feBlend mode="normal" in2="effect1_innerShadow_257_1820" result="effect2_innerShadow_257_1820"/>
</filter>
<clipPath id="clip0_257_1820">
<rect width="38" height="38" fill="white" transform="translate(28 27.998)"/>
</clipPath>
</defs>
</svg>
