<svg width="24" height="24" viewBox="0 0 24 24" fill="none" xmlns="http://www.w3.org/2000/svg">
<path d="M0.473603 19.5949C2.6956 21.0049 5.2816 21.7499 7.9516 21.7499C11.8616 21.7499 15.4446 20.2479 18.0416 17.5209C20.5266 14.9109 21.8936 11.4039 21.8256 7.84492C22.7676 7.03892 23.8756 5.49992 23.8756 3.99992C23.8756 3.42492 23.2516 3.05992 22.7456 3.35292C21.8606 3.87292 21.0536 4.00892 20.2236 3.77592C18.5286 2.12392 16.0056 1.77592 13.8796 2.92192C12.0216 3.92192 10.9886 5.75192 11.0816 7.75192C7.9426 7.36892 5.0426 5.79492 3.0206 3.34892C2.6886 2.94992 2.0586 2.99692 1.7946 3.44892C0.820603 5.11692 0.830603 7.04992 1.6776 8.61092C1.2746 8.68192 1.0256 9.02092 1.0256 9.38792C1.0256 10.9569 1.7316 12.3989 2.8686 13.3829C2.6566 13.5869 2.5866 13.8899 2.6766 14.1599C3.1766 15.6619 4.3086 16.8359 5.7236 17.4239C4.1846 18.1589 2.4826 18.4039 0.967603 18.2179C0.183603 18.1119 -0.203397 19.1659 0.473603 19.5949ZM8.1566 17.6809C8.7176 17.2499 8.4196 16.3519 7.7156 16.3369C6.4756 16.3109 5.3466 15.6999 4.6436 14.7389C4.9826 14.7169 5.3336 14.6649 5.6676 14.5749C6.4286 14.3689 6.3926 13.2709 5.6196 13.1159C4.2166 12.8339 3.1156 11.8119 2.7026 10.4959C3.0796 10.5889 3.4636 10.6409 3.8466 10.6479C4.6056 10.6519 4.8926 9.67892 4.2736 9.27192C2.8786 8.35292 2.2836 6.72992 2.6776 5.20392C5.1136 7.67192 8.4186 9.15892 11.9146 9.32692C12.4156 9.35792 12.7916 8.88692 12.6816 8.40992C12.2066 6.35092 13.3566 4.90792 14.5916 4.24292C15.8136 3.58292 17.7756 3.37692 19.2796 4.95492C19.7266 5.42592 21.2346 5.44392 22.0016 5.26492C21.6576 5.91292 21.1286 6.52792 20.6336 6.87392C20.4226 7.02192 20.3016 7.26792 20.3146 7.52492C20.4756 10.8099 19.2516 14.0759 16.9566 16.4849C14.6446 18.9119 11.4476 20.2489 7.9526 20.2489C6.5626 20.2489 5.1996 20.0229 3.9116 19.5869C5.4516 19.2889 6.9146 18.6369 8.1566 17.6809Z" fill="#8F9ECE"/>
</svg>
