<svg width="210" height="187" viewBox="0 0 210 187" fill="none" xmlns="http://www.w3.org/2000/svg">
<g style="mix-blend-mode:multiply" opacity="0.8" filter="url(#filter0_f_241_4454)">
<ellipse cx="128.337" cy="105.41" rx="60.9153" ry="60.4139" fill="url(#paint0_radial_241_4454)"/>
</g>
<g style="mix-blend-mode:multiply" opacity="0.8" filter="url(#filter1_f_241_4454)">
<ellipse cx="105.915" cy="101.414" rx="60.9153" ry="60.4139" fill="url(#paint1_radial_241_4454)"/>
</g>
<g style="mix-blend-mode:multiply" opacity="0.8" filter="url(#filter2_f_241_4454)">
<ellipse cx="81.9153" cy="85.4139" rx="60.9153" ry="60.4139" fill="url(#paint2_radial_241_4454)"/>
</g>
<mask id="mask0_241_4454" style="mask-type:alpha" maskUnits="userSpaceOnUse" x="29" y="0" width="137" height="136">
<path d="M97.2294 135.776C134.85 135.776 165.347 105.502 165.347 68.1583C165.347 30.8143 134.85 0.541016 97.2294 0.541016C59.6088 0.541016 29.1113 30.8143 29.1113 68.1583C29.1113 105.502 59.6088 135.776 97.2294 135.776Z" fill="url(#paint3_linear_241_4454)"/>
</mask>
<g mask="url(#mask0_241_4454)">
<path d="M97.2314 135.781C134.852 135.781 165.349 105.508 165.349 68.1641C165.349 30.8202 134.852 0.546875 97.2314 0.546875C59.6108 0.546875 29.1133 30.8202 29.1133 68.1641C29.1133 105.508 59.6108 135.781 97.2314 135.781Z" fill="url(#paint4_linear_241_4454)"/>
<path d="M97.2314 135.781C134.852 135.781 165.349 105.508 165.349 68.1641C165.349 30.8202 134.852 0.546875 97.2314 0.546875C59.6108 0.546875 29.1133 30.8202 29.1133 68.1641C29.1133 105.508 59.6108 135.781 97.2314 135.781Z" fill="url(#paint5_linear_241_4454)"/>
<path opacity="0.49" d="M97.2314 135.781C134.852 135.781 165.349 105.508 165.349 68.1641C165.349 30.8202 134.852 0.546875 97.2314 0.546875C59.6108 0.546875 29.1133 30.8202 29.1133 68.1641C29.1133 105.508 59.6108 135.781 97.2314 135.781Z" fill="url(#paint6_radial_241_4454)"/>
<path opacity="0.31" d="M152.735 63.3541C148.194 68.2626 141.432 68.8637 135.075 68.1625C131.643 67.7618 128.313 67.1607 124.983 66.5597C120.845 65.8585 115.901 64.8567 112.57 68.0623C109.947 70.6668 109.038 74.3732 107.625 77.679C106.314 80.6842 104.497 83.489 102.277 85.8932C98.543 89.8 93.5982 91.8034 88.2496 91.6031C76.9471 91.2024 66.7546 84.2904 56.0575 81.2852C51.1126 79.8828 45.6632 78.7809 40.5165 79.8828C38.5991 80.2835 37.0853 81.0849 35.7734 82.0866C42.1311 110.035 67.2591 130.871 97.332 130.871C132.148 130.871 160.404 102.823 160.404 68.2626C160.404 63.1538 159.799 58.2453 158.689 53.5371C157.276 57.0432 155.359 60.4491 152.735 63.3541Z" fill="url(#paint7_linear_241_4454)"/>
<g filter="url(#filter3_f_241_4454)">
<path d="M143.295 25.9949C136.784 17.7247 130.965 14.378 121.104 10.697C109.419 6.33527 90.9905 7.18009 89.232 8.64845C87.4318 10.1433 105.02 12.2446 114.148 16.9099C133.541 26.8214 152.257 56.4552 152.976 56.9423C155.32 58.5188 151.129 35.9443 143.295 25.9949Z" fill="#9D9CE2"/>
</g>
<g filter="url(#filter4_f_241_4454)">
<path d="M110.182 125.914C120.866 123.86 126.715 120.926 134.807 115.41C144.396 108.876 152.456 96.4695 151.955 94.9084C151.451 93.3125 141.1 104.362 132.459 109.125C114.101 119.245 78.0306 123.555 77.241 123.897C74.6758 125.017 97.3288 128.385 110.182 125.914Z" fill="#D5DEFE"/>
</g>
<g filter="url(#filter5_f_241_4454)">
<path d="M114.248 119.846C127.58 114.844 134.281 108.716 143.072 97.5124C153.488 84.2375 159.957 60.1332 158.786 57.2638C157.597 54.3299 147.674 76.1423 137.915 85.9966C117.183 106.933 71.3021 118.907 70.3796 119.633C67.3857 122.008 98.2076 125.864 114.248 119.846Z" fill="#494372"/>
</g>
<g opacity="0.4" filter="url(#filter6_f_241_4454)">
<path d="M61.2132 58.715C65.4679 64.6026 73.8481 68.0648 83.7356 64.6483C86.9442 63.3611 89.8252 62.8657 93.3613 60.7866C95.7187 59.4006 97.8143 57.5692 99.9099 55.7379C102.595 53.56 104.167 50.8381 105.739 48.1162C105.411 48.908 105.411 48.908 105.084 49.6998C107.311 45.3943 110.389 41.1875 110.914 36.6844C111.7 32.6266 110.457 29.163 108.624 26.0459C103.715 16.3481 88.0669 15.3617 76.2799 22.2918C61.2843 30.5092 52.3762 47.7314 61.2132 58.715Z" fill="#BCBBFF"/>
</g>
<g filter="url(#filter7_f_241_4454)">
<path d="M42.2991 74.0578C40.5102 72.1791 38.6309 69.0568 38.074 63.4589C37.5219 57.2396 38.8762 50.7246 40.6092 47.0093C42.4449 42.9842 44.6642 41.1372 46.7635 41.7754C48.7652 42.1019 50.6494 44.6028 52.5336 47.1037C56.8005 52.4202 61.0675 57.7367 65.2318 63.3631C67.9078 67.1133 71.2508 75.2192 67.1934 81.402C64.1504 86.0392 58.8568 83.822 55.5549 83.1744C51.0556 81.8958 46.571 78.7528 42.2991 74.0578Z" fill="#99A1CD"/>
</g>
<g filter="url(#filter8_f_241_4454)">
<path d="M129.791 76.5578C128.002 74.6791 126.123 71.5568 125.566 65.9589C125.014 59.7396 126.368 53.2246 128.101 49.5094C129.937 45.4842 132.156 43.6372 134.256 44.2754C136.257 44.602 138.142 47.1029 140.026 49.6038C144.293 54.9202 148.56 60.2367 152.724 65.8631C155.4 69.6133 158.743 77.7192 154.686 83.902C151.643 88.5392 146.349 86.322 143.047 85.6744C138.548 84.3958 134.063 81.2528 129.791 76.5578Z" fill="#99A1CD"/>
</g>
<g filter="url(#filter9_f_241_4454)">
<path d="M58.3269 28.5547C57.1884 34.4488 58.9295 41.1145 64.6571 44.4203C66.6032 45.3846 68.0272 46.6517 70.4953 47.3131C72.1408 47.754 73.8969 47.7817 75.653 47.8094C77.8205 47.9474 79.798 47.1489 81.7756 46.3504C81.2535 46.6533 81.2535 46.6533 80.7314 46.9562C83.7531 45.5519 87.0754 44.671 89.4957 42.2199C91.8053 40.182 92.9915 37.4003 93.7664 34.5084C96.5025 25.9428 90.5686 16.8253 82.3414 14.6208C72.1682 11.4521 60.0817 17.0695 58.3269 28.5547Z" fill="white"/>
</g>
<g opacity="0.4" filter="url(#filter10_f_241_4454)">
<path d="M38.3849 89.3126C37.8484 92.0901 38.6689 95.2312 41.3679 96.789C42.285 97.2434 42.956 97.8405 44.1191 98.1522C44.8945 98.36 45.722 98.373 46.5495 98.3861C47.5709 98.4511 48.5028 98.0748 49.4347 97.6986C49.1887 97.8413 49.1887 97.8413 48.9427 97.984C50.3666 97.3223 51.9321 96.9071 53.0727 95.7521C54.161 94.7918 54.72 93.481 55.0852 92.1182C56.3745 88.0818 53.5782 83.7854 49.7013 82.7465C44.9074 81.2533 39.2118 83.9004 38.3849 89.3126Z" fill="#6B68F5" fill-opacity="0.58"/>
</g>
<path opacity="0.79" d="M25.3632 95.6051C15.1039 55.3276 39.2506 14.1844 79.2057 3.27496C119.483 -6.98434 160.626 17.1624 171.536 57.1174C181.795 97.395 157.648 138.538 117.693 149.448C76.7657 160.029 35.6225 135.883 25.3632 95.6051Z" fill="url(#paint8_radial_241_4454)"/>
</g>
<defs>
<filter id="filter0_f_241_4454" x="46.829" y="24.4032" width="163.016" height="162.014" filterUnits="userSpaceOnUse" color-interpolation-filters="sRGB">
<feFlood flood-opacity="0" result="BackgroundImageFix"/>
<feBlend mode="normal" in="SourceGraphic" in2="BackgroundImageFix" result="shape"/>
<feGaussianBlur stdDeviation="10.2965" result="effect1_foregroundBlur_241_4454"/>
</filter>
<filter id="filter1_f_241_4454" x="24.4071" y="20.4071" width="163.016" height="162.014" filterUnits="userSpaceOnUse" color-interpolation-filters="sRGB">
<feFlood flood-opacity="0" result="BackgroundImageFix"/>
<feBlend mode="normal" in="SourceGraphic" in2="BackgroundImageFix" result="shape"/>
<feGaussianBlur stdDeviation="10.2965" result="effect1_foregroundBlur_241_4454"/>
</filter>
<filter id="filter2_f_241_4454" x="0.407097" y="4.4071" width="163.016" height="162.014" filterUnits="userSpaceOnUse" color-interpolation-filters="sRGB">
<feFlood flood-opacity="0" result="BackgroundImageFix"/>
<feBlend mode="normal" in="SourceGraphic" in2="BackgroundImageFix" result="shape"/>
<feGaussianBlur stdDeviation="10.2965" result="effect1_foregroundBlur_241_4454"/>
</filter>
<filter id="filter3_f_241_4454" x="80.255" y="-1.38605" width="82.2165" height="67.2554" filterUnits="userSpaceOnUse" color-interpolation-filters="sRGB">
<feFlood flood-opacity="0" result="BackgroundImageFix"/>
<feBlend mode="normal" in="SourceGraphic" in2="BackgroundImageFix" result="shape"/>
<feGaussianBlur stdDeviation="4.42425" result="effect1_foregroundBlur_241_4454"/>
</filter>
<filter id="filter4_f_241_4454" x="68.1925" y="85.9037" width="92.6345" height="49.7445" filterUnits="userSpaceOnUse" color-interpolation-filters="sRGB">
<feFlood flood-opacity="0" result="BackgroundImageFix"/>
<feBlend mode="normal" in="SourceGraphic" in2="BackgroundImageFix" result="shape"/>
<feGaussianBlur stdDeviation="4.42425" result="effect1_foregroundBlur_241_4454"/>
</filter>
<filter id="filter5_f_241_4454" x="52.4788" y="39.2977" width="124.14" height="101.455" filterUnits="userSpaceOnUse" color-interpolation-filters="sRGB">
<feFlood flood-opacity="0" result="BackgroundImageFix"/>
<feBlend mode="normal" in="SourceGraphic" in2="BackgroundImageFix" result="shape"/>
<feGaussianBlur stdDeviation="8.84851" result="effect1_foregroundBlur_241_4454"/>
</filter>
<filter id="filter6_f_241_4454" x="48.8585" y="8.95789" width="71.1443" height="65.8896" filterUnits="userSpaceOnUse" color-interpolation-filters="sRGB">
<feFlood flood-opacity="0" result="BackgroundImageFix"/>
<feBlend mode="normal" in="SourceGraphic" in2="BackgroundImageFix" result="shape"/>
<feGaussianBlur stdDeviation="4.42425" result="effect1_foregroundBlur_241_4454"/>
</filter>
<filter id="filter7_f_241_4454" x="20.2522" y="23.9548" width="66.5268" height="78.0156" filterUnits="userSpaceOnUse" color-interpolation-filters="sRGB">
<feFlood flood-opacity="0" result="BackgroundImageFix"/>
<feBlend mode="normal" in="SourceGraphic" in2="BackgroundImageFix" result="shape"/>
<feGaussianBlur stdDeviation="8.84851" result="effect1_foregroundBlur_241_4454"/>
</filter>
<filter id="filter8_f_241_4454" x="107.744" y="26.4548" width="66.5268" height="78.0156" filterUnits="userSpaceOnUse" color-interpolation-filters="sRGB">
<feFlood flood-opacity="0" result="BackgroundImageFix"/>
<feBlend mode="normal" in="SourceGraphic" in2="BackgroundImageFix" result="shape"/>
<feGaussianBlur stdDeviation="8.84851" result="effect1_foregroundBlur_241_4454"/>
</filter>
<filter id="filter9_f_241_4454" x="40.301" y="-3.95123" width="71.8374" height="69.4733" filterUnits="userSpaceOnUse" color-interpolation-filters="sRGB">
<feFlood flood-opacity="0" result="BackgroundImageFix"/>
<feBlend mode="normal" in="SourceGraphic" in2="BackgroundImageFix" result="shape"/>
<feGaussianBlur stdDeviation="8.84851" result="effect1_foregroundBlur_241_4454"/>
</filter>
<filter id="filter10_f_241_4454" x="29.382" y="73.4857" width="34.8689" height="33.7562" filterUnits="userSpaceOnUse" color-interpolation-filters="sRGB">
<feFlood flood-opacity="0" result="BackgroundImageFix"/>
<feBlend mode="normal" in="SourceGraphic" in2="BackgroundImageFix" result="shape"/>
<feGaussianBlur stdDeviation="4.42425" result="effect1_foregroundBlur_241_4454"/>
</filter>
<radialGradient id="paint0_radial_241_4454" cx="0" cy="0" r="1" gradientUnits="userSpaceOnUse" gradientTransform="translate(106.7 78.1178) rotate(62.0748) scale(103.378 63.0926)">
<stop offset="0.432292" stop-color="#14497B"/>
<stop offset="0.458333" stop-color="#405E7A"/>
<stop offset="1" stop-color="#567892" stop-opacity="0.03"/>
</radialGradient>
<radialGradient id="paint1_radial_241_4454" cx="0" cy="0" r="1" gradientUnits="userSpaceOnUse" gradientTransform="translate(84.2779 74.1217) rotate(62.0748) scale(103.378 63.0926)">
<stop offset="0.432292" stop-color="#14497B"/>
<stop offset="0.458333" stop-color="#405E7A"/>
<stop offset="1" stop-color="#567892" stop-opacity="0.03"/>
</radialGradient>
<radialGradient id="paint2_radial_241_4454" cx="0" cy="0" r="1" gradientUnits="userSpaceOnUse" gradientTransform="translate(60.2779 58.1217) rotate(62.0748) scale(103.378 63.0926)">
<stop offset="0.432292" stop-color="#14497B"/>
<stop offset="0.458333" stop-color="#405E7A"/>
<stop offset="1" stop-color="#567892" stop-opacity="0.03"/>
</radialGradient>
<linearGradient id="paint3_linear_241_4454" x1="94.3366" y1="153.507" x2="98.7744" y2="21.2215" gradientUnits="userSpaceOnUse">
<stop offset="0.00086138" stop-color="#A88F6C"/>
<stop offset="0.9992" stop-color="#F6F0D4"/>
</linearGradient>
<linearGradient id="paint4_linear_241_4454" x1="94.3385" y1="153.513" x2="98.7764" y2="21.2273" gradientUnits="userSpaceOnUse">
<stop offset="0.00086138" stop-color="#55527C"/>
<stop offset="0.9992" stop-color="#BCC3E2"/>
</linearGradient>
<linearGradient id="paint5_linear_241_4454" x1="114.474" y1="146.809" x2="94.134" y2="52.5535" gradientUnits="userSpaceOnUse">
<stop offset="0.00064103" stop-color="#646797"/>
<stop offset="0.9927" stop-color="#959EC8" stop-opacity="0"/>
</linearGradient>
<radialGradient id="paint6_radial_241_4454" cx="0" cy="0" r="1" gradientUnits="userSpaceOnUse" gradientTransform="translate(97.2451 68.1404) scale(67.9505 67.4509)">
<stop offset="0.0099359" stop-color="#B1B9DB"/>
<stop offset="0.234375" stop-color="#7177A9" stop-opacity="0.81"/>
<stop offset="0.479167" stop-color="#585883" stop-opacity="0.88"/>
<stop offset="0.744792" stop-color="#58557C"/>
<stop offset="1" stop-color="#29284A"/>
</radialGradient>
<linearGradient id="paint7_linear_241_4454" x1="130.569" y1="155.241" x2="86.3168" y2="38.8364" gradientUnits="userSpaceOnUse">
<stop offset="0.00282452" stop-color="#55537D"/>
<stop offset="1" stop-color="#9FA5D1" stop-opacity="0"/>
</linearGradient>
<radialGradient id="paint8_radial_241_4454" cx="0" cy="0" r="1" gradientUnits="userSpaceOnUse" gradientTransform="translate(91.9408 60.6115) rotate(165.276) scale(104.48)">
<stop offset="0.5433" stop-color="#6D71A2" stop-opacity="0"/>
<stop offset="0.828125" stop-color="#E87354"/>
<stop offset="0.958333" stop-color="#BBD8F1"/>
</radialGradient>
</defs>
</svg>
