<svg width="52" height="52" viewBox="0 0 52 52" fill="none" xmlns="http://www.w3.org/2000/svg">
<path d="M28.2392 34.9545C26.6661 35.6363 24.9411 35.8916 23.238 35.6944C21.5348 35.4973 19.9137 34.8548 18.538 33.8316C17.1623 32.8084 16.0806 31.4406 15.4018 29.8662C14.723 28.2918 14.4712 26.5663 14.6717 24.8636C14.8721 23.1608 15.5179 21.541 16.5438 20.1673C17.5697 18.7936 18.9395 17.7145 20.5153 17.0388C22.091 16.3632 23.817 16.1147 25.5194 16.3186C27.2217 16.5224 28.8403 17.1713 30.2119 18.1999L22.7499 25.6635L20.8869 23.8005C20.7345 23.6481 20.5279 23.5626 20.3124 23.5626C20.097 23.5626 19.8904 23.6481 19.738 23.8005L17.3005 26.238C17.1482 26.3903 17.0626 26.597 17.0626 26.8124C17.0626 27.0279 17.1482 27.2345 17.3005 27.3868L20.7886 30.8749C21.3088 31.3951 22.0143 31.6873 22.7499 31.6873C23.4856 31.6873 24.1911 31.3951 24.7113 30.8749L33.3547 22.2315C33.8622 23.4231 34.1241 24.7048 34.1249 25.9999C34.1249 26.4933 34.088 26.9859 34.0144 27.4738L35.6208 27.7175C35.97 25.4263 35.6072 23.0831 34.5816 21.0047L36.3244 19.2618C36.4767 19.1095 36.5623 18.9029 36.5623 18.6874C36.5623 18.472 36.4767 18.2653 36.3244 18.113L33.8869 15.6755C33.7345 15.5231 33.5279 15.4376 33.3124 15.4376C33.097 15.4376 32.8904 15.5231 32.738 15.6755L31.3706 17.0429C29.7885 15.8097 27.9082 15.0171 25.9207 14.7457C23.9332 14.4742 21.9092 14.7336 20.0544 15.4974C18.1995 16.2612 16.5798 17.5022 15.3598 19.0945C14.1397 20.6868 13.3628 22.5736 13.1078 24.5633C12.8529 26.5529 13.129 28.5747 13.9081 30.4231C14.6873 32.2716 15.9417 33.8809 17.5441 35.0877C19.1464 36.2945 21.0396 37.0558 23.0313 37.2943C25.023 37.5327 27.0424 37.2399 28.8843 36.4454L28.2392 34.9545ZM33.3124 17.3988L34.6011 18.6874L23.5624 29.726C23.342 29.9319 23.0516 30.0465 22.7499 30.0465C22.4483 30.0465 22.1579 29.9319 21.9374 29.726L19.0238 26.8124L20.3124 25.5238L22.1755 27.3868C22.3279 27.5392 22.5345 27.6247 22.7499 27.6247C22.9654 27.6247 23.172 27.5392 23.3244 27.3868L33.3124 17.3988Z" fill="url(#paint0_linear_4751_795)"/>
<path d="M45.5001 38.1873H44.6876V35.7498C44.6863 34.5135 44.3713 33.2977 43.7721 32.2163C43.1728 31.1348 42.3089 30.2232 41.2613 29.5667C42.4541 25.7625 43.0615 21.799 43.0626 17.8122V12.1873C43.0626 11.9718 42.977 11.7651 42.8246 11.6128C42.6723 11.4604 42.4656 11.3748 42.2501 11.3748C38.9068 11.3821 35.618 10.528 32.7006 8.89503C29.7833 7.26202 27.3357 4.90507 25.5939 2.05135L25.0698 1.19904C24.9919 1.08823 24.8885 0.99779 24.7683 0.935357C24.6481 0.872925 24.5146 0.840332 24.3792 0.840332C24.2437 0.840332 24.1103 0.872925 23.9901 0.935357C23.8699 0.99779 23.7665 1.08823 23.6886 1.19904L23.1564 2.05135C21.4145 4.90507 18.967 7.26202 16.0496 8.89503C13.1323 10.528 9.84344 11.3821 6.50013 11.3748C6.28464 11.3748 6.07798 11.4604 5.92561 11.6128C5.77323 11.7651 5.68763 11.9718 5.68763 12.1873V17.8122C5.67046 24.4453 7.33565 30.9744 10.5275 36.789C13.7193 42.6036 18.3336 47.5138 23.9388 51.0605C24.0692 51.1435 24.2206 51.1876 24.3751 51.1876C24.5297 51.1876 24.6811 51.1435 24.8114 51.0605C26.0683 50.2583 27.2789 49.3859 28.4376 48.4475V50.3748C28.4376 50.5903 28.5232 50.7969 28.6756 50.9493C28.828 51.1017 29.0346 51.1873 29.2501 51.1873H45.5001C45.7156 51.1873 45.9223 51.1017 46.0746 50.9493C46.227 50.7969 46.3126 50.5903 46.3126 50.3748V38.9998C46.3126 38.7843 46.227 38.5776 46.0746 38.4253C45.9223 38.2729 45.7156 38.1873 45.5001 38.1873ZM43.0626 35.7498V38.1873H41.4376V35.7498C41.4376 34.6724 41.0096 33.639 40.2477 32.8772C39.4859 32.1153 38.4526 31.6873 37.3751 31.6873C36.2977 31.6873 35.2644 32.1153 34.5025 32.8772C33.7406 33.639 33.3126 34.6724 33.3126 35.7498V38.1873H31.6876V35.7498C31.6876 34.2414 32.2868 32.7947 33.3535 31.7281C34.4201 30.6615 35.8667 30.0623 37.3751 30.0623C38.8835 30.0623 40.3302 30.6615 41.3968 31.7281C42.4634 32.7947 43.0626 34.2414 43.0626 35.7498ZM39.8126 38.1873H34.9376V35.7498C34.9376 35.1033 35.1944 34.4833 35.6516 34.0262C36.1087 33.5691 36.7287 33.3123 37.3751 33.3123C38.0216 33.3123 38.6416 33.5691 39.0987 34.0262C39.5558 34.4833 39.8126 35.1033 39.8126 35.7498V38.1873ZM24.3751 49.4079C19.122 45.982 14.8091 41.2966 11.829 35.7782C8.84896 30.2599 7.29639 24.0838 7.31263 17.8122V12.9835C10.7409 12.8605 14.0872 11.9021 17.0608 10.1916C20.0344 8.48108 22.5453 6.07021 24.3751 3.16854C26.205 6.07021 28.7158 8.48108 31.6894 10.1916C34.663 11.9021 38.0094 12.8605 41.4376 12.9835V17.8122C41.4366 21.5541 40.8785 25.275 39.7817 28.8525C38.6803 28.4641 37.5017 28.346 36.3451 28.5079C35.1885 28.6698 34.0876 29.1071 33.1352 29.7831C32.1828 30.459 31.4065 31.3537 30.8719 32.392C30.3372 33.4304 30.0597 34.5819 30.0626 35.7498V38.1873H29.2501C29.0346 38.1873 28.828 38.2729 28.6756 38.4253C28.5232 38.5776 28.4376 38.7843 28.4376 38.9998V46.3123C27.1545 47.4342 25.7972 48.4684 24.3751 49.4079ZM44.6876 49.5623H30.0626V39.8123H44.6876V49.5623Z" fill="url(#paint1_linear_4751_795)"/>
<path d="M36.5625 46.1628V47.9373H38.1875V46.1628C38.7296 45.9712 39.1865 45.594 39.4775 45.0981C39.7684 44.6021 39.8746 44.0193 39.7774 43.4526C39.6802 42.8858 39.3857 42.3717 38.9461 42.0011C38.5065 41.6305 37.95 41.4272 37.375 41.4272C36.8 41.4272 36.2435 41.6305 35.8039 42.0011C35.3643 42.3717 35.0698 42.8858 34.9726 43.4526C34.8754 44.0193 34.9816 44.6021 35.2726 45.0981C35.5635 45.594 36.0204 45.9712 36.5625 46.1628ZM37.375 43.0623C37.5357 43.0623 37.6928 43.11 37.8264 43.1993C37.96 43.2886 38.0642 43.4154 38.1257 43.5639C38.1871 43.7124 38.2032 43.8757 38.1719 44.0334C38.1405 44.191 38.0632 44.3357 37.9495 44.4494C37.8359 44.563 37.6911 44.6404 37.5335 44.6717C37.3759 44.7031 37.2125 44.687 37.0641 44.6255C36.9156 44.564 36.7887 44.4599 36.6994 44.3262C36.6102 44.1926 36.5625 44.0355 36.5625 43.8748C36.5625 43.6594 36.6481 43.4527 36.8005 43.3003C36.9529 43.1479 37.1595 43.0623 37.375 43.0623Z" fill="url(#paint2_linear_4751_795)"/>
<defs>
<linearGradient id="paint0_linear_4751_795" x1="24.7889" y1="14.6411" x2="24.7889" y2="37.3749" gradientUnits="userSpaceOnUse">
<stop stop-color="#2D3C6C"/>
<stop offset="0.53125" stop-color="#2D3C6C" stop-opacity="0.85"/>
<stop offset="1" stop-color="#2D3C6C"/>
</linearGradient>
<linearGradient id="paint1_linear_4751_795" x1="26.0001" y1="0.840332" x2="26.0001" y2="51.1876" gradientUnits="userSpaceOnUse">
<stop stop-color="#2D3C6C"/>
<stop offset="0.53125" stop-color="#2D3C6C" stop-opacity="0.85"/>
<stop offset="1" stop-color="#2D3C6C"/>
</linearGradient>
<linearGradient id="paint2_linear_4751_795" x1="37.375" y1="41.4272" x2="37.375" y2="47.9373" gradientUnits="userSpaceOnUse">
<stop stop-color="#2D3C6C"/>
<stop offset="0.53125" stop-color="#2D3C6C" stop-opacity="0.85"/>
<stop offset="1" stop-color="#2D3C6C"/>
</linearGradient>
</defs>
</svg>
