<svg width="94" height="94" viewBox="0 0 94 94" fill="none" xmlns="http://www.w3.org/2000/svg">
<g filter="url(#filter0_d_257_1808)">
<rect x="7" y="6.99805" width="80" height="80" rx="40" fill="#8F9ECE"/>
</g>
<g filter="url(#filter1_ii_257_1808)">
<circle cx="47.0006" cy="46.9976" r="34.2857" fill="#41527F"/>
<circle cx="47.0006" cy="46.9976" r="34.2857" stroke="white"/>
</g>
<g clip-path="url(#clip0_257_1808)">
<path d="M47.0016 37.9588C47.3091 37.9588 47.5582 37.7096 47.5582 37.4022V37.0394C48.2851 36.8824 48.8521 36.355 48.9745 35.6693C49.085 35.0504 48.8041 34.2418 47.6845 33.8288L47.4882 33.7565C46.9683 33.5652 46.7073 33.4693 46.4688 33.3394C46.3613 33.2808 46.3484 33.1751 46.3565 33.0967C46.3711 32.955 46.4748 32.7771 46.7216 32.7027C47.344 32.5153 47.9218 32.9706 47.9388 32.9843C48.174 33.1795 48.5232 33.1483 48.7201 32.914C48.9179 32.6786 48.8876 32.3275 48.6522 32.1297C48.6249 32.1068 48.1917 31.7499 47.5582 31.6046V31.2305C47.5582 30.9231 47.309 30.6738 47.0015 30.6738C46.694 30.6738 46.4449 30.9231 46.4449 31.2305V31.6247C46.43 31.6289 46.4153 31.6324 46.4004 31.6368C45.7657 31.828 45.3138 32.3561 45.249 32.9822C45.191 33.5431 45.4544 34.0546 45.9362 34.3171C46.8478 34.8135 47.9785 34.9129 47.8785 35.4736C47.8344 35.7203 47.5337 35.9753 47.1069 35.9753C46.6672 35.9753 46.244 35.7981 45.9749 35.5012C45.7686 35.2734 45.4166 35.2562 45.1886 35.4626C44.9609 35.669 44.9436 36.0211 45.1501 36.2488C45.4837 36.617 45.9427 36.8809 46.4448 37.0062V37.4022C46.445 37.7096 46.6941 37.9588 47.0016 37.9588V37.9588Z" fill="#D4DDF1"/>
<path d="M41.6326 60.1101C41.4983 59.8336 41.1651 59.7183 40.8888 59.8528C40.6122 59.9872 40.4971 60.3202 40.6314 60.5968L40.8752 61.0984C37.594 59.9879 34.7189 58.0307 32.4809 55.3792C32.9307 54.9109 33.2082 54.2758 33.2082 53.5767C33.2082 52.1408 32.04 50.9727 30.6041 50.9727C29.1682 50.9727 28 52.1409 28 53.5768C28 55.0127 29.1682 56.1809 30.6041 56.1809C30.9377 56.1809 31.2564 56.1171 31.5498 56.0024C33.9602 58.894 37.081 61.0162 40.6487 62.1968L40.1039 62.5654C39.8492 62.7377 39.7824 63.0837 39.9547 63.3384C40.1269 63.593 40.4729 63.6598 40.7276 63.4876L42.2444 62.4617C42.4738 62.3065 42.5542 62.0063 42.4331 61.7572L41.6326 60.1101ZM29.1133 53.5768C29.1133 52.7547 29.7821 52.086 30.6041 52.086C31.4261 52.086 32.0949 52.7548 32.0949 53.5768C32.0949 54.3988 31.4261 55.0676 30.6041 55.0676C29.7821 55.0676 29.1133 54.3988 29.1133 53.5768V53.5768Z" fill="#D4DDF1"/>
<path d="M60.4123 56.8543L58.5915 56.6604C58.2864 56.6279 58.0116 56.8493 57.979 57.155C57.9465 57.4607 58.1679 57.7348 58.4736 57.7674L59.0288 57.8266C56.2849 60.0735 53.0195 61.4864 49.4955 61.9474C49.1742 60.8736 48.1776 60.0885 47.0006 60.0885C45.5647 60.0885 44.3965 61.2567 44.3965 62.6925C44.3965 64.1284 45.5647 65.2966 47.0006 65.2966C48.3119 65.2966 49.3994 64.3222 49.5784 63.0595C53.379 62.5741 56.897 61.0434 59.8396 58.6002L59.8635 59.258C59.8744 59.5583 60.1213 59.7945 60.4194 59.7944C60.4262 59.7944 60.4331 59.7944 60.4399 59.7941C60.7472 59.7829 60.9872 59.5249 60.9761 59.2176L60.9096 57.3877C60.8996 57.1109 60.6876 56.8836 60.4123 56.8543V56.8543ZM47.0006 64.1834C46.1786 64.1834 45.5098 63.5146 45.5098 62.6926C45.5098 61.8706 46.1786 61.2018 47.0006 61.2018C47.8226 61.2018 48.4914 61.8706 48.4914 62.6926C48.4914 63.5146 47.8226 64.1834 47.0006 64.1834V64.1834Z" fill="#D4DDF1"/>
<path d="M63.3971 50.9727C61.9612 50.9727 60.793 52.1409 60.793 53.5767C60.793 55.0126 61.9612 56.1808 63.3971 56.1808C64.833 56.1808 66.0011 55.0127 66.0011 53.5768C66.0011 52.1409 64.833 50.9727 63.3971 50.9727ZM63.3971 55.0676C62.575 55.0676 61.9063 54.3988 61.9063 53.5768C61.9063 52.7547 62.575 52.086 63.3971 52.086C64.2191 52.086 64.8878 52.7548 64.8878 53.5768C64.8878 54.3988 64.2191 55.0676 63.3971 55.0676Z" fill="#D4DDF1"/>
<path d="M37.4843 55.4634C40.233 57.5803 43.5236 58.6993 47.0004 58.6993C50.4773 58.6993 53.7679 57.5803 56.5165 55.4635C56.9258 55.1482 57.189 54.6715 57.2385 54.1553C57.2884 53.6359 57.1193 53.1138 56.7743 52.723C54.4228 50.0586 51.0891 48.475 47.5572 48.3238V46.7333C48.2304 45.7925 49.1071 44.9897 50.1049 44.4007C50.1393 44.4236 50.1746 44.4456 50.2115 44.4651C50.819 44.7871 51.4794 44.9476 52.1388 44.9476C52.8461 44.9476 53.5521 44.7628 54.1898 44.3947C55.422 43.6834 56.1883 42.4086 56.2399 40.9847C56.2571 40.5068 55.9954 40.0533 55.5729 39.8295C54.3141 39.1622 52.8269 39.1885 51.5947 39.8999C50.3625 40.6113 49.5962 41.886 49.5446 43.3099C49.543 43.3526 49.5445 43.395 49.5473 43.4372C48.819 43.8662 48.1472 44.3953 47.5572 45.0024V39.9059C50.3942 39.6256 52.6179 37.226 52.6179 34.3165C52.6179 33.7088 52.5213 33.1109 52.3308 32.5392C52.2335 32.2475 51.918 32.09 51.6268 32.1871C51.3351 32.2844 51.1775 32.5996 51.2747 32.8912C51.4273 33.3491 51.5047 33.8286 51.5047 34.3165C51.5047 36.8 49.4842 38.8205 47.0007 38.8205C44.5172 38.8205 42.4966 36.8 42.4966 34.3165C42.4966 31.833 44.5172 29.8125 47.0007 29.8125C48.1206 29.8125 49.1941 30.2261 50.0233 30.9773C50.251 31.1837 50.6031 31.1663 50.8096 30.9385C51.016 30.7106 50.9986 30.3586 50.7707 30.1522C49.7361 29.2153 48.3972 28.6992 47.0004 28.6992C43.9031 28.6992 41.3831 31.2192 41.3831 34.3165C41.3831 37.226 43.6067 39.6256 46.4438 39.9059V45.0024C45.8538 44.3953 45.1821 43.8662 44.4537 43.4372C44.4565 43.395 44.458 43.3526 44.4564 43.3099C44.4049 41.886 43.6385 40.6113 42.4064 39.8999C41.174 39.1886 39.6869 39.1624 38.4282 39.8295C38.0057 40.0534 37.7438 40.5069 37.7612 40.9848C37.8128 42.4087 38.5791 43.6834 39.8112 44.3948C40.4489 44.763 41.1549 44.9477 41.8623 44.9476C42.5216 44.9476 43.1821 44.7871 43.7894 44.4652C43.8264 44.4456 43.8617 44.4237 43.8961 44.4007C44.894 44.9897 45.7707 45.7926 46.4439 46.7333V48.3228C45.3122 48.3704 44.1972 48.563 43.122 48.8977C42.8285 48.9891 42.6646 49.3012 42.7559 49.5947C42.8473 49.8882 43.1592 50.0521 43.4529 49.9607C44.5968 49.6046 45.7903 49.424 47.0005 49.424C50.418 49.424 53.6762 50.8949 55.9396 53.4596C56.0835 53.6226 56.1512 53.8319 56.1303 54.0489C56.1098 54.2625 56.0057 54.4517 55.8373 54.5814C53.2851 56.547 50.2293 57.586 47.0005 57.586C43.7717 57.586 40.7159 56.5471 38.1637 54.5814C37.9953 54.4516 37.8912 54.2625 37.8707 54.0489C37.8499 53.8319 37.9176 53.6226 38.0614 53.4596C38.9599 52.4416 40.0149 51.5904 41.1971 50.93C41.4655 50.78 41.5615 50.4409 41.4116 50.1726C41.2616 49.9041 40.9225 49.8081 40.6541 49.9581C39.3618 50.6801 38.2087 51.6103 37.2267 52.723C36.8818 53.1138 36.7126 53.6359 36.7625 54.1553C36.812 54.6715 37.0752 55.1482 37.4843 55.4634V55.4634ZM52.1511 40.864C52.6158 40.5958 53.1302 40.4613 53.6458 40.4613C54.1266 40.4613 54.6084 40.5784 55.0514 40.8132C55.0993 40.8387 55.1291 40.8902 55.1272 40.9445C55.0895 41.9828 54.531 42.9122 53.633 43.4307C52.9136 43.846 52.0747 43.94 51.2973 43.711L53.7002 42.3238C53.9664 42.1701 54.0576 41.8296 53.9039 41.5634C53.7503 41.2971 53.4097 41.206 53.1435 41.3597L50.7405 42.747C50.9308 41.9592 51.4316 41.2795 52.1511 40.864V40.864ZM40.3679 43.4307C39.4698 42.9123 38.9113 41.9828 38.8737 40.9445C38.8718 40.8902 38.9015 40.8387 38.9495 40.8131C39.3925 40.5783 39.8742 40.4613 40.355 40.4613C40.8705 40.4613 41.385 40.5958 41.8497 40.864C42.5693 41.2795 43.07 41.9591 43.2603 42.747L40.8573 41.3597C40.5908 41.2059 40.2505 41.2972 40.0969 41.5634C39.9432 41.8296 40.0344 42.1701 40.3006 42.3238L42.7035 43.711C41.9262 43.94 41.0873 43.8459 40.3679 43.4307Z" fill="#D4DDF1"/>
</g>
<defs>
<filter id="filter0_d_257_1808" x="0.878693" y="0.87674" width="92.2426" height="92.2426" filterUnits="userSpaceOnUse" color-interpolation-filters="sRGB">
<feFlood flood-opacity="0" result="BackgroundImageFix"/>
<feColorMatrix in="SourceAlpha" type="matrix" values="0 0 0 0 0 0 0 0 0 0 0 0 0 0 0 0 0 0 127 0" result="hardAlpha"/>
<feOffset/>
<feGaussianBlur stdDeviation="3.06065"/>
<feComposite in2="hardAlpha" operator="out"/>
<feColorMatrix type="matrix" values="0 0 0 0 0.0941176 0 0 0 0 0.137255 0 0 0 0 0.282353 0 0 0 0.6 0"/>
<feBlend mode="normal" in2="BackgroundImageFix" result="effect1_dropShadow_257_1808"/>
<feBlend mode="normal" in="SourceGraphic" in2="effect1_dropShadow_257_1808" result="shape"/>
</filter>
<filter id="filter1_ii_257_1808" x="11.4291" y="11.4262" width="71.1437" height="71.1427" filterUnits="userSpaceOnUse" color-interpolation-filters="sRGB">
<feFlood flood-opacity="0" result="BackgroundImageFix"/>
<feBlend mode="normal" in="SourceGraphic" in2="BackgroundImageFix" result="shape"/>
<feColorMatrix in="SourceAlpha" type="matrix" values="0 0 0 0 0 0 0 0 0 0 0 0 0 0 0 0 0 0 127 0" result="hardAlpha"/>
<feOffset dx="-1.28571" dy="-1.28571"/>
<feGaussianBlur stdDeviation="2.57143"/>
<feComposite in2="hardAlpha" operator="arithmetic" k2="-1" k3="1"/>
<feColorMatrix type="matrix" values="0 0 0 0 1 0 0 0 0 1 0 0 0 0 1 0 0 0 0.177256 0"/>
<feBlend mode="normal" in2="shape" result="effect1_innerShadow_257_1808"/>
<feColorMatrix in="SourceAlpha" type="matrix" values="0 0 0 0 0 0 0 0 0 0 0 0 0 0 0 0 0 0 127 0" result="hardAlpha"/>
<feOffset dx="1.28571" dy="1.28571"/>
<feGaussianBlur stdDeviation="3.21429"/>
<feComposite in2="hardAlpha" operator="arithmetic" k2="-1" k3="1"/>
<feColorMatrix type="matrix" values="0 0 0 0 0.184314 0 0 0 0 0.239216 0 0 0 0 0.415686 0 0 0 1 0"/>
<feBlend mode="normal" in2="effect1_innerShadow_257_1808" result="effect2_innerShadow_257_1808"/>
</filter>
<clipPath id="clip0_257_1808">
<rect width="38" height="38" fill="white" transform="translate(28 27.998)"/>
</clipPath>
</defs>
</svg>
