<svg width="16" height="17" viewBox="0 0 16 17" fill="none" xmlns="http://www.w3.org/2000/svg">
<path d="M8 5.16699V9.16699L9.66667 10.8337" stroke="#2D3C6C" stroke-linecap="round" stroke-linejoin="round"/>
<path d="M3.96583 4.05861C4.94195 3.17219 6.159 2.59513 7.46309 2.40039C8.76717 2.20566 10.0997 2.40201 11.2922 2.96461C12.4847 3.52721 13.4836 4.43079 14.1625 5.56108C14.8415 6.69138 15.17 7.99763 15.1066 9.31464C15.0432 10.6317 14.5906 11.9003 13.8062 12.9601C13.0218 14.0199 11.9407 14.8233 10.6997 15.2687C9.45862 15.7141 8.11338 15.7815 6.83404 15.4624C5.5547 15.1432 4.39873 14.4519 3.51231 13.4758" stroke="#2D3C6C" stroke-linecap="round" stroke-linejoin="round"/>
<path d="M2.67188 3.43262L3.48099 4.79652L5.05758 4.96758" stroke="#2D3C6C" stroke-linecap="round" stroke-linejoin="round"/>
</svg>
