<svg width="52" height="52" viewBox="0 0 52 52" fill="none" xmlns="http://www.w3.org/2000/svg">
<path d="M21.8848 50.8529C22.421 50.9415 22.9703 51.0154 23.5179 51.0666L23.6804 49.4497C23.1663 49.3993 22.6575 49.3324 22.1537 49.249L21.8848 50.8529Z" fill="url(#paint0_linear_4751_894)"/>
<path d="M4.52022 16.3002L3.03984 15.6299C2.81397 16.1288 2.60272 16.6406 2.41016 17.1541L3.93197 17.7229C4.11343 17.2413 4.30951 16.7671 4.52022 16.3002Z" fill="url(#paint1_linear_4751_894)"/>
<path d="M7.76461 11.0758L6.50767 10.0464C6.16101 10.4705 5.82707 10.906 5.50586 11.3529L6.82455 12.2994C7.12626 11.8818 7.43961 11.4739 7.76461 11.0758Z" fill="url(#paint2_linear_4751_894)"/>
<path d="M5.97189 13.581L4.59064 12.7246C4.30139 13.1904 4.02704 13.666 3.76758 14.1514L5.20083 14.9167C5.44404 14.4628 5.70106 14.0176 5.97189 13.581Z" fill="url(#paint3_linear_4751_894)"/>
<path d="M9.86875 8.82638L8.75644 7.6377C8.35912 8.01063 7.9675 8.40307 7.59375 8.80363L8.78163 9.91269C9.13154 9.54003 9.49392 9.17792 9.86875 8.82638Z" fill="url(#paint4_linear_4751_894)"/>
<path d="M20.597 3.05997L20.2248 1.47803C19.6875 1.60478 19.1575 1.74778 18.6348 1.90703L19.1085 3.46134C19.5987 3.31184 20.0948 3.17805 20.597 3.05997Z" fill="url(#paint5_linear_4751_894)"/>
<path d="M2.74416 22.1851L1.13703 21.9243C1.04928 22.4627 0.978865 23.0071 0.925781 23.5574L2.54347 23.7126C2.59547 23.1986 2.66237 22.6894 2.74416 22.1851Z" fill="url(#paint6_linear_4751_894)"/>
<path d="M23.6338 2.55438L23.4713 0.9375C22.9221 0.991667 22.3783 1.06398 21.8398 1.15444L22.1055 2.7575C22.6098 2.67354 23.1193 2.60583 23.6338 2.55438Z" fill="url(#paint7_linear_4751_894)"/>
<path d="M14.8542 5.23501L14.0848 3.8042C13.6016 4.06366 13.1274 4.33882 12.6621 4.6297L13.5234 6.01095C13.9583 5.73741 14.4019 5.47876 14.8542 5.23501Z" fill="url(#paint8_linear_4751_894)"/>
<path d="M12.2448 6.86703L11.2941 5.54834C10.8489 5.86955 10.4156 6.20457 9.99414 6.5534L11.0276 7.80709C11.422 7.48155 11.8277 7.16819 12.2448 6.86703Z" fill="url(#paint9_linear_4751_894)"/>
<path d="M17.6532 3.95931L17.0772 2.4375C16.5631 2.6325 16.0569 2.84375 15.5586 3.07125L16.2338 4.55C16.6985 4.33875 17.1717 4.14185 17.6532 3.95931Z" fill="url(#paint10_linear_4751_894)"/>
<path d="M3.43808 19.1856L1.88214 18.7168C1.72452 19.239 1.58477 19.7709 1.46289 20.3125L3.04564 20.679C3.15939 20.1736 3.2902 19.6758 3.43808 19.1856Z" fill="url(#paint11_linear_4751_894)"/>
<path d="M12.6895 47.3874C13.1547 47.6772 13.6303 47.9524 14.1162 48.2129L14.8832 46.7805C14.4298 46.5373 13.9854 46.2797 13.5499 46.0078L12.6895 47.3874Z" fill="url(#paint12_linear_4751_894)"/>
<path d="M2.4375 25.9999C2.4375 25.7485 2.44156 25.4988 2.44969 25.2507L0.824687 25.1987C0.816562 25.462 0.8125 25.729 0.8125 25.9999C0.8125 26.2834 0.8125 26.5686 0.826312 26.8465L2.45131 26.792C2.44156 26.5288 2.4375 26.2655 2.4375 25.9999Z" fill="url(#paint13_linear_4751_894)"/>
<path d="M7.61328 43.215C7.98866 43.6153 8.37649 44.0034 8.77678 44.3793L9.88828 43.1939C9.51399 42.8423 9.1508 42.4789 8.79872 42.1035L7.61328 43.215Z" fill="url(#paint14_linear_4751_894)"/>
<path d="M15.5938 48.9444C16.0902 49.1703 16.6029 49.3823 17.1164 49.5765L17.6892 48.0563C17.2076 47.8743 16.7331 47.6772 16.2657 47.4648L15.5938 48.9444Z" fill="url(#paint15_linear_4751_894)"/>
<path d="M18.6777 50.1059C19.201 50.2646 19.7313 50.4065 20.2686 50.5317L20.6367 48.9489C20.1345 48.8324 19.6387 48.6997 19.149 48.5508L18.6777 50.1059Z" fill="url(#paint16_linear_4751_894)"/>
<path d="M10.0156 45.4667C10.4398 45.815 10.875 46.1498 11.3213 46.471L12.2687 45.1507C11.8511 44.8511 11.4448 44.5381 11.0499 44.2114L10.0156 45.4667Z" fill="url(#paint17_linear_4751_894)"/>
<path d="M2.55047 28.3286L0.933594 28.4911C0.98776 29.0404 1.05926 29.5845 1.14809 30.1234L2.75116 29.8602C2.66828 29.3537 2.60138 28.8432 2.55047 28.3286Z" fill="url(#paint18_linear_4751_894)"/>
<path d="M3.05069 31.3623L1.46875 31.7328C1.59387 32.2696 1.73579 32.7996 1.8945 33.3229L3.44962 32.8516C3.30067 32.3641 3.16769 31.8677 3.05069 31.3623Z" fill="url(#paint19_linear_4751_894)"/>
<path d="M6.84489 39.7256L5.52539 40.6738C5.8466 41.119 6.18081 41.554 6.52802 41.9786L7.78414 40.95C7.4586 40.5514 7.14552 40.1432 6.84489 39.7256Z" fill="url(#paint20_linear_4751_894)"/>
<path d="M3.94597 34.3125L2.42578 34.8869C2.62024 35.4004 2.83041 35.9066 3.05628 36.4055L4.53584 35.7336C4.32405 35.2677 4.12743 34.794 3.94597 34.3125Z" fill="url(#paint21_linear_4751_894)"/>
<path d="M5.21759 37.1143L3.78516 37.8804C4.04191 38.3606 4.31897 38.84 4.60903 39.3056L5.99028 38.4451C5.71782 38.0113 5.46026 37.5676 5.21759 37.1143Z" fill="url(#paint22_linear_4751_894)"/>
<path d="M44.525 8.9375H46.3125V7.3125H42.25C42.0345 7.3125 41.8278 7.3981 41.6755 7.55048C41.5231 7.70285 41.4375 7.90951 41.4375 8.125V12.1875H43.0625V9.75975C46.2429 13.0981 48.3736 17.2965 49.1904 21.8344C50.0072 26.3724 49.4743 31.0502 47.6576 35.2881C45.8409 39.5259 42.8204 43.1375 38.9706 45.6749C35.1207 48.2123 30.6108 49.564 26 49.5625V51.1875C30.8939 51.1887 35.6822 49.764 39.7793 47.0875C43.8765 44.411 47.1051 40.5987 49.0703 36.1167C51.0355 31.6346 51.6521 26.6771 50.8449 21.8502C50.0377 17.0234 47.8416 12.5362 44.525 8.9375Z" fill="url(#paint23_linear_4751_894)"/>
<path d="M5.6875 26C5.6875 30.0174 6.87881 33.9446 9.11077 37.285C11.3427 40.6254 14.5151 43.2289 18.2267 44.7663C21.9384 46.3037 26.0225 46.706 29.9628 45.9222C33.903 45.1384 37.5224 43.2039 40.3631 40.3631C43.2039 37.5224 45.1384 33.903 45.9222 29.9628C46.706 26.0225 46.3037 21.9384 44.7663 18.2267C43.2289 14.5151 40.6254 11.3427 37.285 9.11077C33.9446 6.87881 30.0174 5.6875 26 5.6875C20.6146 5.69352 15.4516 7.83552 11.6435 11.6435C7.83552 15.4516 5.69352 20.6146 5.6875 26ZM26 7.3125C29.696 7.3125 33.3091 8.4085 36.3822 10.4619C39.4554 12.5153 41.8506 15.4339 43.265 18.8486C44.6794 22.2633 45.0495 26.0207 44.3284 29.6457C43.6074 33.2708 41.8275 36.6006 39.2141 39.2141C36.6006 41.8275 33.2708 43.6074 29.6457 44.3284C26.0207 45.0495 22.2633 44.6794 18.8486 43.265C15.4339 41.8506 12.5153 39.4554 10.4619 36.3822C8.4085 33.3091 7.3125 29.696 7.3125 26C7.31809 21.0455 9.28874 16.2955 12.7921 12.7921C16.2955 9.28874 21.0455 7.31809 26 7.3125Z" fill="url(#paint24_linear_4751_894)"/>
<path d="M14.625 24.375V23.9688C14.625 23.6455 14.7534 23.3355 14.982 23.107C15.2105 22.8784 15.5205 22.75 15.8438 22.75C16.167 22.75 16.477 22.8784 16.7055 23.107C16.9341 23.3355 17.0625 23.6455 17.0625 23.9688C17.062 24.5661 16.8525 25.1445 16.4702 25.6035L13.1885 29.5425C13.0897 29.6611 13.0267 29.8054 13.007 29.9586C12.9872 30.1117 13.0115 30.2673 13.077 30.4071C13.1425 30.5469 13.2464 30.6652 13.3767 30.748C13.5069 30.8309 13.6581 30.8749 13.8125 30.875H18.6875V29.25H15.5472L17.719 26.6435C18.3444 25.8924 18.6871 24.9461 18.6875 23.9688C18.6875 23.2145 18.3879 22.4912 17.8546 21.9579C17.3213 21.4246 16.598 21.125 15.8438 21.125C15.0895 21.125 14.3662 21.4246 13.8329 21.9579C13.2996 22.4912 13 23.2145 13 23.9688V24.375H14.625Z" fill="url(#paint25_linear_4751_894)"/>
<path d="M20.3125 29.25H23.5625V30.875H25.1875V29.25H26.8125V27.625H25.1875V21.9375C25.1875 21.7611 25.1301 21.5894 25.0239 21.4485C24.9177 21.3076 24.7686 21.2051 24.599 21.1565C24.4294 21.1078 24.2486 21.1157 24.0839 21.1789C23.9192 21.2422 23.7795 21.3573 23.686 21.5069L19.6235 28.0069C19.5466 28.1299 19.5041 28.2712 19.5003 28.4162C19.4965 28.5612 19.5315 28.7045 19.6019 28.8314C19.6722 28.9582 19.7751 29.064 19.9001 29.1376C20.0251 29.2112 20.1675 29.25 20.3125 29.25ZM23.5625 24.7707V27.625H21.775L23.5625 24.7707Z" fill="url(#paint26_linear_4751_894)"/>
<path d="M27.6543 30.6895L30.0964 20.9411L31.6726 21.336L29.2305 31.0843L27.6543 30.6895Z" fill="url(#paint27_linear_4751_894)"/>
<path d="M34.125 22.75H36.8168C35.5809 25.2313 34.9376 27.9656 34.9375 30.7377V30.875H36.5625V30.7377C36.5627 27.7851 37.365 24.888 38.8838 22.3559C38.9579 22.2327 38.9979 22.0919 38.9998 21.9481C39.0017 21.8043 38.9654 21.6626 38.8946 21.5375C38.8237 21.4123 38.721 21.3082 38.5968 21.2357C38.4725 21.1632 38.3313 21.125 38.1875 21.125H33.3125C33.097 21.125 32.8903 21.2106 32.738 21.363C32.5856 21.5153 32.5 21.722 32.5 21.9375V23.5625H34.125V22.75Z" fill="url(#paint28_linear_4751_894)"/>
<defs>
<linearGradient id="paint0_linear_4751_894" x1="22.7826" y1="49.249" x2="22.7826" y2="51.0666" gradientUnits="userSpaceOnUse">
<stop stop-color="#2D3C6C"/>
<stop offset="0.53125" stop-color="#2D3C6C" stop-opacity="0.85"/>
<stop offset="1" stop-color="#2D3C6C"/>
</linearGradient>
<linearGradient id="paint1_linear_4751_894" x1="3.46519" y1="15.6299" x2="3.46519" y2="17.7229" gradientUnits="userSpaceOnUse">
<stop stop-color="#2D3C6C"/>
<stop offset="0.53125" stop-color="#2D3C6C" stop-opacity="0.85"/>
<stop offset="1" stop-color="#2D3C6C"/>
</linearGradient>
<linearGradient id="paint2_linear_4751_894" x1="6.63523" y1="10.0464" x2="6.63523" y2="12.2994" gradientUnits="userSpaceOnUse">
<stop stop-color="#2D3C6C"/>
<stop offset="0.53125" stop-color="#2D3C6C" stop-opacity="0.85"/>
<stop offset="1" stop-color="#2D3C6C"/>
</linearGradient>
<linearGradient id="paint3_linear_4751_894" x1="4.86973" y1="12.7246" x2="4.86973" y2="14.9167" gradientUnits="userSpaceOnUse">
<stop stop-color="#2D3C6C"/>
<stop offset="0.53125" stop-color="#2D3C6C" stop-opacity="0.85"/>
<stop offset="1" stop-color="#2D3C6C"/>
</linearGradient>
<linearGradient id="paint4_linear_4751_894" x1="8.73125" y1="7.6377" x2="8.73125" y2="9.91269" gradientUnits="userSpaceOnUse">
<stop stop-color="#2D3C6C"/>
<stop offset="0.53125" stop-color="#2D3C6C" stop-opacity="0.85"/>
<stop offset="1" stop-color="#2D3C6C"/>
</linearGradient>
<linearGradient id="paint5_linear_4751_894" x1="19.6159" y1="1.47803" x2="19.6159" y2="3.46134" gradientUnits="userSpaceOnUse">
<stop stop-color="#2D3C6C"/>
<stop offset="0.53125" stop-color="#2D3C6C" stop-opacity="0.85"/>
<stop offset="1" stop-color="#2D3C6C"/>
</linearGradient>
<linearGradient id="paint6_linear_4751_894" x1="1.83497" y1="21.9243" x2="1.83497" y2="23.7126" gradientUnits="userSpaceOnUse">
<stop stop-color="#2D3C6C"/>
<stop offset="0.53125" stop-color="#2D3C6C" stop-opacity="0.85"/>
<stop offset="1" stop-color="#2D3C6C"/>
</linearGradient>
<linearGradient id="paint7_linear_4751_894" x1="22.7368" y1="0.9375" x2="22.7368" y2="2.7575" gradientUnits="userSpaceOnUse">
<stop stop-color="#2D3C6C"/>
<stop offset="0.53125" stop-color="#2D3C6C" stop-opacity="0.85"/>
<stop offset="1" stop-color="#2D3C6C"/>
</linearGradient>
<linearGradient id="paint8_linear_4751_894" x1="13.7582" y1="3.8042" x2="13.7582" y2="6.01095" gradientUnits="userSpaceOnUse">
<stop stop-color="#2D3C6C"/>
<stop offset="0.53125" stop-color="#2D3C6C" stop-opacity="0.85"/>
<stop offset="1" stop-color="#2D3C6C"/>
</linearGradient>
<linearGradient id="paint9_linear_4751_894" x1="11.1195" y1="5.54834" x2="11.1195" y2="7.80709" gradientUnits="userSpaceOnUse">
<stop stop-color="#2D3C6C"/>
<stop offset="0.53125" stop-color="#2D3C6C" stop-opacity="0.85"/>
<stop offset="1" stop-color="#2D3C6C"/>
</linearGradient>
<linearGradient id="paint10_linear_4751_894" x1="16.6059" y1="2.4375" x2="16.6059" y2="4.55" gradientUnits="userSpaceOnUse">
<stop stop-color="#2D3C6C"/>
<stop offset="0.53125" stop-color="#2D3C6C" stop-opacity="0.85"/>
<stop offset="1" stop-color="#2D3C6C"/>
</linearGradient>
<linearGradient id="paint11_linear_4751_894" x1="2.45048" y1="18.7168" x2="2.45048" y2="20.679" gradientUnits="userSpaceOnUse">
<stop stop-color="#2D3C6C"/>
<stop offset="0.53125" stop-color="#2D3C6C" stop-opacity="0.85"/>
<stop offset="1" stop-color="#2D3C6C"/>
</linearGradient>
<linearGradient id="paint12_linear_4751_894" x1="13.7863" y1="46.0078" x2="13.7863" y2="48.2129" gradientUnits="userSpaceOnUse">
<stop stop-color="#2D3C6C"/>
<stop offset="0.53125" stop-color="#2D3C6C" stop-opacity="0.85"/>
<stop offset="1" stop-color="#2D3C6C"/>
</linearGradient>
<linearGradient id="paint13_linear_4751_894" x1="1.63191" y1="25.1987" x2="1.63191" y2="26.8465" gradientUnits="userSpaceOnUse">
<stop stop-color="#2D3C6C"/>
<stop offset="0.53125" stop-color="#2D3C6C" stop-opacity="0.85"/>
<stop offset="1" stop-color="#2D3C6C"/>
</linearGradient>
<linearGradient id="paint14_linear_4751_894" x1="8.75078" y1="42.1035" x2="8.75078" y2="44.3793" gradientUnits="userSpaceOnUse">
<stop stop-color="#2D3C6C"/>
<stop offset="0.53125" stop-color="#2D3C6C" stop-opacity="0.85"/>
<stop offset="1" stop-color="#2D3C6C"/>
</linearGradient>
<linearGradient id="paint15_linear_4751_894" x1="16.6415" y1="47.4648" x2="16.6415" y2="49.5765" gradientUnits="userSpaceOnUse">
<stop stop-color="#2D3C6C"/>
<stop offset="0.53125" stop-color="#2D3C6C" stop-opacity="0.85"/>
<stop offset="1" stop-color="#2D3C6C"/>
</linearGradient>
<linearGradient id="paint16_linear_4751_894" x1="19.6572" y1="48.5508" x2="19.6572" y2="50.5317" gradientUnits="userSpaceOnUse">
<stop stop-color="#2D3C6C"/>
<stop offset="0.53125" stop-color="#2D3C6C" stop-opacity="0.85"/>
<stop offset="1" stop-color="#2D3C6C"/>
</linearGradient>
<linearGradient id="paint17_linear_4751_894" x1="11.1422" y1="44.2114" x2="11.1422" y2="46.471" gradientUnits="userSpaceOnUse">
<stop stop-color="#2D3C6C"/>
<stop offset="0.53125" stop-color="#2D3C6C" stop-opacity="0.85"/>
<stop offset="1" stop-color="#2D3C6C"/>
</linearGradient>
<linearGradient id="paint18_linear_4751_894" x1="1.84237" y1="28.3286" x2="1.84237" y2="30.1234" gradientUnits="userSpaceOnUse">
<stop stop-color="#2D3C6C"/>
<stop offset="0.53125" stop-color="#2D3C6C" stop-opacity="0.85"/>
<stop offset="1" stop-color="#2D3C6C"/>
</linearGradient>
<linearGradient id="paint19_linear_4751_894" x1="2.45919" y1="31.3623" x2="2.45919" y2="33.3229" gradientUnits="userSpaceOnUse">
<stop stop-color="#2D3C6C"/>
<stop offset="0.53125" stop-color="#2D3C6C" stop-opacity="0.85"/>
<stop offset="1" stop-color="#2D3C6C"/>
</linearGradient>
<linearGradient id="paint20_linear_4751_894" x1="6.65477" y1="39.7256" x2="6.65477" y2="41.9786" gradientUnits="userSpaceOnUse">
<stop stop-color="#2D3C6C"/>
<stop offset="0.53125" stop-color="#2D3C6C" stop-opacity="0.85"/>
<stop offset="1" stop-color="#2D3C6C"/>
</linearGradient>
<linearGradient id="paint21_linear_4751_894" x1="3.48081" y1="34.3125" x2="3.48081" y2="36.4055" gradientUnits="userSpaceOnUse">
<stop stop-color="#2D3C6C"/>
<stop offset="0.53125" stop-color="#2D3C6C" stop-opacity="0.85"/>
<stop offset="1" stop-color="#2D3C6C"/>
</linearGradient>
<linearGradient id="paint22_linear_4751_894" x1="4.88772" y1="37.1143" x2="4.88772" y2="39.3056" gradientUnits="userSpaceOnUse">
<stop stop-color="#2D3C6C"/>
<stop offset="0.53125" stop-color="#2D3C6C" stop-opacity="0.85"/>
<stop offset="1" stop-color="#2D3C6C"/>
</linearGradient>
<linearGradient id="paint23_linear_4751_894" x1="38.5949" y1="7.3125" x2="38.5949" y2="51.1875" gradientUnits="userSpaceOnUse">
<stop stop-color="#2D3C6C"/>
<stop offset="0.53125" stop-color="#2D3C6C" stop-opacity="0.85"/>
<stop offset="1" stop-color="#2D3C6C"/>
</linearGradient>
<linearGradient id="paint24_linear_4751_894" x1="26" y1="5.6875" x2="26" y2="46.3125" gradientUnits="userSpaceOnUse">
<stop stop-color="#2D3C6C"/>
<stop offset="0.53125" stop-color="#2D3C6C" stop-opacity="0.85"/>
<stop offset="1" stop-color="#2D3C6C"/>
</linearGradient>
<linearGradient id="paint25_linear_4751_894" x1="15.8438" y1="21.125" x2="15.8438" y2="30.875" gradientUnits="userSpaceOnUse">
<stop stop-color="#2D3C6C"/>
<stop offset="0.53125" stop-color="#2D3C6C" stop-opacity="0.85"/>
<stop offset="1" stop-color="#2D3C6C"/>
</linearGradient>
<linearGradient id="paint26_linear_4751_894" x1="23.1562" y1="21.125" x2="23.1562" y2="30.875" gradientUnits="userSpaceOnUse">
<stop stop-color="#2D3C6C"/>
<stop offset="0.53125" stop-color="#2D3C6C" stop-opacity="0.85"/>
<stop offset="1" stop-color="#2D3C6C"/>
</linearGradient>
<linearGradient id="paint27_linear_4751_894" x1="28.8753" y1="25.8153" x2="30.4516" y2="26.2102" gradientUnits="userSpaceOnUse">
<stop stop-color="#2D3C6C"/>
<stop offset="0.53125" stop-color="#2D3C6C" stop-opacity="0.85"/>
<stop offset="1" stop-color="#2D3C6C"/>
</linearGradient>
<linearGradient id="paint28_linear_4751_894" x1="35.7499" y1="21.125" x2="35.7499" y2="30.875" gradientUnits="userSpaceOnUse">
<stop stop-color="#2D3C6C"/>
<stop offset="0.53125" stop-color="#2D3C6C" stop-opacity="0.85"/>
<stop offset="1" stop-color="#2D3C6C"/>
</linearGradient>
</defs>
</svg>
