<svg width="40" height="59" viewBox="0 0 40 59" fill="none" xmlns="http://www.w3.org/2000/svg">
<circle cx="20" cy="38.999" r="19.3" stroke="white" stroke-width="1.4" stroke-linejoin="round"/>
<path fill-rule="evenodd" clip-rule="evenodd" d="M20.6916 0.8C20.6916 0.358172 20.3334 0 19.8916 0C19.4498 0 19.0916 0.358172 19.0916 0.8V1.8L19.0916 35.8C19.0916 35.8002 19.0916 35.8004 19.0916 35.8005V40.8686L15.3661 37.1431C15.0537 36.8307 14.5472 36.8307 14.2347 37.1431C13.9223 37.4556 13.9223 37.9621 14.2347 38.2745L19.3259 43.3657C19.6383 43.6781 20.1449 43.6781 20.4573 43.3657L25.5485 38.2745C25.8609 37.9621 25.8609 37.4556 25.5485 37.1431C25.236 36.8307 24.7295 36.8307 24.4171 37.1431L20.6916 40.8686V35.8L20.6916 1.8V0.8Z" fill="white"/>
</svg>
