<svg width="24" height="24" viewBox="0 0 24 24" fill="none" xmlns="http://www.w3.org/2000/svg">
<g clip-path="url(#clip0_4700_711)">
<path d="M23.6294 2.38412C23.3363 2.0256 22.8972 1.82822 22.3929 1.82822C22.1188 1.82822 21.8284 1.88589 21.5299 1.99997L1.21439 9.75504C0.136268 10.1665 -0.00893449 10.7839 0.000403879 11.1153C0.00974225 11.4467 0.189735 12.055 1.28947 12.4049C1.29606 12.407 1.30265 12.409 1.30924 12.4108L5.52323 13.6167L7.80216 20.1335C8.11289 21.0219 8.81034 21.5738 9.6226 21.5738C10.1347 21.5738 10.6385 21.3592 11.0794 20.9534L13.6859 18.5534L17.4665 21.5976C17.4668 21.5979 17.4674 21.5981 17.4677 21.5985L17.5036 21.6274C17.5069 21.63 17.5104 21.6327 17.5137 21.6353C17.9339 21.9612 18.3926 22.1333 18.8407 22.1335H18.8409C19.7163 22.1335 20.4134 21.4855 20.6164 20.4828L23.9451 4.04654C24.0788 3.38681 23.9667 2.79648 23.6294 2.38412V2.38412ZM6.93296 13.3877L15.063 9.23428L10.0007 14.6134C9.91776 14.7014 9.85899 14.8093 9.83005 14.9267L8.85392 18.8806L6.93296 13.3877ZM10.1267 19.9189C10.093 19.9498 10.0591 19.9774 10.0252 20.0029L10.9309 16.3349L12.5783 17.6615L10.1267 19.9189ZM22.5669 3.7673L19.2382 20.2038C19.2062 20.3611 19.1038 20.7271 18.8407 20.7271C18.7107 20.7271 18.5473 20.6562 18.3802 20.5275L14.0962 17.0782C14.0957 17.0776 14.0949 17.0771 14.0942 17.0767L11.5452 15.0241L18.8659 7.24521C19.1003 6.99619 19.1216 6.61478 18.9163 6.34122C18.7109 6.06766 18.3386 5.9816 18.0341 6.13724L5.99345 12.2885L1.72214 11.0664L22.0315 3.31375C22.203 3.2482 22.3228 3.23447 22.3929 3.23447C22.436 3.23447 22.5125 3.23959 22.5409 3.27457C22.5782 3.32016 22.6258 3.47562 22.5669 3.7673V3.7673Z" fill="#8F9ECE"/>
</g>
<defs>
<clipPath id="clip0_4700_711">
<rect width="24" height="24" fill="white"/>
</clipPath>
</defs>
</svg>
