<svg width="66" height="65" viewBox="0 0 66 65" fill="none" xmlns="http://www.w3.org/2000/svg">
<path d="M65.2728 32.5441C65.2728 14.7725 50.8661 0.365711 33.0944 0.365711C15.3228 0.365711 0.916016 14.7725 0.916016 32.5441C0.916016 50.3158 15.3228 64.7225 33.0944 64.7225C50.8661 64.7225 65.2728 50.3158 65.2728 32.5441Z" fill="url(#paint0_radial_5023_2873)"/>
<path opacity="0.6" d="M39.6374 1.01234C56.9643 4.72523 68.1029 21.7427 64.6995 39.0695C60.9866 56.3963 43.9691 67.535 26.6423 64.1315C9.31548 60.4186 -1.8232 43.4012 1.58028 26.0744C5.29317 8.43812 22.3106 -2.70055 39.6374 1.01234Z" fill="url(#paint1_radial_5023_2873)"/>
<g opacity="0.5">
<g filter="url(#filter0_i_5023_2873)">
<path d="M18.1354 33.7634C17.1433 33.8669 19.4012 50.6255 35.1042 47.9703C38.2517 47.4186 40.5781 45.3841 41.2623 44.7634C44.1703 42.1772 46.5993 37.7634 46.0861 34.2462C46.0861 34.2462 19.5381 33.6255 18.1354 33.7634Z" fill="url(#paint2_radial_5023_2873)"/>
</g>
<g filter="url(#filter1_i_5023_2873)">
<path d="M38.6964 18.7293C38.4569 17.8672 38.3201 17.4879 38.2517 17.1086C37.9438 14.5569 39.6201 12.9017 42.0834 13.5569C44.9229 14.3155 47.2835 15.9362 48.9598 18.3845C50.7046 20.9362 49.6441 23.0741 46.565 23.419C45.2308 23.5569 44.8545 24.5914 45.6755 26.0741C48.0019 30.3845 48.3782 34.9017 46.7703 39.5224C44.4097 46.2121 38.0122 50.419 30.9647 49.9707C24.3277 49.5914 18.4091 44.488 16.8354 37.8673C13.9616 25.7638 24.8408 15.212 36.6095 18.6948C37.1911 18.8672 37.8411 18.7293 38.6964 18.7293ZM17.417 35.0742C17.588 39.5569 19.6065 43.2121 23.096 45.9707C29.5278 51.0397 38.8333 49.7983 43.7939 43.2811C48.994 36.5224 47.694 26.9707 40.886 21.7293C34.42 16.7638 25.2172 18.1431 20.2907 24.8672C19.5381 25.9017 18.2038 28.7293 18.1012 28.9362C17.6564 30.0052 17.3828 33.9362 17.417 35.0742ZM44.5466 23.8672C45.1624 22.5914 45.744 21.35 46.3256 20.1431C43.2465 16.6603 41.6728 16.4534 39.3122 19.3155C41.057 20.8327 42.7676 22.3155 44.5466 23.8672ZM46.5308 22.6259C48.4809 22.4879 49.2677 21.4879 48.8572 19.8327C48.2756 17.4534 43.2807 13.9362 40.8517 14.281C40.3044 14.35 39.8596 14.9707 39.3464 15.35C42.357 15.8327 45.4703 17.5224 47.2151 19.7638C48.1046 20.9362 48.2072 21.9017 46.5308 22.6259Z" fill="url(#paint3_linear_5023_2873)"/>
</g>
<path d="M18.1685 33.0391C18.579 32.5563 19.229 32.4529 20.8027 32.4874C23.4712 32.5218 24.6002 32.8322 26.1055 32.9356C27.0976 33.0046 28.9451 32.3149 32.3662 31.7287C32.3662 31.7287 38.5927 29.9701 44.2033 31.8667C45.0244 32.1425 45.4007 32.5563 45.5718 32.7632C45.5718 32.7632 46.1876 33.2115 46.1534 34.315C46.0507 36.5908 37.4295 40.1081 27.8845 39.5908C24.8055 39.4184 20.7343 38.1425 19.058 35.9701C18.579 35.3494 17.45 33.8667 18.1685 33.0391Z" fill="url(#paint4_linear_5023_2873)"/>
<g filter="url(#filter2_i_5023_2873)">
<path d="M37.4862 26.5459C36.2879 27.4304 34.6214 27.1617 33.757 25.9683C32.8845 24.7641 33.1447 23.0969 34.3324 22.2204C35.5283 21.3547 37.1948 21.6234 38.0673 22.8276C38.9667 24.0454 38.7165 25.6374 37.4862 26.5459Z" fill="#999BC8"/>
</g>
<g filter="url(#filter3_i_5023_2873)">
<path d="M41.236 29.8343C40.4752 30.3958 39.4174 30.2252 38.8686 29.4676C38.3148 28.7032 38.4799 27.6449 39.2339 27.0885C39.993 26.5389 41.0509 26.7095 41.6048 27.4739C42.1757 28.247 42.0169 29.2576 41.236 29.8343Z" fill="#999BC8"/>
</g>
<g filter="url(#filter4_i_5023_2873)">
<path d="M27.9245 45.0101C27.3861 45.4075 26.6373 45.2868 26.2489 44.7506C25.8569 44.2096 25.9738 43.4605 26.5075 43.0667C27.0448 42.6777 27.7935 42.7984 28.1855 43.3395C28.5896 43.8866 28.4772 44.6019 27.9245 45.0101Z" fill="#5A5885"/>
</g>
<g filter="url(#filter5_i_5023_2873)">
<path d="M39.0475 42.2899C38.4127 42.7584 37.5301 42.616 37.0722 41.9839C36.6101 41.3461 36.7479 40.4631 37.377 39.9988C38.0104 39.5403 38.8931 39.6826 39.3552 40.3204C39.8316 40.9654 39.6991 41.8087 39.0475 42.2899Z" fill="#5A5885"/>
</g>
<g filter="url(#filter6_i_5023_2873)">
<path d="M30.7343 45.1028C30.3869 45.3592 29.9038 45.2813 29.6532 44.9354C29.4003 44.5863 29.4757 44.103 29.82 43.8488C30.1667 43.5979 30.6498 43.6758 30.9028 44.0249C31.1635 44.3779 31.091 44.8394 30.7343 45.1028Z" fill="#5A5885"/>
</g>
<g filter="url(#filter7_i_5023_2873)">
<path d="M35.0625 44.9406C34.715 45.197 34.2319 45.1191 33.9813 44.7731C33.7284 44.424 33.8038 43.9407 34.1481 43.6866C34.4948 43.4356 34.9779 43.5135 35.2309 43.8626C35.4916 44.2157 35.4191 44.6772 35.0625 44.9406Z" fill="#5A5885"/>
</g>
<g filter="url(#filter8_i_5023_2873)">
<path d="M32.0916 46.9085C31.8032 47.1214 31.402 47.0567 31.194 46.7695C30.984 46.4796 31.0466 46.0783 31.3325 45.8673C31.6203 45.6589 32.0215 45.7236 32.2315 46.0135C32.448 46.3066 32.3877 46.6898 32.0916 46.9085Z" fill="#5A5885"/>
</g>
<g filter="url(#filter9_i_5023_2873)">
<path d="M37.0584 46.4567C36.77 46.6696 36.3688 46.6049 36.1608 46.3177C35.9508 46.0278 36.0134 45.6265 36.2993 45.4155C36.5871 45.2072 36.9883 45.2718 37.1983 45.5617C37.4148 45.8548 37.3545 46.238 37.0584 46.4567Z" fill="#5A5885"/>
</g>
</g>
<path opacity="0.79" d="M26.537 64.2804C9.30232 60.5355 -1.77711 43.3713 1.60827 25.895C5.30142 8.41873 22.2283 -2.81604 39.463 0.616807C56.6977 4.36173 67.7771 21.5259 64.3917 39.0022C60.6986 56.7906 43.7717 68.0254 26.537 64.2804Z" fill="url(#paint5_radial_5023_2873)"/>
<g filter="url(#filter10_f_5023_2873)">
<path d="M16.7006 16.466C16.1169 19.4884 17.0097 22.9065 19.9467 24.6017C20.9446 25.0961 21.6748 25.7459 22.9404 26.085C23.7842 26.3111 24.6847 26.3253 25.5852 26.3396C26.6967 26.4103 27.7107 26.0009 28.7248 25.5914C28.4571 25.7467 28.457 25.7467 28.1893 25.902C29.7388 25.1819 31.4424 24.7302 32.6835 23.4733C33.8679 22.4283 34.4761 21.0019 34.8735 19.519C36.2765 15.1267 33.2337 10.4514 29.0149 9.32095C23.7983 7.69609 17.6005 10.5766 16.7006 16.466Z" fill="white"/>
</g>
<defs>
<filter id="filter0_i_5023_2873" x="17.9355" y="33.7434" width="28.2188" height="14.9638" filterUnits="userSpaceOnUse" color-interpolation-filters="sRGB">
<feFlood flood-opacity="0" result="BackgroundImageFix"/>
<feBlend mode="normal" in="SourceGraphic" in2="BackgroundImageFix" result="shape"/>
<feColorMatrix in="SourceAlpha" type="matrix" values="0 0 0 0 0 0 0 0 0 0 0 0 0 0 0 0 0 0 127 0" result="hardAlpha"/>
<feOffset dy="0.451682"/>
<feGaussianBlur stdDeviation="0.451682"/>
<feComposite in2="hardAlpha" operator="arithmetic" k2="-1" k3="1"/>
<feColorMatrix type="matrix" values="0 0 0 0 0.178351 0 0 0 0 0.160417 0 0 0 0 0.366667 0 0 0 1 0"/>
<feBlend mode="normal" in2="shape" result="effect1_innerShadow_5023_2873"/>
</filter>
<filter id="filter1_i_5023_2873" x="16.3691" y="13.4132" width="33.4297" height="37.0419" filterUnits="userSpaceOnUse" color-interpolation-filters="sRGB">
<feFlood flood-opacity="0" result="BackgroundImageFix"/>
<feBlend mode="normal" in="SourceGraphic" in2="BackgroundImageFix" result="shape"/>
<feColorMatrix in="SourceAlpha" type="matrix" values="0 0 0 0 0 0 0 0 0 0 0 0 0 0 0 0 0 0 127 0" result="hardAlpha"/>
<feOffset dy="0.451682"/>
<feGaussianBlur stdDeviation="0.451682"/>
<feComposite in2="hardAlpha" operator="arithmetic" k2="-1" k3="1"/>
<feColorMatrix type="matrix" values="0 0 0 0 0.178351 0 0 0 0 0.160417 0 0 0 0 0.366667 0 0 0 1 0"/>
<feBlend mode="normal" in2="shape" result="effect1_innerShadow_5023_2873"/>
</filter>
<filter id="filter2_i_5023_2873" x="33.2402" y="21.7133" width="5.36523" height="5.80678" filterUnits="userSpaceOnUse" color-interpolation-filters="sRGB">
<feFlood flood-opacity="0" result="BackgroundImageFix"/>
<feBlend mode="normal" in="SourceGraphic" in2="BackgroundImageFix" result="shape"/>
<feColorMatrix in="SourceAlpha" type="matrix" values="0 0 0 0 0 0 0 0 0 0 0 0 0 0 0 0 0 0 127 0" result="hardAlpha"/>
<feOffset dy="0.451682"/>
<feGaussianBlur stdDeviation="0.451682"/>
<feComposite in2="hardAlpha" operator="arithmetic" k2="-1" k3="1"/>
<feColorMatrix type="matrix" values="0 0 0 0 0.178351 0 0 0 0 0.160417 0 0 0 0 0.366667 0 0 0 1 0"/>
<feBlend mode="normal" in2="shape" result="effect1_innerShadow_5023_2873"/>
</filter>
<filter id="filter3_i_5023_2873" x="38.541" y="26.7665" width="3.40625" height="3.85122" filterUnits="userSpaceOnUse" color-interpolation-filters="sRGB">
<feFlood flood-opacity="0" result="BackgroundImageFix"/>
<feBlend mode="normal" in="SourceGraphic" in2="BackgroundImageFix" result="shape"/>
<feColorMatrix in="SourceAlpha" type="matrix" values="0 0 0 0 0 0 0 0 0 0 0 0 0 0 0 0 0 0 127 0" result="hardAlpha"/>
<feOffset dy="0.451682"/>
<feGaussianBlur stdDeviation="0.451682"/>
<feComposite in2="hardAlpha" operator="arithmetic" k2="-1" k3="1"/>
<feColorMatrix type="matrix" values="0 0 0 0 0.178351 0 0 0 0 0.160417 0 0 0 0 0.366667 0 0 0 1 0"/>
<feBlend mode="normal" in2="shape" result="effect1_innerShadow_5023_2873"/>
</filter>
<filter id="filter4_i_5023_2873" x="26.0176" y="42.8387" width="2.41016" height="2.85781" filterUnits="userSpaceOnUse" color-interpolation-filters="sRGB">
<feFlood flood-opacity="0" result="BackgroundImageFix"/>
<feBlend mode="normal" in="SourceGraphic" in2="BackgroundImageFix" result="shape"/>
<feColorMatrix in="SourceAlpha" type="matrix" values="0 0 0 0 0 0 0 0 0 0 0 0 0 0 0 0 0 0 127 0" result="hardAlpha"/>
<feOffset dy="0.451682"/>
<feGaussianBlur stdDeviation="0.451682"/>
<feComposite in2="hardAlpha" operator="arithmetic" k2="-1" k3="1"/>
<feColorMatrix type="matrix" values="0 0 0 0 0.178351 0 0 0 0 0.160417 0 0 0 0 0.366667 0 0 0 1 0"/>
<feBlend mode="normal" in2="shape" result="effect1_innerShadow_5023_2873"/>
</filter>
<filter id="filter5_i_5023_2873" x="36.7988" y="39.7302" width="2.8418" height="3.28811" filterUnits="userSpaceOnUse" color-interpolation-filters="sRGB">
<feFlood flood-opacity="0" result="BackgroundImageFix"/>
<feBlend mode="normal" in="SourceGraphic" in2="BackgroundImageFix" result="shape"/>
<feColorMatrix in="SourceAlpha" type="matrix" values="0 0 0 0 0 0 0 0 0 0 0 0 0 0 0 0 0 0 127 0" result="hardAlpha"/>
<feOffset dy="0.451682"/>
<feGaussianBlur stdDeviation="0.451682"/>
<feComposite in2="hardAlpha" operator="arithmetic" k2="-1" k3="1"/>
<feColorMatrix type="matrix" values="0 0 0 0 0.178351 0 0 0 0 0.160417 0 0 0 0 0.366667 0 0 0 1 0"/>
<feBlend mode="normal" in2="shape" result="effect1_innerShadow_5023_2873"/>
</filter>
<filter id="filter6_i_5023_2873" x="29.5039" y="43.7018" width="1.55469" height="2.00417" filterUnits="userSpaceOnUse" color-interpolation-filters="sRGB">
<feFlood flood-opacity="0" result="BackgroundImageFix"/>
<feBlend mode="normal" in="SourceGraphic" in2="BackgroundImageFix" result="shape"/>
<feColorMatrix in="SourceAlpha" type="matrix" values="0 0 0 0 0 0 0 0 0 0 0 0 0 0 0 0 0 0 127 0" result="hardAlpha"/>
<feOffset dy="0.451682"/>
<feGaussianBlur stdDeviation="0.451682"/>
<feComposite in2="hardAlpha" operator="arithmetic" k2="-1" k3="1"/>
<feColorMatrix type="matrix" values="0 0 0 0 0.178351 0 0 0 0 0.160417 0 0 0 0 0.366667 0 0 0 1 0"/>
<feBlend mode="normal" in2="shape" result="effect1_innerShadow_5023_2873"/>
</filter>
<filter id="filter7_i_5023_2873" x="33.832" y="43.5396" width="1.55469" height="2.00417" filterUnits="userSpaceOnUse" color-interpolation-filters="sRGB">
<feFlood flood-opacity="0" result="BackgroundImageFix"/>
<feBlend mode="normal" in="SourceGraphic" in2="BackgroundImageFix" result="shape"/>
<feColorMatrix in="SourceAlpha" type="matrix" values="0 0 0 0 0 0 0 0 0 0 0 0 0 0 0 0 0 0 127 0" result="hardAlpha"/>
<feOffset dy="0.451682"/>
<feGaussianBlur stdDeviation="0.451682"/>
<feComposite in2="hardAlpha" operator="arithmetic" k2="-1" k3="1"/>
<feColorMatrix type="matrix" values="0 0 0 0 0.178351 0 0 0 0 0.160417 0 0 0 0 0.366667 0 0 0 1 0"/>
<feBlend mode="normal" in2="shape" result="effect1_innerShadow_5023_2873"/>
</filter>
<filter id="filter8_i_5023_2873" x="31.0703" y="45.7452" width="1.29102" height="1.74074" filterUnits="userSpaceOnUse" color-interpolation-filters="sRGB">
<feFlood flood-opacity="0" result="BackgroundImageFix"/>
<feBlend mode="normal" in="SourceGraphic" in2="BackgroundImageFix" result="shape"/>
<feColorMatrix in="SourceAlpha" type="matrix" values="0 0 0 0 0 0 0 0 0 0 0 0 0 0 0 0 0 0 127 0" result="hardAlpha"/>
<feOffset dy="0.451682"/>
<feGaussianBlur stdDeviation="0.451682"/>
<feComposite in2="hardAlpha" operator="arithmetic" k2="-1" k3="1"/>
<feColorMatrix type="matrix" values="0 0 0 0 0.178351 0 0 0 0 0.160417 0 0 0 0 0.366667 0 0 0 1 0"/>
<feBlend mode="normal" in2="shape" result="effect1_innerShadow_5023_2873"/>
</filter>
<filter id="filter9_i_5023_2873" x="36.0371" y="45.2935" width="1.29102" height="1.74074" filterUnits="userSpaceOnUse" color-interpolation-filters="sRGB">
<feFlood flood-opacity="0" result="BackgroundImageFix"/>
<feBlend mode="normal" in="SourceGraphic" in2="BackgroundImageFix" result="shape"/>
<feColorMatrix in="SourceAlpha" type="matrix" values="0 0 0 0 0 0 0 0 0 0 0 0 0 0 0 0 0 0 127 0" result="hardAlpha"/>
<feOffset dy="0.451682"/>
<feGaussianBlur stdDeviation="0.451682"/>
<feComposite in2="hardAlpha" operator="arithmetic" k2="-1" k3="1"/>
<feColorMatrix type="matrix" values="0 0 0 0 0.178351 0 0 0 0 0.160417 0 0 0 0 0.366667 0 0 0 1 0"/>
<feBlend mode="normal" in2="shape" result="effect1_innerShadow_5023_2873"/>
</filter>
<filter id="filter10_f_5023_2873" x="8.70663" y="1.04757" width="34.3367" height="33.1246" filterUnits="userSpaceOnUse" color-interpolation-filters="sRGB">
<feFlood flood-opacity="0" result="BackgroundImageFix"/>
<feBlend mode="normal" in="SourceGraphic" in2="BackgroundImageFix" result="shape"/>
<feGaussianBlur stdDeviation="3.91231" result="effect1_foregroundBlur_5023_2873"/>
</filter>
<radialGradient id="paint0_radial_5023_2873" cx="0" cy="0" r="1" gradientUnits="userSpaceOnUse" gradientTransform="translate(17.2177 20.2635) rotate(-2.06719) scale(70.1766 58.2501)">
<stop offset="0.0001" stop-color="#E8EFFF"/>
<stop offset="0.317708" stop-color="#ECEBF1"/>
<stop offset="0.484375" stop-color="#D8E0F4"/>
<stop offset="0.635417" stop-color="#BFC8DB"/>
<stop offset="1" stop-color="#BCC1CB"/>
</radialGradient>
<radialGradient id="paint1_radial_5023_2873" cx="0" cy="0" r="1" gradientUnits="userSpaceOnUse" gradientTransform="translate(40.3883 33.0701) rotate(-78.3395) scale(44.5438)">
<stop offset="0.5433" stop-color="white" stop-opacity="0"/>
<stop offset="1" stop-color="white"/>
</radialGradient>
<radialGradient id="paint2_radial_5023_2873" cx="0" cy="0" r="1" gradientUnits="userSpaceOnUse" gradientTransform="translate(33.0687 35.551) rotate(55.6698) scale(11.2127 13.722)">
<stop stop-color="#9091C5"/>
<stop offset="1" stop-color="#54517E"/>
</radialGradient>
<linearGradient id="paint3_linear_5023_2873" x1="24.9383" y1="48.8756" x2="53.6593" y2="26.1143" gradientUnits="userSpaceOnUse">
<stop stop-color="#54517E"/>
<stop offset="0.640625" stop-color="#9091C5"/>
<stop offset="1" stop-color="#575480"/>
</linearGradient>
<linearGradient id="paint4_linear_5023_2873" x1="37.1327" y1="39.1644" x2="34.1968" y2="24.9364" gradientUnits="userSpaceOnUse">
<stop stop-color="#524E7C"/>
<stop offset="0.989583" stop-color="#9A9ECB"/>
</linearGradient>
<radialGradient id="paint5_radial_5023_2873" cx="0" cy="0" r="1" gradientUnits="userSpaceOnUse" gradientTransform="translate(25.7901 31.9461) rotate(101.504) scale(44.9029 44.3318)">
<stop offset="0.5625" stop-color="#6D71A2" stop-opacity="0"/>
<stop offset="0.78125" stop-color="#2D3F6D" stop-opacity="0.54"/>
<stop offset="0.958333" stop-color="white"/>
</radialGradient>
</defs>
</svg>
