<svg width="1488" height="1484" viewBox="0 0 1488 1484" fill="none" xmlns="http://www.w3.org/2000/svg">
<circle cx="755.521" cy="751.225" r="732.48" fill="url(#paint0_linear_4958_1471)"/>
<ellipse cx="726.525" cy="726.527" rx="726.525" ry="726.527" fill="url(#paint1_linear_4958_1471)"/>
<mask id="mask0_4958_1471" style="mask-type:alpha" maskUnits="userSpaceOnUse" x="0" y="0" width="1454" height="1454">
<ellipse cx="726.525" cy="726.527" rx="726.525" ry="726.527" fill="white"/>
</mask>
<g mask="url(#mask0_4958_1471)">
<rect x="-42.9316" y="-14.3107" width="1497.85" height="1497.85" fill="url(#paint2_linear_4958_1471)"/>
<g filter="url(#filter0_i_4958_1471)">
<path fill-rule="evenodd" clip-rule="evenodd" d="M1256.47 433.385C1258.54 424.606 1257.33 419.888 1255.83 417.299C1254.34 414.71 1250.86 411.3 1242.22 408.709C1233.46 406.082 1220.96 404.823 1204.39 405.642C1171.3 407.277 1126.18 416.941 1071.76 434.361C963.231 469.104 821.653 533.394 673.071 619.178C524.489 704.962 398.023 795.427 313.668 872.048C271.373 910.466 240.447 944.703 222.485 972.544C213.488 986.49 208.33 997.941 206.225 1006.84C204.149 1015.62 205.362 1020.34 206.857 1022.93C208.352 1025.52 211.832 1028.92 220.472 1031.52C229.231 1034.14 241.727 1035.4 258.303 1034.58C291.396 1032.95 336.508 1023.28 390.927 1005.86C499.46 971.121 641.039 906.831 789.62 821.047C938.202 735.263 1064.67 644.798 1149.02 568.177C1191.32 529.759 1222.24 495.523 1240.21 467.681C1249.2 453.735 1254.36 442.284 1256.47 433.385ZM799.161 837.572C1097.95 665.063 1309.81 472.629 1272.36 407.758C1234.91 342.887 962.324 430.145 663.531 602.653C364.737 775.162 152.879 967.596 190.332 1032.47C227.786 1097.34 500.367 1010.08 799.161 837.572Z" fill="white"/>
<path fill-rule="evenodd" clip-rule="evenodd" d="M745.592 121.982C739.028 115.795 734.335 114.486 731.346 114.486C728.356 114.486 723.663 115.795 717.099 121.982C710.444 128.254 703.106 138.447 695.527 153.211C680.397 182.688 666.21 226.588 654.087 282.426C629.909 393.79 614.796 548.546 614.796 720.113C614.796 891.681 629.909 1046.44 654.087 1157.8C666.21 1213.64 680.397 1257.54 695.527 1287.02C703.106 1301.78 710.444 1311.97 717.098 1318.24C723.663 1324.43 728.356 1325.74 731.345 1325.74C734.335 1325.74 739.028 1324.43 745.592 1318.24C752.247 1311.97 759.585 1301.78 767.164 1287.02C782.294 1257.54 796.481 1213.64 808.604 1157.8C832.782 1046.44 847.895 891.681 847.895 720.113C847.895 548.546 832.782 393.79 808.604 282.426C796.481 226.588 782.294 182.688 767.164 153.211C759.585 138.447 752.247 128.254 745.592 121.982ZM866.976 720.113C866.976 375.096 806.252 95.405 731.346 95.405C656.439 95.405 595.715 375.096 595.715 720.113C595.715 1065.13 656.439 1344.82 731.345 1344.82C806.252 1344.82 866.976 1065.13 866.976 720.113Z" fill="white"/>
<path fill-rule="evenodd" clip-rule="evenodd" d="M221.523 406.995C212.873 409.557 209.382 412.955 207.878 415.539C206.375 418.123 205.146 422.837 207.193 431.623C209.267 440.529 214.387 451.998 223.337 465.973C241.205 493.875 272.016 528.216 314.182 566.775C398.279 643.679 524.44 734.57 672.733 820.852C821.025 907.135 962.387 971.901 1070.8 1007.01C1125.16 1024.61 1170.24 1034.43 1203.33 1036.17C1219.9 1037.05 1232.4 1035.83 1241.17 1033.23C1249.82 1030.67 1253.31 1027.27 1254.81 1024.69C1256.32 1022.11 1257.55 1017.39 1255.5 1008.61C1253.43 999.699 1248.31 988.231 1239.36 974.255C1221.49 946.353 1190.68 912.013 1148.51 873.453C1064.41 796.549 938.252 705.659 789.96 619.376C641.667 533.093 500.306 468.328 391.89 433.22C337.53 415.617 292.45 405.801 259.363 404.055C242.79 403.181 230.29 404.397 221.523 406.995ZM799.556 602.884C501.344 429.372 229.057 341.198 191.386 405.943C153.715 470.688 364.925 663.833 663.137 837.345C961.348 1010.86 1233.64 1099.03 1271.31 1034.29C1308.98 969.541 1097.77 776.396 799.556 602.884Z" fill="white"/>
<path d="M1085.45 844.302C1085.45 820.591 1104.67 801.37 1128.39 801.37C1152.1 801.37 1171.32 820.591 1171.32 844.302C1171.32 868.013 1152.1 887.234 1128.39 887.234C1104.67 887.234 1085.45 868.013 1085.45 844.302Z" fill="white"/>
<path d="M780.159 310.037C780.159 286.326 799.38 267.105 823.091 267.105C846.801 267.105 866.023 286.326 866.023 310.037C866.023 333.747 846.801 352.969 823.091 352.969C799.38 352.969 780.159 333.747 780.159 310.037Z" fill="white"/>
<path d="M374.689 1001.72C374.689 978.009 393.911 958.788 417.621 958.788C441.332 958.788 460.553 978.009 460.553 1001.72C460.553 1025.43 441.332 1044.65 417.621 1044.65C393.911 1044.65 374.689 1025.43 374.689 1001.72Z" fill="white"/>
</g>
<g filter="url(#filter1_i_4958_1471)">
<circle cx="725.074" cy="720.304" r="81.0938" transform="rotate(-180 725.074 720.304)" fill="#FEFEFF"/>
</g>
</g>
<defs>
<filter id="filter0_i_4958_1471" x="186.041" y="95.405" width="1090.61" height="1250.42" filterUnits="userSpaceOnUse" color-interpolation-filters="sRGB">
<feFlood flood-opacity="0" result="BackgroundImageFix"/>
<feBlend mode="normal" in="SourceGraphic" in2="BackgroundImageFix" result="shape"/>
<feColorMatrix in="SourceAlpha" type="matrix" values="0 0 0 0 0 0 0 0 0 0 0 0 0 0 0 0 0 0 127 0" result="hardAlpha"/>
<feOffset dy="1"/>
<feGaussianBlur stdDeviation="1"/>
<feComposite in2="hardAlpha" operator="arithmetic" k2="-1" k3="1"/>
<feColorMatrix type="matrix" values="0 0 0 0 0.527431 0 0 0 0 0.637866 0 0 0 0 0.816667 0 0 0 1 0"/>
<feBlend mode="normal" in2="shape" result="effect1_innerShadow_4958_1471"/>
</filter>
<filter id="filter1_i_4958_1471" x="641.98" y="637.21" width="164.188" height="164.188" filterUnits="userSpaceOnUse" color-interpolation-filters="sRGB">
<feFlood flood-opacity="0" result="BackgroundImageFix"/>
<feBlend mode="normal" in="SourceGraphic" in2="BackgroundImageFix" result="shape"/>
<feColorMatrix in="SourceAlpha" type="matrix" values="0 0 0 0 0 0 0 0 0 0 0 0 0 0 0 0 0 0 127 0" result="hardAlpha"/>
<feOffset dx="-2" dy="-2"/>
<feGaussianBlur stdDeviation="5"/>
<feComposite in2="hardAlpha" operator="arithmetic" k2="-1" k3="1"/>
<feColorMatrix type="matrix" values="0 0 0 0 0.627451 0 0 0 0 0.713726 0 0 0 0 0.854902 0 0 0 1 0"/>
<feBlend mode="normal" in2="shape" result="effect1_innerShadow_4958_1471"/>
</filter>
<linearGradient id="paint0_linear_4958_1471" x1="1505.55" y1="18.7456" x2="-243.942" y2="487.708" gradientUnits="userSpaceOnUse">
<stop stop-color="#6E82B1"/>
<stop offset="0.75" stop-color="#D7E4F4"/>
<stop offset="1" stop-color="#E4E8F3"/>
</linearGradient>
<linearGradient id="paint1_linear_4958_1471" x1="1319.99" y1="1185.19" x2="917.72" y2="-73.8722" gradientUnits="userSpaceOnUse">
<stop stop-color="#D7E4F4"/>
<stop offset="0.536458" stop-color="#E4E8F3"/>
<stop offset="0.994792" stop-color="white"/>
</linearGradient>
<linearGradient id="paint2_linear_4958_1471" x1="-66.7828" y1="-14.3107" x2="705.994" y2="1483.54" gradientUnits="userSpaceOnUse">
<stop offset="0.271399" stop-color="#FBFBFD"/>
<stop offset="0.717256" stop-color="#D6D7F1"/>
<stop offset="1" stop-color="#B6CBED"/>
</linearGradient>
</defs>
</svg>
