<svg width="351" height="351" viewBox="0 0 351 351" fill="none" xmlns="http://www.w3.org/2000/svg">
<path d="M162.973 350.91C252.974 350.91 325.934 278.486 325.934 189.147C325.934 99.8079 252.974 27.3842 162.973 27.3842C72.9719 27.3842 0.0117188 99.8079 0.0117188 189.147C0.0117188 278.486 72.9719 350.91 162.973 350.91Z" fill="url(#paint0_linear_4961_1479)"/>
<path d="M162.973 350.91C252.974 350.91 325.934 278.486 325.934 189.147C325.934 99.8079 252.974 27.3842 162.973 27.3842C72.9719 27.3842 0.0117188 99.8079 0.0117188 189.147C0.0117188 278.486 72.9719 350.91 162.973 350.91Z" fill="url(#paint1_linear_4961_1479)"/>
<path opacity="0.49" d="M162.973 350.91C252.974 350.91 325.934 278.486 325.934 189.147C325.934 99.8079 252.974 27.3842 162.973 27.3842C72.9719 27.3842 0.0117188 99.8079 0.0117188 189.147C0.0117188 278.486 72.9719 350.91 162.973 350.91Z" fill="url(#paint2_radial_4961_1479)"/>
<path opacity="0.31" d="M295.76 177.637C284.896 189.38 268.72 190.817 253.51 189.14C245.302 188.181 237.335 186.743 229.368 185.306C219.47 183.628 207.64 181.232 199.673 188.9C193.396 195.131 191.223 203.998 187.843 211.907C184.705 219.096 180.359 225.806 175.048 231.558C166.115 240.904 154.285 245.697 141.49 245.218C114.45 244.259 90.0664 227.723 64.4754 220.534C52.6457 217.179 39.6088 214.543 27.2962 217.179C22.7091 218.137 19.0877 220.055 15.9492 222.451C31.1589 289.313 91.2735 339.16 163.218 339.16C246.509 339.16 314.108 272.058 314.108 189.38C314.108 177.158 312.659 165.415 310.004 154.151C306.624 162.539 302.037 170.687 295.76 177.637Z" fill="url(#paint3_linear_4961_1479)"/>
<g filter="url(#filter0_f_4961_1479)">
<path d="M273.171 88.2736C257.594 68.4885 243.674 60.4821 220.082 51.6759C192.128 41.2413 148.041 43.2624 143.834 46.7752C139.528 50.3512 181.604 55.3784 203.441 66.5392C249.836 90.2508 294.612 161.145 296.33 162.31C301.938 166.082 291.912 112.076 273.171 88.2736Z" fill="#FA9A63"/>
</g>
<g filter="url(#filter1_f_4961_1479)">
<path d="M203.685 312.791C235.581 300.824 251.613 286.162 272.642 259.361C297.561 227.602 313.038 169.937 310.235 163.072C307.392 156.054 283.652 208.236 260.306 231.811C210.707 281.897 100.945 310.542 98.7384 312.279C91.5759 317.962 165.312 327.188 203.685 312.791Z" fill="#FF5A23"/>
</g>
<g opacity="0.4" filter="url(#filter2_f_4961_1479)">
<path d="M76.812 166.541C86.9907 180.626 107.039 188.909 130.693 180.736C138.369 177.656 145.262 176.471 153.721 171.497C159.361 168.181 164.374 163.8 169.387 159.419C175.811 154.209 179.571 147.697 183.332 141.185C182.548 143.08 182.548 143.08 181.765 144.974C187.093 134.674 194.457 124.61 195.712 113.837C197.594 104.129 194.619 95.8429 190.235 88.3858C178.492 65.1855 141.055 62.8256 112.857 79.4048C76.9822 99.0636 55.671 140.265 76.812 166.541Z" fill="#F5B362"/>
</g>
<g filter="url(#filter3_f_4961_1479)">
<path d="M31.5561 203.246C27.2764 198.752 22.7806 191.282 21.4482 177.89C20.1275 163.011 23.3675 147.425 27.5134 138.537C31.9049 128.908 37.2141 124.489 42.2365 126.016C47.0251 126.797 51.5327 132.78 56.0403 138.763C66.2483 151.482 76.4563 164.201 86.4187 177.661C92.8206 186.633 100.818 206.025 91.1116 220.816C83.8316 231.91 71.1675 226.605 63.2685 225.056C52.5045 221.997 41.7759 214.478 31.5561 203.246Z" fill="#FFBD5A"/>
</g>
<g filter="url(#filter4_f_4961_1479)">
<path d="M240.863 209.233C236.583 204.739 232.087 197.269 230.755 183.877C229.434 168.999 232.674 153.413 236.82 144.525C241.212 134.895 246.521 130.477 251.543 132.003C256.332 132.785 260.839 138.768 265.347 144.75C275.555 157.469 285.763 170.188 295.725 183.648C302.127 192.62 310.125 212.012 300.418 226.803C293.138 237.897 280.474 232.593 272.575 231.043C261.811 227.985 251.083 220.466 240.863 209.233Z" fill="#FFBD5A"/>
</g>
<path d="M113.256 168.975C114.206 150.555 115.05 132.24 119.22 114.242C121.384 104.952 124.445 96.0326 130.462 88.3794C131.148 87.5349 131.36 86.3209 131.835 85.2653C133.946 80.5679 135.74 75.6593 138.327 71.2257C143.657 62.0947 151.997 57.925 162.447 57.6084C174.112 57.2389 185.143 59.9835 195.805 64.2059C219.609 73.4953 240.14 87.5877 257.347 106.536C262.466 112.183 268.167 117.409 273.075 123.215C281.309 132.873 287.537 143.746 290.651 156.202C294.715 172.353 291.232 187.184 282.312 200.907C272.442 216.108 258.719 227.034 242.99 235.584C232.381 241.337 221.192 245.665 209.58 248.938C202.349 250.996 195.382 254.163 188.151 256.221C176.962 259.494 165.509 261.024 153.791 259.81C140.174 258.385 129.882 252.316 123.97 239.595C119.22 229.409 116.687 218.694 115.684 207.611C114.47 194.732 114.048 181.854 113.256 168.975ZM141.863 170.981C142.338 177.526 142.971 189.56 144.185 201.541C145.135 210.883 147.246 220.067 151.363 228.67C151.891 229.778 153.105 231.098 154.266 231.309C159.914 232.47 165.614 234.106 171.314 234.159C185.935 234.37 199.816 230.464 213.222 224.975C230.587 217.85 246.21 208.138 258.824 193.993C262.255 190.14 263.733 185.918 263.997 180.904C264.736 168.395 261.094 157.1 254.76 146.596C244.415 129.443 230.006 116.3 213.433 105.427C197.23 94.7658 180.076 86.3737 160.494 83.7875C158.33 83.5236 157.275 84.1569 156.219 85.7404C151.575 92.549 149.094 100.202 147.299 108.119C142.918 126.962 142.443 146.227 141.863 170.981ZM269.539 176.787C272.495 171.192 274.236 165.281 274.395 159C274.87 139.471 266.583 123.32 253.071 110.231C239.982 97.5632 224.042 88.6961 207.047 82.0457C197.177 78.1928 187.043 75.3954 176.329 75.6065C172.001 75.7121 167.673 76.2399 163.556 78.9317C166.459 79.565 168.939 79.9873 171.367 80.6207C194.855 86.5849 215.175 98.4077 233.437 113.978C241.987 121.262 249.588 129.39 255.869 138.679C263.68 150.185 269.011 162.589 269.539 176.787ZM126.557 108.489C126.451 108.436 126.345 108.383 126.24 108.33C126.029 109.069 125.712 109.808 125.554 110.547C123.918 119.678 121.754 128.809 120.803 137.993C118.27 162.642 117.901 187.29 121.384 211.886C122.651 220.858 124.762 229.62 128.826 237.854C132.626 245.56 138.432 250.996 146.877 253.266C158.278 256.327 169.625 255.166 180.92 252.579C179.443 252.21 177.965 252.052 176.54 251.893C165.034 250.574 155.427 246.193 149.305 235.795C148.883 235.056 148.197 234.37 147.51 233.948C142.655 231.098 138.696 227.245 136.374 222.231C133.471 215.897 130.568 209.405 128.932 202.649C123.126 178.634 123.548 154.144 124.868 129.707C125.237 122.634 125.976 115.561 126.557 108.489ZM142.655 223.445C142.918 223.339 143.182 223.181 143.446 223.075C143.288 222.495 143.182 221.914 143.024 221.386C139.91 210.883 138.115 200.168 137.746 189.243C137.271 175.626 137.007 162.008 137.324 148.444C137.588 134.826 138.96 121.262 141.916 107.961C143.816 99.5689 146.402 91.3879 151.152 83.7347C146.085 83.9986 141.757 85.2126 138.168 88.2738C136.743 89.4878 135.529 91.3879 135.054 93.1824C131.623 106.061 130.515 119.256 129.829 132.504C129.037 148.127 128.879 163.75 130.304 179.373C131.254 190.246 132.732 201.013 136.69 211.252C138.379 215.422 140.702 219.381 142.655 223.445ZM237.501 232.101C238.082 232.101 238.293 232.153 238.451 232.101C252.913 224.553 265.739 215.053 275.45 201.805C285.373 188.24 289.912 173.409 285.479 156.677C283.579 149.446 280.517 142.796 276.77 137.043C277.667 142.691 279.198 148.76 279.567 154.936C280.306 167.603 275.714 178.845 268.8 189.296C268.061 190.404 267.428 191.565 267.005 192.779C264.683 199.641 261.411 206.027 257.188 211.939C251.752 219.539 245.102 226.031 237.501 232.101ZM157.908 238.487C160.917 241.707 164.664 243.765 168.834 244.979C181.554 248.727 194.591 248.357 206.677 243.818C223.937 237.326 238.715 226.717 250.432 212.202C252.069 210.197 253.441 208.033 254.971 205.974C244.468 214.736 233.12 221.756 220.823 227.298C206.044 233.948 190.79 238.804 174.428 239.173C169.045 239.332 163.608 238.751 157.908 238.487ZM139.224 80.5151C144.185 79.7762 149.147 79.09 154.161 78.2983C155.058 78.14 156.061 77.8233 156.694 77.2427C161.392 73.073 166.934 71.2785 173.056 70.7507C182.346 69.959 191.265 71.5952 200.08 74.287C205.252 75.8704 210.266 77.8233 215.386 79.6178C213.433 78.1928 211.375 76.9788 209.211 75.8704C195.646 68.9562 181.712 63.3614 166.247 62.6753C152.736 62.0419 143.605 68.1645 139.224 80.5151Z" fill="url(#paint4_linear_4961_1479)"/>
<g filter="url(#filter5_i_4961_1479)">
<path d="M269.54 176.783C269.012 162.585 263.681 150.182 255.869 138.675C249.536 129.386 241.935 121.205 233.438 113.974C215.07 98.4039 194.75 86.5283 171.315 80.6169C168.887 79.9835 166.406 79.5613 163.504 78.9279C167.62 76.2889 171.948 75.7083 176.276 75.6027C186.991 75.3388 197.125 78.189 206.995 82.0419C224.043 88.6923 239.93 97.6122 253.019 110.227C266.584 123.316 274.818 139.467 274.343 158.996C274.184 165.277 272.495 171.188 269.54 176.783Z" fill="url(#paint5_linear_4961_1479)"/>
<path d="M126.558 108.489C125.977 115.561 125.238 122.634 124.816 129.706C123.549 154.144 123.074 178.581 128.828 202.596C130.464 209.352 133.314 215.844 136.27 222.178C138.592 227.192 142.55 231.045 147.406 233.895C148.145 234.317 148.779 235.003 149.201 235.742C155.323 246.14 164.982 250.521 176.436 251.84C177.913 251.999 179.391 252.157 180.816 252.527C169.521 255.113 158.173 256.274 146.773 253.213C138.328 250.943 132.575 245.507 128.722 237.801C124.658 229.62 122.547 220.806 121.28 211.833C117.849 187.237 118.166 162.589 120.699 137.94C121.649 128.704 123.813 119.625 125.45 110.494C125.608 109.755 125.872 109.016 126.136 108.278C126.347 108.383 126.452 108.436 126.558 108.489Z" fill="url(#paint6_linear_4961_1479)"/>
<path d="M142.655 223.44C140.649 219.376 138.38 215.47 136.744 211.248C132.785 201.008 131.307 190.241 130.357 179.368C128.932 163.745 129.09 148.122 129.882 132.499C130.568 119.251 131.677 106.056 135.107 93.1775C135.582 91.383 136.796 89.5357 138.221 88.2689C141.758 85.2077 146.138 83.9937 151.205 83.7298C146.455 91.4358 143.869 99.564 141.969 107.956C139.013 121.31 137.641 134.874 137.377 148.439C137.113 162.056 137.377 175.673 137.799 189.238C138.169 200.111 140.016 210.878 143.077 221.381C143.236 221.962 143.341 222.49 143.499 223.07C143.183 223.176 142.919 223.281 142.655 223.44Z" fill="url(#paint7_linear_4961_1479)"/>
<path d="M237.502 232.1C245.102 226.03 251.753 219.538 257.189 211.885C261.411 205.973 264.684 199.587 267.006 192.725C267.428 191.512 268.062 190.35 268.801 189.242C275.715 178.844 280.254 167.602 279.568 154.882C279.198 148.759 277.721 142.637 276.771 136.989C280.518 142.69 283.579 149.393 285.479 156.624C289.913 173.408 285.374 188.239 275.451 201.751C265.739 214.999 252.861 224.499 238.452 232.047C238.294 232.152 238.135 232.1 237.502 232.1Z" fill="url(#paint8_linear_4961_1479)"/>
<path d="M157.909 238.485C163.609 238.749 168.993 239.276 174.429 239.171C190.791 238.801 206.045 233.946 220.823 227.295C233.121 221.753 244.522 214.681 254.972 205.972C253.442 208.03 252.069 210.194 250.433 212.2C238.716 226.715 223.937 237.376 206.678 243.815C194.592 248.355 181.555 248.724 168.835 244.977C164.665 243.763 160.97 241.704 157.909 238.485Z" fill="url(#paint9_linear_4961_1479)"/>
<path d="M139.224 80.5116C143.605 68.161 152.736 62.0384 166.248 62.6718C181.713 63.4107 195.647 68.9527 209.211 75.9197C211.323 77.0281 213.434 78.1893 215.387 79.6671C210.267 77.8726 205.253 75.9197 200.08 74.3363C191.319 71.6445 182.346 70.0083 173.057 70.8C166.934 71.3278 161.392 73.1751 156.695 77.292C156.061 77.8726 155.059 78.1893 154.161 78.3476C149.2 79.0865 144.186 79.7727 139.224 80.5116Z" fill="url(#paint10_linear_4961_1479)"/>
</g>
<g filter="url(#filter6_f_4961_1479)">
<path d="M69.5138 96.1568C65.922 114.753 71.4153 135.784 89.4864 146.215C95.6266 149.257 100.12 153.255 107.907 155.342C113.098 156.733 118.639 156.82 124.18 156.908C131.019 157.343 137.258 154.824 143.497 152.304C141.85 153.26 141.85 153.26 140.203 154.216C149.737 149.785 160.219 147.005 167.855 139.272C175.142 132.842 178.885 124.066 181.33 114.941C189.962 87.9159 171.24 59.149 145.283 52.1937C113.185 42.1961 75.0504 59.9195 69.5138 96.1568Z" fill="white"/>
</g>
<g opacity="0.8" filter="url(#filter7_f_4961_1479)">
<path d="M230.751 306.077C232.635 311.276 242.071 301.77 248.162 301.678C250.157 301.521 258.174 287.981 265.43 279.916C269.105 275.831 275.918 272.409 275.164 269.755C273.281 261.689 252.981 268.784 244.744 273.832C233.126 280.952 226.711 296.165 230.751 306.077Z" fill="white"/>
</g>
<g opacity="0.4" filter="url(#filter8_f_4961_1479)">
<path d="M22.1969 239.748C20.9135 246.393 22.8763 253.907 29.3332 257.634C31.5271 258.721 33.1325 260.15 35.9149 260.895C37.7699 261.392 39.7497 261.423 41.7294 261.455C44.1729 261.61 46.4023 260.71 48.6317 259.81C48.0431 260.151 48.0431 260.151 47.4546 260.493C50.861 258.91 54.6064 257.917 57.3349 255.153C59.9386 252.856 61.276 249.72 62.1495 246.46C65.234 236.803 58.5444 226.525 49.2696 224.04C37.8008 220.467 24.1751 226.8 22.1969 239.748Z" fill="#F6BA6A"/>
</g>
<g filter="url(#filter9_f_4961_1479)">
<path d="M325.076 189.494C326.841 196.548 327.108 206.76 320.728 221.181C313.477 237.11 301.169 251.126 291.807 257.79C281.767 265.069 273.802 266.505 269.564 262.047C265.135 258.483 263.997 249.78 262.859 241.077C259.803 222.214 256.746 203.351 254.368 183.874C253.027 171.029 256.079 146.641 274.52 137.172C288.351 130.07 298.195 142.795 305.352 148.938C314.557 158.276 321.148 172.139 325.076 189.494Z" fill="#DB847C"/>
</g>
<defs>
<filter id="filter0_f_4961_1479" x="133.626" y="34.0364" width="174.156" height="138.363" filterUnits="userSpaceOnUse" color-interpolation-filters="sRGB">
<feFlood flood-opacity="0" result="BackgroundImageFix"/>
<feBlend mode="normal" in="SourceGraphic" in2="BackgroundImageFix" result="shape"/>
<feGaussianBlur stdDeviation="4.95074" result="effect1_foregroundBlur_4961_1479"/>
</filter>
<filter id="filter1_f_4961_1479" x="78.449" y="142.626" width="251.916" height="197.646" filterUnits="userSpaceOnUse" color-interpolation-filters="sRGB">
<feFlood flood-opacity="0" result="BackgroundImageFix"/>
<feBlend mode="normal" in="SourceGraphic" in2="BackgroundImageFix" result="shape"/>
<feGaussianBlur stdDeviation="9.90148" result="effect1_foregroundBlur_4961_1479"/>
</filter>
<filter id="filter2_f_4961_1479" x="58.5204" y="58.7727" width="147.668" height="135.096" filterUnits="userSpaceOnUse" color-interpolation-filters="sRGB">
<feFlood flood-opacity="0" result="BackgroundImageFix"/>
<feBlend mode="normal" in="SourceGraphic" in2="BackgroundImageFix" result="shape"/>
<feGaussianBlur stdDeviation="4.95074" result="effect1_foregroundBlur_4961_1479"/>
</filter>
<filter id="filter3_f_4961_1479" x="1.34548" y="105.917" width="114.088" height="141.571" filterUnits="userSpaceOnUse" color-interpolation-filters="sRGB">
<feFlood flood-opacity="0" result="BackgroundImageFix"/>
<feBlend mode="normal" in="SourceGraphic" in2="BackgroundImageFix" result="shape"/>
<feGaussianBlur stdDeviation="9.90148" result="effect1_foregroundBlur_4961_1479"/>
</filter>
<filter id="filter4_f_4961_1479" x="210.652" y="111.905" width="114.088" height="141.571" filterUnits="userSpaceOnUse" color-interpolation-filters="sRGB">
<feFlood flood-opacity="0" result="BackgroundImageFix"/>
<feBlend mode="normal" in="SourceGraphic" in2="BackgroundImageFix" result="shape"/>
<feGaussianBlur stdDeviation="9.90148" result="effect1_foregroundBlur_4961_1479"/>
</filter>
<filter id="filter5_i_4961_1479" x="118.752" y="62.6272" width="168.43" height="193.416" filterUnits="userSpaceOnUse" color-interpolation-filters="sRGB">
<feFlood flood-opacity="0" result="BackgroundImageFix"/>
<feBlend mode="normal" in="SourceGraphic" in2="BackgroundImageFix" result="shape"/>
<feColorMatrix in="SourceAlpha" type="matrix" values="0 0 0 0 0 0 0 0 0 0 0 0 0 0 0 0 0 0 127 0" result="hardAlpha"/>
<feOffset dy="1"/>
<feGaussianBlur stdDeviation="1"/>
<feComposite in2="hardAlpha" operator="arithmetic" k2="-1" k3="1"/>
<feColorMatrix type="matrix" values="0 0 0 0 0.6 0 0 0 0 0.302885 0 0 0 0 0.1125 0 0 0 1 0"/>
<feBlend mode="normal" in2="shape" result="effect1_innerShadow_4961_1479"/>
</filter>
<filter id="filter6_f_4961_1479" x="48.6717" y="29.63" width="154.59" height="147.13" filterUnits="userSpaceOnUse" color-interpolation-filters="sRGB">
<feFlood flood-opacity="0" result="BackgroundImageFix"/>
<feBlend mode="normal" in="SourceGraphic" in2="BackgroundImageFix" result="shape"/>
<feGaussianBlur stdDeviation="9.90148" result="effect1_foregroundBlur_4961_1479"/>
</filter>
<filter id="filter7_f_4961_1479" x="216.634" y="253.199" width="71.493" height="67.3365" filterUnits="userSpaceOnUse" color-interpolation-filters="sRGB">
<feFlood flood-opacity="0" result="BackgroundImageFix"/>
<feBlend mode="normal" in="SourceGraphic" in2="BackgroundImageFix" result="shape"/>
<feGaussianBlur stdDeviation="6.45236" result="effect1_foregroundBlur_4961_1479"/>
</filter>
<filter id="filter8_f_4961_1479" x="11.9247" y="213.152" width="60.8869" height="58.222" filterUnits="userSpaceOnUse" color-interpolation-filters="sRGB">
<feFlood flood-opacity="0" result="BackgroundImageFix"/>
<feBlend mode="normal" in="SourceGraphic" in2="BackgroundImageFix" result="shape"/>
<feGaussianBlur stdDeviation="4.95074" result="effect1_foregroundBlur_4961_1479"/>
</filter>
<filter id="filter9_f_4961_1479" x="234.289" y="115.273" width="111.674" height="169.108" filterUnits="userSpaceOnUse" color-interpolation-filters="sRGB">
<feFlood flood-opacity="0" result="BackgroundImageFix"/>
<feBlend mode="normal" in="SourceGraphic" in2="BackgroundImageFix" result="shape"/>
<feGaussianBlur stdDeviation="9.90148" result="effect1_foregroundBlur_4961_1479"/>
</filter>
<linearGradient id="paint0_linear_4961_1479" x1="156.052" y1="393.33" x2="166.669" y2="76.8587" gradientUnits="userSpaceOnUse">
<stop stop-color="#FA8700"/>
<stop offset="0.9992" stop-color="#FF9A51"/>
</linearGradient>
<linearGradient id="paint1_linear_4961_1479" x1="204.222" y1="377.291" x2="155.563" y2="151.801" gradientUnits="userSpaceOnUse">
<stop offset="0.00064103" stop-color="#F38B5C"/>
<stop offset="0.9927" stop-color="#E3E1AB" stop-opacity="0"/>
</linearGradient>
<radialGradient id="paint2_radial_4961_1479" cx="0" cy="0" r="1" gradientUnits="userSpaceOnUse" gradientTransform="translate(163.006 189.09) scale(162.56 161.365)">
<stop stop-color="#FFF4F2"/>
<stop offset="0.322917" stop-color="#FFD7A8" stop-opacity="0.81"/>
<stop offset="0.5625" stop-color="#FFA858" stop-opacity="0.88"/>
<stop offset="0.744792" stop-color="#BA9B7F"/>
<stop offset="1" stop-color="#E05F16"/>
</radialGradient>
<linearGradient id="paint3_linear_4961_1479" x1="242.733" y1="397.461" x2="136.866" y2="118.982" gradientUnits="userSpaceOnUse">
<stop stop-color="#A3550E"/>
<stop offset="0.177083" stop-color="#F8CF99" stop-opacity="0"/>
</linearGradient>
<linearGradient id="paint4_linear_4961_1479" x1="232.643" y1="244.117" x2="258.86" y2="75.8424" gradientUnits="userSpaceOnUse">
<stop stop-color="#FDAE74"/>
<stop offset="0.283588" stop-color="#FFD6AE"/>
<stop offset="1" stop-color="#FEFBF7"/>
</linearGradient>
<linearGradient id="paint5_linear_4961_1479" x1="244.582" y1="239.638" x2="267.014" y2="74.9246" gradientUnits="userSpaceOnUse">
<stop stop-color="#DC7435"/>
<stop offset="0.442708" stop-color="#E1A05A"/>
<stop offset="0.666667" stop-color="#F1A04E"/>
<stop offset="0.989583" stop-color="#F2CDAF"/>
</linearGradient>
<linearGradient id="paint6_linear_4961_1479" x1="244.582" y1="239.638" x2="267.014" y2="74.9246" gradientUnits="userSpaceOnUse">
<stop stop-color="#DC7435"/>
<stop offset="0.442708" stop-color="#E1A05A"/>
<stop offset="0.666667" stop-color="#F1A04E"/>
<stop offset="0.989583" stop-color="#F2CDAF"/>
</linearGradient>
<linearGradient id="paint7_linear_4961_1479" x1="244.582" y1="239.638" x2="267.014" y2="74.9246" gradientUnits="userSpaceOnUse">
<stop stop-color="#DC7435"/>
<stop offset="0.442708" stop-color="#E1A05A"/>
<stop offset="0.666667" stop-color="#F1A04E"/>
<stop offset="0.989583" stop-color="#F2CDAF"/>
</linearGradient>
<linearGradient id="paint8_linear_4961_1479" x1="244.582" y1="239.638" x2="267.014" y2="74.9246" gradientUnits="userSpaceOnUse">
<stop stop-color="#DC7435"/>
<stop offset="0.442708" stop-color="#E1A05A"/>
<stop offset="0.666667" stop-color="#F1A04E"/>
<stop offset="0.989583" stop-color="#F2CDAF"/>
</linearGradient>
<linearGradient id="paint9_linear_4961_1479" x1="244.582" y1="239.638" x2="267.014" y2="74.9246" gradientUnits="userSpaceOnUse">
<stop stop-color="#DC7435"/>
<stop offset="0.442708" stop-color="#E1A05A"/>
<stop offset="0.666667" stop-color="#F1A04E"/>
<stop offset="0.989583" stop-color="#F2CDAF"/>
</linearGradient>
<linearGradient id="paint10_linear_4961_1479" x1="244.582" y1="239.638" x2="267.014" y2="74.9246" gradientUnits="userSpaceOnUse">
<stop stop-color="#DC7435"/>
<stop offset="0.442708" stop-color="#E1A05A"/>
<stop offset="0.666667" stop-color="#F1A04E"/>
<stop offset="0.989583" stop-color="#F2CDAF"/>
</linearGradient>
</defs>
</svg>
