<svg width="1633" height="1637" viewBox="0 0 1633 1637" fill="none" xmlns="http://www.w3.org/2000/svg">
<path d="M760.079 1636.59C1179.83 1636.59 1520.11 1298.82 1520.11 882.155C1520.11 465.49 1179.83 127.716 760.079 127.716C340.328 127.716 0.0527344 465.49 0.0527344 882.155C0.0527344 1298.82 340.328 1636.59 760.079 1636.59Z" fill="url(#paint0_linear_4953_1517)"/>
<path d="M760.079 1636.59C1179.83 1636.59 1520.11 1298.82 1520.11 882.155C1520.11 465.49 1179.83 127.716 760.079 127.716C340.328 127.716 0.0527344 465.49 0.0527344 882.155C0.0527344 1298.82 340.328 1636.59 760.079 1636.59Z" fill="url(#paint1_linear_4953_1517)"/>
<path opacity="0.49" d="M760.079 1636.59C1179.83 1636.59 1520.11 1298.82 1520.11 882.155C1520.11 465.49 1179.83 127.716 760.079 127.716C340.328 127.716 0.0527344 465.49 0.0527344 882.155C0.0527344 1298.82 340.328 1636.59 760.079 1636.59Z" fill="url(#paint2_radial_4953_1517)"/>
<path opacity="0.31" d="M1379.39 828.472C1328.72 883.239 1253.28 889.945 1182.34 882.121C1144.06 877.651 1106.9 870.944 1069.74 864.238C1023.58 856.415 968.408 845.238 931.251 881.004C901.976 910.063 891.842 951.418 876.079 988.301C861.441 1021.83 841.174 1053.13 816.402 1079.95C774.742 1123.54 719.569 1145.9 659.893 1143.66C533.785 1139.19 420.062 1062.07 300.71 1028.54C245.537 1012.89 184.735 1000.6 127.311 1012.89C105.918 1017.36 89.0282 1026.3 74.3906 1037.48C145.326 1349.31 425.692 1581.79 761.23 1581.79C1149.69 1581.79 1464.96 1268.84 1464.96 883.239C1464.96 826.237 1458.2 771.47 1445.82 718.939C1430.05 758.058 1408.66 796.06 1379.39 828.472Z" fill="url(#paint3_linear_4953_1517)"/>
<g filter="url(#filter0_f_4953_1517)">
<path d="M1274.03 411.695C1201.38 319.42 1136.46 282.079 1026.43 241.009C896.058 192.343 690.443 201.769 670.823 218.152C650.737 234.831 846.975 258.277 948.822 310.329C1165.2 420.916 1374.03 751.556 1382.04 756.991C1408.2 774.58 1361.43 522.706 1274.03 411.695Z" fill="#FA9A63"/>
</g>
<g filter="url(#filter1_f_4953_1517)">
<path d="M949.953 1458.81C1098.71 1403 1173.48 1334.62 1271.56 1209.62C1387.78 1061.5 1459.96 792.561 1446.89 760.547C1433.63 727.811 1322.91 971.183 1214.03 1081.13C982.705 1314.73 470.791 1448.32 460.498 1456.42C427.093 1482.93 770.988 1525.96 949.953 1458.81Z" fill="#FF5A23"/>
</g>
<g opacity="0.4" filter="url(#filter2_f_4953_1517)">
<path d="M358.232 776.724C405.704 842.416 499.206 881.044 609.526 842.926C645.326 828.563 677.471 823.036 716.925 799.839C743.228 784.374 766.608 763.94 789.99 743.507C819.947 719.208 837.487 688.838 855.026 658.468C851.371 667.303 851.371 667.303 847.716 676.138C872.565 628.099 906.91 581.162 912.765 530.919C921.54 485.643 907.668 446.998 887.22 412.219C832.451 304.016 657.853 293.01 526.339 370.333C359.026 462.019 259.634 654.175 358.232 776.724Z" fill="#F5B362"/>
</g>
<g filter="url(#filter3_f_4953_1517)">
<path d="M147.167 947.91C127.207 926.949 106.239 892.111 100.025 829.653C93.8656 760.261 108.976 687.57 128.312 646.118C148.794 601.207 173.555 580.6 196.979 587.719C219.312 591.363 240.335 619.267 261.358 647.171C308.966 706.49 356.575 765.808 403.038 828.585C432.895 870.427 470.195 960.869 424.925 1029.85C390.972 1081.59 331.909 1056.85 295.069 1049.63C244.867 1035.36 194.83 1000.29 147.167 947.91Z" fill="#FFBD5A"/>
</g>
<g filter="url(#filter4_f_4953_1517)">
<path d="M1123.35 975.835C1103.39 954.874 1082.42 920.036 1076.21 857.578C1070.05 788.186 1085.16 715.495 1104.5 674.042C1124.98 629.131 1149.74 608.525 1173.16 615.644C1195.5 619.288 1216.52 647.192 1237.54 675.096C1285.15 734.414 1332.76 793.733 1379.22 856.51C1409.08 898.352 1446.38 988.794 1401.11 1057.78C1367.16 1109.52 1308.09 1084.78 1271.25 1077.55C1221.05 1063.29 1171.01 1028.22 1123.35 975.835Z" fill="#FFBD5A"/>
</g>
<path d="M528.205 788.076C532.636 702.166 536.575 616.748 556.021 532.807C566.114 489.483 580.391 447.882 608.453 412.189C611.653 408.25 612.638 402.588 614.854 397.665C624.7 375.757 633.069 352.864 645.131 332.187C669.994 289.601 708.887 270.154 757.627 268.677C812.028 266.954 863.476 279.754 913.2 299.447C1024.22 342.771 1119.97 408.496 1200.22 496.868C1224.1 523.207 1250.69 547.577 1273.58 574.655C1311.98 619.702 1341.03 670.411 1355.55 728.505C1374.5 803.83 1358.26 873.001 1316.66 937.003C1270.62 1007.9 1206.62 1058.85 1133.27 1098.73C1083.79 1125.56 1031.6 1145.75 977.448 1161.01C943.724 1170.61 911.231 1185.38 877.507 1194.98C825.321 1210.24 771.904 1217.38 717.256 1211.72C653.747 1205.07 605.746 1176.76 578.176 1117.44C556.021 1069.93 544.206 1019.96 539.528 968.265C533.867 908.202 531.897 848.139 528.205 788.076ZM661.624 797.43C663.839 827.954 666.793 884.078 672.455 939.957C676.886 983.527 686.732 1026.36 705.933 1066.48C708.395 1071.65 714.056 1077.81 719.472 1078.79C745.811 1084.21 772.396 1091.84 798.982 1092.08C867.168 1093.07 931.908 1074.85 994.433 1049.25C1075.42 1016.02 1148.28 970.727 1207.12 904.756C1223.12 886.786 1230.01 867.093 1231.24 843.708C1234.69 785.368 1217.7 732.69 1188.16 683.704C1139.91 603.702 1072.71 542.408 995.418 491.699C919.846 441.974 839.844 402.835 748.519 390.773C738.426 389.542 733.503 392.496 728.58 399.881C706.918 431.635 695.348 467.329 686.979 504.253C666.547 592.132 664.332 681.981 661.624 797.43ZM1257.09 824.507C1270.87 798.414 1278.99 770.844 1279.73 741.551C1281.95 650.472 1243.3 575.147 1180.28 514.099C1119.24 455.021 1044.9 413.666 965.632 382.649C919.6 364.68 872.337 351.633 822.367 352.618C802.182 353.11 781.997 355.572 762.796 368.126C776.335 371.08 787.904 373.049 799.228 376.003C908.769 403.819 1003.54 458.959 1088.71 531.577C1128.59 565.547 1164.04 603.455 1193.33 646.78C1229.76 700.443 1254.62 758.29 1257.09 824.507ZM590.238 505.976C589.745 505.73 589.253 505.484 588.761 505.237C587.776 508.684 586.299 512.13 585.56 515.576C577.929 558.162 567.837 600.748 563.406 643.58C551.59 758.536 549.867 873.493 566.114 988.204C572.022 1030.05 581.868 1070.91 600.822 1109.32C618.546 1145.25 645.624 1170.61 685.009 1181.19C738.18 1195.47 791.104 1190.06 843.783 1177.99C836.89 1176.27 829.998 1175.53 823.351 1174.79C769.688 1168.64 724.887 1148.21 696.333 1099.71C694.363 1096.27 691.163 1093.07 687.963 1091.1C665.316 1077.81 646.854 1059.84 636.023 1036.45C622.485 1006.91 608.946 976.635 601.315 945.126C574.237 833.123 576.206 718.905 582.36 604.932C584.084 571.947 587.53 538.961 590.238 505.976ZM665.316 1042.11C666.547 1041.62 667.778 1040.88 669.009 1040.39C668.27 1037.68 667.778 1034.97 667.04 1032.51C652.516 983.527 644.147 933.557 642.424 882.601C640.208 819.092 638.977 755.583 640.454 692.319C641.685 628.81 648.085 565.547 661.87 503.514C670.732 464.375 682.794 426.22 704.948 390.527C681.317 391.757 661.132 397.419 644.393 411.696C637.746 417.358 632.085 426.22 629.869 434.589C613.869 494.652 608.7 556.193 605.499 617.979C601.807 690.842 601.069 763.706 607.715 836.569C612.146 887.278 619.038 937.495 637.5 985.25C645.377 1004.7 656.209 1023.16 665.316 1042.11ZM1107.67 1082.48C1110.37 1082.48 1111.36 1082.73 1112.1 1082.48C1179.55 1047.28 1239.36 1002.97 1284.66 941.187C1330.93 877.924 1352.1 808.753 1331.43 730.72C1322.56 696.996 1308.29 665.98 1290.81 639.149C1294.99 665.488 1302.13 693.796 1303.86 722.597C1307.3 781.676 1285.89 834.108 1253.64 882.847C1250.19 888.017 1247.24 893.432 1245.27 899.094C1234.44 931.095 1219.18 960.88 1199.48 988.45C1174.13 1023.9 1143.11 1054.18 1107.67 1082.48ZM736.457 1112.27C750.488 1127.28 767.965 1136.89 787.412 1142.55C846.737 1160.02 907.538 1158.3 963.909 1137.13C1044.4 1106.85 1113.33 1057.38 1167.98 989.681C1175.61 980.327 1182.01 970.234 1189.15 960.634C1140.16 1001.5 1087.24 1034.24 1029.88 1060.08C960.955 1091.1 889.815 1113.75 813.505 1115.47C788.397 1116.21 763.042 1113.5 736.457 1112.27ZM649.316 375.511C672.455 372.065 695.594 368.864 718.979 365.172C723.164 364.434 727.841 362.957 730.795 360.249C752.703 340.802 778.55 332.433 807.105 329.971C850.429 326.279 892.03 333.91 933.139 346.464C957.263 353.849 980.648 362.957 1004.53 371.326C995.418 364.68 985.817 359.018 975.725 353.849C912.462 321.602 847.475 295.509 775.35 292.309C712.333 289.355 669.747 317.909 649.316 375.511Z" fill="url(#paint4_linear_4953_1517)"/>
<g filter="url(#filter5_i_4953_1517)">
<path d="M1257.09 824.489C1254.63 758.272 1229.76 700.425 1193.33 646.762C1163.79 603.437 1128.35 565.282 1088.71 531.558C1003.05 458.941 908.278 403.555 798.983 375.985C787.659 373.031 776.09 371.062 762.551 368.108C781.751 355.8 801.937 353.092 822.122 352.6C872.092 351.369 919.355 364.662 965.387 382.631C1044.9 413.648 1118.99 455.249 1180.04 514.081C1243.3 575.129 1281.7 650.454 1279.49 741.533C1278.75 770.826 1270.87 798.396 1257.09 824.489Z" fill="url(#paint5_linear_4953_1517)"/>
<path d="M590.242 505.975C587.534 538.96 584.088 571.946 582.119 604.931C576.211 718.904 573.995 832.876 600.827 944.879C608.458 976.387 621.751 1006.67 635.536 1036.2C646.367 1059.59 664.829 1077.56 687.475 1090.85C690.922 1092.82 693.876 1096.02 695.845 1099.47C724.399 1147.96 769.447 1168.39 822.864 1174.55C829.756 1175.29 836.649 1176.02 843.295 1177.75C790.617 1189.81 737.692 1195.22 684.521 1180.95C645.136 1170.36 618.304 1145.01 600.335 1109.07C581.38 1070.91 571.534 1029.8 565.626 987.957C549.626 873.246 551.103 758.289 562.918 643.332C567.349 600.254 577.442 557.915 585.073 515.329C585.811 511.883 587.042 508.436 588.273 504.99C589.257 505.483 589.75 505.729 590.242 505.975Z" fill="url(#paint6_linear_4953_1517)"/>
<path d="M665.316 1042.09C655.962 1023.14 645.377 1004.92 637.746 985.227C619.284 937.472 612.392 887.255 607.961 836.546C601.314 763.683 602.053 690.819 605.745 617.956C608.945 556.169 614.115 494.629 630.115 434.566C632.331 426.197 637.992 417.581 644.639 411.673C661.131 397.396 681.563 391.734 705.194 390.503C683.04 426.443 670.978 464.352 662.116 503.491C648.331 565.77 641.931 629.033 640.7 692.296C639.469 755.806 640.7 819.315 642.669 882.578C644.392 933.287 653.008 983.504 667.285 1032.49C668.024 1035.2 668.516 1037.66 669.255 1040.37C667.778 1040.86 666.547 1041.35 665.316 1042.09Z" fill="url(#paint7_linear_4953_1517)"/>
<path d="M1107.67 1082.48C1143.12 1054.17 1174.13 1023.89 1199.49 988.199C1219.18 960.629 1234.44 930.844 1245.27 898.843C1247.24 893.181 1250.19 887.766 1253.64 882.596C1285.89 834.103 1307.06 781.671 1303.86 722.346C1302.13 693.791 1295.24 665.237 1290.81 638.897C1308.29 665.483 1322.57 696.745 1331.43 730.469C1352.11 808.748 1330.94 877.919 1284.66 940.936C1239.36 1002.72 1179.3 1047.03 1112.1 1082.23C1111.36 1082.72 1110.62 1082.48 1107.67 1082.48Z" fill="url(#paint8_linear_4953_1517)"/>
<path d="M736.459 1112.26C763.044 1113.49 788.153 1115.95 813.507 1115.46C889.817 1113.73 960.957 1091.09 1029.88 1060.07C1087.24 1034.22 1140.41 1001.24 1189.15 960.622C1182.01 970.222 1175.61 980.315 1167.98 989.669C1113.33 1057.36 1044.41 1107.09 963.911 1137.12C907.541 1158.29 846.739 1160.01 787.414 1142.53C767.968 1136.87 750.736 1127.27 736.459 1112.26Z" fill="url(#paint9_linear_4953_1517)"/>
<path d="M649.316 375.494C669.748 317.893 712.334 289.338 775.351 292.292C847.476 295.738 912.462 321.585 975.725 354.078C985.572 359.247 995.418 364.663 1004.53 371.555C980.649 363.186 957.263 354.078 933.14 346.693C892.277 334.139 850.43 326.508 807.105 330.201C778.551 332.662 752.704 341.278 730.796 360.478C727.842 363.186 723.165 364.663 718.98 365.401C695.841 368.848 672.456 372.048 649.316 375.494Z" fill="url(#paint10_linear_4953_1517)"/>
</g>
<g filter="url(#filter6_f_4953_1517)">
<path d="M324.201 448.462C307.449 535.193 333.069 633.278 417.35 681.924C445.986 696.113 466.941 714.759 503.26 724.491C527.472 730.979 553.314 731.386 579.155 731.795C611.05 733.825 640.149 722.075 669.248 710.325C661.566 714.782 661.566 714.782 653.884 719.24C698.347 698.575 747.235 685.612 782.85 649.545C816.836 619.557 834.292 578.624 845.694 536.069C885.955 410.027 798.637 275.863 677.575 243.424C527.876 196.797 350.022 279.456 324.201 448.462Z" fill="white"/>
</g>
<g opacity="0.8" filter="url(#filter7_f_4953_1517)">
<path d="M1076.18 1427.5C1084.97 1451.75 1128.97 1407.41 1157.38 1406.98C1166.69 1406.25 1204.08 1343.1 1237.92 1305.49C1255.06 1286.44 1286.83 1270.47 1283.32 1258.1C1274.53 1220.48 1179.86 1253.57 1141.44 1277.11C1087.25 1310.32 1057.34 1381.27 1076.18 1427.5Z" fill="white"/>
</g>
<g opacity="0.4" filter="url(#filter8_f_4953_1517)">
<path d="M103.514 1118.15C97.528 1149.14 106.682 1184.19 136.796 1201.57C147.028 1206.64 154.516 1213.3 167.493 1216.78C176.144 1219.09 185.377 1219.24 194.611 1219.39C206.007 1220.11 216.404 1215.91 226.801 1211.71C224.057 1213.31 224.057 1213.31 221.312 1214.9C237.199 1207.52 254.667 1202.88 267.392 1190C279.536 1179.28 285.773 1164.66 289.847 1149.45C304.232 1104.42 273.033 1056.48 229.777 1044.89C176.288 1028.23 112.74 1057.76 103.514 1118.15Z" fill="#F6BA6A"/>
</g>
<g filter="url(#filter9_f_4953_1517)">
<path d="M1516.11 883.771C1524.34 916.671 1525.59 964.298 1495.83 1031.55C1462.01 1105.85 1404.61 1171.21 1360.95 1202.3C1314.12 1236.24 1276.97 1242.94 1257.21 1222.15C1236.55 1205.53 1231.24 1164.94 1225.94 1124.35C1211.68 1036.37 1197.43 948.398 1186.34 857.56C1180.08 797.657 1194.32 683.914 1280.32 639.752C1344.83 606.63 1390.74 665.974 1424.12 694.626C1467.05 738.175 1497.79 802.833 1516.11 883.771Z" fill="#DB847C"/>
</g>
<defs>
<filter id="filter0_f_4953_1517" x="659.489" y="195.018" width="739.688" height="572.75" filterUnits="userSpaceOnUse" color-interpolation-filters="sRGB">
<feFlood flood-opacity="0" result="BackgroundImageFix"/>
<feBlend mode="normal" in="SourceGraphic" in2="BackgroundImageFix" result="shape"/>
<feGaussianBlur stdDeviation="4.95074" result="effect1_foregroundBlur_4953_1517"/>
</filter>
<filter id="filter1_f_4953_1517" x="438.428" y="737.741" width="1029.79" height="776.68" filterUnits="userSpaceOnUse" color-interpolation-filters="sRGB">
<feFlood flood-opacity="0" result="BackgroundImageFix"/>
<feBlend mode="normal" in="SourceGraphic" in2="BackgroundImageFix" result="shape"/>
<feGaussianBlur stdDeviation="9.90148" result="effect1_foregroundBlur_4953_1517"/>
</filter>
<filter id="filter2_f_4953_1517" x="309.2" y="310.386" width="616.147" height="557.512" filterUnits="userSpaceOnUse" color-interpolation-filters="sRGB">
<feFlood flood-opacity="0" result="BackgroundImageFix"/>
<feBlend mode="normal" in="SourceGraphic" in2="BackgroundImageFix" result="shape"/>
<feGaussianBlur stdDeviation="4.95074" result="effect1_foregroundBlur_4953_1517"/>
</filter>
<filter id="filter3_f_4953_1517" x="78.8279" y="566.538" width="386.981" height="515.156" filterUnits="userSpaceOnUse" color-interpolation-filters="sRGB">
<feFlood flood-opacity="0" result="BackgroundImageFix"/>
<feBlend mode="normal" in="SourceGraphic" in2="BackgroundImageFix" result="shape"/>
<feGaussianBlur stdDeviation="9.90148" result="effect1_foregroundBlur_4953_1517"/>
</filter>
<filter id="filter4_f_4953_1517" x="1055.01" y="594.463" width="386.981" height="515.156" filterUnits="userSpaceOnUse" color-interpolation-filters="sRGB">
<feFlood flood-opacity="0" result="BackgroundImageFix"/>
<feBlend mode="normal" in="SourceGraphic" in2="BackgroundImageFix" result="shape"/>
<feGaussianBlur stdDeviation="9.90148" result="effect1_foregroundBlur_4953_1517"/>
</filter>
<filter id="filter5_i_4953_1517" x="553.836" y="292.084" width="785.527" height="898.398" filterUnits="userSpaceOnUse" color-interpolation-filters="sRGB">
<feFlood flood-opacity="0" result="BackgroundImageFix"/>
<feBlend mode="normal" in="SourceGraphic" in2="BackgroundImageFix" result="shape"/>
<feColorMatrix in="SourceAlpha" type="matrix" values="0 0 0 0 0 0 0 0 0 0 0 0 0 0 0 0 0 0 127 0" result="hardAlpha"/>
<feOffset dy="1"/>
<feGaussianBlur stdDeviation="1"/>
<feComposite in2="hardAlpha" operator="arithmetic" k2="-1" k3="1"/>
<feColorMatrix type="matrix" values="0 0 0 0 0.6 0 0 0 0 0.302885 0 0 0 0 0.1125 0 0 0 1 0"/>
<feBlend mode="normal" in2="shape" result="effect1_innerShadow_4953_1517"/>
</filter>
<filter id="filter6_f_4953_1517" x="299.549" y="210.745" width="575.883" height="541.083" filterUnits="userSpaceOnUse" color-interpolation-filters="sRGB">
<feFlood flood-opacity="0" result="BackgroundImageFix"/>
<feBlend mode="normal" in="SourceGraphic" in2="BackgroundImageFix" result="shape"/>
<feGaussianBlur stdDeviation="9.90148" result="effect1_foregroundBlur_4953_1517"/>
</filter>
<filter id="filter7_f_4953_1517" x="1057.62" y="1228.17" width="238.87" height="219.486" filterUnits="userSpaceOnUse" color-interpolation-filters="sRGB">
<feFlood flood-opacity="0" result="BackgroundImageFix"/>
<feBlend mode="normal" in="SourceGraphic" in2="BackgroundImageFix" result="shape"/>
<feGaussianBlur stdDeviation="6.45236" result="effect1_foregroundBlur_4953_1517"/>
</filter>
<filter id="filter8_f_4953_1517" x="91.8798" y="1030.39" width="211.418" height="198.984" filterUnits="userSpaceOnUse" color-interpolation-filters="sRGB">
<feFlood flood-opacity="0" result="BackgroundImageFix"/>
<feBlend mode="normal" in="SourceGraphic" in2="BackgroundImageFix" result="shape"/>
<feGaussianBlur stdDeviation="4.95074" result="effect1_foregroundBlur_4953_1517"/>
</filter>
<filter id="filter9_f_4953_1517" x="1165.25" y="610.174" width="375.719" height="643.585" filterUnits="userSpaceOnUse" color-interpolation-filters="sRGB">
<feFlood flood-opacity="0" result="BackgroundImageFix"/>
<feBlend mode="normal" in="SourceGraphic" in2="BackgroundImageFix" result="shape"/>
<feGaussianBlur stdDeviation="9.90148" result="effect1_foregroundBlur_4953_1517"/>
</filter>
<linearGradient id="paint0_linear_4953_1517" x1="727.802" y1="1834.44" x2="777.318" y2="358.458" gradientUnits="userSpaceOnUse">
<stop stop-color="#FA8700"/>
<stop offset="0.9992" stop-color="#FF9A51"/>
</linearGradient>
<linearGradient id="paint1_linear_4953_1517" x1="952.461" y1="1759.63" x2="725.521" y2="707.979" gradientUnits="userSpaceOnUse">
<stop offset="0.00064103" stop-color="#F38B5C"/>
<stop offset="0.9927" stop-color="#E3E1AB" stop-opacity="0"/>
</linearGradient>
<radialGradient id="paint2_radial_4953_1517" cx="0" cy="0" r="1" gradientUnits="userSpaceOnUse" gradientTransform="translate(760.233 881.89) scale(758.156 752.582)">
<stop stop-color="#FFF4F2"/>
<stop offset="0.322917" stop-color="#FFD7A8" stop-opacity="0.81"/>
<stop offset="0.5625" stop-color="#FFA858" stop-opacity="0.88"/>
<stop offset="0.744792" stop-color="#BA9B7F"/>
<stop offset="1" stop-color="#E05F16"/>
</radialGradient>
<linearGradient id="paint3_linear_4953_1517" x1="1132.08" y1="1853.7" x2="638.328" y2="554.916" gradientUnits="userSpaceOnUse">
<stop stop-color="#A3550E"/>
<stop offset="0.177083" stop-color="#F8CF99" stop-opacity="0"/>
</linearGradient>
<linearGradient id="paint4_linear_4953_1517" x1="1085.01" y1="1138.53" x2="1207.28" y2="353.718" gradientUnits="userSpaceOnUse">
<stop stop-color="#FDAE74"/>
<stop offset="0.283588" stop-color="#FFD6AE"/>
<stop offset="1" stop-color="#FEFBF7"/>
</linearGradient>
<linearGradient id="paint5_linear_4953_1517" x1="1140.69" y1="1117.64" x2="1245.31" y2="349.437" gradientUnits="userSpaceOnUse">
<stop stop-color="#DC7435"/>
<stop offset="0.442708" stop-color="#E1A05A"/>
<stop offset="0.666667" stop-color="#F1A04E"/>
<stop offset="0.989583" stop-color="#F2CDAF"/>
</linearGradient>
<linearGradient id="paint6_linear_4953_1517" x1="1140.69" y1="1117.64" x2="1245.31" y2="349.437" gradientUnits="userSpaceOnUse">
<stop stop-color="#DC7435"/>
<stop offset="0.442708" stop-color="#E1A05A"/>
<stop offset="0.666667" stop-color="#F1A04E"/>
<stop offset="0.989583" stop-color="#F2CDAF"/>
</linearGradient>
<linearGradient id="paint7_linear_4953_1517" x1="1140.69" y1="1117.64" x2="1245.31" y2="349.437" gradientUnits="userSpaceOnUse">
<stop stop-color="#DC7435"/>
<stop offset="0.442708" stop-color="#E1A05A"/>
<stop offset="0.666667" stop-color="#F1A04E"/>
<stop offset="0.989583" stop-color="#F2CDAF"/>
</linearGradient>
<linearGradient id="paint8_linear_4953_1517" x1="1140.69" y1="1117.64" x2="1245.31" y2="349.437" gradientUnits="userSpaceOnUse">
<stop stop-color="#DC7435"/>
<stop offset="0.442708" stop-color="#E1A05A"/>
<stop offset="0.666667" stop-color="#F1A04E"/>
<stop offset="0.989583" stop-color="#F2CDAF"/>
</linearGradient>
<linearGradient id="paint9_linear_4953_1517" x1="1140.69" y1="1117.64" x2="1245.31" y2="349.437" gradientUnits="userSpaceOnUse">
<stop stop-color="#DC7435"/>
<stop offset="0.442708" stop-color="#E1A05A"/>
<stop offset="0.666667" stop-color="#F1A04E"/>
<stop offset="0.989583" stop-color="#F2CDAF"/>
</linearGradient>
<linearGradient id="paint10_linear_4953_1517" x1="1140.69" y1="1117.64" x2="1245.31" y2="349.437" gradientUnits="userSpaceOnUse">
<stop stop-color="#DC7435"/>
<stop offset="0.442708" stop-color="#E1A05A"/>
<stop offset="0.666667" stop-color="#F1A04E"/>
<stop offset="0.989583" stop-color="#F2CDAF"/>
</linearGradient>
</defs>
</svg>
