<svg width="169" height="51" viewBox="0 0 169 51" fill="none" xmlns="http://www.w3.org/2000/svg">
<path d="M130.426 26.0146V38.8301H137.634V41H127.891V26.0146H130.426ZM147.807 26.0146L153.285 41H150.632L149.021 36.6172H143.628C143.37 37.3405 143.102 38.071 142.822 38.8086C142.55 39.5462 142.285 40.2767 142.027 41H139.406L144.885 26.0146H147.807ZM146.324 29.1621L144.412 34.4902H148.226L146.324 29.1621ZM156.143 26.0146H162.212C162.914 26.0146 163.54 26.1149 164.092 26.3154C164.65 26.516 165.119 26.7881 165.499 27.1318C165.886 27.4684 166.179 27.8623 166.38 28.3135C166.588 28.7646 166.691 29.2445 166.691 29.7529C166.691 30.3831 166.548 30.9704 166.262 31.5146C165.982 32.0518 165.556 32.5352 164.983 32.9648C165.442 33.1582 165.832 33.391 166.154 33.6631C166.477 33.9281 166.738 34.2217 166.938 34.5439C167.146 34.859 167.297 35.1956 167.39 35.5537C167.49 35.9118 167.54 36.277 167.54 36.6494C167.54 37.251 167.411 37.8167 167.153 38.3467C166.896 38.8766 166.548 39.3385 166.111 39.7324C165.682 40.1191 165.184 40.4271 164.618 40.6562C164.052 40.8854 163.465 41 162.856 41H156.143V26.0146ZM158.678 31.9873H161.857C162.208 31.9873 162.531 31.9336 162.824 31.8262C163.125 31.7116 163.383 31.5612 163.598 31.375C163.812 31.1816 163.977 30.9596 164.092 30.709C164.214 30.4512 164.274 30.1826 164.274 29.9033C164.274 29.6455 164.231 29.4128 164.146 29.2051C164.06 28.9902 163.927 28.804 163.748 28.6465C163.576 28.4889 163.354 28.3672 163.082 28.2812C162.81 28.1953 162.491 28.1523 162.126 28.1523H158.678V31.9873ZM158.678 38.8301H162.223C162.545 38.8301 162.867 38.7871 163.189 38.7012C163.519 38.6152 163.812 38.4827 164.07 38.3037C164.335 38.1175 164.55 37.8848 164.715 37.6055C164.88 37.319 164.962 36.9753 164.962 36.5742C164.962 36.2448 164.887 35.9297 164.736 35.6289C164.586 35.3281 164.368 35.0667 164.081 34.8447C163.802 34.6227 163.458 34.4473 163.05 34.3184C162.642 34.1823 162.183 34.1143 161.675 34.1143H158.678V38.8301Z" fill="black"/>
<path d="M9.34238 3.08063C7.49709 3.58919 5.66433 4.14218 3.8457 4.73913C3.67963 4.79292 3.53202 4.89227 3.41966 5.02586C3.3073 5.15946 3.23473 5.32192 3.2102 5.49475C2.13682 13.5489 4.61682 19.4254 7.57539 23.2965C8.82801 24.9519 10.3216 26.4102 12.0064 27.6229C12.6768 28.0957 13.2697 28.4367 13.7366 28.6556C13.9691 28.7661 14.159 28.8397 14.3043 28.8843C14.3679 28.9065 14.4334 28.9228 14.5 28.9327C14.5658 28.922 14.6306 28.9058 14.6938 28.8843C14.841 28.8397 15.0309 28.7661 15.2634 28.6556C15.7284 28.4367 16.3232 28.0938 16.9936 27.6229C18.6784 26.4102 20.172 24.9519 21.4246 23.2965C24.3832 19.4273 26.8632 13.5489 25.7898 5.49475C25.7655 5.32184 25.693 5.15927 25.5806 5.02564C25.4682 4.89201 25.3205 4.79272 25.1543 4.73913C23.893 4.32644 21.7637 3.65412 19.6576 3.08256C17.507 2.49937 15.5288 2.06731 14.5 2.06731C13.4731 2.06731 11.493 2.49937 9.34238 3.08256V3.08063ZM8.82701 1.085C10.9292 0.513438 13.1631 0 14.5 0C15.8369 0 18.0708 0.513438 20.173 1.085C22.3236 1.66625 24.4917 2.35406 25.7666 2.77062C26.2996 2.94665 26.7722 3.26946 27.13 3.70198C27.4878 4.1345 27.7163 4.65918 27.7893 5.21575C28.9441 13.8899 26.2645 20.3186 23.0134 24.5714C21.6347 26.3906 19.9909 27.9927 18.1367 29.3241C17.4956 29.7848 16.8163 30.1899 16.1062 30.535C15.5637 30.7908 14.9805 31 14.5 31C14.0195 31 13.4383 30.7908 12.8938 30.535C12.1838 30.1899 11.5045 29.7848 10.8633 29.3241C9.00919 27.9927 7.36532 26.3906 5.98663 24.5714C2.73551 20.3186 0.055948 13.8899 1.2107 5.21575C1.28372 4.65918 1.51226 4.1345 1.87006 3.70198C2.22787 3.26946 2.70042 2.94665 3.23345 2.77062C5.08413 2.16382 6.9492 1.60178 8.82701 1.085Z" fill="black"/>
<path d="M8.03953 7.57357C8.03953 8.74817 8.03953 9.92278 8.03953 11.0974C8.03953 11.6523 7.93653 9.94433 7.62496 9.48518C7.29837 9.00388 6.66681 8.99199 6.56552 8.35664C6.49034 7.88508 6.45428 7.45756 6.17398 7.10719C5.99237 6.88016 5.55214 6.64829 5.55214 7.00355C5.55214 7.44521 5.65578 7.86327 5.65578 8.32209C5.65578 9.01639 5.49633 9.67912 5.44849 10.3489C5.38348 11.2591 5.24121 12.0985 5.24121 13.0263C5.24121 14.519 6.04985 15.7695 6.58855 17.1086C6.81989 17.6836 7.02907 18.2557 7.2104 18.8474C7.43275 19.573 7.96463 20.1465 8.34469 20.7878C8.94578 21.8022 9.09592 23.0336 9.89931 23.9374C10.2319 24.3115 10.791 24.4112 11.2351 24.6111C11.4973 24.729 12.0607 24.6829 12.2428 24.8702C12.8124 25.4561 12.476 26.3327 13.4289 26.3327C13.8588 26.3327 14.4615 26.4565 14.828 26.1714C15.3142 25.7933 15.8177 25.4193 16.2848 25.0371C16.6476 24.7402 17.1082 24.5765 17.4709 24.2541C17.8642 23.9045 18.2084 23.4678 18.5879 23.0967C20.6078 21.1218 22.3909 18.3547 23.0675 15.577C23.3387 14.4637 23.8745 13.2636 23.8967 12.1108C23.9123 11.2949 23.957 10.5257 24.127 9.72701C24.2477 9.1594 24.5145 8.5948 24.6164 8.0342C24.8283 6.86886 22.6359 5.76173 21.9044 5.31649C20.9568 4.73969 19.9413 4.57798 18.9219 4.25705C18.1926 4.02745 17.3075 3.73884 16.5381 3.73884C14.3477 3.73884 12.1398 3.56335 10.0202 4.21099C9.41791 4.39503 8.95357 4.73905 8.56925 5.23013C8.123 5.80034 8.25113 6.84261 8.19499 7.52751C8.04367 9.37363 8.51202 11.2152 8.91472 13.0032C9.37375 15.0413 9.576 17.2257 10.4002 19.1584C10.9896 20.5402 13.1068 23.4106 14.9029 22.7398C15.5071 22.5141 15.9389 21.8642 16.3424 21.3982C17.0488 20.5821 17.686 19.7719 18.1733 18.8014C18.7241 17.7046 19.2179 16.6034 19.8604 15.554C20.499 14.5109 21.2642 13.5239 21.7087 12.3756C22.158 11.2148 22.8446 9.14495 21.916 8.0342C20.4181 6.24263 17.2083 5.99674 15.0584 5.92683C14.401 5.90545 13.2398 5.74516 12.6919 6.24927C12.1127 6.78207 12.2879 8.27901 12.3234 8.94394C12.5086 12.4174 14.4871 15.7614 16.0314 18.7899C16.8777 20.4494 17.823 18.3004 18.1733 17.3619C18.6751 16.0178 19.0196 14.5923 19.1637 13.1644C19.2301 12.5066 19.4085 11.5667 18.7319 11.1607C17.8751 10.6467 16.8976 10.89 15.9681 10.7807C15.5924 10.7365 15.2513 10.4648 14.8799 10.3719" stroke="black" stroke-width="3" stroke-linecap="round"/>
<path d="M8.18519 6.27833C7.37319 6.27833 6.5612 6.27833 5.7492 6.27833C4.96683 6.27833 6.47147 6.07297 6.68313 5.99037C7.22773 5.77784 8.12416 5.02358 7.76492 4.39492C7.45152 3.84646 5.08413 5.89401 4.46506 5.50006C3.66958 4.99384 3.84245 5.74532 3.84245 6.35615C3.84245 7.2216 3.70236 8.06286 3.70236 8.92444C3.70236 9.81271 3.49188 10.7661 3.42996 11.6639C3.34256 12.9314 3.55226 14.0186 3.90471 15.2362C4.21022 16.2916 4.57123 17.7675 5.24333 18.6372C5.93183 19.5282 6.5088 20.3628 6.67534 21.4546C6.95325 23.2764 8.60228 24.2065 9.78842 25.3926C10.3648 25.969 11.0042 26.4112 11.5473 27.0114C11.8972 27.3981 12.3301 28.2379 12.9482 28.2722C14.1126 28.3369 15.2266 28.0593 15.8122 27.0114C16.1785 26.356 16.9 25.7212 17.431 25.1903C18.1917 24.4295 18.8708 23.6148 19.7347 22.9566C20.1289 22.6562 20.3622 22.3207 20.6453 21.9137C20.925 21.5116 21.2214 21.4837 20.8321 21.9916C19.8898 23.2206 18.6781 24.2317 17.7268 25.4549C17.4631 25.7938 17.3698 26.2541 17.0886 26.5756C16.7127 27.0052 17.6787 25.5979 17.9914 25.1202C18.7585 23.9483 19.7705 23.2501 20.6608 22.2484C22.0976 20.632 22.2844 18.2223 23.5249 16.5048C23.8187 16.098 24.1875 15.7016 24.4043 15.244C24.4989 15.0443 24.4976 14.684 24.5444 14.4657C24.6757 13.853 23.9491 15.5735 23.735 16.1623C23.3319 17.271 23.1596 18.4279 22.8322 19.5556C22.7017 20.0049 22.3994 20.5497 22.1629 20.9565C22.0665 21.1222 21.6031 21.7814 22.0384 21.2522C24.1003 18.7455 24.9958 15.915 24.9958 12.7535C24.9958 10.8318 24.7156 8.85427 24.7156 6.97877C24.7156 6.14999 24.9903 5.48957 24.0774 5.15762C23.251 4.85711 22.6174 4.43134 21.6959 4.24704C19.8468 3.87722 18.2682 2.80836 16.4582 2.35585C15.674 2.15981 14.8782 2.21576 14.0689 2.21576C12.3274 2.21576 11.1601 3.42266 10.5745 5.0331C9.46368 8.08777 10.1464 11.6061 10.1464 14.7692C10.1464 15.6931 10.3428 18.1416 9.07241 16.2713C7.97416 14.6544 7.14001 12.8191 6.39517 11.018C6.18831 10.5178 5.85058 9.00131 5.74142 9.53149C5.41053 11.1387 5.73015 13.42 6.22395 14.9794C6.27753 15.1486 6.35139 14.6427 6.36404 14.4657C6.37 14.3823 6.43935 14.1801 6.48856 14.2478C6.64177 14.4585 7.01545 15.3947 7.04891 15.4775C7.52994 16.6679 7.89544 17.9231 8.43423 19.0886C8.61049 19.4699 8.69859 19.4835 8.91676 19.1976C9.72324 18.1408 10.8522 21.1955 11.0648 21.6413C11.1307 21.7796 11.5224 22.851 11.7964 22.264C11.8173 22.2192 12.0415 21.4022 12.1077 21.4857C12.2601 21.6783 12.4489 23.2368 12.8392 23.0267C13.42 22.714 13.2702 23.2991 13.5397 23.7582C13.9535 24.4633 14.0689 24.6181 14.0689 25.5171C14.0689 25.7515 14.2149 26.3251 14.0066 26.2176C13.2486 25.8263 12.5729 25.0581 11.8742 24.5676C10.994 23.9498 10.0441 23.6933 9.35259 22.8866C8.35262 21.72 7.46356 20.4429 6.39517 19.3377C5.28296 18.1871 8.90412 21.3384 10.2709 22.1706C11.8735 23.1463 14.0511 24.1766 15.9679 24.3186C17.3056 24.4177 18.1002 23.0049 18.6295 21.9682C20.0165 19.252 20.961 16.3207 22.1006 13.5007C22.427 12.693 22.667 12.1671 22.2329 13.3372C22.1489 13.5637 21.0619 15.9732 21.6648 15.3919C22.4557 14.6292 23.4867 12.9695 21.9917 12.4656C20.0435 11.8089 16.298 11.6868 15.7733 14.3101C15.744 14.4564 15.7007 16.0749 16.287 15.8043C16.8773 15.5319 16.4441 13.8611 16.3259 13.4695C16.176 12.9734 15.5852 11.6143 14.8005 11.9753C14.0114 12.3382 13.9521 13.9785 14.1078 14.6681C14.6917 17.254 17.6818 13.8463 16.3881 12.5123C15.3068 11.3972 14.0897 16.7301 15.641 15.8043C17.7616 14.5388 16.8957 9.61421 13.9599 10.6055C11.6936 11.3708 14.0985 15.3188 15.353 12.9403C15.8485 12.001 15.7104 10.537 14.8627 9.83501C13.9584 9.08611 13.2091 9.8656 13.0494 10.8001C12.8908 11.7274 13.0141 13.8538 14.458 13.7108C15.8107 13.5769 16.6713 11.5825 16.5438 10.4031C16.362 8.72201 14.2984 9.40037 13.4385 10.0062C12.4159 10.7267 10.9581 12.6112 12.3022 13.7653C14.4218 15.5851 20.0867 12.7276 17.2598 10.6288C17.2232 10.6017 15.661 9.99021 15.9757 10.3798C16.5692 11.1147 18.0886 10.9183 18.8008 10.5588C19.5588 10.1762 20.4487 8.89042 19.5168 8.16952C18.5288 7.40525 17.6664 9.05135 17.4466 9.72606C17.1402 10.6665 16.9896 11.8808 17.3688 12.8313C17.8422 14.0182 18.757 13.2273 18.8008 12.3177C18.8596 11.0934 17.9364 9.87862 16.6527 9.8428C15.2819 9.80454 14.6705 11.2316 14.7071 12.3955C14.7401 13.4474 15.8442 14.1961 16.1547 12.7535C16.5132 11.0875 15.3569 9.08331 13.9132 8.28626C10.5662 6.43828 8.28262 13.3566 11.2827 13.9832C13.0996 14.3627 11.7035 11.1811 11.3761 10.8078C10.5943 9.91657 7.92312 7.88401 6.81543 9.48479C5.4968 11.3904 6.47035 14.4217 7.6404 16.1001C8.24851 16.9724 10.5078 19.5672 11.9209 18.6217C12.1033 18.4996 12.8155 16.7772 12.4657 16.8161C11.8893 16.8801 12.3975 18.9634 12.4968 19.1665C13.1457 20.4938 14.3387 19.7594 14.8005 18.7306C14.9076 18.4919 15.6891 15.2581 14.458 15.7421C13.2784 16.2059 13.395 18.51 13.7732 19.3844C14.4009 20.8357 15.9505 20.9258 16.7928 19.6178C17.3492 18.754 18.1229 16.4176 17.1353 15.5397C16.1588 14.6718 16.1026 17.1559 16.2014 17.4698C16.6157 18.7872 17.8992 19.0754 18.6451 17.8123C19.2068 16.8611 20.0606 14.051 18.972 13.1271C17.8525 12.1769 17.1618 15.4067 17.1508 15.8355C17.119 17.0755 18.0887 18.1287 19.0343 16.7538C19.7154 15.7635 20.3144 13.3556 19.3767 12.3177C18.6363 11.4983 17.8331 13.5428 17.7579 13.9365C17.4715 15.4355 18.9023 13.9061 19.0965 13.5474C19.4218 12.9464 20.4323 10.3314 19.0031 10.1385C17.7405 9.96812 16.6497 11.7547 16.3103 12.7068C15.9206 13.8 16.6138 14.2502 17.0419 13.0493C17.3519 12.1794 17.432 10.5961 16.2792 10.2786C15.4604 10.0532 15.1457 10.6282 14.6292 11.0413" stroke="black" stroke-width="3" stroke-linecap="round"/>
<path d="M11.4126 16.7578C11.4484 17.2734 11.5522 17.7461 11.7241 18.1758C11.9032 18.5983 12.1359 18.9635 12.4224 19.2715C12.7088 19.5794 13.0454 19.8193 13.4321 19.9912C13.8188 20.1559 14.245 20.2383 14.7104 20.2383C15.1187 20.2383 15.509 20.1953 15.8813 20.1094C16.2609 20.0234 16.5939 19.8838 16.8804 19.6904C17.1668 19.4971 17.396 19.2464 17.5679 18.9385C17.7397 18.6234 17.8257 18.2402 17.8257 17.7891C17.8257 17.3809 17.7004 17.0407 17.4497 16.7686C17.2062 16.4893 16.884 16.2458 16.4829 16.0381C16.0819 15.8304 15.6235 15.6442 15.1079 15.4795C14.5923 15.3148 14.0659 15.1429 13.5288 14.9639C12.9989 14.7848 12.4761 14.5843 11.9604 14.3623C11.4448 14.1331 10.9865 13.8574 10.5854 13.5352C10.1844 13.2057 9.85856 12.8118 9.60791 12.3535C9.36442 11.8952 9.24268 11.3438 9.24268 10.6992C9.24268 10.0404 9.37158 9.46029 9.62939 8.95898C9.88721 8.45052 10.2489 8.02441 10.7144 7.68066C11.187 7.33691 11.7456 7.0791 12.3901 6.90723C13.0418 6.72819 13.7544 6.63867 14.5278 6.63867C15.5591 6.63867 16.4149 6.78906 17.0952 7.08984C17.7827 7.39062 18.3341 7.78092 18.7495 8.26074C19.1649 8.7334 19.4657 9.25977 19.6519 9.83984C19.8381 10.4199 19.9491 10.9893 19.9849 11.5479H17.396C17.353 11.068 17.2492 10.6527 17.0845 10.3018C16.9269 9.95085 16.7192 9.66081 16.4614 9.43164C16.2036 9.20247 15.91 9.03418 15.5806 8.92676C15.2511 8.81217 14.9002 8.75488 14.5278 8.75488C14.1912 8.75488 13.8582 8.79069 13.5288 8.8623C13.1994 8.92676 12.9058 9.03776 12.6479 9.19531C12.3901 9.3457 12.1825 9.54622 12.0249 9.79688C11.8674 10.0404 11.7886 10.3411 11.7886 10.6992C11.7886 11.1146 11.9103 11.4655 12.1538 11.752C12.4045 12.0312 12.7303 12.2783 13.1313 12.4932C13.5324 12.7008 13.9907 12.8906 14.5063 13.0625C15.022 13.2272 15.5483 13.4027 16.0854 13.5889C16.6226 13.7679 17.1489 13.9684 17.6646 14.1904C18.1802 14.4124 18.6385 14.6846 19.0396 15.0068C19.4406 15.3291 19.7629 15.7158 20.0063 16.167C20.257 16.6182 20.3823 17.1589 20.3823 17.7891C20.3823 18.5553 20.2391 19.2249 19.9526 19.7979C19.6733 20.3708 19.2795 20.847 18.771 21.2266C18.2697 21.6061 17.6717 21.8926 16.9771 22.0859C16.2896 22.2793 15.534 22.376 14.7104 22.376C13.9728 22.376 13.2567 22.2471 12.562 21.9893C11.8674 21.7314 11.2443 21.359 10.6929 20.8721C10.1486 20.3851 9.70459 19.7979 9.36084 19.1104C9.02425 18.4157 8.84521 17.6315 8.82373 16.7578H11.4126Z" fill="white"/>
<path d="M44.3052 7.01465V9.15234H39.5679V22H37.0327V9.15234H32.2847V7.01465H44.3052ZM54.5425 7.01465L60.021 22H57.3677L55.7563 17.6172H50.3638C50.106 18.3405 49.8374 19.071 49.5581 19.8086C49.286 20.5462 49.021 21.2767 48.7632 22H46.1421L51.6206 7.01465H54.5425ZM53.0601 10.1621L51.1479 15.4902H54.9614L53.0601 10.1621ZM65.4351 7.01465V13.5781L71.9878 7.01465H75.2427L69.1733 13.0625L75.4038 22H72.3423L67.4438 14.8242L65.4351 16.79V22H62.8784V7.01465H65.4351ZM88.4126 7.01465V9.15234H80.3667V13.2021H87.9185V15.3506H80.3667V19.8301H88.7563V22H77.8315V7.01465H88.4126ZM99.9604 11.3008L96.856 22H94.4282L90.6255 7.01465H93.2681L95.7495 16.9619L98.8003 7.01465H101.11L104.139 16.8652L106.674 7.01465H109.295L105.471 22H103.065L99.9604 11.3008ZM124.818 14.4697C124.818 15.6299 124.664 16.6969 124.356 17.6709C124.048 18.6377 123.597 19.472 123.002 20.1738C122.415 20.8685 121.692 21.4092 120.833 21.7959C119.973 22.1826 118.988 22.376 117.878 22.376C116.768 22.376 115.784 22.1826 114.924 21.7959C114.072 21.402 113.349 20.8577 112.754 20.1631C112.167 19.4613 111.72 18.627 111.412 17.6602C111.111 16.6862 110.96 15.6191 110.96 14.459C110.96 13.2988 111.111 12.2389 111.412 11.2793C111.72 10.3197 112.167 9.49609 112.754 8.80859C113.349 8.12109 114.072 7.58757 114.924 7.20801C115.784 6.82845 116.768 6.63867 117.878 6.63867C118.988 6.63867 119.973 6.83203 120.833 7.21875C121.692 7.59831 122.415 8.13184 123.002 8.81934C123.597 9.50684 124.048 10.3304 124.356 11.29C124.664 12.2497 124.818 13.3096 124.818 14.4697ZM122.283 14.459C122.283 13.5495 122.168 12.7402 121.939 12.0312C121.71 11.3223 121.395 10.7279 120.994 10.248C120.6 9.76107 120.134 9.39225 119.597 9.1416C119.067 8.88379 118.494 8.75488 117.878 8.75488C117.255 8.75488 116.675 8.88379 116.138 9.1416C115.608 9.39225 115.146 9.76107 114.752 10.248C114.366 10.7279 114.058 11.3223 113.829 12.0312C113.607 12.7402 113.496 13.5495 113.496 14.459C113.496 15.3685 113.607 16.1813 113.829 16.8975C114.058 17.6136 114.366 18.2223 114.752 18.7236C115.146 19.2178 115.608 19.5973 116.138 19.8623C116.675 20.1201 117.255 20.249 117.878 20.249C118.494 20.249 119.067 20.1201 119.597 19.8623C120.134 19.5973 120.6 19.2178 120.994 18.7236C121.395 18.2223 121.71 17.6136 121.939 16.8975C122.168 16.1813 122.283 15.3685 122.283 14.459ZM130.339 7.01465V19.8301H137.547V22H127.804V7.01465H130.339ZM142.8 7.01465V19.8301H150.008V22H140.265V7.01465H142.8ZM163.307 7.01465V9.15234H155.261V13.2021H162.813V15.3506H155.261V19.8301H163.651V22H152.726V7.01465H163.307Z" fill="black"/>
</svg>
