<svg width="149" height="148" viewBox="0 0 149 148" fill="none" xmlns="http://www.w3.org/2000/svg">
<path d="M145.646 73.9834C145.47 34.6383 113.431 2.88581 74.0862 3.06217C34.7412 3.23853 2.98868 35.277 3.16504 74.622C3.3414 113.967 35.3798 145.72 74.7249 145.543C114.07 145.367 145.822 113.328 145.646 73.9834Z" fill="url(#paint0_radial_5023_2837)"/>
<path opacity="0.6" d="M4.99716 57.9899C14.2209 19.8581 52.5306 -3.80533 90.6803 4.73363C128.812 13.9574 152.476 52.267 143.937 90.4168C134.713 128.549 96.4032 152.212 58.2535 143.673C19.4369 134.431 -4.22658 96.1217 4.99716 57.9899Z" fill="url(#paint1_radial_5023_2837)"/>
<g filter="url(#filter0_f_5023_2837)">
<path d="M56.1058 66.1029C62.803 67.3653 70.3614 65.3548 74.0853 58.8356C75.1701 56.6214 76.6014 54.9983 77.3396 52.193C77.8318 50.3227 77.8543 48.3289 77.8769 46.3351C77.995 44.3386 77.4142 42.4871 76.7015 40.6629C76.6574 40.5502 76.8212 40.4697 76.8824 40.5741C75.2727 37.1509 74.2557 33.3837 71.4608 30.6484C69.1355 28.0368 65.9715 26.7042 62.6845 25.8392C52.9463 22.7767 42.6257 29.5597 40.165 38.9109C36.6194 50.4763 43.0581 64.1692 56.1058 66.1029Z" fill="white"/>
</g>
<g opacity="0.4" filter="url(#filter1_i_5023_2837)">
<path d="M39.3732 85.0152C37.3156 90.2237 39.141 98.3926 43.2403 101.785C44.3932 102.737 46.0105 103.225 47.4916 103.657C48.6766 104.009 49.8295 104.201 49.5252 105.761C49.237 107.265 47.964 107.049 46.9312 106.881C43.6726 106.361 40.9665 104.857 39.0209 102.137C34.6735 96.0643 33.8168 89.4316 35.7063 82.2949C35.9865 81.2468 35.9625 79.9507 35.6182 78.9266C32.2315 68.7175 34.1931 59.5726 41.1986 51.5798C45.7863 46.3472 54.8014 44.379 60.7421 48.4354C61.0944 48.6755 61.9751 48.5634 62.3434 48.2754C64.4731 46.5952 66.6028 44.8911 68.5643 43.0109C69.1248 42.4748 69.3249 41.3387 69.3089 40.4826C69.2288 35.8661 69.0607 31.2257 70.8861 26.8572C71.4786 25.4411 72.3993 24.0729 73.4562 22.9528C75.2576 21.0726 78.7564 20.4325 80.83 21.5527C83.2559 22.8648 84.2567 25.257 83.9445 27.7773C83.6563 30.0815 82.8396 32.4498 81.7267 34.498C80.6299 36.5142 79.0206 38.3464 77.3232 39.9146C75.9061 41.2187 75.746 42.4908 75.9622 44.227C76.6427 49.6116 77.4353 54.9961 77.6995 60.4047C78.0598 67.6214 76.4345 74.4701 72.3833 80.5747C68.7084 86.1193 63.2401 88.7116 56.835 89.5997C52.1193 90.2557 47.4836 90.1757 43.2242 87.6555C41.9272 86.8954 40.7423 85.9593 39.3732 85.0152ZM59.9895 54.9001C57.5076 57.2923 55.1937 59.4366 52.984 61.6768C48.3083 66.4213 44.0889 71.4858 41.3908 77.6944C40.4941 79.7506 40.8063 81.0708 42.3996 82.4629C47.6758 87.0634 53.5764 86.6154 59.5011 84.3751C65.0816 82.2629 67.5235 77.3824 69.3249 72.0859C71.6788 65.1651 70.9182 58.1244 70.3017 51.0757C70.1896 49.7796 70.0295 48.4834 69.8373 46.7313C67.8277 48.3954 66.1144 49.7476 64.5051 51.2117C64.2409 51.4517 64.345 52.2198 64.4571 52.7079C64.7613 54.052 65.3778 55.3641 65.4819 56.7163C66.0823 64.9411 61.3026 70.5497 55.0416 71.2458C52.5276 71.5258 51.4948 70.6617 51.3106 68.0534C57.9399 66.2933 61.903 60.5647 59.9895 54.9001ZM38.5245 74.6541C43.6566 65.8692 50.1497 58.3164 58.3322 51.6438C57.1152 51.1717 56.2906 50.6597 55.4179 50.5396C51.9111 50.0756 48.5885 50.6437 45.7783 52.9399C38.8288 58.6125 37.4357 66.2053 38.5245 74.6541ZM75.0655 37.1463C77.9477 34.394 79.541 31.5057 80.1895 28.0813C80.4057 26.9452 80.4777 25.6731 79.0926 25.217C77.6515 24.745 76.6107 25.5451 76.0743 26.8332C74.7532 29.9855 74.7692 33.2899 75.0655 37.1463Z" fill="url(#paint2_linear_5023_2837)"/>
</g>
<defs>
<filter id="filter0_f_5023_2837" x="21.8779" y="7.77144" width="73.338" height="76.0114" filterUnits="userSpaceOnUse" color-interpolation-filters="sRGB">
<feFlood flood-opacity="0" result="BackgroundImageFix"/>
<feBlend mode="normal" in="SourceGraphic" in2="BackgroundImageFix" result="shape"/>
<feGaussianBlur stdDeviation="8.66164" result="effect1_foregroundBlur_5023_2837"/>
</filter>
<filter id="filter1_i_5023_2837" x="34" y="21" width="50" height="86.6684" filterUnits="userSpaceOnUse" color-interpolation-filters="sRGB">
<feFlood flood-opacity="0" result="BackgroundImageFix"/>
<feBlend mode="normal" in="SourceGraphic" in2="BackgroundImageFix" result="shape"/>
<feColorMatrix in="SourceAlpha" type="matrix" values="0 0 0 0 0 0 0 0 0 0 0 0 0 0 0 0 0 0 127 0" result="hardAlpha"/>
<feOffset dy="0.668432"/>
<feGaussianBlur stdDeviation="0.668432"/>
<feComposite in2="hardAlpha" operator="arithmetic" k2="-1" k3="1"/>
<feColorMatrix type="matrix" values="0 0 0 0 0.178351 0 0 0 0 0.160417 0 0 0 0 0.366667 0 0 0 1 0"/>
<feBlend mode="normal" in2="shape" result="effect1_innerShadow_5023_2837"/>
</filter>
<radialGradient id="paint0_radial_5023_2837" cx="0" cy="0" r="1" gradientUnits="userSpaceOnUse" gradientTransform="translate(39.1338 47.272) rotate(-2.32401) scale(155.367 128.962)">
<stop offset="0.0001" stop-color="#E8EFFF"/>
<stop offset="0.317708" stop-color="#ECEBF1"/>
<stop offset="0.484375" stop-color="#D8E0F4"/>
<stop offset="0.635417" stop-color="#BFC8DB"/>
<stop offset="1" stop-color="#BCC1CB"/>
</radialGradient>
<radialGradient id="paint1_radial_5023_2837" cx="0" cy="0" r="1" gradientUnits="userSpaceOnUse" gradientTransform="translate(75.9905 58.1902) rotate(-166.836) scale(98.6176)">
<stop offset="0.5433" stop-color="white" stop-opacity="0"/>
<stop offset="1" stop-color="white"/>
</radialGradient>
<linearGradient id="paint2_linear_5023_2837" x1="95.3639" y1="66.4229" x2="67.3618" y2="20.9827" gradientUnits="userSpaceOnUse">
<stop stop-color="#8C97B1"/>
<stop offset="0.713542" stop-color="#9091C5"/>
</linearGradient>
</defs>
</svg>
